<svg width="60" height="60" viewBox="0 0 60 60" fill="none" xmlns="http://www.w3.org/2000/svg">
<path d="M29.8219 58.2046C45.3549 58.2046 57.9469 52.6221 57.9469 45.7358C57.9469 38.8495 45.3549 33.2671 29.8219 33.2671C14.2889 33.2671 1.6969 38.8495 1.6969 45.7358C1.6969 52.6221 14.2889 58.2046 29.8219 58.2046Z" fill="url(#paint0_radial_101_4426)"/>
<g opacity="0.2">
<path d="M29.8219 34.6733C37.1438 34.6733 44.0016 35.9296 49.1391 38.203C53.8406 40.289 56.5406 43.0312 56.5406 45.7312C56.5406 48.4312 53.8453 51.178 49.1391 53.2593C44.0016 55.5374 37.1438 56.789 29.8219 56.789C22.5 56.789 15.6422 55.5327 10.5047 53.2593C5.80315 51.1733 3.10315 48.4312 3.10315 45.7312C3.10315 43.0312 5.79846 40.2843 10.5047 38.203C15.6422 35.9296 22.5047 34.6733 29.8219 34.6733ZM29.8219 33.2671C14.2875 33.2671 1.6969 38.8499 1.6969 45.7358C1.6969 52.6218 14.2875 58.2046 29.8219 58.2046C45.3563 58.2046 57.9469 52.6218 57.9469 45.7358C57.9469 38.8499 45.3563 33.2671 29.8219 33.2671Z" fill="#424242"/>
</g>
<path d="M30.3516 52.9687C42.8764 52.9687 53.0297 49.4807 53.0297 45.1781C53.0297 40.8754 42.8764 37.3875 30.3516 37.3875C17.8268 37.3875 7.67346 40.8754 7.67346 45.1781C7.67346 49.4807 17.8268 52.9687 30.3516 52.9687Z" fill="#BFBFBF"/>
<path d="M16.1392 47.9391C13.1111 46.9875 9.61418 45.9329 7.10637 43.425C6.79231 42.9516 6.52512 42.4829 6.34231 41.9954C6.21106 44.6297 6.56731 45.3047 8.02512 46.5188C9.52981 47.775 8.69543 48.6938 12.2064 49.6969C15.7173 50.7 18.3095 52.2047 24.0798 52.4579C29.8501 52.711 34.2798 54.1032 39.3845 52.2047C44.5689 50.2829 48.4173 49.6969 50.4236 48.1922C52.0642 46.9594 54.3986 42.8813 53.597 40.7297C45.3329 52.0922 28.1204 51.7032 16.1392 47.9391Z" fill="url(#paint1_linear_101_4426)"/>
<path d="M16.1392 47.9392C28.1673 52.3923 52.2657 51.0142 53.597 40.7298C53.4188 40.2517 53.1235 39.8298 52.6829 39.4923C50.2595 37.6548 35.372 32.386 25.172 33.0517C14.972 33.7173 12.797 35.3954 8.86416 37.7345C8.86416 37.7345 6.52041 38.9063 6.35635 41.747C6.35166 41.8313 6.34697 41.9064 6.34229 41.9907C6.5251 42.4782 7.20947 43.3688 7.52353 43.8376C10.036 46.3501 13.1298 46.936 16.1392 47.9392Z" fill="url(#paint2_linear_101_4426)"/>
<path d="M11.0392 28.7858C10.5376 28.9546 9.28135 32.714 11.9579 34.3874C14.6345 36.0608 17.311 37.064 19.9032 37.8983C22.4954 38.7327 22.4954 39.5718 27.4314 39.403C32.3673 39.2343 32.7001 39.989 35.2923 39.9046C37.8845 39.8202 40.2282 39.9046 42.3985 38.4843C44.5735 37.064 45.661 37.1483 47.7517 35.7233C49.8423 34.303 51.0985 33.9655 51.4314 31.7108C51.7642 29.4515 53.2689 25.1858 51.347 23.264C49.4251 21.3421 38.6345 18.5812 29.9392 18.9983C21.2439 19.4155 15.4689 23.5218 13.7157 24.689C11.9579 25.8608 11.0392 28.7858 11.0392 28.7858Z" fill="#FFEEBF"/>
<path d="M51.2626 33.0329C46.7485 38.8735 38.2173 40.8235 30.6891 39.8485C30.1876 39.8485 28.6829 40.336 28.1813 40.336C22.4298 40.336 16.0969 39.422 11.0391 36.6329C9.55319 35.8126 8.16101 34.786 7.12038 33.4595C6.62819 32.836 6.22038 32.147 5.92507 31.411C5.60163 30.6095 5.59226 29.7142 5.25007 28.936C5.40007 29.2735 5.17507 30.1313 5.19851 30.5298C5.23132 31.1485 5.32507 31.7673 5.47507 32.372C5.73757 33.4079 5.73757 35.8079 6.40788 36.6657C8.43288 39.2626 11.9907 41.3345 15.0329 42.3563C17.4563 43.1673 22.4579 44.1095 28.0594 44.1892C33.661 44.2688 38.2594 44.5173 40.9032 43.7298C46.7766 41.986 50.5501 38.9298 51.6376 37.3079C52.7251 35.686 52.5985 34.0079 52.3501 32.1423C52.3407 32.086 52.3313 32.0298 52.3173 31.9642C51.9844 32.2548 51.661 32.6438 51.2626 33.0329Z" fill="url(#paint3_linear_101_4426)"/>
<path d="M39.3048 22.078C29.9391 21.4312 18.3141 19.8046 8.44695 26.0531C8.28757 26.1515 6.15476 27.1171 5.37195 28.9124C5.88757 37.889 20.0954 41.878 27.8766 41.3437C37.2329 40.7015 45.3282 43.3359 51.2626 33.0327C51.661 32.6437 51.9844 32.2593 52.3173 31.964C51.8954 29.8406 48.3985 22.7062 39.3048 22.078Z" fill="url(#paint4_linear_101_4426)"/>
<path d="M23.6673 32.386C25.6735 32.386 27.6798 31.8845 29.686 32.386C38.2266 33.286 49.5798 32.1657 53.2969 23.9861C52.9876 23.1236 52.3313 22.2798 50.986 21.3423C48.0329 19.2892 46.4298 18.6001 44.6579 17.4892C43.0829 16.5001 41.1001 16.0079 39.3329 15.5251C37.1438 14.9298 34.7813 14.3345 32.4985 14.3954C29.5735 14.4704 26.6532 14.2314 23.7094 14.6673C20.6438 15.122 17.6438 16.0173 14.8313 17.3298C12.8626 18.2532 10.8563 19.2142 9.12664 20.5689C8.32976 21.197 7.81882 22.2142 7.62195 23.3673C10.2469 29.7142 17.6063 31.9173 23.6673 32.386Z" fill="url(#paint5_linear_101_4426)"/>
<path d="M29.686 32.3859C27.6798 31.8844 22.411 31.8844 20.4048 31.8844C14.3438 31.4203 10.247 29.7188 7.62665 23.3672C7.34072 25.0219 7.69697 26.9484 8.79384 28.3641C10.6501 30.7594 16.0501 33.8438 18.7501 34.4438C21.4501 35.0438 23.372 35.1469 27.8485 35.1469C32.3251 35.1469 35.7142 35.7281 37.3173 35.7281C38.9204 35.7281 40.2704 35.1281 43.1392 34.6172C46.0079 34.1016 46.0079 34.3594 48.6235 33.1594C51.2392 31.9594 53.2642 29.6484 53.4329 27.3375C53.5267 26.0766 53.6626 25.0219 53.2923 23.9859C49.5798 32.1609 38.2267 33.2812 29.686 32.3859Z" fill="url(#paint6_linear_101_4426)"/>
<path opacity="0.73" d="M17.5501 20.7985C16.922 21.1079 16.1907 21.0892 15.4876 21.0892C13.9501 21.0892 12.3611 21.2345 10.9923 21.9517C9.62355 22.6689 8.5173 24.0704 8.52199 25.6314C8.52667 27.1923 9.94699 28.7157 11.4704 28.4767C12.1782 28.3642 12.7829 27.9282 13.3923 27.5485C15.9845 25.936 19.2001 25.2142 22.1345 26.0298C25.0689 26.8454 27.5907 29.3485 28.0501 32.3954C28.247 33.7032 28.1298 35.1845 29.0017 36.1689C29.986 37.2751 31.7017 37.1579 33.1548 36.9517C34.0032 36.8298 35.0861 36.4595 35.0767 35.5876C35.072 34.8751 34.3032 34.4439 33.961 33.8204C33.3985 32.7798 34.2048 31.4298 35.2829 30.9611C36.361 30.4923 37.5798 30.6329 38.747 30.6892C43.397 30.9001 48.1032 29.5454 51.9564 26.8923C52.9032 26.236 53.8829 25.3548 53.9251 24.1923C53.9579 23.2829 53.3814 22.4532 52.6735 21.8907C51.9657 21.3282 51.1314 20.9673 50.3579 20.4985C48.8298 19.5704 47.5736 18.2298 46.0407 17.3017C44.222 16.2001 42.1032 15.7407 40.0173 15.3939C35.8454 14.7048 31.6079 14.4189 27.3798 14.536C25.2329 14.597 23.0861 14.7564 20.9579 15.0235C19.861 15.1595 16.8189 15.2907 16.5892 16.8751C16.4017 18.1501 20.2735 19.4626 17.5501 20.7985Z" fill="url(#paint7_radial_101_4426)"/>
<path opacity="0.78" d="M28.1392 42.4782C28.3923 42.9938 28.9923 43.2563 29.5689 43.3501C30.3517 43.4766 31.1533 43.3782 31.9501 43.3735C32.747 43.3688 33.5861 43.486 34.2095 43.9782C34.8329 44.4657 35.1283 45.4266 34.6642 46.0688C34.2986 46.5704 33.6283 46.7204 33.0423 46.936C32.4564 47.1516 31.8236 47.5876 31.8564 48.2063C31.8845 48.8672 32.6392 49.2422 33.2954 49.3501C33.9564 49.4626 34.6548 49.4579 35.2501 49.7626C35.8454 50.0672 36.272 50.8454 35.9064 51.3985C35.5829 51.8907 34.8798 51.9141 34.2892 51.8907C33.3798 51.8485 32.4704 51.811 31.5611 51.7688C31.0595 51.7454 30.5439 51.7266 30.0704 51.886C29.597 52.0454 29.1658 52.4297 29.1048 52.9219C29.0392 53.4516 29.4283 53.9579 29.9064 54.2016C30.3892 54.4454 30.947 54.4829 31.4861 54.511C36.9564 54.7782 42.6095 54.1829 47.4751 51.6985C47.897 51.4829 48.3236 51.2485 48.6236 50.8876C48.9236 50.5266 49.0876 50.0157 48.9142 49.5797C48.5814 48.736 47.3861 48.7313 46.4861 48.9094C44.0251 49.3922 41.6111 50.1141 39.2954 51.0704C38.8689 51.2438 38.4283 51.4313 37.9689 51.4266C37.5048 51.4219 37.0126 51.1688 36.8861 50.7282C36.7548 50.2688 37.0829 49.7766 37.5048 49.5469C37.9267 49.3172 38.4283 49.2751 38.9064 49.2141C39.8673 49.0969 40.8142 48.8907 41.7376 48.5954C42.2111 48.4454 42.7126 48.2391 42.9376 47.8032C43.2986 47.1047 42.6658 46.2235 41.897 46.0172C41.1283 45.811 40.322 46.0641 39.5626 46.3032C38.8033 46.5422 37.9829 46.7672 37.2283 46.5188C36.4923 46.2751 35.9486 45.5579 35.9111 44.7938C35.8736 44.0297 36.3517 43.2657 37.0595 42.9563C37.8423 42.6141 38.747 42.8157 39.6001 42.7547C40.4533 42.6938 41.4423 42.1079 41.3298 41.2688C41.2642 40.7907 40.847 40.4204 40.3829 40.2704C39.9189 40.1157 39.422 40.1391 38.9345 40.1672C36.7642 40.2938 34.5986 40.4766 32.4376 40.7204C31.5704 40.8047 27.2579 40.6922 28.1392 42.4782Z" fill="url(#paint8_linear_101_4426)"/>
<path d="M23.8313 13.9031C22.8329 14.2031 21.8485 14.9015 20.9579 15.4781C19.4157 18.9656 23.1282 22.0921 25.9407 24.3515C28.1298 24.6 30.3798 25.5468 32.5688 25.5468C33.5017 25.5468 34.111 25.5328 35.0204 25.0406C35.8454 24.5953 36.1313 23.7093 36.6798 23.2453C33.422 22.0546 29.6251 21.7968 26.6813 19.8328C24.9142 18.9562 22.3735 16.5234 23.8313 13.9031Z" fill="#FDE9D2"/>
<path d="M23.8876 13.7578C23.8313 13.8469 23.7516 13.9031 23.7516 13.9031C22.2938 16.5234 24.8719 18.9562 26.6391 19.8375C29.5829 21.8016 33.4032 22.0594 36.661 23.25C36.7126 23.2031 36.7829 23.1656 36.8485 23.1375C34.3594 21.7078 31.5985 20.6578 28.6876 19.3359C26.386 17.8078 24.5673 16.0969 23.8876 13.7578Z" fill="#EED4B5"/>
<path d="M38.5126 17.7515C38.4938 17.7515 38.475 17.7515 38.4563 17.7515C38.475 17.7608 38.4891 17.7702 38.5079 17.7749C38.5079 17.7702 38.5079 17.7608 38.5126 17.7515Z" fill="#FBE2C5"/>
<path d="M38.5032 17.7797C38.4891 17.7656 38.4704 17.7609 38.4563 17.7516C36.7173 17.7281 34.9126 17.7563 33.2016 17.3297C30.1923 16.8281 26.1751 13.8187 28.186 10.3031C28.5376 9.24375 29.8923 8.18438 31.5376 7.82813C31.7344 7.72969 31.9407 7.64531 32.1563 7.57031C25.2469 7.98281 24.0751 12.1125 23.8876 13.7297C23.9298 13.9172 24.2954 16.7109 28.6876 19.3313C31.6032 20.6578 34.3735 21.7031 36.8626 23.1328C36.8626 23.1328 36.8673 23.1328 36.8673 23.1281C37.1157 23.0391 37.3876 23.0859 37.6454 23.1375C37.9032 23.1937 38.1704 23.2547 38.4282 23.1891C38.8735 23.0766 39.136 22.6172 39.3423 22.2047C39.7313 21.4359 40.5235 20.4422 40.5657 19.575C40.5798 19.2797 40.5235 19.0406 40.4251 18.8484C39.8298 18.4641 39.1923 18.1125 38.536 17.7797C38.5219 17.7891 38.5126 17.7844 38.5032 17.7797Z" fill="#FDE9D2"/>
<path d="M38.5312 17.7937C39.1875 18.1265 39.8203 18.4781 40.4203 18.8625C40.0828 18.2203 39.225 18.0468 38.5312 17.7937Z" fill="#FBE2C5"/>
<path d="M29.6859 9.8062C29.6859 9.18276 30.4641 8.36245 31.5328 7.83276C29.8875 8.18901 28.5328 9.2437 28.1813 10.3078C26.175 13.8187 30.1875 16.8328 33.1969 17.3343C34.9078 17.7609 36.7125 17.7328 38.4516 17.7562C34.5656 15.7875 30.0703 14.4093 29.6859 9.8062Z" fill="#D9C1A5"/>
<path d="M39.136 14.9906C38.8829 13.0687 33.6188 12.2297 31.2751 10.9781C29.3157 9.92812 31.6267 8.24063 32.4329 7.71094C32.1235 7.725 31.8235 7.77187 31.5329 7.83281C30.4642 8.3625 29.686 9.18281 29.686 9.80625C30.0704 14.4141 34.5657 15.7875 38.4517 17.7516C38.4704 17.7516 38.4892 17.7516 38.5079 17.7516C38.8501 16.7953 39.272 16.0312 39.136 14.9906Z" fill="#FDDCB9"/>
<path d="M25.9406 24.3563C23.1281 22.0923 19.4156 18.9704 20.9578 15.4829C20.8734 15.5392 20.7844 15.5954 20.7 15.6517C19.7437 18.2017 20.1187 21.0517 21.4641 23.2454C22.7719 24.0001 24.2062 24.1829 25.7719 24.3376C25.8281 24.3376 25.8844 24.3517 25.9406 24.3563Z" fill="#D9C1A5"/>
<path d="M20.7 15.647C20.6954 15.6517 20.6907 15.6517 20.686 15.6563C19.3313 16.5142 18.5016 18.2063 18.8016 19.8048C19.0032 20.8688 19.636 21.8204 20.4516 22.5329C20.7797 22.8188 21.1172 23.0485 21.4594 23.2454C20.1188 21.047 19.7438 18.197 20.7 15.647Z" fill="#FDF2E6"/>
<g opacity="0.2">
<path d="M29.1375 9.56245C29.1094 9.7312 29.1 9.89526 29.1047 10.064C29.1281 10.575 29.3531 11.5359 30.6141 12.2109C31.5047 12.689 32.6578 13.0734 33.8766 13.4812C35.0203 13.8656 37.3828 14.6578 37.7485 15.2109C37.7531 15.2718 37.7531 15.3421 37.7531 15.4265C37.7344 16.0781 38.161 16.6546 38.7891 16.8281L38.8781 16.8515L38.9625 16.875L39.3469 16.9781C40.9594 17.414 42.6281 17.864 43.9078 18.6703C44.5641 19.0828 45.1875 19.4296 45.8485 19.8046C47.011 20.4562 48.3281 21.1968 50.1844 22.4906C51.4828 23.3953 51.825 24.0421 51.9703 24.45C52.1953 25.0875 52.1391 25.8468 52.0641 26.8125L52.0313 27.2343C51.9703 28.0546 51.5485 28.964 50.8406 29.7937C50.4985 30.1968 50.4094 30.7593 50.611 31.2468C50.836 31.7859 50.9156 32.1187 50.9391 32.2359C50.9438 32.2687 50.9531 32.2968 50.9531 32.325C51.1828 34.0171 51.2813 35.3109 50.4656 36.5203C50.3016 36.764 50.0297 37.0734 49.6969 37.4015C49.3641 37.725 49.2141 38.1937 49.2985 38.6484C49.3828 39.1031 49.6781 39.4921 50.1 39.6843C51.2485 40.2046 51.6938 40.5046 51.8297 40.6078C52.036 40.7671 52.1813 40.9593 52.275 41.2171C52.7578 42.5015 50.9907 45.9984 49.575 47.0578C48.5485 47.8265 46.7063 48.3843 44.3813 49.0828C42.7735 49.5656 40.9453 50.114 38.8922 50.8781C37.2516 51.4875 35.5641 51.7687 33.5766 51.7687C32.025 51.7687 30.4313 51.6 28.7438 51.4265C27.286 51.2718 25.7766 51.1171 24.1406 51.0421C20.0672 50.864 17.7375 50.0578 15.2719 49.2046C14.4188 48.9093 13.5328 48.6046 12.5906 48.3328C10.7531 47.8078 10.5235 47.4468 10.1766 46.9031C9.92815 46.514 9.59065 45.9843 8.92502 45.4265C8.68127 45.225 8.47971 45.0562 8.31565 44.8875C8.34377 44.8687 8.3719 44.8453 8.39533 44.8218C8.9344 44.3531 9.03752 43.5562 8.6344 42.9703C8.5594 42.8578 8.46565 42.7312 8.3719 42.5906C8.17971 42.314 7.92658 41.9578 7.76252 41.6859C7.8469 40.7812 8.24065 40.0078 8.93908 39.389C9.23908 39.1218 9.40783 38.7421 9.40783 38.339C9.40783 37.9359 9.2344 37.5562 8.93908 37.289C8.37658 36.7875 7.89846 36.2859 7.51408 35.7937C7.29846 35.4796 7.14846 34.1906 7.07346 33.5671C7.00783 32.9906 6.94221 32.4468 6.8344 32.0156C6.70315 31.5 6.62346 30.9703 6.59533 30.4593C6.59533 30.4125 6.6094 30.3046 6.61877 30.2062C6.78283 29.9437 6.86252 29.6203 6.82033 29.2921L6.81096 29.2078C6.81096 29.1984 6.80627 29.1843 6.80627 29.175C7.14377 28.6218 7.74377 28.0734 8.52658 27.6C8.70002 27.4968 8.84533 27.3609 8.95783 27.2015C9.17346 27.1828 9.3844 27.1171 9.5719 27L9.67971 26.9343C10.0172 26.7328 10.2516 26.3953 10.3313 26.0109C10.411 25.6265 10.3219 25.2234 10.0922 24.9046C9.68908 24.3468 9.36096 23.789 9.08908 23.2078C9.26721 22.5328 9.58596 21.9843 9.99377 21.6656C11.6672 20.3531 13.7531 19.3781 15.4266 18.5953C17.475 17.6343 19.6547 16.9031 21.9 16.4156C22.0688 16.3781 22.2281 16.3125 22.3688 16.2187C22.9594 15.8343 23.5875 15.45 24.1594 15.2625C24.4078 15.1828 24.6281 15.0328 24.7969 14.8312C25.1063 14.564 25.2938 14.1703 25.2891 13.7531C25.6266 11.3765 27.375 10.1718 29.1375 9.56245ZM32.1563 7.57495C25.2469 7.98745 24.075 12.1171 23.8875 13.7343C23.8875 13.7437 23.8922 13.7625 23.8969 13.7765C23.8969 13.7671 23.8922 13.7625 23.8875 13.7531C23.8313 13.8421 23.7516 13.8984 23.7516 13.8984C23.7469 13.9078 23.7422 13.9218 23.7375 13.9312C23.011 14.1703 22.2938 14.6062 21.6141 15.0468C19.2844 15.5531 17.0063 16.3125 14.8406 17.325C12.8719 18.2484 10.8656 19.2093 9.13596 20.564C8.33908 21.1921 7.82815 22.2093 7.63127 23.3625C7.99221 24.2343 8.4469 25.0171 8.96721 25.739C8.92971 25.7625 8.89221 25.7859 8.85471 25.8093C8.41877 25.0781 8.00627 24.2765 7.63127 23.3671C7.46252 24.3421 7.52346 25.4015 7.81877 26.4046C7.08283 26.8453 5.91565 27.6796 5.37658 28.9125C5.38596 29.1046 5.41408 29.2875 5.43752 29.475C5.38596 29.2921 5.32971 29.1093 5.25471 28.9359C5.40471 29.2734 5.17971 30.1312 5.20315 30.5296C5.23596 31.1484 5.32971 31.7671 5.47971 32.3718C5.74221 33.4078 5.74221 35.8078 6.41252 36.6656C6.8719 37.2562 7.42033 37.8234 8.01565 38.3531C7.32658 38.9671 6.46408 40.064 6.36096 41.7515C6.35627 41.8359 6.35158 41.9109 6.3469 41.9953C6.21565 44.6296 6.5719 45.3046 8.02971 46.5187C9.5344 47.775 8.70002 48.6937 12.211 49.6968C15.7219 50.7 18.3141 52.2046 24.0844 52.4578C27.5953 52.6124 30.6094 53.1843 33.586 53.1843C35.4985 53.1843 37.3922 52.9453 39.3891 52.2046C44.5735 50.2828 48.4219 49.6968 50.4282 48.1921C52.0688 46.9593 54.4031 42.8812 53.6016 40.7296C53.4235 40.2515 53.1281 39.8296 52.6875 39.4921C52.3078 39.2015 51.6188 38.8312 50.6906 38.4093C51.1078 38.0015 51.4266 37.6265 51.6422 37.3078C52.7297 35.6859 52.6031 34.0078 52.3547 32.1421C52.3453 32.0859 52.336 32.0296 52.3219 31.964C52.2563 31.6453 52.125 31.214 51.9141 30.7078C52.7906 29.6812 53.3531 28.5093 53.4375 27.3375C53.5313 26.0765 53.6672 25.0218 53.2969 23.9859C52.9875 23.1234 52.3313 22.2796 50.986 21.3421C48.0328 19.289 46.4297 18.6 44.6578 17.489C43.0828 16.5 41.1 16.0078 39.3328 15.525C39.2766 15.5109 39.2156 15.4921 39.1547 15.4781C39.1594 15.3187 39.1547 15.1593 39.136 14.9906C38.8828 13.0687 33.6188 12.2296 31.275 10.9781C29.3156 9.92808 31.6266 8.24058 32.4328 7.71089C32.1235 7.72495 31.8235 7.77183 31.5328 7.83276C31.7344 7.73433 31.9406 7.64995 32.1563 7.57495ZM7.48127 43.7718C7.35471 43.6593 7.23283 43.5421 7.11096 43.4203C6.84377 43.0171 6.62346 42.614 6.44533 42.2062C6.69377 42.6843 7.19533 43.3546 7.48127 43.7718Z" fill="#424242"/>
</g>
<defs>
<radialGradient id="paint0_radial_101_4426" cx="0" cy="0" r="1" gradientUnits="userSpaceOnUse" gradientTransform="translate(29.8241 45.7351) scale(21.7537 21.7537)">
<stop stop-color="white"/>
<stop offset="0.4795" stop-color="#FAFAFA"/>
<stop offset="1" stop-color="#EDEDED"/>
</radialGradient>
<linearGradient id="paint1_linear_101_4426" x1="6.31817" y1="46.9554" x2="53.7618" y2="46.9554" gradientUnits="userSpaceOnUse">
<stop stop-color="#E3C386"/>
<stop offset="0.1473" stop-color="#EACE94"/>
<stop offset="0.4648" stop-color="#F5E1AC"/>
<stop offset="0.7576" stop-color="#FDEDBB"/>
<stop offset="1" stop-color="#FFF1C0"/>
</linearGradient>
<linearGradient id="paint2_linear_101_4426" x1="6.34379" y1="41.6674" x2="53.5975" y2="41.6674" gradientUnits="userSpaceOnUse">
<stop stop-color="#A5551B"/>
<stop offset="1" stop-color="#E7971C"/>
</linearGradient>
<linearGradient id="paint3_linear_101_4426" x1="5.19471" y1="36.6114" x2="52.521" y2="36.6114" gradientUnits="userSpaceOnUse">
<stop stop-color="#FFF1C0"/>
<stop offset="0.2424" stop-color="#FDEDBB"/>
<stop offset="0.5352" stop-color="#F5E1AC"/>
<stop offset="0.8527" stop-color="#EACE94"/>
<stop offset="1" stop-color="#E3C386"/>
</linearGradient>
<linearGradient id="paint4_linear_101_4426" x1="5.37073" y1="31.3937" x2="52.3187" y2="31.3937" gradientUnits="userSpaceOnUse">
<stop stop-color="#E7971C"/>
<stop offset="1" stop-color="#A5551B"/>
</linearGradient>
<linearGradient id="paint5_linear_101_4426" x1="7.62476" y1="23.518" x2="53.2971" y2="23.518" gradientUnits="userSpaceOnUse">
<stop stop-color="#E7971C"/>
<stop offset="1" stop-color="#A5551B"/>
</linearGradient>
<linearGradient id="paint6_linear_101_4426" x1="7.53004" y1="29.5469" x2="53.5391" y2="29.5469" gradientUnits="userSpaceOnUse">
<stop stop-color="#FFF1C0"/>
<stop offset="0.2424" stop-color="#FDEDBB"/>
<stop offset="0.5352" stop-color="#F5E1AC"/>
<stop offset="0.8527" stop-color="#EACE94"/>
<stop offset="1" stop-color="#E3C386"/>
</linearGradient>
<radialGradient id="paint7_radial_101_4426" cx="0" cy="0" r="1" gradientUnits="userSpaceOnUse" gradientTransform="translate(37.4975 21.7757) scale(17.9275 17.9275)">
<stop offset="0.133" stop-color="#C95202"/>
<stop offset="0.1536" stop-color="#C75102"/>
<stop offset="0.4248" stop-color="#B44902"/>
<stop offset="0.6992" stop-color="#A84502"/>
<stop offset="0.9803" stop-color="#A44302"/>
</radialGradient>
<linearGradient id="paint8_linear_101_4426" x1="31.858" y1="55.4267" x2="41.5585" y2="41.796" gradientUnits="userSpaceOnUse">
<stop stop-color="#EE8B3F"/>
<stop offset="0.0642" stop-color="#E38036"/>
<stop offset="0.249" stop-color="#C7651F"/>
<stop offset="0.4359" stop-color="#B4520F"/>
<stop offset="0.6246" stop-color="#A84705"/>
<stop offset="0.8178" stop-color="#A44302"/>
</linearGradient>
</defs>
</svg>
