<svg width="60" height="60" viewBox="0 0 60 60" fill="none" xmlns="http://www.w3.org/2000/svg">
<g clip-path="url(#clip0_101_3253)">
<path d="M49.6681 52.288H11.6527C10.141 52.288 8.85211 51.198 8.60546 49.7062L7.49158 43.4048H53.8293L52.7154 49.7062C52.4648 51.194 51.1758 52.288 49.6681 52.288Z" fill="#161D21"/>
<path d="M50.6467 46.2733H10.6741C8.91576 46.2733 7.49158 44.8491 7.49158 43.0908V9.30021C7.49158 7.54186 8.91576 6.11768 10.6741 6.11768H50.6467C52.4051 6.11768 53.8293 7.54186 53.8293 9.30021V43.0948C53.8293 44.8491 52.4051 46.2733 50.6467 46.2733Z" fill="url(#paint0_linear_101_3253)"/>
<path d="M21.6937 25.3082H12.9297C11.613 25.3082 10.5428 24.238 10.5428 22.9213V10.6088C10.5428 9.29205 11.613 8.22192 12.9297 8.22192H21.6937C23.0104 8.22192 24.0806 9.29205 24.0806 10.6088V22.9213C24.0806 24.238 23.0104 25.3082 21.6937 25.3082Z" fill="#E53A35"/>
<g opacity="0.2">
<path d="M50.5194 7.47019C51.6612 7.47019 52.5881 8.39711 52.5881 9.53884V43.0788C52.5881 43.1544 52.5801 43.2419 52.5682 43.3572C52.5563 43.4328 52.5563 43.5124 52.5602 43.588L51.4941 49.6189C51.3469 50.514 50.5791 51.1624 49.6721 51.1624H11.6527C10.7457 51.1624 9.97793 50.514 9.82676 49.607L8.76061 43.588C8.76459 43.5124 8.76061 43.4328 8.75266 43.3572C8.73674 43.2459 8.73277 43.1583 8.73277 43.0788V9.53884C8.73277 8.39711 9.65968 7.47019 10.8014 7.47019H50.5194ZM50.5194 6.229H10.8014C8.97543 6.229 7.49158 7.70888 7.49158 9.53884V43.0788C7.49158 43.2299 7.50351 43.3732 7.5234 43.5204H7.49158L8.60546 49.8218C8.85211 51.3096 10.141 52.4036 11.6527 52.4036H49.6681C51.1798 52.4036 52.4687 51.3136 52.7154 49.8218L53.8293 43.5204H53.7975C53.8173 43.3771 53.8293 43.2299 53.8293 43.0788V9.53884C53.8293 7.70888 52.3454 6.229 50.5194 6.229Z" fill="#EEEEEE"/>
</g>
<path d="M10.4314 41.0616V31.4902C10.4314 30.1734 11.5015 29.1033 12.8183 29.1033H32.7768C34.0935 29.1033 35.1637 30.1734 35.1637 31.4902V41.0577C35.1637 42.3744 34.0935 43.4446 32.7768 43.4446H12.8183C11.4975 43.4485 10.4314 42.3784 10.4314 41.0616Z" fill="#E53A35"/>
<path d="M38.3303 40.8509V31.7011C38.3303 30.3843 39.4004 29.3142 40.7172 29.3142H48.3911C49.7079 29.3142 50.778 30.3843 50.778 31.7011V40.8509C50.778 42.1677 49.7079 43.2378 48.3911 43.2378H40.7172C39.4004 43.2378 38.3303 42.1716 38.3303 40.8509Z" fill="#E53A35"/>
<path d="M48.7731 25.511H29.1885C27.8718 25.511 26.8016 24.4409 26.8016 23.1241V10.6088C26.8016 9.29205 27.8718 8.22192 29.1885 8.22192H48.7731C50.0898 8.22192 51.16 9.29205 51.16 10.6088V23.1281C51.16 24.4449 50.0898 25.511 48.7731 25.511Z" fill="#E53A35"/>
<path d="M43.8401 30.4956H43.4622V30.8855H43.8401V30.4956Z" fill="#A16541"/>
<mask id="mask0_101_3253" style="mask-type:luminance" maskUnits="userSpaceOnUse" x="10" y="27" width="26" height="18">
<path d="M10.4315 41.7618V30.7304C10.4315 28.98 11.8637 27.5479 13.6141 27.5479H32.7769C34.0937 27.5479 35.1638 28.618 35.1638 29.9348V41.7658C35.1638 43.0826 34.0937 44.1527 32.7769 44.1527H12.8184C11.4977 44.1487 10.4315 43.0826 10.4315 41.7618Z" fill="white"/>
</mask>
<g mask="url(#mask0_101_3253)">
<path d="M36.5164 45.1433H8.64929L9.01528 38.082C9.35741 33.6344 13.1526 30.0183 17.5803 29.4653C18.9846 29.2903 20.6395 29.1829 22.5848 29.1829C24.5301 29.1829 26.1851 29.2903 27.5894 29.4653C32.0131 30.0183 35.8122 33.6344 36.1543 38.082L36.5164 45.1433Z" fill="url(#paint1_radial_101_3253)"/>
</g>
<mask id="mask1_101_3253" style="mask-type:luminance" maskUnits="userSpaceOnUse" x="10" y="27" width="26" height="18">
<path d="M10.4315 41.7618V30.7304C10.4315 28.98 11.8637 27.5479 13.6141 27.5479H32.7769C34.0937 27.5479 35.1638 28.618 35.1638 29.9348V41.7658C35.1638 43.0826 34.0937 44.1527 32.7769 44.1527H12.8184C11.4977 44.1487 10.4315 43.0826 10.4315 41.7618Z" fill="white"/>
</mask>
<g mask="url(#mask1_101_3253)">
<path d="M35.6491 45.4537C36.5938 45.4537 37.3597 44.6878 37.3597 43.7431C37.3597 42.7983 36.5938 42.0325 35.6491 42.0325C34.7043 42.0325 33.9385 42.7983 33.9385 43.7431C33.9385 44.6878 34.7043 45.4537 35.6491 45.4537Z" fill="url(#paint2_radial_101_3253)"/>
<path d="M36.1543 39.3831C36.6039 39.0728 36.8983 38.5596 36.8983 37.9708C36.8983 37.4536 36.6675 36.9922 36.3015 36.6779C36.039 36.4551 35.9435 36.0931 36.0032 35.755C36.0191 35.6595 36.027 35.564 36.027 35.4646C36.027 34.5178 35.2592 33.7539 34.3164 33.7539C34.3085 33.7539 34.3045 33.7539 34.2965 33.7579C34.3124 33.6585 34.3284 33.559 34.3284 33.4556C34.3284 32.5088 33.5606 31.745 32.6177 31.745C32.6177 30.7982 31.85 30.0344 30.9071 30.0344C30.8355 30.0344 30.7679 30.0383 30.7003 30.0463C30.3621 30.0901 30.0399 29.919 29.8251 29.6564C29.5148 29.2745 29.0414 29.0279 28.5083 29.0279C28.2656 29.0279 28.0389 29.0796 27.832 29.1711C27.5774 29.2865 27.2671 29.2387 27.0602 29.0518C26.7579 28.7812 26.3641 28.6142 25.9225 28.6142C25.6281 28.6142 25.3536 28.6897 25.1149 28.821C24.8643 28.9603 24.5381 28.9284 24.3352 28.7255C24.0289 28.4192 23.6072 28.2283 23.1378 28.2283C22.7917 28.2283 22.4734 28.3317 22.2029 28.5107C21.9443 28.6818 21.6221 28.6818 21.3635 28.5107C21.097 28.3317 20.7747 28.2283 20.4286 28.2283C19.9274 28.2283 19.4779 28.4431 19.1676 28.7852C18.9527 29.0239 18.6027 29.0955 18.2963 29C18.1412 28.9523 17.9741 28.9244 17.7991 28.9244C17.4052 28.9244 17.0432 29.0597 16.7568 29.2825C16.4465 29.5252 16.0606 29.6564 15.6747 29.5729C15.5633 29.549 15.444 29.5371 15.3246 29.5371C14.4892 29.5371 13.797 30.1338 13.6459 30.9255C13.5743 30.9175 13.5026 30.9056 13.431 30.9056C12.5399 30.9056 11.8199 31.5858 11.7363 32.4531C11.7324 32.4531 11.7244 32.4531 11.7204 32.4531C10.7736 32.4531 10.0098 33.2209 10.0098 34.1637C10.0098 34.1796 10.0098 34.1915 10.0098 34.2075C10.0178 34.5178 9.8666 34.8002 9.60802 34.9713C9.14655 35.2776 8.84023 35.7987 8.84023 36.3915C8.84023 36.7296 8.94366 37.0439 9.11075 37.3104C8.82432 37.6167 8.6453 38.0265 8.6453 38.48C8.6453 38.9813 8.8641 39.4308 9.2102 39.7451C8.8641 40.0593 8.64132 40.5089 8.64132 41.0141C8.64132 41.575 8.91582 42.0683 9.33352 42.3826C8.84023 42.7526 8.54585 43.3771 8.66917 44.0654C8.78851 44.7337 9.31761 45.2827 9.98594 45.4219C11.0919 45.6526 12.0625 44.8133 12.0625 43.7471C12.0625 43.1862 11.7881 42.6929 11.3703 42.3786C11.7881 42.0683 12.0625 41.571 12.0625 41.0101C12.0625 40.5089 11.8437 40.0593 11.4976 39.7451C11.8437 39.4308 12.0665 38.9813 12.0665 38.476C12.0665 38.1379 11.9631 37.8236 11.796 37.5571C12.0824 37.2508 12.2615 36.841 12.2615 36.3875C12.2615 36.1846 12.2217 35.9897 12.154 35.8107C12.8343 35.6316 13.3435 35.0469 13.4151 34.3268C13.4191 34.3268 13.4271 34.3268 13.431 34.3268C14.2665 34.3268 14.9587 33.7301 15.1098 32.9384C15.1814 32.9464 15.253 32.9583 15.3246 32.9583C15.981 32.9583 16.5459 32.5844 16.8324 32.0433C17.1069 32.2343 17.441 32.3457 17.7991 32.3457C18.5151 32.3457 19.1238 31.9081 19.3824 31.2835C19.6728 31.5103 20.0348 31.6495 20.4286 31.6495C20.9816 31.6495 21.4709 31.383 21.7812 30.9732C22.0955 31.379 22.5808 31.6495 23.1338 31.6495C23.635 31.6495 24.0806 31.4307 24.3949 31.0886C24.6773 31.6495 25.2502 32.0354 25.9185 32.0354C26.3482 32.0354 26.738 31.8723 27.0364 31.6097C27.3347 32.111 27.8758 32.4531 28.5043 32.4531C28.7828 32.4531 29.0453 32.3815 29.2761 32.2621C29.4949 32.9543 30.1354 33.4596 30.8992 33.4596C30.8992 34.4064 31.667 35.1702 32.6098 35.1702C32.6177 35.1702 32.6217 35.1702 32.6297 35.1662C32.6138 35.2657 32.5979 35.3651 32.5979 35.4685C32.5979 36.2085 33.0713 36.833 33.7277 37.0717C33.5645 37.3343 33.4651 37.6406 33.4651 37.9708C33.4651 38.7386 33.9743 39.3791 34.6665 39.5979C34.1414 39.9559 33.8271 40.6004 33.9465 41.3085C34.0618 41.9848 34.5949 42.5417 35.2632 42.681C36.3692 42.9117 37.3438 42.0723 37.3438 41.0101C37.3597 40.2423 36.8505 39.6019 36.1543 39.3831Z" fill="url(#paint3_radial_101_3253)"/>
</g>
<mask id="mask2_101_3253" style="mask-type:luminance" maskUnits="userSpaceOnUse" x="10" y="27" width="26" height="18">
<path d="M10.4315 41.7618V30.7304C10.4315 28.98 11.8637 27.5479 13.6141 27.5479H32.7769C34.0937 27.5479 35.1638 28.618 35.1638 29.9348V41.7658C35.1638 43.0826 34.0937 44.1527 32.7769 44.1527H12.8184C11.4977 44.1487 10.4315 43.0826 10.4315 41.7618Z" fill="white"/>
</mask>
<g mask="url(#mask2_101_3253)">
<path d="M22.3421 34.5935C23.4802 34.5935 24.4028 33.8383 24.4028 32.9067C24.4028 31.9752 23.4802 31.22 22.3421 31.22C21.204 31.22 20.2814 31.9752 20.2814 32.9067C20.2814 33.8383 21.204 34.5935 22.3421 34.5935Z" fill="#B0BEC5"/>
</g>
<mask id="mask3_101_3253" style="mask-type:luminance" maskUnits="userSpaceOnUse" x="10" y="27" width="26" height="18">
<path d="M10.4315 41.7618V30.7304C10.4315 28.98 11.8637 27.5479 13.6141 27.5479H32.7769C34.0937 27.5479 35.1638 28.618 35.1638 29.9348V41.7658C35.1638 43.0826 34.0937 44.1527 32.7769 44.1527H12.8184C11.4977 44.1487 10.4315 43.0826 10.4315 41.7618Z" fill="white"/>
</mask>
<g mask="url(#mask3_101_3253)">
<path d="M22.3421 33.8852C23.4802 33.8852 24.4028 33.13 24.4028 32.1985C24.4028 31.2669 23.4802 30.5117 22.3421 30.5117C21.204 30.5117 20.2814 31.2669 20.2814 32.1985C20.2814 33.13 21.204 33.8852 22.3421 33.8852Z" fill="url(#paint4_radial_101_3253)"/>
</g>
<mask id="mask4_101_3253" style="mask-type:luminance" maskUnits="userSpaceOnUse" x="1" y="17" width="21" height="27">
<path d="M15.4117 43.3495L4.51812 41.6109C2.78961 41.3351 1.60107 39.6951 1.87693 37.9666L4.897 19.0433C5.10452 17.743 6.32992 16.8549 7.63024 17.0624L19.3134 18.927C20.6137 19.1345 21.5018 20.3599 21.2943 21.6602L18.1489 41.3692C17.9368 42.6729 16.7159 43.5577 15.4117 43.3495Z" fill="white"/>
</mask>
<g mask="url(#mask4_101_3253)">
<path opacity="0.2" d="M15.0394 39.8254C15.0907 39.5042 14.601 39.1592 13.9458 39.0546C13.2906 38.95 12.7179 39.1256 12.6666 39.4467C12.6154 39.7678 13.105 40.1128 13.7602 40.2174C14.4155 40.322 14.9882 40.1465 15.0394 39.8254Z" fill="#B0BEC5"/>
</g>
<mask id="mask5_101_3253" style="mask-type:luminance" maskUnits="userSpaceOnUse" x="2" y="21" width="20" height="27">
<path d="M15.7149 47.9581L4.82134 46.2196C3.09283 45.9437 1.90429 44.3038 2.18016 42.5753L5.20022 23.652C5.40774 22.3516 6.63315 21.4636 7.93346 21.6711L19.6166 23.5357C20.917 23.7432 21.8051 24.9686 21.5975 26.2689L18.4521 45.9779C18.24 47.2815 17.0192 48.1663 15.7149 47.9581Z" fill="white"/>
</mask>
<g mask="url(#mask5_101_3253)">
<path opacity="0.2" d="M17.6307 41.911C17.682 41.5899 17.3084 41.2634 16.7964 41.1817C16.2844 41.1 15.8278 41.294 15.7765 41.6151C15.7253 41.9362 16.0988 42.2628 16.6108 42.3445C17.1229 42.4262 17.5795 42.2322 17.6307 41.911Z" fill="#B0BEC5"/>
</g>
<mask id="mask6_101_3253" style="mask-type:luminance" maskUnits="userSpaceOnUse" x="5" y="17" width="29" height="26">
<path d="M12.4457 41.4758L6.45336 32.2138C5.50255 30.7442 5.92703 28.7638 7.39667 27.813L23.4858 17.4037C24.5913 16.6885 26.0711 17.0057 26.7864 18.1112L33.213 28.0446C33.9283 29.1502 33.6111 30.6299 32.5056 31.3452L15.7484 42.1866C14.6374 42.9007 13.1631 42.5847 12.4457 41.4758Z" fill="white"/>
</mask>
<g mask="url(#mask6_101_3253)">
<path opacity="0.2" d="M11.2735 38.7045C11.8306 38.344 12.139 37.8305 11.9623 37.5575C11.7857 37.2845 11.1909 37.3554 10.6338 37.7158C10.0767 38.0762 9.76831 38.5897 9.94494 38.8627C10.1216 39.1358 10.7164 39.0649 11.2735 38.7045Z" fill="#B0BEC5"/>
</g>
<mask id="mask7_101_3253" style="mask-type:luminance" maskUnits="userSpaceOnUse" x="-2" y="14" width="25" height="29">
<path d="M10.6968 42.1864L0.776238 37.3613C-0.797891 36.5957 -1.4594 34.6813 -0.693775 33.1072L7.68805 15.874C8.26401 14.6899 9.69445 14.1956 10.8786 14.7715L21.5183 19.9464C22.7025 20.5224 23.1968 21.9528 22.6208 23.137L13.891 41.0857C13.3097 42.2717 11.8846 42.7641 10.6968 42.1864Z" fill="white"/>
</mask>
<g mask="url(#mask7_101_3253)">
<path opacity="0.2" d="M11.8038 42.2027C11.946 41.9103 11.6577 41.4769 11.1598 41.2348C10.6619 40.9926 10.1429 41.0333 10.0007 41.3257C9.85846 41.6182 10.1468 42.0515 10.6447 42.2937C11.1426 42.5359 11.6616 42.4952 11.8038 42.2027Z" fill="#90A4AE"/>
</g>
<mask id="mask8_101_3253" style="mask-type:luminance" maskUnits="userSpaceOnUse" x="4" y="19" width="28" height="26">
<path d="M10.1085 43.6893L4.57627 34.1449C3.69844 32.6304 4.21931 30.6731 5.73375 29.7953L22.3134 20.1852C23.4527 19.5248 24.9153 19.914 25.5756 21.0533L31.5089 31.2895C32.1693 32.4288 31.7801 33.8913 30.6408 34.5517L13.3727 44.5609C12.228 45.2198 10.7709 44.832 10.1085 43.6893Z" fill="white"/>
</mask>
<g mask="url(#mask8_101_3253)">
<path opacity="0.2" d="M14.148 43.8359C14.627 43.5582 14.8831 43.1051 14.7201 42.8237C14.557 42.5424 14.0365 42.5394 13.5574 42.8171C13.0784 43.0947 12.8223 43.5479 12.9853 43.8292C13.1484 44.1106 13.6689 44.1135 14.148 43.8359Z" fill="#90A4AE"/>
</g>
<mask id="mask9_101_3253" style="mask-type:luminance" maskUnits="userSpaceOnUse" x="9" y="27" width="27" height="21">
<path d="M10.9636 45.4377L9.22508 34.5441C8.94922 32.8156 10.1377 31.1757 11.8663 30.8998L30.7896 27.8797C32.0899 27.6722 33.3153 28.5603 33.5228 29.8606L35.3874 41.5438C35.5949 42.8441 34.7068 44.0695 33.4065 44.277L13.6975 47.4225C12.3926 47.6267 11.1718 46.7419 10.9636 45.4377Z" fill="white"/>
</mask>
<g mask="url(#mask9_101_3253)">
<path opacity="0.2" d="M33.9718 40.827C34.627 40.7224 35.1167 40.3773 35.0654 40.0562C35.0142 39.7351 34.4415 39.5596 33.7862 39.6642C33.131 39.7687 32.6414 40.1138 32.6926 40.4349C32.7439 40.756 33.3166 40.9316 33.9718 40.827Z" fill="#B0BEC5"/>
</g>
<mask id="mask10_101_3253" style="mask-type:luminance" maskUnits="userSpaceOnUse" x="8" y="27" width="28" height="20">
<path d="M10.6627 44.7016L8.92417 33.808C8.64831 32.0795 9.83685 30.4396 11.5654 30.1637L30.4887 27.1437C31.789 26.9361 33.0144 27.8242 33.2219 29.1245L35.0865 40.8077C35.294 42.108 34.4059 43.3334 33.1056 43.541L13.3966 46.6864C12.0917 46.8906 10.8709 46.0058 10.6627 44.7016Z" fill="white"/>
</mask>
<g mask="url(#mask10_101_3253)">
<path opacity="0.2" d="M29.1824 42.3585C29.8376 42.2539 30.3272 41.9088 30.276 41.5877C30.2247 41.2666 29.652 41.0911 28.9968 41.1957C28.3416 41.3002 27.852 41.6453 27.9032 41.9664C27.9545 42.2875 28.5272 42.4631 29.1824 42.3585Z" fill="#B0BEC5"/>
</g>
<mask id="mask11_101_3253" style="mask-type:luminance" maskUnits="userSpaceOnUse" x="14" y="31" width="26" height="29">
<path d="M25.317 59.5506L16.055 53.5583C14.5854 52.6075 14.1609 50.6272 15.1117 49.1575L25.5209 33.0684C26.2362 31.9629 27.716 31.6457 28.8215 32.3609L38.7549 38.7876C39.8605 39.5028 40.1777 40.9826 39.4624 42.0882L28.621 58.8453C27.9002 59.9521 26.4259 60.2681 25.317 59.5506Z" fill="white"/>
</mask>
<g mask="url(#mask11_101_3253)">
<path opacity="0.2" d="M35.23 37.63C35.4067 37.357 35.0983 36.8435 34.5412 36.483C33.9841 36.1226 33.3893 36.0518 33.2126 36.3248C33.036 36.5978 33.3444 37.1113 33.9015 37.4717C34.4586 37.8321 35.0534 37.903 35.23 37.63Z" fill="#B0BEC5"/>
</g>
<mask id="mask12_101_3253" style="mask-type:luminance" maskUnits="userSpaceOnUse" x="9" y="34" width="25" height="29">
<path d="M20.1747 61.8009L10.6302 56.2686C9.1158 55.3908 8.59493 53.4335 9.47275 51.9191L19.0829 35.3394C19.7433 34.2001 21.2058 33.8109 22.3451 34.4713L32.5813 40.4046C33.7206 41.0649 34.1098 42.5275 33.4494 43.6667L23.4403 60.9348C22.7745 62.0755 21.3174 62.4633 20.1747 61.8009Z" fill="white"/>
</mask>
<g mask="url(#mask12_101_3253)">
<path opacity="0.2" d="M33.5605 43.8323C33.7236 43.551 33.4674 43.0978 32.9884 42.8201C32.5094 42.5425 31.9889 42.5454 31.8258 42.8268C31.6627 43.1081 31.9188 43.5613 32.3979 43.8389C32.8769 44.1166 33.3974 44.1136 33.5605 43.8323Z" fill="#90A4AE"/>
</g>
<mask id="mask13_101_3253" style="mask-type:luminance" maskUnits="userSpaceOnUse" x="3" y="26" width="21" height="27">
<path d="M16.8951 52.874L6.10412 50.5849C4.39189 50.2217 3.28814 48.5236 3.65134 46.8114L7.62763 28.0663C7.90086 26.7783 9.16971 25.9535 10.4578 26.2267L22.0309 28.6817C23.319 28.9549 24.1437 30.2238 23.8705 31.5118L19.7291 51.0352C19.4512 52.3263 18.1871 53.148 16.8951 52.874Z" fill="white"/>
</mask>
<g mask="url(#mask13_101_3253)">
<path opacity="0.2" d="M21.5033 43.5347C21.5707 43.2166 21.1864 42.8656 20.6448 42.7507C20.1032 42.6358 19.6094 42.8006 19.542 43.1186C19.4745 43.4367 19.8588 43.7877 20.4004 43.9026C20.942 44.0175 21.4358 43.8528 21.5033 43.5347Z" fill="#B0BEC5"/>
</g>
<mask id="mask14_101_3253" style="mask-type:luminance" maskUnits="userSpaceOnUse" x="9" y="27" width="27" height="18">
<path d="M10.4989 42.4568L9.90101 31.4419C9.80614 29.6942 11.1585 28.1865 12.9063 28.0917L32.0404 27.053C33.3552 26.9817 34.4817 27.9922 34.5531 29.307L35.1943 41.1203C35.2657 42.4351 34.2552 43.5616 32.9404 43.633L13.0118 44.7148C11.6928 44.7824 10.5705 43.7756 10.4989 42.4568Z" fill="white"/>
</mask>
<g mask="url(#mask14_101_3253)">
<path opacity="0.2" d="M23.354 41.4842C24.0933 41.4441 24.6783 41.1483 24.6607 40.8237C24.6431 40.499 24.0295 40.2683 23.2902 40.3084C22.5509 40.3486 21.9658 40.6443 21.9834 40.969C22.0011 41.2937 22.6147 41.5243 23.354 41.4842Z" fill="#B0BEC5"/>
</g>
<mask id="mask15_101_3253" style="mask-type:luminance" maskUnits="userSpaceOnUse" x="7" y="23" width="28" height="25">
<path d="M11.9444 45.5828L7.5318 35.4725C6.83165 33.8682 7.57135 31.9828 9.17558 31.2827L26.7383 23.6175C27.9451 23.0908 29.354 23.6435 29.8807 24.8503L34.6131 35.6935C35.1398 36.9003 34.5871 38.3092 33.3803 38.8359L15.0883 46.8193C13.8763 47.3439 12.4727 46.7933 11.9444 45.5828Z" fill="white"/>
</mask>
<g mask="url(#mask15_101_3253)">
<path opacity="0.2" d="M20.5762 40.5871C21.0836 40.3657 21.3896 39.9446 21.2595 39.6465C21.1294 39.3485 20.6126 39.2865 20.1052 39.5079C19.5978 39.7294 19.2918 40.1505 19.4219 40.4485C19.552 40.7466 20.0688 40.8086 20.5762 40.5871Z" fill="#B0BEC5"/>
</g>
<mask id="mask16_101_3253" style="mask-type:luminance" maskUnits="userSpaceOnUse" x="5" y="18" width="24" height="29">
<path d="M17.8659 46.144L7.61656 42.0635C5.99027 41.416 5.18942 39.5556 5.83689 37.9293L12.9252 20.1251C13.4123 18.9017 14.8024 18.3033 16.0258 18.7904L27.0181 23.1667C28.2415 23.6538 28.8399 25.0439 28.3528 26.2673L20.9702 44.8107C20.4779 46.0363 19.093 46.6325 17.8659 46.144Z" fill="white"/>
</mask>
<g mask="url(#mask16_101_3253)">
<path opacity="0.2" d="M18.31 38.8443C18.4303 38.5422 18.1108 38.1312 17.5964 37.9264C17.082 37.7216 16.5674 37.8005 16.4472 38.1026C16.3269 38.4047 16.6464 38.8157 17.1608 39.0205C17.6752 39.2253 18.1897 39.1464 18.31 38.8443Z" fill="#B0BEC5"/>
</g>
<mask id="mask17_101_3253" style="mask-type:luminance" maskUnits="userSpaceOnUse" x="6" y="15" width="21" height="28">
<path d="M19.7248 42.0137L8.86543 40.0732C7.14234 39.7653 5.98446 38.1036 6.29235 36.3805L9.66309 17.5166C9.89472 16.2204 11.1364 15.3552 12.4326 15.5868L24.0791 17.6679C25.3754 17.8995 26.2406 19.1412 26.0089 20.4374L22.4982 40.0846C22.262 41.384 21.025 42.246 19.7248 42.0137Z" fill="white"/>
</mask>
<g mask="url(#mask17_101_3253)">
<path opacity="0.2" d="M15.8068 36.4402C15.9042 35.8952 15.7237 35.407 15.4036 35.3498C15.0835 35.2926 14.745 35.6881 14.6477 36.2331C14.5503 36.7781 14.7308 37.2663 15.0509 37.3235C15.371 37.3807 15.7094 36.9853 15.8068 36.4402Z" fill="#D0D8DC"/>
</g>
<mask id="mask18_101_3253" style="mask-type:luminance" maskUnits="userSpaceOnUse" x="10" y="21" width="20" height="28">
<path d="M23.8762 48.1413L12.9705 46.4777C11.24 46.2138 10.0402 44.582 10.3041 42.8515L13.1939 23.9072C13.3925 22.6054 14.6118 21.7089 15.9135 21.9074L27.6097 23.6915C28.9115 23.8901 29.808 25.1094 29.6095 26.4112L26.5997 46.1421C26.3966 47.4472 25.1819 48.3404 23.8762 48.1413Z" fill="white"/>
</mask>
<g mask="url(#mask18_101_3253)">
<path opacity="0.2" d="M21.859 37.2777C21.908 36.9562 21.5041 36.6279 20.9567 36.5444C20.4094 36.4609 19.9259 36.6539 19.8769 36.9753C19.8278 37.2968 20.2318 37.6251 20.7792 37.7085C21.3265 37.792 21.81 37.5991 21.859 37.2777Z" fill="#D0D8DC"/>
</g>
<mask id="mask19_101_3253" style="mask-type:luminance" maskUnits="userSpaceOnUse" x="10" y="27" width="29" height="26">
<path d="M16.6341 51.5165L10.8934 42.0967C9.98247 40.6021 10.4601 38.6339 11.9547 37.723L28.3179 27.7506C29.4423 27.0654 30.913 27.4223 31.5982 28.5467L37.7551 38.6492C38.4404 39.7736 38.0835 41.2443 36.9591 41.9295L19.9165 52.3159C18.7867 52.9998 17.3215 52.6443 16.6341 51.5165Z" fill="white"/>
</mask>
<g mask="url(#mask19_101_3253)">
<path opacity="0.2" d="M31.2117 36.0917C31.6845 35.8036 31.9306 35.3449 31.7614 35.0673C31.5922 34.7896 31.0717 34.7981 30.599 35.0862C30.1262 35.3743 29.8801 35.833 30.0493 36.1107C30.2185 36.3883 30.739 36.3798 31.2117 36.0917Z" fill="#B0BEC5"/>
</g>
<mask id="mask20_101_3253" style="mask-type:luminance" maskUnits="userSpaceOnUse" x="5" y="11" width="24" height="29">
<path d="M17.5872 39.2536L7.33787 35.1731C5.71158 34.5256 4.91073 32.6652 5.5582 31.039L12.6465 13.2348C13.1336 12.0114 14.5237 11.4129 15.7471 11.9L26.7394 16.2763C27.9628 16.7634 28.5612 18.1535 28.0741 19.3769L20.6915 37.9203C20.1992 39.146 18.8143 39.7422 17.5872 39.2536Z" fill="white"/>
</mask>
<g mask="url(#mask20_101_3253)">
<path opacity="0.2" d="M13.092 35.6058C13.2123 35.3036 12.8928 34.8927 12.3783 34.6879C11.8639 34.4831 11.3494 34.562 11.2291 34.8641C11.1089 35.1662 11.4284 35.5772 11.9428 35.782C12.4572 35.9868 12.9717 35.9079 13.092 35.6058Z" fill="#B0BEC5"/>
</g>
<mask id="mask21_101_3253" style="mask-type:luminance" maskUnits="userSpaceOnUse" x="6" y="25" width="28" height="26">
<path d="M11.4322 49.0067L6.37423 39.2031C5.57168 37.6475 6.18778 35.7181 7.74336 34.9156L24.7734 26.1294C25.9436 25.5257 27.3853 25.986 27.989 27.1562L33.4135 37.6705C34.0173 38.8407 33.5569 40.2824 32.3867 40.8862L14.6496 50.0371C13.474 50.6391 12.0377 50.1805 11.4322 49.0067Z" fill="white"/>
</mask>
<g mask="url(#mask21_101_3253)">
<path opacity="0.2" d="M26.1256 43.8478C26.6177 43.594 26.8957 43.1539 26.7466 42.8649C26.5975 42.576 26.0778 42.5475 25.5857 42.8013C25.0937 43.0552 24.8157 43.4952 24.9648 43.7842C25.1139 44.0732 25.6336 44.1017 26.1256 43.8478Z" fill="#90A4AE"/>
</g>
<mask id="mask22_101_3253" style="mask-type:luminance" maskUnits="userSpaceOnUse" x="9" y="25" width="28" height="24">
<path d="M12.7417 46.4385L9.36275 35.9377C8.8266 34.2715 9.75119 32.4695 11.4174 31.9334L29.6585 26.0638C30.9119 25.6605 32.2584 26.3514 32.6617 27.6048L36.2856 38.8668C36.6889 40.1202 35.998 41.4667 34.7446 41.87L15.7461 47.9833C14.4877 48.384 13.1462 47.6957 12.7417 46.4385Z" fill="white"/>
</mask>
<g mask="url(#mask22_101_3253)">
<path opacity="0.2" d="M26.6654 37.2944C27.297 37.0912 27.7283 36.6755 27.6287 36.366C27.5291 36.0564 26.9364 35.9703 26.3048 36.1735C25.6731 36.3767 25.2419 36.7924 25.3415 37.102C25.4411 37.4115 26.0338 37.4976 26.6654 37.2944Z" fill="#D0D8DC"/>
</g>
<mask id="mask23_101_3253" style="mask-type:luminance" maskUnits="userSpaceOnUse" x="17" y="26" width="26" height="29">
<path d="M29.0394 54.0178L19.3284 48.7845C17.7876 47.9541 17.2063 46.0139 18.0366 44.4731L27.1275 27.604C27.7522 26.4449 29.2019 26.0105 30.361 26.6352L40.7759 32.2478C41.9351 32.8725 42.3694 34.3222 41.7448 35.4814L32.2765 53.0508C31.6464 54.2116 30.2021 54.6443 29.0394 54.0178Z" fill="white"/>
</mask>
<g mask="url(#mask23_101_3253)">
<path opacity="0.2" d="M31.0543 32.8792C31.2086 32.5929 30.8601 32.1057 30.276 31.7909C29.6919 31.4762 29.0934 31.453 28.9391 31.7393C28.7848 32.0255 29.1333 32.5127 29.7174 32.8275C30.3015 33.1423 30.9 33.1654 31.0543 32.8792Z" fill="#D0D8DC"/>
</g>
<mask id="mask24_101_3253" style="mask-type:luminance" maskUnits="userSpaceOnUse" x="9" y="17" width="28" height="27">
<path d="M16.1459 42.275L9.86348 33.2071C8.86663 31.7683 9.22824 29.7755 10.6671 28.7786L26.4189 17.8654C27.5013 17.1155 28.9904 17.3857 29.7403 18.4681L36.4781 28.1932C37.228 29.2756 36.9578 30.7647 35.8754 31.5146L19.4695 42.8809C18.3816 43.6298 16.8981 43.3606 16.1459 42.275Z" fill="white"/>
</mask>
<g mask="url(#mask24_101_3253)">
<path opacity="0.2" d="M14.4469 33.3612C14.8297 33.0959 14.99 32.6642 14.8048 32.3969C14.6196 32.1296 14.1591 32.128 13.7763 32.3932C13.3934 32.6585 13.2331 33.0902 13.4183 33.3575C13.6035 33.6248 14.064 33.6264 14.4469 33.3612Z" fill="#D0D8DC"/>
</g>
<mask id="mask25_101_3253" style="mask-type:luminance" maskUnits="userSpaceOnUse" x="8" y="20" width="29" height="26">
<path d="M15.2832 44.9334L9.00081 35.8656C8.00396 34.4267 8.36557 32.4339 9.8044 31.4371L25.5563 20.5238C26.6386 19.7739 28.1277 20.0441 28.8776 21.1265L35.6154 30.8517C36.3653 31.934 36.0951 33.4231 35.0127 34.173L18.6069 45.5394C17.5189 46.2883 16.0354 46.0191 15.2832 44.9334Z" fill="white"/>
</mask>
<g mask="url(#mask25_101_3253)">
<path opacity="0.2" d="M18.2663 36.0716C18.6492 35.8064 18.8095 35.3746 18.6243 35.1074C18.4391 34.8401 17.9786 34.8384 17.5957 35.1037C17.2128 35.3689 17.0526 35.8007 17.2378 36.068C17.423 36.3352 17.8835 36.3369 18.2663 36.0716Z" fill="#D0D8DC"/>
</g>
<mask id="mask26_101_3253" style="mask-type:luminance" maskUnits="userSpaceOnUse" x="11" y="25" width="28" height="27">
<path d="M17.9813 50.1622L11.6989 41.0943C10.7021 39.6555 11.0637 37.6627 12.5025 36.6658L28.2544 25.7526C29.3368 25.0027 30.8258 25.2729 31.5757 26.3553L38.3135 36.0804C39.0634 37.1628 38.7932 38.6519 37.7108 39.4018L21.305 50.7681C20.2171 51.517 18.7335 51.2478 17.9813 50.1622Z" fill="white"/>
</mask>
<g mask="url(#mask26_101_3253)">
<path opacity="0.2" d="M27.9803 34.3683C28.3632 34.103 28.5234 33.6713 28.3383 33.404C28.1531 33.1367 27.6926 33.1351 27.3097 33.4003C26.9268 33.6656 26.7666 34.0973 26.9518 34.3646C27.1369 34.6319 27.5974 34.6335 27.9803 34.3683Z" fill="#D0D8DC"/>
</g>
<mask id="mask27_101_3253" style="mask-type:luminance" maskUnits="userSpaceOnUse" x="18" y="22" width="24" height="28">
<path d="M31.016 49.5859L20.7644 45.5131C19.1378 44.8669 18.3356 43.0072 18.9819 41.3806L26.0568 23.5726C26.5429 22.3489 27.9325 21.7495 29.1562 22.2357L40.1508 26.6037C41.3745 27.0899 41.9739 28.4794 41.4877 29.7031L34.119 48.2505C33.6277 49.4764 32.2433 50.0736 31.016 49.5859Z" fill="white"/>
</mask>
<g mask="url(#mask27_101_3253)">
<path opacity="0.2" d="M27.269 30.8215C27.389 30.5193 27.1355 30.1349 26.7026 29.9629C26.2698 29.791 25.8216 29.8965 25.7015 30.1987C25.5815 30.5009 25.835 30.8853 26.2679 31.0572C26.7007 31.2292 27.1489 31.1236 27.269 30.8215Z" fill="#D0D8DC"/>
</g>
<mask id="mask28_101_3253" style="mask-type:luminance" maskUnits="userSpaceOnUse" x="10" y="22" width="28" height="24">
<path d="M13.7315 43.3726L10.2401 32.9081C9.68606 31.2477 10.5913 29.4359 12.2517 28.8819L30.4296 22.8169C31.6787 22.4001 33.0325 23.0765 33.4493 24.3256L37.1938 35.5486C37.6106 36.7977 36.9341 38.1515 35.685 38.5682L16.7524 44.8851C15.4983 45.2993 14.1495 44.6254 13.7315 43.3726Z" fill="white"/>
</mask>
<g mask="url(#mask28_101_3253)">
<path opacity="0.2" d="M17.2258 32.9678C17.6677 32.8203 17.9424 32.4508 17.8395 32.1423C17.7366 31.8339 17.295 31.7033 16.8531 31.8507C16.4113 31.9982 16.1365 32.3677 16.2394 32.6762C16.3424 32.9846 16.784 33.1152 17.2258 32.9678Z" fill="#D0D8DC"/>
</g>
<mask id="mask29_101_3253" style="mask-type:luminance" maskUnits="userSpaceOnUse" x="15" y="13" width="20" height="27">
<path d="M29.5375 39.5925L18.5645 38.4562C16.8234 38.2759 15.5463 36.7039 15.7266 34.9628L17.7004 15.9015C17.836 14.5917 19.0107 13.6374 20.3205 13.7731L32.0888 14.9917C33.3986 15.1273 34.3529 16.302 34.2172 17.6118L32.1615 37.4645C32.0215 38.7778 30.8512 39.7285 29.5375 39.5925Z" fill="white"/>
</mask>
<g mask="url(#mask29_101_3253)">
<path opacity="0.2" d="M19.6224 30.1708C19.6558 29.8474 19.3074 29.5463 18.8441 29.4983C18.3808 29.4504 17.978 29.6737 17.9446 29.9971C17.9111 30.3206 18.2595 30.6217 18.7228 30.6696C19.1861 30.7176 19.5889 30.4943 19.6224 30.1708Z" fill="#D0D8DC"/>
</g>
<mask id="mask30_101_3253" style="mask-type:luminance" maskUnits="userSpaceOnUse" x="8" y="27" width="29" height="23">
<path d="M12.4046 47.862L8.99368 37.3711C8.45246 35.7064 9.37161 33.9017 11.0362 33.3604L29.2601 27.4353C30.5123 27.0281 31.8609 27.715 32.2681 28.9672L35.9262 40.2186C36.3334 41.4708 35.6466 42.8194 34.3943 43.2265L15.4138 49.3977C14.1565 49.8023 12.813 49.118 12.4046 47.862Z" fill="white"/>
</mask>
<g mask="url(#mask30_101_3253)">
<path opacity="0.2" d="M30.8417 39.1444C31.4727 38.9392 31.9027 38.5222 31.8022 38.213C31.7017 37.9037 31.1086 37.8194 30.4776 38.0245C29.8466 38.2297 29.4166 38.6467 29.5171 38.9559C29.6177 39.2651 30.2107 39.3495 30.8417 39.1444Z" fill="#B0BEC5"/>
</g>
<mask id="mask31_101_3253" style="mask-type:luminance" maskUnits="userSpaceOnUse" x="9" y="27" width="25" height="29">
<path d="M21.034 55.1541L11.2623 50.0355C9.71183 49.2234 9.10775 47.2902 9.91993 45.7397L18.8115 28.7653C19.4225 27.5989 20.8669 27.1475 22.0333 27.7585L32.5133 33.2481C33.6797 33.8591 34.1311 35.3036 33.5201 36.47L24.2594 54.1492C23.643 55.3173 22.2039 55.767 21.034 55.1541Z" fill="white"/>
</mask>
<g mask="url(#mask31_101_3253)">
<path opacity="0.2" d="M27.8651 40.253C28.016 39.965 27.6618 39.4819 27.0741 39.1741C26.4863 38.8662 25.8876 38.8501 25.7367 39.1381C25.5858 39.4262 25.94 39.9092 26.5277 40.2171C27.1155 40.525 27.7142 40.5411 27.8651 40.253Z" fill="#B0BEC5"/>
</g>
<mask id="mask32_101_3253" style="mask-type:luminance" maskUnits="userSpaceOnUse" x="10" y="23" width="28" height="23">
<path d="M13.5996 44.1877L10.1886 33.6968C9.64741 32.0321 10.5666 30.2273 12.2312 29.6861L30.455 23.761C31.7073 23.3538 33.0559 24.0406 33.463 25.2929L37.1212 36.5442C37.5283 37.7965 36.8415 39.1451 35.5893 39.5522L16.6088 45.7234C15.3515 46.128 14.0079 45.4437 13.5996 44.1877Z" fill="white"/>
</mask>
<g mask="url(#mask32_101_3253)">
<path opacity="0.1" d="M19.8465 33.5391C20.4775 33.334 20.9075 32.917 20.807 32.6077C20.7064 32.2985 20.1134 32.2141 19.4824 32.4193C18.8514 32.6245 18.4213 33.0415 18.5219 33.3507C18.6224 33.6599 19.2155 33.7443 19.8465 33.5391Z" fill="#D0D8DC"/>
</g>
<path d="M23.2452 12.1606C23.5753 13.0079 23.5753 14.818 23.5753 14.818C23.5753 14.818 20.2814 15.6813 17.2222 15.6813C14.2227 15.6813 10.8929 14.818 10.8929 14.818C10.8929 14.818 10.8929 13.0954 11.1993 12.1606C11.8119 10.2988 13.7135 8.63989 17.2222 8.63989C20.731 8.63989 22.5291 10.3266 23.2452 12.1606Z" fill="url(#paint5_radial_101_3253)"/>
<path d="M23.5753 14.5553C23.5753 16.5007 21.984 17.8135 17.2222 17.8135C12.4603 17.8135 10.869 16.5007 10.869 14.5553C10.869 12.61 13.7134 11.0347 17.2222 11.0347C20.7309 11.0347 23.5753 12.61 23.5753 14.5553Z" fill="url(#paint6_linear_101_3253)"/>
<path d="M21.9164 13.7438L22.6961 13.4415L22.4057 12.614L21.7732 13.529L21.9164 13.7438Z" fill="#568B3E"/>
<path d="M21.1924 13.6046L21.2759 12.8964L20.894 12.5344L20.7389 13.6165L21.1924 13.6046Z" fill="#568B3E"/>
<path d="M17.0352 13.0634L17.1227 12.3513L16.7408 11.9893L16.7289 12.5343L16.7209 13.0753L17.0352 13.0634Z" fill="#568B3E"/>
<path d="M15.7901 12.9839L16.0844 13.0754L16.1481 12.4031L15.7145 12.24L15.7901 12.9839Z" fill="#568B3E"/>
<path d="M13.5901 13.2943L13.7054 12.7254L12.9894 12.5344L13.0928 13.5369L13.5901 13.2943Z" fill="#568B3E"/>
<path d="M21.6221 12.2561C21.1726 11.9378 20.8145 12.4033 20.906 12.626C20.9617 12.7653 21.093 12.8528 21.0532 13.0159C21.0134 13.179 20.8822 13.2029 20.6474 13.187C20.3849 13.171 20.2417 12.9682 20.2059 12.7891C20.0467 11.9895 19.5534 11.8145 19.1835 11.9975C18.8811 12.1486 19.2153 12.4351 18.9408 12.5465C18.6226 12.6738 18.4396 12.5982 18.2884 12.4192C18.173 12.2839 18.3242 12.0572 18.0974 11.7787C17.7235 11.3132 16.8165 11.5957 16.725 11.9179C16.6335 12.2401 16.9358 12.2561 16.9477 12.5345C16.9597 12.813 16.4306 12.9642 16.164 12.8528C15.6151 12.626 16.1919 12.6499 16.1442 12.2958C16.0765 11.8105 15.3843 11.9617 15.2252 12.0572C14.8035 12.3078 14.9587 12.5226 14.8552 12.6777C14.6086 13.0358 14.2386 12.8409 14.0477 12.7295C13.8567 12.6181 13.8169 12.1447 13.2282 12.3237C12.8264 12.447 12.9934 12.7334 13.1565 12.9125C13.2321 12.996 13.2043 13.1273 13.1009 13.175C12.715 13.3461 12.4166 13.0875 12.2058 12.9682C11.9551 12.8289 11.5852 12.8488 11.4101 13.0358C11.2033 13.2625 11.8477 13.3898 11.5931 13.6166C11.3823 13.8036 11.0998 13.5171 11.0441 13.4376C10.7179 13 10.1769 13.9428 10.6145 14.0462C11.0481 14.1497 10.9646 14.5355 10.885 14.6668C10.7259 14.9334 10.4196 14.2969 10.519 15.3789C10.5867 16.1388 11.1317 16.5445 11.5295 16.8111C12.0586 17.1691 21.829 17.6902 23.1815 16.8707C23.5197 16.6639 24.4506 15.359 24.2079 14.8817C23.8459 14.1815 23.7981 15.0766 23.5674 14.814C23.0662 14.2412 23.834 14.1815 23.7066 13.8394C23.5714 13.4694 23.456 13.7757 23.3208 13.6365C23.1258 13.4336 23.2014 13.3143 23.2969 13.175C23.3964 13.0278 22.8752 12.5544 22.5291 12.5544C22.187 12.5544 22.5928 12.9721 22.374 13.0835C22.1552 13.1949 22.0119 13.0955 21.7772 12.8687C21.5425 12.6539 21.8886 12.443 21.6221 12.2561Z" fill="url(#paint7_linear_101_3253)"/>
<path d="M23.2452 16.9421C23.5753 17.7894 23.5753 19.5995 23.5753 19.5995C23.5753 19.5995 20.2814 20.4627 17.2222 20.4627C14.2227 20.4627 10.8929 19.5995 10.8929 19.5995C10.8929 19.5995 10.8929 17.8769 11.1993 16.9421C11.8119 15.0803 13.7135 13.4214 17.2222 13.4214C20.731 13.4214 22.5291 15.1081 23.2452 16.9421Z" fill="url(#paint8_radial_101_3253)"/>
<path d="M23.5753 19.3368C23.5753 21.2822 21.984 22.595 17.2222 22.595C12.4603 22.595 10.869 21.2822 10.869 19.3368C10.869 17.3915 13.7134 15.8162 17.2222 15.8162C20.7309 15.8162 23.5753 17.3915 23.5753 19.3368Z" fill="url(#paint9_linear_101_3253)"/>
<path d="M15.315 14.5302C15.6433 14.4689 15.8833 14.2792 15.8511 14.1064C15.8188 13.9336 15.5266 13.8432 15.1983 13.9045C14.87 13.9657 14.63 14.1554 14.6622 14.3282C14.6945 14.501 14.9867 14.5914 15.315 14.5302Z" fill="#FDD836"/>
<path d="M17.0835 14.2C17.4165 14.1746 17.6756 14.0119 17.6622 13.8366C17.6488 13.6614 17.368 13.5399 17.0351 13.5653C16.7021 13.5907 16.443 13.7534 16.4563 13.9287C16.4697 14.1039 16.7505 14.2254 17.0835 14.2Z" fill="#FDD836"/>
<path d="M16.5585 14.8164C16.8915 14.791 17.1506 14.6283 17.1372 14.4531C17.1238 14.2778 16.843 14.1564 16.51 14.1818C16.177 14.2072 15.9179 14.3699 15.9313 14.5451C15.9447 14.7204 16.2255 14.8418 16.5585 14.8164Z" fill="#F9BF2C"/>
<path d="M18.9339 14.6396C18.9383 14.4638 18.6713 14.3145 18.3375 14.306C18.0036 14.2976 17.7293 14.4331 17.7249 14.6088C17.7204 14.7846 17.9874 14.9339 18.3213 14.9424C18.6552 14.9508 18.9294 14.8153 18.9339 14.6396Z" fill="#F9BF2C"/>
<path d="M17.3408 15.2273C17.6743 15.2104 17.9375 15.0545 17.9287 14.879C17.9198 14.7034 17.6423 14.5748 17.3087 14.5916C16.9752 14.6084 16.712 14.7644 16.7209 14.9399C16.7297 15.1154 17.0073 15.2441 17.3408 15.2273Z" fill="#FDD836"/>
<path d="M19.5808 14.0912C19.6061 13.9172 19.3588 13.7372 19.0284 13.6889C18.6979 13.6407 18.4095 13.7426 18.3841 13.9165C18.3587 14.0905 18.606 14.2705 18.9365 14.3188C19.2669 14.367 19.5554 14.2651 19.5808 14.0912Z" fill="#FDD836"/>
<path d="M14.4533 15.1991C14.757 15.0603 14.9441 14.8182 14.8711 14.6583C14.798 14.4985 14.4926 14.4813 14.1888 14.6201C13.885 14.7589 13.698 15.0009 13.771 15.1608C13.8441 15.3207 14.1495 15.3378 14.4533 15.1991Z" fill="#F9BF2C"/>
<path d="M18.3839 15.689C18.7178 15.689 18.9885 15.5465 18.9885 15.3707C18.9885 15.195 18.7178 15.0525 18.3839 15.0525C18.0499 15.0525 17.7792 15.195 17.7792 15.3707C17.7792 15.5465 18.0499 15.689 18.3839 15.689Z" fill="#F9BF2C"/>
<path d="M20.1886 14.7043C20.1993 14.5289 19.9377 14.3703 19.6043 14.35C19.271 14.3298 18.9921 14.4556 18.9814 14.6311C18.9708 14.8065 19.2324 14.9651 19.5658 14.9854C19.8991 15.0056 20.178 14.8798 20.1886 14.7043Z" fill="#F9BF2C"/>
<path d="M14.1805 15.9906C14.4969 15.8839 14.708 15.6624 14.6518 15.4959C14.5957 15.3293 14.2936 15.2808 13.9772 15.3874C13.6607 15.4941 13.4497 15.7156 13.5058 15.8821C13.562 16.0487 13.864 16.0973 14.1805 15.9906Z" fill="#F9A823"/>
<path d="M20.4555 15.4695C20.4837 15.296 20.2395 15.1118 19.9099 15.058C19.5803 15.0042 19.2901 15.1013 19.2618 15.2748C19.2335 15.4482 19.4778 15.6325 19.8074 15.6862C20.137 15.74 20.4272 15.6429 20.4555 15.4695Z" fill="#F9A823"/>
<path d="M21.8336 16.0512C21.9023 15.8894 21.7087 15.6525 21.4012 15.522C21.0938 15.3916 20.7889 15.417 20.7203 15.5788C20.6516 15.7407 20.8452 15.9776 21.1526 16.108C21.4601 16.2385 21.7649 16.213 21.8336 16.0512Z" fill="#F9A823"/>
<path d="M21.3967 14.998C21.4492 14.8302 21.2335 14.6133 20.9148 14.5135C20.5961 14.4137 20.2951 14.4687 20.2426 14.6365C20.1901 14.8042 20.4058 15.0211 20.7245 15.1209C21.0432 15.2207 21.3441 15.1657 21.3967 14.998Z" fill="#F9A823"/>
<path d="M13.3581 15.1833C13.6455 15.0132 13.806 14.7528 13.7165 14.6015C13.627 14.4502 13.3214 14.4654 13.034 14.6355C12.7466 14.8055 12.5861 15.066 12.6756 15.2173C12.7651 15.3686 13.0707 15.3533 13.3581 15.1833Z" fill="#F9A823"/>
<path d="M12.9658 16.1188C13.2532 15.9488 13.4137 15.6883 13.3242 15.537C13.2347 15.3857 12.9291 15.401 12.6417 15.571C12.3542 15.7411 12.1938 16.0015 12.2833 16.1528C12.3728 16.3041 12.6783 16.2889 12.9658 16.1188Z" fill="#F9A823"/>
<path d="M22.6604 18.7284L22.5769 18.0164L22.9588 18.0959L22.8594 19.0706L22.6604 18.7284Z" fill="#568B3E"/>
<path d="M12.4285 18.6608L11.6488 18.3545L11.9392 17.531L12.5717 18.446L12.4285 18.6608Z" fill="#568B3E"/>
<path d="M13.1525 18.5216L13.069 17.8095L13.4469 17.4475L13.606 18.5335L13.1525 18.5216Z" fill="#568B3E"/>
<path d="M17.3057 17.9766L17.2222 17.2685L17.6041 16.9065L17.612 17.4475L17.62 17.9886L17.3057 17.9766Z" fill="#568B3E"/>
<path d="M18.551 17.897L18.2606 17.9885L18.1969 17.3162L18.6305 17.1531L18.551 17.897Z" fill="#568B3E"/>
<path d="M20.7548 18.2073L20.6355 17.6424L21.3516 17.4475L21.2521 18.45L20.7548 18.2073Z" fill="#568B3E"/>
<path d="M12.719 17.1689C13.1685 16.8506 13.5265 17.3161 13.435 17.5389C13.3793 17.6781 13.2481 17.7656 13.2878 17.9287C13.3276 18.0879 13.4589 18.1157 13.6936 18.0998C13.9562 18.0839 14.0994 17.881 14.1352 17.702C14.2943 16.9024 14.7876 16.7273 15.1576 16.9103C15.4599 17.0615 15.1258 17.3479 15.4003 17.4593C15.7185 17.5866 15.9015 17.511 16.0527 17.332C16.168 17.1967 16.0169 16.97 16.2436 16.6915C16.6176 16.2261 17.5246 16.5085 17.6161 16.8308C17.7076 17.153 17.4052 17.1689 17.3933 17.4474C17.3814 17.7258 17.9105 17.877 18.177 17.7656C18.726 17.5389 18.1492 17.5627 18.1969 17.2087C18.2645 16.7233 18.9567 16.8745 19.1159 16.97C19.5375 17.2206 19.3824 17.4354 19.4858 17.5906C19.7325 17.9486 20.1024 17.7537 20.2934 17.6423C20.4844 17.5309 20.5241 17.0575 21.1129 17.2365C21.5147 17.3599 21.3476 17.6463 21.1845 17.8253C21.1089 17.9088 21.1368 18.0401 21.2402 18.0879C21.6261 18.2589 21.9244 18.0003 22.1353 17.881C22.3859 17.7418 22.7559 17.7616 22.9309 17.9486C23.1378 18.1754 22.4933 18.3027 22.7479 18.5294C22.9588 18.7164 23.2412 18.43 23.2969 18.3504C23.6231 17.9128 24.1124 18.7283 23.7266 18.9591C23.2372 19.2535 23.9175 19.2893 23.9175 19.4404C23.9215 20.7294 23.3407 21.3659 22.8116 21.7239C22.2825 22.0819 12.5121 22.6031 11.1595 21.7836C10.5787 21.4295 10.2127 19.7865 10.5867 19.4603C10.9566 19.1341 10.5111 19.0983 10.6384 18.7522C10.7736 18.3822 10.889 18.6886 11.0243 18.5493C11.2192 18.3464 11.1436 18.2271 11.0481 18.0879C10.9487 17.9407 11.4698 17.4673 11.8159 17.4673C12.158 17.4673 11.7523 17.885 11.9711 17.9964C12.1899 18.1077 12.3331 18.0083 12.5678 17.7815C12.7985 17.5667 12.4564 17.3559 12.719 17.1689Z" fill="url(#paint10_linear_101_3253)"/>
<path opacity="0.5" d="M22.8076 21.732C22.2586 22.086 12.8065 22.6907 11.1555 21.7917C10.4633 21.4137 10.4315 19.7867 10.4315 19.7867L10.7299 19.2098C10.7299 19.2098 11.1516 20.093 11.4897 20.2163C11.8279 20.3396 11.1158 18.2232 11.1158 18.2232C11.1158 18.2232 12.3291 19.9657 12.8105 20.0134C13.2918 20.0611 13.2003 18.0999 13.2003 18.0999C13.2003 18.0999 13.9084 20.7653 14.3222 20.7892C14.7399 20.813 14.6563 17.8771 15.0024 17.5748C15.3446 17.2725 16.0049 21.2069 16.4226 21.4058C16.8403 21.6007 16.729 17.9925 17.1387 17.5748C17.6081 17.1014 17.2382 20.6619 17.9781 20.8608C18.7021 21.0597 18.543 18.0044 19.3625 17.8135C19.8041 17.7101 19.1795 20.7613 19.8041 20.8608C20.8702 21.0318 21.0811 18.4221 21.6579 18.2391C22.0239 18.1238 21.634 20.6499 21.8767 20.8369C22.195 21.0796 23.9135 19.5718 23.9135 19.5718C23.9135 19.5718 23.9533 20.992 22.8076 21.732Z" fill="url(#paint11_linear_101_3253)"/>
<mask id="mask33_101_3253" style="mask-type:luminance" maskUnits="userSpaceOnUse" x="7" y="6" width="21" height="20">
<path d="M21.9483 25.3758H12.4961C11.3862 25.3758 10.4911 24.4767 10.4911 23.3708L7.14551 22.7502V8.06676C7.14551 6.95686 8.04457 6.06177 9.1505 6.06177H25.2899C26.3998 6.06177 27.2949 6.96083 27.2949 8.06676V22.7104L23.9493 23.3708C23.9533 24.4767 23.0542 25.3758 21.9483 25.3758Z" fill="white"/>
</mask>
<g mask="url(#mask33_101_3253)">
<path d="M23.2452 22.1657C23.5753 23.013 23.5753 24.8231 23.5753 24.8231C23.5753 24.8231 20.2814 25.6864 17.2222 25.6864C14.2227 25.6864 10.8929 24.8231 10.8929 24.8231C10.8929 24.8231 10.8929 23.1006 11.1993 22.1657C11.8119 20.3039 13.7135 18.645 17.2222 18.645C20.731 18.645 22.5291 20.3318 23.2452 22.1657Z" fill="url(#paint12_radial_101_3253)"/>
<path d="M23.5754 24.5563C23.5754 26.5016 21.7972 25.7736 17.0353 25.7736C12.2734 25.7736 10.8691 26.5016 10.8691 24.5563C10.8691 22.611 13.7135 21.0356 17.2223 21.0356C20.731 21.0356 23.5754 22.615 23.5754 24.5563Z" fill="url(#paint13_linear_101_3253)"/>
<path d="M21.9165 23.7528L22.6963 23.4504L22.4058 22.627L21.7733 23.538L21.9165 23.7528Z" fill="#568B3E"/>
<path d="M21.1925 23.6176L21.2761 22.9055L20.8942 22.5435L20.739 23.6255L21.1925 23.6176Z" fill="#568B3E"/>
<path d="M17.0353 23.0726L17.1229 22.3645L16.741 22.0024L16.729 22.5435L16.7211 23.0845L17.0353 23.0726Z" fill="#568B3E"/>
<path d="M15.7902 22.9929L16.0846 23.0844L16.1482 22.4121L15.7146 22.249L15.7902 22.9929Z" fill="#568B3E"/>
<path d="M13.5902 23.3033L13.7056 22.7344L12.9895 22.5435L13.0929 23.546L13.5902 23.3033Z" fill="#568B3E"/>
<path d="M21.6221 22.2651C21.1726 21.9468 20.8146 22.4123 20.9061 22.6351C20.9618 22.7743 21.0931 22.8618 21.0533 23.0249C21.0135 23.184 20.8822 23.2119 20.6475 23.196C20.3849 23.1801 20.2417 22.9772 20.2059 22.7982C20.0468 21.9986 19.5535 21.8235 19.1835 22.0065C18.8812 22.1577 19.2154 22.4441 18.9409 22.5555C18.6226 22.6828 18.4396 22.6072 18.2884 22.4282C18.1731 22.2929 18.3242 22.0662 18.0975 21.7877C17.7235 21.3223 16.8165 21.6047 16.725 21.9269C16.6335 22.2492 16.9359 22.2651 16.9478 22.5436C16.9597 22.822 16.4306 22.9732 16.1641 22.8618C15.6151 22.6351 16.1919 22.6589 16.1442 22.3049C16.0766 21.8195 15.3844 21.9707 15.2253 22.0662C14.8036 22.3168 14.9587 22.5316 14.8553 22.6868C14.6086 23.0448 14.2387 22.8499 14.0477 22.7385C13.8568 22.6271 13.817 22.1537 13.2282 22.3327C12.8264 22.456 12.9935 22.7425 13.1566 22.9215C13.2322 23.005 13.2043 23.1363 13.1009 23.184C12.715 23.3551 12.4167 23.0965 12.2058 22.9772C11.9552 22.8379 11.5852 22.8578 11.4102 23.0448C11.2033 23.2716 11.8478 23.3989 11.5932 23.6256C11.3823 23.8126 11.0999 23.5262 11.0442 23.4466C10.718 23.009 10.2287 23.8245 10.6146 24.0553C11.1039 24.3497 10.4236 24.3855 10.4236 24.5366C10.4196 25.8256 11.0004 26.4621 11.5295 26.8201C12.0586 27.1781 21.829 27.6993 23.1816 26.8798C23.7624 26.5257 24.1284 24.8827 23.7544 24.5565C23.3845 24.2303 23.83 24.1945 23.7027 23.8484C23.5675 23.4784 23.4521 23.7848 23.3168 23.6455C23.1219 23.4426 23.1975 23.3233 23.293 23.184C23.3924 23.0369 22.8713 22.5635 22.5252 22.5635C22.1831 22.5635 22.5888 22.9812 22.37 23.0926C22.1512 23.2039 22.008 23.1045 21.7733 22.8777C21.5426 22.6629 21.8887 22.4521 21.6221 22.2651Z" fill="url(#paint14_linear_101_3253)"/>
<path opacity="0.5" d="M23.9533 26.1278L10.8929 26.0522L10.157 23.6414C10.157 23.6414 10.4713 23.7091 10.8929 23.8801C11.3146 24.0512 11.3107 24.632 11.6488 24.7553C11.9869 24.8786 11.6488 23.0885 11.6488 23.0885C11.6488 23.0885 12.7468 25.2526 13.2281 25.3003C13.7095 25.3481 13.1685 22.9174 13.1685 22.9174C13.1685 22.9174 13.9084 24.6877 14.3261 24.7155C14.7438 24.7434 14.5926 22.7066 14.9387 22.4042C15.2809 22.1019 16.0089 25.1372 16.4266 25.3361C16.8443 25.5311 16.7011 22.9254 17.1108 22.5076C17.5802 22.0342 17.2421 24.5922 17.982 24.7911C18.7061 24.99 18.4554 22.7503 19.2749 22.5594C19.7165 22.4559 19.1874 24.6917 19.808 24.7911C20.8742 24.9622 21.2044 23.4186 21.7812 23.2356C22.1472 23.1203 21.638 24.5803 21.8846 24.7672C22.2029 25.0099 23.7862 23.4823 23.7862 23.4823L23.9533 26.1278Z" fill="url(#paint15_linear_101_3253)"/>
</g>
<path d="M15.08 9.73637C15.4349 9.70928 15.7111 9.53637 15.6969 9.35016C15.6827 9.16395 15.3835 9.03495 15.0286 9.06204C14.6737 9.08913 14.3975 9.26204 14.4117 9.44825C14.4259 9.63446 14.7252 9.76345 15.08 9.73637Z" fill="#FDD836"/>
<path d="M15.9536 10.1304C16.2866 10.105 16.5457 9.9423 16.5323 9.76705C16.5189 9.59179 16.2382 9.47032 15.9052 9.49573C15.5722 9.52115 15.3131 9.68382 15.3265 9.85908C15.3398 10.0343 15.6206 10.1558 15.9536 10.1304Z" fill="#F9BF2C"/>
<path d="M17.6953 9.4132C17.7001 9.22651 17.4155 9.06783 17.0596 9.05879C16.7038 9.04975 16.4115 9.19377 16.4068 9.38046C16.402 9.56716 16.6866 9.72583 17.0425 9.73488C17.3983 9.74392 17.6906 9.5999 17.6953 9.4132Z" fill="#FDD836"/>
<path d="M19.5341 9.82828C19.5386 9.65257 19.2715 9.50325 18.9377 9.49477C18.6038 9.48628 18.3296 9.62185 18.3251 9.79756C18.3206 9.97328 18.5877 10.1226 18.9215 10.1311C19.2554 10.1396 19.5296 10.004 19.5341 9.82828Z" fill="#F9BF2C"/>
<path d="M17.3412 10.4177C17.6747 10.4009 17.9379 10.2449 17.929 10.0694C17.9202 9.89385 17.6426 9.76519 17.3091 9.78202C16.9756 9.79886 16.7124 9.9548 16.7212 10.1303C16.7301 10.3059 17.0077 10.4345 17.3412 10.4177Z" fill="#FDD836"/>
<path d="M14.4538 10.389C14.7575 10.2502 14.9446 10.0081 14.8716 9.84827C14.7985 9.68839 14.4931 9.67128 14.1893 9.81003C13.8855 9.94879 13.6985 10.1909 13.7715 10.3508C13.8445 10.5106 14.15 10.5278 14.4538 10.389Z" fill="#F9BF2C"/>
<path d="M14.1807 11.1813C14.4972 11.0746 14.7082 10.8531 14.6521 10.6865C14.5959 10.52 14.2939 10.4714 13.9774 10.5781C13.661 10.6848 13.4499 10.9063 13.5061 11.0728C13.5622 11.2394 13.8643 11.2879 14.1807 11.1813Z" fill="#F9A823"/>
<path d="M20.4559 10.6594C20.4842 10.4859 20.24 10.3017 19.9104 10.2479C19.5807 10.1942 19.2906 10.2912 19.2623 10.4647C19.234 10.6382 19.4783 10.8224 19.8079 10.8762C20.1375 10.9299 20.4276 10.8329 20.4559 10.6594Z" fill="#F9A823"/>
<path d="M21.3972 10.1879C21.4497 10.0202 21.2339 9.80327 20.9152 9.70345C20.5966 9.60363 20.2956 9.65868 20.2431 9.82642C20.1905 9.99415 20.4063 10.211 20.725 10.3109C21.0437 10.4107 21.3446 10.3556 21.3972 10.1879Z" fill="#F9A823"/>
<path d="M13.3582 10.3735C13.6457 10.2034 13.8061 9.94294 13.7166 9.79166C13.6271 9.64038 13.3216 9.65559 13.0341 9.82564C12.7467 9.99569 12.5862 10.2562 12.6757 10.4075C12.7652 10.5587 13.0708 10.5435 13.3582 10.3735Z" fill="#F9A823"/>
<path d="M12.966 11.309C13.2535 11.139 13.4139 10.8785 13.3244 10.7272C13.2349 10.5759 12.9293 10.5911 12.6419 10.7612C12.3545 10.9312 12.194 11.1917 12.2835 11.343C12.373 11.4943 12.6786 11.4791 12.966 11.309Z" fill="#F9A823"/>
<path d="M15.8787 19.5825C16.2116 19.5571 16.4707 19.3945 16.4574 19.2192C16.444 19.0439 16.1632 18.9225 15.8302 18.9479C15.4972 18.9733 15.2381 19.136 15.2515 19.3112C15.2649 19.4865 15.5457 19.608 15.8787 19.5825Z" fill="#FDD836"/>
<path d="M15.9541 20.2031C16.2871 20.1777 16.5462 20.0151 16.5328 19.8398C16.5194 19.6645 16.2386 19.5431 15.9057 19.5685C15.5727 19.5939 15.3136 19.7566 15.327 19.9318C15.3403 20.1071 15.6211 20.2286 15.9541 20.2031Z" fill="#F9BF2C"/>
<path d="M18.33 19.279C18.3345 19.1033 18.0674 18.9539 17.7336 18.9454C17.3997 18.937 17.1255 19.0725 17.121 19.2482C17.1165 19.424 17.3836 19.5733 17.7174 19.5818C18.0513 19.5902 18.3255 19.4547 18.33 19.279Z" fill="#FDD836"/>
<path d="M19.537 19.8984C19.5415 19.7226 19.2745 19.5733 18.9406 19.5648C18.6068 19.5564 18.3325 19.6919 18.328 19.8676C18.3236 20.0433 18.5906 20.1927 18.9244 20.2011C19.2583 20.2096 19.5326 20.0741 19.537 19.8984Z" fill="#F9BF2C"/>
<path d="M17.3408 20.4902C17.6743 20.4734 17.9375 20.3174 17.9287 20.1419C17.9198 19.9664 17.6423 19.8377 17.3087 19.8545C16.9752 19.8714 16.712 20.0273 16.7209 20.2029C16.7297 20.3784 17.0073 20.507 17.3408 20.4902Z" fill="#FDD836"/>
<path d="M19.5841 19.3514C19.6094 19.1775 19.3621 18.9974 19.0317 18.9492C18.7012 18.901 18.4128 19.0029 18.3874 19.1768C18.362 19.3507 18.6093 19.5308 18.9398 19.579C19.2702 19.6272 19.5587 19.5253 19.5841 19.3514Z" fill="#FDD836"/>
<path d="M14.4544 20.462C14.7581 20.3232 14.9452 20.0811 14.8722 19.9213C14.7991 19.7614 14.4937 19.7443 14.1899 19.883C13.8861 20.0218 13.6991 20.2639 13.7721 20.4238C13.8452 20.5836 14.1506 20.6008 14.4544 20.462Z" fill="#F9BF2C"/>
<path d="M14.1814 21.2538C14.4979 21.1471 14.7089 20.9256 14.6528 20.7591C14.5967 20.5925 14.2946 20.5439 13.9781 20.6506C13.6617 20.7573 13.4507 20.9788 13.5068 21.1453C13.5629 21.3119 13.865 21.3604 14.1814 21.2538Z" fill="#F9A823"/>
<path d="M20.459 20.73C20.4873 20.5565 20.243 20.3723 19.9134 20.3185C19.5838 20.2647 19.2936 20.3618 19.2654 20.5352C19.2371 20.7087 19.4813 20.893 19.8109 20.9467C20.1405 21.0005 20.4307 20.9034 20.459 20.73Z" fill="#F9A823"/>
<path d="M22.3369 21.3232C22.401 21.1595 22.201 20.9281 21.89 20.8062C21.5791 20.6844 21.275 20.7182 21.2109 20.8819C21.1467 21.0456 21.3468 21.277 21.6577 21.3989C21.9687 21.5207 22.2728 21.4868 22.3369 21.3232Z" fill="#F9A823"/>
<path d="M21.3999 20.2587C21.4524 20.091 21.2366 19.8741 20.9179 19.7742C20.5992 19.6744 20.2983 19.7295 20.2458 19.8972C20.1932 20.065 20.409 20.2818 20.7277 20.3817C21.0464 20.4815 21.3473 20.4264 21.3999 20.2587Z" fill="#F9A823"/>
<path d="M13.3601 20.446C13.6475 20.2759 13.808 20.0155 13.7185 19.8642C13.629 19.7129 13.3234 19.7281 13.036 19.8982C12.7485 20.0682 12.5881 20.3287 12.6776 20.48C12.7671 20.6313 13.0726 20.616 13.3601 20.446Z" fill="#F9A823"/>
<path d="M12.8136 21.5805C13.101 21.4105 13.2614 21.15 13.1719 20.9987C13.0824 20.8474 12.7769 20.8626 12.4894 21.0327C12.202 21.2027 12.0415 21.4632 12.131 21.6145C12.2205 21.7658 12.5261 21.7506 12.8136 21.5805Z" fill="#F9A823"/>
<path d="M50.42 31.6653C50.3126 30.7702 49.4494 30.8538 49.3897 30.8697C49.2425 30.5276 48.781 30.4878 48.3872 30.4878C48.2002 30.4878 47.9775 30.5435 47.7746 30.639C47.5558 30.7424 47.3091 30.7424 47.0903 30.639C46.8874 30.5435 46.6647 30.4878 46.4777 30.4878C46.2907 30.4878 46.0679 30.5435 45.865 30.639C45.6462 30.7424 45.3996 30.7424 45.1808 30.639C44.9779 30.5435 44.7551 30.4878 44.5682 30.4878C44.3812 30.4878 44.1584 30.5435 43.9555 30.639C43.7367 30.7424 43.4901 30.7424 43.2713 30.639C43.0684 30.5435 42.8456 30.4878 42.6586 30.4878C42.4717 30.4878 42.2489 30.5435 42.046 30.639C41.8272 30.7424 41.5806 30.7424 41.3618 30.639C41.1589 30.5435 40.9361 30.4878 40.7491 30.4878C40.3513 30.4878 39.8103 30.5435 39.6631 30.8896C39.5994 30.8737 38.947 31.0248 38.7401 31.5937C38.4816 31.9398 38.3264 32.3695 38.3264 32.8389V41.2169C38.3264 42.3706 39.2613 43.3055 40.415 43.3055H48.6816C49.8353 43.3055 50.7701 42.3706 50.7701 41.2169V32.8309C50.7781 32.4013 50.6468 31.9995 50.42 31.6653Z" fill="url(#paint16_linear_101_3253)"/>
<g opacity="0.2">
<path d="M42.1214 34.3866C41.9185 34.4423 41.298 34.6572 41.103 34.6293C40.3591 34.5179 39.7504 33.9888 39.5277 33.5751C39.3407 33.225 40.1602 33.1813 40.2238 33.2926C40.566 33.9132 41.6202 33.4438 42.0737 33.4796C42.8335 33.5393 43.3944 34.0286 42.1214 34.3866Z" fill="#434343"/>
</g>
<path d="M42.6426 33.8773C42.6426 33.8773 42.4915 34.0683 41.5566 34.0603L39.2453 32.1826C39.0782 32.0394 39.4044 31.7848 39.6073 31.6734L39.7346 31.6058C39.838 31.5501 39.9653 31.5342 40.0807 31.566L43.0603 32.3537C43.2871 32.4134 43.3985 32.6202 43.299 32.7953L42.7739 33.75C42.7461 33.8018 42.6983 33.8455 42.6426 33.8773Z" fill="#F47C20"/>
<path d="M41.481 34.0484L39.8022 33.6744C39.7107 33.6546 39.6391 33.5949 39.6112 33.5233L39.1458 32.1826C39.0861 32.0116 39.293 31.8564 39.4999 31.9161L42.205 32.7078C42.3482 32.7515 42.4198 32.8788 42.3681 32.9942L41.9584 33.8535C41.8907 34.0086 41.6799 34.0922 41.481 34.0484Z" fill="#F37021"/>
<g opacity="0.2">
<path d="M42.388 37.2189C42.579 37.2945 42.5432 37.6207 43.5457 37.569C44.5482 37.5173 45.4592 37.2508 45.7416 36.7296C45.9286 36.3796 45.1091 36.3358 45.0454 36.4472C44.7033 37.0678 43.6491 36.5984 43.1956 36.6342C42.4318 36.6978 42.1056 37.1115 42.388 37.2189Z" fill="#434343"/>
</g>
<path d="M43.0046 37.1911L45.3597 36.6023L45.5188 35.7311L44.8425 35.1901C44.755 35.1185 44.6516 35.0787 44.5402 35.0667L42.758 34.8997C42.5471 34.9673 42.1931 35.4248 42.2846 35.6277L42.4039 36.8689L43.0046 37.1911Z" fill="#F47C20"/>
<path d="M43.3109 37.1791L45.1727 36.7853C45.304 36.7574 45.4114 36.6699 45.4671 36.5466L45.6183 36.2045C45.7336 35.9419 45.5586 35.6435 45.2722 35.6197L43.307 35.4446C43.0722 35.4247 42.8654 35.6038 42.8534 35.8385L42.8057 36.7495C42.7938 37.024 43.0444 37.2388 43.3109 37.1791Z" fill="#F37021"/>
<g opacity="0.2">
<path d="M47.2215 41.0021C47.4124 41.0777 47.3766 41.4039 48.3791 41.3522C49.3816 41.3005 50.2926 41.034 50.5751 40.5128C50.762 40.1628 49.9425 40.119 49.8789 40.2304C49.5368 40.851 48.4825 40.3816 48.029 40.4174C47.2652 40.477 46.943 40.8908 47.2215 41.0021Z" fill="#434343"/>
</g>
<path d="M47.8381 40.9742L50.1932 40.3854L50.3523 39.5142L49.6761 38.9732C49.5885 38.9016 49.4851 38.8618 49.3737 38.8499L47.3608 39.1562C47.1499 39.2238 46.7959 39.6813 46.8874 39.8842L47.2335 40.652L47.8381 40.9742Z" fill="#F47C20"/>
<path d="M48.1483 40.9623L50.0101 40.5684C50.1414 40.5406 50.2488 40.4531 50.3045 40.3297L50.4557 39.9876C50.571 39.7251 50.396 39.4267 50.1096 39.4028L47.8659 39.55C47.6312 39.5301 47.4243 39.7092 47.4124 39.9439L47.6391 40.5326C47.6312 40.8071 47.8778 41.0219 48.1483 40.9623Z" fill="#F37021"/>
<g opacity="0.2">
<path d="M43.2671 42.5737C43.0762 42.6493 43.112 42.9755 42.1095 42.9238C41.107 42.872 40.196 42.6055 39.9135 42.0844C39.7266 41.7343 40.5461 41.6905 40.6097 41.8019C40.9518 42.4225 42.0061 41.9531 42.4596 41.9889C43.2234 42.0486 43.5456 42.4623 43.2671 42.5737Z" fill="#434343"/>
</g>
<path d="M42.6506 42.5416L40.2955 41.9528L40.1364 41.0816L40.8126 40.5406C40.9002 40.469 41.0036 40.4292 41.115 40.4172L43.1279 40.7236C43.3388 40.7912 43.6928 41.2487 43.6013 41.4516L43.2552 42.2193L42.6506 42.5416Z" fill="#F47C20"/>
<path d="M42.3403 42.5338L40.4785 42.14C40.3473 42.1121 40.2399 42.0246 40.1842 41.9013L40.033 41.5592C39.9176 41.2966 40.0927 40.9982 40.3791 40.9744L42.6228 41.1216C42.8575 41.1017 43.0644 41.2807 43.0763 41.5154L42.8495 42.1042C42.8575 42.3787 42.6108 42.5895 42.3403 42.5338Z" fill="#F37021"/>
<path d="M40.4746 34.1875C40.5661 34.3666 40.8326 34.4939 40.8326 34.4939L41.847 34.2949C41.847 34.2949 41.9584 34.2035 42.0062 34.1478C42.1772 33.9449 41.7436 32.9066 41.1906 33.1572C40.6377 33.4078 40.3115 33.8653 40.4746 34.1875Z" fill="#FCB316"/>
<path d="M40.9351 34.1956C41.1335 34.1384 41.2767 34.0305 41.2548 33.9544C41.2329 33.8784 41.0542 33.8632 40.8558 33.9204C40.6573 33.9776 40.5142 34.0855 40.5361 34.1615C40.558 34.2375 40.7366 34.2528 40.9351 34.1956Z" fill="#F78F1E"/>
<path d="M45.9723 36.9126C45.6541 36.6261 45.3477 36.7773 45.0255 36.9603C44.8346 37.0677 44.6436 37.2547 44.5601 37.5053C44.4765 37.7559 45.2523 38.5715 45.6779 38.1339C46.1036 37.6963 46.2428 37.1513 45.9723 36.9126Z" fill="#FCB316"/>
<path d="M45.7098 37.2969C45.8742 37.1719 45.9687 37.0196 45.9208 36.9566C45.873 36.8937 45.7009 36.9439 45.5365 37.0689C45.3721 37.1939 45.2776 37.3462 45.3254 37.4092C45.3733 37.4721 45.5454 37.4219 45.7098 37.2969Z" fill="#F78F1E"/>
<path d="M47.5676 42.5894C47.7108 42.9912 48.0489 43.0111 48.4189 43.0071C48.6377 43.0031 48.8963 42.9355 49.0912 42.7565C49.2861 42.5775 48.9997 41.4914 48.4189 41.6665C47.8341 41.8415 47.4482 42.2473 47.5676 42.5894Z" fill="#FCB316"/>
<path d="M48.0221 42.6634C48.2264 42.6334 48.3828 42.5458 48.3714 42.4675C48.3599 42.3892 48.185 42.35 47.9806 42.3799C47.7763 42.4098 47.6199 42.4975 47.6313 42.5758C47.6428 42.6541 47.8177 42.6933 48.0221 42.6634Z" fill="#F78F1E"/>
<path d="M38.39 40.4532C38.5332 40.855 38.8713 40.8749 39.2413 40.8709C39.4601 40.8669 39.7187 40.7993 39.9136 40.6203C40.1085 40.4413 39.8221 39.3552 39.2413 39.5303C38.6565 39.7013 38.2706 40.1111 38.39 40.4532Z" fill="#FCB316"/>
<path d="M38.8444 40.5269C39.0487 40.497 39.2051 40.4093 39.1936 40.331C39.1822 40.2528 39.0072 40.2136 38.8029 40.2435C38.5985 40.2734 38.4421 40.3611 38.4536 40.4393C38.4651 40.5176 38.64 40.5568 38.8444 40.5269Z" fill="#F78F1E"/>
<path opacity="0.2" d="M48.8685 33.4077C49.2178 33.4077 49.501 33.2563 49.501 33.0696C49.501 32.8828 49.2178 32.7314 48.8685 32.7314C48.5192 32.7314 48.236 32.8828 48.236 33.0696C48.236 33.2563 48.5192 33.4077 48.8685 33.4077Z" fill="#434343"/>
<path d="M48.8606 33.0497C49.2099 33.0497 49.4931 32.7665 49.4931 32.4172C49.4931 32.0679 49.2099 31.7847 48.8606 31.7847C48.5112 31.7847 48.228 32.0679 48.228 32.4172C48.228 32.7665 48.5112 33.0497 48.8606 33.0497Z" fill="url(#paint17_radial_101_3253)"/>
<path opacity="0.2" d="M40.614 37.4617C40.9633 37.4617 41.2465 37.3103 41.2465 37.1235C41.2465 36.9368 40.9633 36.7854 40.614 36.7854C40.2646 36.7854 39.9814 36.9368 39.9814 37.1235C39.9814 37.3103 40.2646 37.4617 40.614 37.4617Z" fill="#434343"/>
<path d="M40.6059 37.0995C40.9553 37.0995 41.2384 36.8163 41.2384 36.467C41.2384 36.1177 40.9553 35.8345 40.6059 35.8345C40.2566 35.8345 39.9734 36.1177 39.9734 36.467C39.9734 36.8163 40.2566 37.0995 40.6059 37.0995Z" fill="url(#paint18_radial_101_3253)"/>
<path opacity="0.2" d="M47.6232 38.3884C47.9726 38.3884 48.2558 38.2371 48.2558 38.0503C48.2558 37.8635 47.9726 37.7122 47.6232 37.7122C47.2739 37.7122 46.9907 37.8635 46.9907 38.0503C46.9907 38.2371 47.2739 38.3884 47.6232 38.3884Z" fill="#434343"/>
<path d="M47.6153 38.0304C47.9647 38.0304 48.2478 37.7472 48.2478 37.3979C48.2478 37.0486 47.9647 36.7654 47.6153 36.7654C47.266 36.7654 46.9828 37.0486 46.9828 37.3979C46.9828 37.7472 47.266 38.0304 47.6153 38.0304Z" fill="url(#paint19_radial_101_3253)"/>
<path opacity="0.2" d="M45.2921 42.6848C45.6414 42.6848 45.9246 42.5334 45.9246 42.3467C45.9246 42.1599 45.6414 42.0085 45.2921 42.0085C44.9427 42.0085 44.6595 42.1599 44.6595 42.3467C44.6595 42.5334 44.9427 42.6848 45.2921 42.6848Z" fill="#434343"/>
<path d="M45.2841 42.3268C45.6335 42.3268 45.9167 42.0436 45.9167 41.6943C45.9167 41.345 45.6335 41.0618 45.2841 41.0618C44.9348 41.0618 44.6516 41.345 44.6516 41.6943C44.6516 42.0436 44.9348 42.3268 45.2841 42.3268Z" fill="url(#paint20_radial_101_3253)"/>
<path opacity="0.2" d="M48.9521 35.3891C48.9521 35.6557 48.6378 35.775 47.8302 35.6875C47.2574 35.6278 47.0545 35.7034 47.0545 35.4369C47.0545 35.1703 47.0346 34.502 47.8541 34.3946C48.6736 34.2911 48.9521 34.9913 48.9521 35.3891Z" fill="#434343"/>
<path d="M47.9018 34.9832C48.3673 34.9991 48.8526 35.4765 48.8725 35.4446C48.9203 35.373 48.8367 34.6649 48.7134 34.5893L47.9098 34.112C47.8143 34.0563 47.691 34.0841 47.6274 34.1796L47.146 34.828L47.1659 35.4964C47.4165 35.56 47.4364 34.9673 47.9018 34.9832Z" fill="#AF5C2B"/>
<path d="M47.7626 35.5043C47.8223 35.5242 48.065 35.6037 48.2162 35.5918C48.4389 35.5719 48.4668 35.4963 48.7174 35.5162C48.9521 35.5361 48.8885 35.3491 48.7254 35.2537L47.9218 34.7763C47.8263 34.7206 47.703 34.7484 47.6393 34.8439L47.158 35.4923C47.5041 35.6196 47.5717 35.4366 47.7626 35.5043Z" fill="#8B4A22"/>
<path d="M47.8023 34.7127H47.7944C47.7347 34.7127 47.6909 34.665 47.6909 34.6093V34.2194C47.6909 34.1597 47.7387 34.116 47.7944 34.116H47.8023C47.862 34.116 47.9057 34.1637 47.9057 34.2194V34.6093C47.9097 34.665 47.862 34.7127 47.8023 34.7127Z" fill="#C56E39"/>
<path opacity="0.2" d="M45.9924 33.8691C45.9924 34.1356 45.6781 34.255 44.8705 34.1675C44.2977 34.1078 44.0948 34.1834 44.0948 33.9168C44.0948 33.6503 44.0749 32.982 44.8944 32.8746C45.7139 32.7711 45.9924 33.4713 45.9924 33.8691Z" fill="#434343"/>
<path d="M44.9421 33.4634C45.4076 33.4793 45.8929 33.9567 45.9128 33.9249C45.9605 33.8533 45.877 33.1452 45.7537 33.0696L44.9501 32.5922C44.8546 32.5365 44.7313 32.5643 44.6676 32.6598L44.1863 33.3083L44.2062 33.9766C44.4568 34.0402 44.4767 33.4475 44.9421 33.4634Z" fill="#AF5C2B"/>
<path d="M44.8029 33.9845C44.8626 34.0044 45.1053 34.084 45.2564 34.072C45.4792 34.0521 45.5071 33.9765 45.7577 33.9964C45.9924 34.0163 45.9287 33.8294 45.7656 33.7339L44.962 33.2565C44.8666 33.2008 44.7433 33.2286 44.6796 33.3241L44.1982 33.9726C44.5483 34.0999 44.612 33.9169 44.8029 33.9845Z" fill="#8B4A22"/>
<path d="M44.8467 33.1929H44.8388C44.7791 33.1929 44.7354 33.1452 44.7354 33.0895V32.6996C44.7354 32.64 44.7831 32.5962 44.8388 32.5962H44.8467C44.9064 32.5962 44.9502 32.6439 44.9502 32.6996V33.0895C44.9502 33.1492 44.9024 33.1929 44.8467 33.1929Z" fill="#C56E39"/>
<path opacity="0.2" d="M42.8218 39.0727C42.8218 39.3392 42.5075 39.4586 41.7 39.3711C41.1271 39.3114 40.9242 39.387 40.9242 39.1204C40.9242 38.8539 40.9043 38.1856 41.7238 38.0782C42.5433 37.9787 42.8218 38.6789 42.8218 39.0727Z" fill="#434343"/>
<path d="M41.7676 38.667C42.233 38.6829 42.7184 39.1603 42.7382 39.1285C42.786 39.0569 42.7024 38.3488 42.5791 38.2732L41.7755 37.7958C41.6801 37.7401 41.5567 37.768 41.4931 37.8634L41.0117 38.5119L41.0316 39.1802C41.2862 39.2439 41.3021 38.6511 41.7676 38.667Z" fill="#AF5C2B"/>
<path d="M41.6323 39.1881C41.6919 39.208 41.9346 39.2876 42.0858 39.2756C42.3086 39.2557 42.3364 39.1802 42.587 39.2C42.8217 39.2199 42.7581 39.033 42.595 38.9375L41.7914 38.4601C41.6959 38.4044 41.5726 38.4323 41.5089 38.5277L41.0276 39.1762C41.3737 39.3035 41.4413 39.1205 41.6323 39.1881Z" fill="#8B4A22"/>
<path d="M41.6721 38.4004H41.6641C41.6044 38.4004 41.5607 38.3527 41.5607 38.297V37.9071C41.5607 37.8475 41.6084 37.8037 41.6641 37.8037H41.6721C41.7317 37.8037 41.7755 37.8514 41.7755 37.9071V38.297C41.7755 38.3527 41.7317 38.4004 41.6721 38.4004Z" fill="#C56E39"/>
<mask id="mask34_101_3253" style="mask-type:luminance" maskUnits="userSpaceOnUse" x="26" y="3" width="31" height="23">
<path d="M49.9665 25.5469H29.1169C27.836 25.5469 26.8016 24.5046 26.8016 23.2157V6.26871C26.8016 4.97978 27.8399 3.9375 29.1169 3.9375H53.8253C55.1063 3.9375 56.1406 4.97978 56.1406 6.26871V22.6747C56.1406 22.6747 53.4275 24.1108 52.0869 24.7871C51.6214 25.0218 51.7089 24.7553 51.6015 24.8666C51.1878 25.2844 50.607 25.5469 49.9665 25.5469Z" fill="white"/>
</mask>
<g mask="url(#mask34_101_3253)">
<path opacity="0.2" d="M48.0092 17.8492C48.0092 16.0113 45.5428 14.5234 42.4955 14.5234C39.4522 14.5234 36.9818 16.0113 36.9818 17.8492C36.9818 18.5135 37.308 19.1302 37.8649 19.6513C36.934 20.4708 36.3572 21.5767 36.3572 22.794C36.3572 25.3242 38.8236 27.3769 41.8709 27.3769C44.9142 27.3769 47.3847 25.3242 47.3847 22.794C47.3847 21.8274 47.0226 20.9323 46.41 20.1923C47.3966 19.5916 48.0092 18.7642 48.0092 17.8492Z" fill="#212121"/>
</g>
<mask id="mask35_101_3253" style="mask-type:luminance" maskUnits="userSpaceOnUse" x="26" y="3" width="31" height="23">
<path d="M49.9665 25.5469H29.1169C27.836 25.5469 26.8016 24.5046 26.8016 23.2157V6.26871C26.8016 4.97978 27.8399 3.9375 29.1169 3.9375H53.8253C55.1063 3.9375 56.1406 4.97978 56.1406 6.26871V22.6747C56.1406 22.6747 53.4275 24.1108 52.0869 24.7871C51.6214 25.0218 51.7089 24.7553 51.6015 24.8666C51.1878 25.2844 50.607 25.5469 49.9665 25.5469Z" fill="white"/>
</mask>
<g mask="url(#mask35_101_3253)">
<path d="M42.0937 27.4564C44.706 27.4564 46.8237 25.6236 46.8237 23.3628C46.8237 21.102 44.706 19.2693 42.0937 19.2693C39.4814 19.2693 37.3636 21.102 37.3636 23.3628C37.3636 25.6236 39.4814 27.4564 42.0937 27.4564Z" fill="#1E5F30"/>
<path d="M42.0937 27.0189C44.706 27.0189 46.8237 25.1861 46.8237 22.9253C46.8237 20.6645 44.706 18.8318 42.0937 18.8318C39.4814 18.8318 37.3636 20.6645 37.3636 22.9253C37.3636 25.1861 39.4814 27.0189 42.0937 27.0189Z" fill="#4D803B"/>
<path d="M42.0937 26.1953C44.2447 26.1953 45.9884 24.6867 45.9884 22.8258C45.9884 20.9649 44.2447 19.4563 42.0937 19.4563C39.9428 19.4563 38.1991 20.9649 38.1991 22.8258C38.1991 24.6867 39.9428 26.1953 42.0937 26.1953Z" fill="#B7CE7A"/>
<path d="M42.0937 25.2328C43.6295 25.2328 44.8745 24.1552 44.8745 22.826C44.8745 21.4967 43.6295 20.4192 42.0937 20.4192C40.558 20.4192 39.313 21.4967 39.313 22.826C39.313 24.1552 40.558 25.2328 42.0937 25.2328Z" fill="#B3CA62"/>
</g>
<mask id="mask36_101_3253" style="mask-type:luminance" maskUnits="userSpaceOnUse" x="26" y="3" width="31" height="23">
<path d="M49.9665 25.5469H29.1169C27.836 25.5469 26.8016 24.5046 26.8016 23.2157V6.26871C26.8016 4.97978 27.8399 3.9375 29.1169 3.9375H53.8253C55.1063 3.9375 56.1406 4.97978 56.1406 6.26871V22.6747C56.1406 22.6747 53.4275 24.1108 52.0869 24.7871C51.6214 25.0218 51.7089 24.7553 51.6015 24.8666C51.1878 25.2844 50.607 25.5469 49.9665 25.5469Z" fill="white"/>
</mask>
<g mask="url(#mask36_101_3253)">
<path d="M47.0466 8.54433C47.8223 9.80541 47.1978 11.6115 45.6503 12.5782C44.1027 13.5449 42.2171 13.3102 41.4374 12.0491C40.6616 10.788 41.2862 8.98193 42.8337 8.01523C44.3812 7.04854 46.2709 7.28325 47.0466 8.54433Z" fill="#568B3E"/>
</g>
<mask id="mask37_101_3253" style="mask-type:luminance" maskUnits="userSpaceOnUse" x="26" y="3" width="31" height="23">
<path d="M49.9665 25.5469H29.1169C27.836 25.5469 26.8016 24.5046 26.8016 23.2157V6.26871C26.8016 4.97978 27.8399 3.9375 29.1169 3.9375H53.8253C55.1063 3.9375 56.1406 4.97978 56.1406 6.26871V22.6747C56.1406 22.6747 53.4275 24.1108 52.0869 24.7871C51.6214 25.0218 51.7089 24.7553 51.6015 24.8666C51.1878 25.2844 50.607 25.5469 49.9665 25.5469Z" fill="white"/>
</mask>
<g mask="url(#mask37_101_3253)">
<path opacity="0.2" d="M47.5598 21.9824C47.1261 23.2594 44.7631 23.6095 42.2847 22.7582C39.8023 21.9068 38.1434 20.1803 38.5771 18.9033C39.0107 17.6263 41.3737 17.2762 43.8521 18.1276C46.3305 18.9789 47.9934 20.7054 47.5598 21.9824Z" fill="#212121"/>
</g>
<mask id="mask38_101_3253" style="mask-type:luminance" maskUnits="userSpaceOnUse" x="26" y="3" width="31" height="23">
<path d="M49.9665 25.5469H29.1169C27.836 25.5469 26.8016 24.5046 26.8016 23.2157V6.26871C26.8016 4.97978 27.8399 3.9375 29.1169 3.9375H53.8253C55.1063 3.9375 56.1406 4.97978 56.1406 6.26871V22.6747C56.1406 22.6747 53.4275 24.1108 52.0869 24.7871C51.6214 25.0218 51.7089 24.7553 51.6015 24.8666C51.1878 25.2844 50.607 25.5469 49.9665 25.5469Z" fill="white"/>
</mask>
<g mask="url(#mask38_101_3253)">
<path d="M44.047 12.5503C43.3786 10.0281 41.2742 8.40505 39.3448 8.92221C37.4154 9.43937 36.393 11.9058 37.0653 14.424C37.7336 16.9462 39.8381 18.5693 41.7675 18.0521C43.6969 17.5349 44.7153 15.0725 44.047 12.5503Z" fill="#1E5F30"/>
<path d="M42.1415 17.9525C40.2121 18.4697 38.1076 16.8466 37.4393 14.3244C36.771 11.8022 37.7934 9.33976 39.7188 8.8226C41.6442 8.30544 43.7527 9.92853 44.421 12.4507C45.0933 14.9728 44.0709 17.4353 42.1415 17.9525Z" fill="#568B3E"/>
<path d="M42.0102 17.125C40.4229 17.5507 38.6884 16.214 38.1394 14.1374C37.5905 12.0608 38.4298 10.0359 40.0171 9.60628C41.6044 9.17664 43.3389 10.5173 43.8879 12.5939C44.4369 14.6705 43.5975 16.6994 42.0102 17.125Z" fill="#CEE298"/>
<path d="M41.7238 16.051C40.59 16.3573 39.3528 15.4026 38.959 13.9187C38.5651 12.4349 39.1658 10.9868 40.2996 10.6845C41.4334 10.3821 42.6706 11.3329 43.0644 12.8168C43.4583 14.2966 42.8576 15.7447 41.7238 16.051Z" fill="#C4DC72"/>
</g>
<mask id="mask39_101_3253" style="mask-type:luminance" maskUnits="userSpaceOnUse" x="26" y="3" width="31" height="23">
<path d="M49.9665 25.5469H29.1169C27.836 25.5469 26.8016 24.5046 26.8016 23.2157V6.26871C26.8016 4.97978 27.8399 3.9375 29.1169 3.9375H53.8253C55.1063 3.9375 56.1406 4.97978 56.1406 6.26871V22.6747C56.1406 22.6747 53.4275 24.1108 52.0869 24.7871C51.6214 25.0218 51.7089 24.7553 51.6015 24.8666C51.1878 25.2844 50.607 25.5469 49.9665 25.5469Z" fill="white"/>
</mask>
<g mask="url(#mask39_101_3253)">
<path d="M46.6686 8.47664C44.4528 7.54575 42.042 8.26978 41.2862 10.0918C40.5303 11.9138 41.7158 14.1455 43.9317 15.0764C46.1475 16.0073 48.5583 15.2833 49.3141 13.4613C50.07 11.6393 48.8884 9.40753 46.6686 8.47664Z" fill="#1E5F30"/>
<path d="M49.4652 13.1073C48.7094 14.9293 46.3026 15.6533 44.0828 14.7224C41.8669 13.7915 40.6814 11.5598 41.4373 9.73777C42.1931 7.91577 44.5999 7.19175 46.8198 8.12264C49.0356 9.05353 50.2211 11.2853 49.4652 13.1073Z" fill="#568B3E"/>
<path d="M48.785 12.7332C48.1644 14.233 46.1793 14.8297 44.3533 14.0619C42.5273 13.2981 41.5527 11.4602 42.1733 9.96044C42.7939 8.46067 44.779 7.86395 46.605 8.63173C48.4309 9.39952 49.4096 11.2335 48.785 12.7332Z" fill="#CEE298"/>
<path d="M48.045 12.423C47.5636 13.5886 46.0241 14.05 44.6078 13.4533C43.1916 12.8606 42.4358 11.4324 42.9171 10.2708C43.3985 9.10914 44.938 8.64369 46.3543 9.24042C47.7705 9.83317 48.5263 11.2574 48.045 12.423Z" fill="#C4DC72"/>
</g>
<mask id="mask40_101_3253" style="mask-type:luminance" maskUnits="userSpaceOnUse" x="26" y="3" width="31" height="23">
<path d="M49.9665 25.5469H29.1169C27.836 25.5469 26.8016 24.5046 26.8016 23.2157V6.26871C26.8016 4.97978 27.8399 3.9375 29.1169 3.9375H53.8253C55.1063 3.9375 56.1406 4.97978 56.1406 6.26871V22.6747C56.1406 22.6747 53.4275 24.1108 52.0869 24.7871C51.6214 25.0218 51.7089 24.7553 51.6015 24.8666C51.1878 25.2844 50.607 25.5469 49.9665 25.5469Z" fill="white"/>
</mask>
<g mask="url(#mask40_101_3253)">
<path d="M47.0863 13.8111C44.7232 14.2567 43.1041 16.1901 43.4661 18.1314C43.8281 20.0728 46.036 21.2861 48.3951 20.8406C50.7581 20.395 52.3772 18.4616 52.0152 16.5203C51.6532 14.5789 49.4493 13.3656 47.0863 13.8111Z" fill="#1E5F30"/>
<path d="M51.9476 15.9197C52.3096 17.861 50.6865 19.7944 48.3275 20.24C45.9644 20.6855 43.7605 19.4722 43.3985 17.5308C43.0365 15.5895 44.6596 13.6561 47.0187 13.2106C49.3777 12.765 51.5856 13.9783 51.9476 15.9197Z" fill="#4D803B"/>
<path d="M51.1758 15.9794C51.4742 17.5786 50.1375 19.1699 48.1962 19.5358C46.2509 19.9018 44.4368 18.9033 44.1385 17.3081C43.8401 15.7088 45.1768 14.1176 47.1181 13.7516C49.0595 13.3816 50.8775 14.3801 51.1758 15.9794Z" fill="#B7CE7A"/>
<path d="M50.5552 16.0948C50.8018 17.4115 49.6999 18.7243 48.1007 19.0227C46.5014 19.325 45.0017 18.5016 44.759 17.1848C44.5124 15.868 45.6143 14.5552 47.2135 14.2569C48.8128 13.9545 50.3085 14.778 50.5552 16.0948Z" fill="#B3CA62"/>
</g>
<mask id="mask41_101_3253" style="mask-type:luminance" maskUnits="userSpaceOnUse" x="26" y="3" width="31" height="23">
<path d="M49.9665 25.5469H29.1169C27.836 25.5469 26.8016 24.5046 26.8016 23.2157V6.26871C26.8016 4.97978 27.8399 3.9375 29.1169 3.9375H53.8253C55.1063 3.9375 56.1406 4.97978 56.1406 6.26871V22.6747C56.1406 22.6747 53.4275 24.1108 52.0869 24.7871C51.6214 25.0218 51.7089 24.7553 51.6015 24.8666C51.1878 25.2844 50.607 25.5469 49.9665 25.5469Z" fill="white"/>
</mask>
<g mask="url(#mask41_101_3253)">
<path opacity="0.2" d="M32.5382 19.2019C35.5833 19.2019 38.0519 17.8269 38.0519 16.1307C38.0519 14.4346 35.5833 13.0596 32.5382 13.0596C29.493 13.0596 27.0244 14.4346 27.0244 16.1307C27.0244 17.8269 29.493 19.2019 32.5382 19.2019Z" fill="#212121"/>
</g>
<mask id="mask42_101_3253" style="mask-type:luminance" maskUnits="userSpaceOnUse" x="26" y="3" width="31" height="23">
<path d="M49.9665 25.5469H29.1169C27.836 25.5469 26.8016 24.5046 26.8016 23.2157V6.26871C26.8016 4.97978 27.8399 3.9375 29.1169 3.9375H53.8253C55.1063 3.9375 56.1406 4.97978 56.1406 6.26871V22.6747C56.1406 22.6747 53.4275 24.1108 52.0869 24.7871C51.6214 25.0218 51.7089 24.7553 51.6015 24.8666C51.1878 25.2844 50.607 25.5469 49.9665 25.5469Z" fill="white"/>
</mask>
<g mask="url(#mask42_101_3253)">
<path d="M43.3866 15.1085C40.9719 14.102 38.4895 14.5635 37.8411 16.1388C37.1926 17.7142 38.6248 19.8067 41.0356 20.8132C43.4503 21.8196 45.9327 21.3582 46.5811 19.7828C47.2296 18.2075 45.7974 16.1149 43.3866 15.1085Z" fill="#1E5F30"/>
<path d="M46.7323 19.0348C46.0838 20.6101 43.6014 21.0716 41.1867 20.0651C38.7719 19.0586 37.3438 16.9661 37.9922 15.3908C38.6407 13.8154 41.123 13.3539 43.5378 14.3604C45.9525 15.3669 47.3807 17.4594 46.7323 19.0348Z" fill="#568B3E"/>
<path d="M45.9884 18.6449C45.4553 19.9418 43.4105 20.3197 41.4254 19.4922C39.4403 18.6648 38.2628 16.9422 38.7958 15.6453C39.3289 14.3485 41.3737 13.9705 43.3588 14.798C45.3439 15.6294 46.5214 17.352 45.9884 18.6449Z" fill="#F9EBBB"/>
<path d="M45.3002 18.3584C44.8666 19.4086 43.2157 19.7149 41.6085 19.0426C40.0013 18.3743 39.0505 16.9779 39.4802 15.9317C39.9138 14.8814 41.5647 14.5751 43.1719 15.2474C44.7791 15.9197 45.7338 17.3121 45.3002 18.3584Z" fill="#DEE67C"/>
</g>
<mask id="mask43_101_3253" style="mask-type:luminance" maskUnits="userSpaceOnUse" x="26" y="3" width="31" height="23">
<path d="M49.9665 25.5469H29.1169C27.836 25.5469 26.8016 24.5046 26.8016 23.2157V6.26871C26.8016 4.97978 27.8399 3.9375 29.1169 3.9375H53.8253C55.1063 3.9375 56.1406 4.97978 56.1406 6.26871V22.6747C56.1406 22.6747 53.4275 24.1108 52.0869 24.7871C51.6214 25.0218 51.7089 24.7553 51.6015 24.8666C51.1878 25.2844 50.607 25.5469 49.9665 25.5469Z" fill="white"/>
</mask>
<g mask="url(#mask43_101_3253)">
<path d="M47.0465 20.0648C44.8267 20.3074 43.1519 21.6799 43.311 23.128C43.4661 24.576 45.3956 25.5546 47.6154 25.312C49.8352 25.0693 51.51 23.6968 51.3509 22.2488C51.1957 20.8007 49.2663 19.8221 47.0465 20.0648Z" fill="#1E5F30"/>
<path opacity="0.2" d="M51.4424 22.7302C51.5976 24.1783 49.9268 25.5507 47.7069 25.7934C45.4871 26.0361 43.5577 25.0614 43.4026 23.6094C43.2474 22.1614 44.9182 20.7889 47.1381 20.5462C49.3579 20.3035 51.2833 21.2822 51.4424 22.7302Z" fill="#212121"/>
<path d="M51.2714 21.8074C51.4266 23.2554 49.7557 24.6279 47.5359 24.8706C45.3161 25.1132 43.3867 24.1386 43.2315 22.6866C43.0764 21.2385 44.7472 19.866 46.967 19.6234C49.1869 19.3807 51.1163 20.3593 51.2714 21.8074Z" fill="#568B3E"/>
<path d="M50.5553 21.8235C50.6826 23.0169 49.3062 24.1467 47.4802 24.3456C45.6542 24.5445 44.0669 23.741 43.9357 22.5475C43.8084 21.3541 45.1848 20.2243 47.0108 20.0253C48.8368 19.8264 50.424 20.63 50.5553 21.8235Z" fill="#F9EBBB"/>
<path d="M49.9228 21.8949C50.0262 22.8616 48.9123 23.7726 47.4364 23.9357C45.9566 24.0988 44.6756 23.4464 44.5682 22.4836C44.4647 21.5169 45.5786 20.6059 47.0545 20.4428C48.5344 20.2797 49.8154 20.9282 49.9228 21.8949Z" fill="#DEE67C"/>
</g>
<mask id="mask44_101_3253" style="mask-type:luminance" maskUnits="userSpaceOnUse" x="26" y="3" width="31" height="23">
<path d="M49.9665 25.5469H29.1169C27.836 25.5469 26.8016 24.5046 26.8016 23.2157V6.26871C26.8016 4.97978 27.8399 3.9375 29.1169 3.9375H53.8253C55.1063 3.9375 56.1406 4.97978 56.1406 6.26871V22.6747C56.1406 22.6747 53.4275 24.1108 52.0869 24.7871C51.6214 25.0218 51.7089 24.7553 51.6015 24.8666C51.1878 25.2844 50.607 25.5469 49.9665 25.5469Z" fill="white"/>
</mask>
<g mask="url(#mask44_101_3253)">
<path d="M28.3809 16.079C26.9528 14.4479 26.9806 12.6299 26.9488 12.1088C26.8374 10.2549 27.8558 10.1276 29.9881 9.26834C32.7211 8.16639 38.5332 7.66912 38.7043 10.2191C38.939 13.7279 37.4512 16.1864 34.1811 17.4634C31.7465 18.4102 29.6738 17.5509 28.3809 16.079Z" fill="#CCB795"/>
<path d="M27.3188 13.7795C26.1412 11.5119 27.2591 8.85054 29.9921 7.74859C32.7251 6.64664 37.5466 7.09219 38.4934 9.46716C39.4402 11.8421 36.3174 15.5697 33.465 16.2937C30.4217 17.0615 28.3809 15.8243 27.3188 13.7795Z" fill="url(#paint21_radial_101_3253)"/>
<path d="M29.0015 12.8445C28.4207 11.3884 28.9657 9.82105 30.6405 9.14476C32.3153 8.46847 34.197 8.89811 34.7778 10.3541C35.3586 11.8101 34.4476 13.7077 32.7688 14.384C31.094 15.0603 29.5784 14.3005 29.0015 12.8445Z" fill="url(#paint22_radial_101_3253)"/>
</g>
<mask id="mask45_101_3253" style="mask-type:luminance" maskUnits="userSpaceOnUse" x="26" y="3" width="31" height="23">
<path d="M49.9665 25.5469H29.1169C27.836 25.5469 26.8016 24.5046 26.8016 23.2157V6.26871C26.8016 4.97978 27.8399 3.9375 29.1169 3.9375H53.8253C55.1063 3.9375 56.1406 4.97978 56.1406 6.26871V22.6747C56.1406 22.6747 53.4275 24.1108 52.0869 24.7871C51.6214 25.0218 51.7089 24.7553 51.6015 24.8666C51.1878 25.2844 50.607 25.5469 49.9665 25.5469Z" fill="white"/>
</mask>
<g mask="url(#mask45_101_3253)">
<path opacity="0.2" d="M32.5382 28.0969C35.5833 28.0969 38.0519 26.7219 38.0519 25.0257C38.0519 23.3296 35.5833 21.9546 32.5382 21.9546C29.493 21.9546 27.0244 23.3296 27.0244 25.0257C27.0244 26.7219 29.493 28.0969 32.5382 28.0969Z" fill="#212121"/>
</g>
<mask id="mask46_101_3253" style="mask-type:luminance" maskUnits="userSpaceOnUse" x="26" y="3" width="31" height="23">
<path d="M49.9665 25.5469H29.1169C27.836 25.5469 26.8016 24.5046 26.8016 23.2157V6.26871C26.8016 4.97978 27.8399 3.9375 29.1169 3.9375H53.8253C55.1063 3.9375 56.1406 4.97978 56.1406 6.26871V22.6747C56.1406 22.6747 53.4275 24.1108 52.0869 24.7871C51.6214 25.0218 51.7089 24.7553 51.6015 24.8666C51.1878 25.2844 50.607 25.5469 49.9665 25.5469Z" fill="white"/>
</mask>
<g mask="url(#mask46_101_3253)">
<path d="M28.3809 25.2765C26.9528 23.6454 26.9806 21.8274 26.9488 21.3063C26.8374 19.4524 27.8558 19.3251 29.9881 18.4659C32.7211 17.3639 38.5332 16.8666 38.7043 19.4166C38.939 22.9254 37.4512 25.3839 34.1811 26.6609C31.7465 27.6077 29.6738 26.7484 28.3809 25.2765Z" fill="#CCB795"/>
<path d="M27.3188 22.977C26.1412 20.7094 27.2591 18.0481 29.9921 16.9461C32.7251 15.8441 37.5466 16.2897 38.4934 18.6647C39.4402 21.0396 36.3174 24.7672 33.465 25.4912C30.4217 26.259 28.3809 25.0258 27.3188 22.977Z" fill="url(#paint23_radial_101_3253)"/>
<path d="M29.0015 22.0422C28.4207 20.5862 28.9657 19.0188 30.6405 18.3425C32.3153 17.6662 34.197 18.0959 34.7778 19.5519C35.3586 21.0079 34.4476 22.9055 32.7688 23.5818C31.094 24.258 29.5784 23.4982 29.0015 22.0422Z" fill="url(#paint24_radial_101_3253)"/>
</g>
</g>
<defs>
<linearGradient id="paint0_linear_101_3253" x1="10.0497" y1="5.58556" x2="51.5549" y2="47.0908" gradientUnits="userSpaceOnUse">
<stop offset="0.2239" stop-color="#434343"/>
<stop offset="0.5619" stop-color="#323535"/>
<stop offset="0.8997" stop-color="#404141"/>
</linearGradient>
<radialGradient id="paint1_radial_101_3253" cx="0" cy="0" r="1" gradientUnits="userSpaceOnUse" gradientTransform="translate(22.1166 28.7983) scale(16.8621 16.8621)">
<stop offset="0.4088" stop-color="white"/>
<stop offset="0.724" stop-color="#ECEFF0"/>
<stop offset="0.9654" stop-color="#D0D8DC"/>
</radialGradient>
<radialGradient id="paint2_radial_101_3253" cx="0" cy="0" r="1" gradientUnits="userSpaceOnUse" gradientTransform="translate(21.6926 31.3641) scale(15.5959)">
<stop offset="0.2277" stop-color="white"/>
<stop offset="0.6304" stop-color="#ECEFF0"/>
<stop offset="0.9654" stop-color="#D0D8DC"/>
</radialGradient>
<radialGradient id="paint3_radial_101_3253" cx="0" cy="0" r="1" gradientUnits="userSpaceOnUse" gradientTransform="translate(22.1166 28.7985) scale(16.8621 16.8621)">
<stop offset="0.4088" stop-color="white"/>
<stop offset="0.724" stop-color="#ECEFF0"/>
<stop offset="0.9654" stop-color="#D0D8DC"/>
</radialGradient>
<radialGradient id="paint4_radial_101_3253" cx="0" cy="0" r="1" gradientUnits="userSpaceOnUse" gradientTransform="translate(21.7525 31.674) scale(1.7926 2.05092)">
<stop offset="0.1384" stop-color="#F47C20"/>
<stop offset="0.8823" stop-color="#E45325"/>
</radialGradient>
<radialGradient id="paint5_radial_101_3253" cx="0" cy="0" r="1" gradientUnits="userSpaceOnUse" gradientTransform="translate(17.2145 9.65198) scale(6.41925 5.22103)">
<stop offset="0.0529" stop-color="#FFCB28"/>
<stop offset="1" stop-color="#F9A01B"/>
</radialGradient>
<linearGradient id="paint6_linear_101_3253" x1="17.222" y1="17.8102" x2="17.222" y2="11.0334" gradientUnits="userSpaceOnUse">
<stop offset="0.0303" stop-color="#F37021"/>
<stop offset="1" stop-color="#F9A01B"/>
</linearGradient>
<linearGradient id="paint7_linear_101_3253" x1="17.3561" y1="10.1948" x2="17.3561" y2="17.3248" gradientUnits="userSpaceOnUse">
<stop stop-color="#BFCA33"/>
<stop offset="0.8669" stop-color="#679F42"/>
</linearGradient>
<radialGradient id="paint8_radial_101_3253" cx="0" cy="0" r="1" gradientUnits="userSpaceOnUse" gradientTransform="translate(17.2145 14.4341) scale(6.41925 5.22103)">
<stop offset="0.0574" stop-color="#FFCB28"/>
<stop offset="1" stop-color="#F9A01B"/>
</radialGradient>
<linearGradient id="paint9_linear_101_3253" x1="17.222" y1="22.5923" x2="17.222" y2="15.8155" gradientUnits="userSpaceOnUse">
<stop offset="0.0303" stop-color="#F37021"/>
<stop offset="1" stop-color="#F9A01B"/>
</linearGradient>
<linearGradient id="paint10_linear_101_3253" x1="17.1716" y1="15.1098" x2="17.1716" y2="22.2398" gradientUnits="userSpaceOnUse">
<stop stop-color="#BFCA33"/>
<stop offset="0.8669" stop-color="#679F42"/>
</linearGradient>
<linearGradient id="paint11_linear_101_3253" x1="17.1704" y1="21.511" x2="17.1704" y2="16.78" gradientUnits="userSpaceOnUse">
<stop stop-color="#346A34" stop-opacity="0.6"/>
<stop offset="0.9267" stop-color="#679F42" stop-opacity="0"/>
</linearGradient>
<radialGradient id="paint12_radial_101_3253" cx="0" cy="0" r="1" gradientUnits="userSpaceOnUse" gradientTransform="translate(17.2145 19.6563) scale(6.41925 5.22103)">
<stop offset="0.0603" stop-color="#FFCB28"/>
<stop offset="1" stop-color="#F9A01B"/>
</radialGradient>
<linearGradient id="paint13_linear_101_3253" x1="17.2221" y1="25.9086" x2="17.2221" y2="21.0376" gradientUnits="userSpaceOnUse">
<stop offset="0.0303" stop-color="#F37021"/>
<stop offset="1" stop-color="#F9A01B"/>
</linearGradient>
<linearGradient id="paint14_linear_101_3253" x1="17.1717" y1="20.2051" x2="17.1717" y2="27.3351" gradientUnits="userSpaceOnUse">
<stop stop-color="#BFCA33"/>
<stop offset="0.8669" stop-color="#679F42"/>
</linearGradient>
<linearGradient id="paint15_linear_101_3253" x1="17.0562" y1="25.5341" x2="17.0562" y2="21.7926" gradientUnits="userSpaceOnUse">
<stop stop-color="#346A34" stop-opacity="0.6"/>
<stop offset="0.9267" stop-color="#679F42" stop-opacity="0"/>
</linearGradient>
<linearGradient id="paint16_linear_101_3253" x1="44.5542" y1="41.7918" x2="44.5542" y2="28.9776" gradientUnits="userSpaceOnUse">
<stop stop-color="#8D401E"/>
<stop offset="0.6486" stop-color="#BB5B27"/>
</linearGradient>
<radialGradient id="paint17_radial_101_3253" cx="0" cy="0" r="1" gradientUnits="userSpaceOnUse" gradientTransform="translate(48.7589 32.2901) scale(0.632726 0.632728)">
<stop offset="0.2043" stop-color="#8BC249"/>
<stop offset="1" stop-color="#679F42"/>
</radialGradient>
<radialGradient id="paint18_radial_101_3253" cx="0" cy="0" r="1" gradientUnits="userSpaceOnUse" gradientTransform="translate(40.504 36.3412) scale(0.632726 0.632728)">
<stop offset="0.2043" stop-color="#8BC249"/>
<stop offset="1" stop-color="#679F42"/>
</radialGradient>
<radialGradient id="paint19_radial_101_3253" cx="0" cy="0" r="1" gradientUnits="userSpaceOnUse" gradientTransform="translate(47.5157 37.2708) scale(0.632728)">
<stop offset="0.2043" stop-color="#8BC249"/>
<stop offset="1" stop-color="#679F42"/>
</radialGradient>
<radialGradient id="paint20_radial_101_3253" cx="0" cy="0" r="1" gradientUnits="userSpaceOnUse" gradientTransform="translate(45.1819 41.5672) scale(0.632728)">
<stop offset="0.2043" stop-color="#8BC249"/>
<stop offset="1" stop-color="#679F42"/>
</radialGradient>
<radialGradient id="paint21_radial_101_3253" cx="0" cy="0" r="1" gradientUnits="userSpaceOnUse" gradientTransform="translate(30.2327 9.52094) scale(10.4895 10.5556)">
<stop offset="0.4485" stop-color="#FFF3E1"/>
<stop offset="1" stop-color="#FFE0B2"/>
</radialGradient>
<radialGradient id="paint22_radial_101_3253" cx="0" cy="0" r="1" gradientUnits="userSpaceOnUse" gradientTransform="translate(31.9182 11.979) scale(2.98729 3.00611)">
<stop stop-color="#F36E21"/>
<stop offset="1" stop-color="#FAAA43"/>
</radialGradient>
<radialGradient id="paint23_radial_101_3253" cx="0" cy="0" r="1" gradientUnits="userSpaceOnUse" gradientTransform="translate(30.2327 18.7188) scale(10.4895 10.5556)">
<stop offset="0.4485" stop-color="#FFF3E1"/>
<stop offset="1" stop-color="#FFE0B2"/>
</radialGradient>
<radialGradient id="paint24_radial_101_3253" cx="0" cy="0" r="1" gradientUnits="userSpaceOnUse" gradientTransform="translate(31.9182 21.1771) scale(2.98729 3.00611)">
<stop stop-color="#F36E21"/>
<stop offset="1" stop-color="#FAAA43"/>
</radialGradient>
<clipPath id="clip0_101_3253">
<rect width="60" height="60" fill="white"/>
</clipPath>
</defs>
</svg>
