<svg
  width="32"
  height="32"
  viewBox="0 0 32 32"
  fill="currentColor"
  xmlns="http://www.w3.org/2000/svg"
>
  <path
    d="M27.31 15H26.9C26.6522 13.786 25.9624 12.7072 24.9644 11.9728C23.9664 11.2384 22.7313 10.9008 21.4985 11.0253C20.2657 11.1499 19.123 11.7277 18.2921 12.6468C17.4611 13.566 17.001 14.7609 17.001 16C17.001 17.2391 17.4611 18.434 18.2921 19.3532C19.123 20.2723 20.2657 20.8501 21.4985 20.9747C22.7313 21.0992 23.9664 20.7616 24.9644 20.0272C25.9624 19.2928 26.6522 18.214 26.9 17H27.31C27.7582 17 28.1881 17.1781 28.505 17.495C28.8219 17.8119 29 18.2418 29 18.69V27.31C29 27.7582 28.8219 28.1881 28.505 28.505C28.1881 28.8219 27.7582 29 27.31 29H24.06C23.6135 28.9974 23.1862 28.8181 22.8714 28.5015C22.5567 28.1848 22.38 27.7565 22.38 27.31V25.69C22.38 24.7114 21.9912 23.7728 21.2992 23.0808C20.6072 22.3888 19.6686 22 18.69 22C17.7114 22 16.7728 22.3888 16.0808 23.0808C15.3888 23.7728 15 24.7114 15 25.69V27.31C15 27.7582 14.8219 28.1881 14.505 28.505C14.1881 28.8219 13.7582 29 13.31 29H11.69C11.2418 29 10.8119 28.8219 10.495 28.505C10.1781 28.1881 10 27.7582 10 27.31V16.93C11.932 16.6866 13.7089 15.7469 14.9976 14.287C16.2863 12.8271 16.9982 10.9473 17 9V2C17 1.73478 16.8946 1.48043 16.7071 1.29289C16.5196 1.10536 16.2652 1 16 1H14C13.7348 1 13.4804 1.10536 13.2929 1.29289C13.1054 1.48043 13 1.73478 13 2C13 2.26522 13.1054 2.51957 13.2929 2.70711C13.4804 2.89464 13.7348 3 14 3H15V9C15 10.5913 14.3679 12.1174 13.2426 13.2426C12.1174 14.3679 10.5913 15 9 15C7.4087 15 5.88258 14.3679 4.75736 13.2426C3.63214 12.1174 3 10.5913 3 9V6.05V6V3H4C4.26522 3 4.51957 2.89464 4.70711 2.70711C4.89464 2.51957 5 2.26522 5 2C5 1.73478 4.89464 1.48043 4.70711 1.29289C4.51957 1.10536 4.26522 1 4 1H2C1.73478 1 1.48043 1.10536 1.29289 1.29289C1.10536 1.48043 1 1.73478 1 2V4V9C1.00177 10.9473 1.71372 12.8271 3.0024 14.287C4.29107 15.7469 6.06798 16.6866 8 16.93V27.31C8 27.7946 8.09544 28.2744 8.28088 28.7221C8.46632 29.1698 8.73813 29.5766 9.08078 29.9192C9.42342 30.2619 9.83021 30.5337 10.2779 30.7191C10.7256 30.9046 11.2054 31 11.69 31H13.31C13.7946 31 14.2744 30.9046 14.7221 30.7191C15.1698 30.5337 15.5766 30.2619 15.9192 29.9192C16.2619 29.5766 16.5337 29.1698 16.7191 28.7221C16.9046 28.2744 17 27.7946 17 27.31V25.69C17 25.2418 17.1781 24.8119 17.495 24.495C17.8119 24.1781 18.2418 24 18.69 24C19.1382 24 19.5681 24.1781 19.885 24.495C20.2019 24.8119 20.38 25.2418 20.38 25.69V27.31C20.38 28.2869 20.7674 29.224 21.4572 29.9157C22.1471 30.6074 23.0831 30.9974 24.06 31H27.31C27.7946 31 28.2744 30.9046 28.7221 30.7191C29.1698 30.5337 29.5766 30.2619 29.9192 29.9192C30.2619 29.5766 30.5337 29.1698 30.7191 28.7221C30.9046 28.2744 31 27.7946 31 27.31V18.69C31 18.2054 30.9046 17.7256 30.7191 17.2779C30.5337 16.8302 30.2619 16.4234 29.9192 16.0808C29.5766 15.7381 29.1698 15.4663 28.7221 15.2809C28.2744 15.0954 27.7946 15 27.31 15ZM22 19C21.4067 19 20.8266 18.8241 20.3333 18.4944C19.8399 18.1648 19.4554 17.6962 19.2284 17.1481C19.0013 16.5999 18.9419 15.9967 19.0576 15.4147C19.1734 14.8328 19.4591 14.2982 19.8787 13.8787C20.2982 13.4591 20.8328 13.1734 21.4147 13.0576C21.9967 12.9419 22.5999 13.0013 23.1481 13.2284C23.6962 13.4554 24.1648 13.8399 24.4944 14.3333C24.8241 14.8266 25 15.4067 25 16C25 16.7956 24.6839 17.5587 24.1213 18.1213C23.5587 18.6839 22.7956 19 22 19Z"
    fill="currentColor"
  />
  <path
    d="M22 13.5C21.5055 13.5 21.0222 13.6466 20.6111 13.9213C20.2 14.196 19.8795 14.5865 19.6903 15.0433C19.5011 15.5001 19.4516 16.0028 19.548 16.4877C19.6445 16.9727 19.8826 17.4181 20.2322 17.7678C20.5819 18.1174 21.0273 18.3555 21.5123 18.452C21.9972 18.5484 22.4999 18.4989 22.9567 18.3097C23.4135 18.1205 23.804 17.8 24.0787 17.3889C24.3534 16.9778 24.5 16.4945 24.5 16C24.5 15.337 24.2366 14.7011 23.7678 14.2322C23.2989 13.7634 22.663 13.5 22 13.5ZM22 16.5C21.9011 16.5 21.8044 16.4707 21.7222 16.4157C21.64 16.3608 21.5759 16.2827 21.5381 16.1913C21.5002 16.1 21.4903 15.9994 21.5096 15.9025C21.5289 15.8055 21.5765 15.7164 21.6464 15.6464C21.7164 15.5765 21.8055 15.5289 21.9025 15.5096C21.9994 15.4903 22.1 15.5002 22.1913 15.5381C22.2827 15.5759 22.3608 15.64 22.4157 15.7222C22.4707 15.8044 22.5 15.9011 22.5 16C22.5 16.1326 22.4473 16.2598 22.3536 16.3536C22.2598 16.4473 22.1326 16.5 22 16.5Z"
    fill="currentColor"
  />
</svg>
