<svg
  width="32"
  height="32"
  viewBox="0 0 33 32"
  fill="currentColor"
  xmlns="http://www.w3.org/2000/svg"
>
  <path
    d="M28.2604 4.28989C26.7672 2.7569 24.8552 1.69828 22.7634 1.24649C20.6717 0.794701 18.4931 0.969803 16.5004 1.74989C15.23 1.23712 13.8703 0.982169 12.5004 0.999887C11.0525 1.00065 9.61954 1.29226 8.28653 1.85742C6.95351 2.42258 5.74761 3.24976 4.74039 4.28989C2.67005 6.39417 1.50977 9.22789 1.50977 12.1799C1.50977 15.1319 2.67005 17.9656 4.74039 20.0699L5.59039 20.9399L6.88039 27.8499C7.04949 28.7327 7.51982 29.5293 8.21107 30.1039C8.90231 30.6784 9.77158 30.9951 10.6704 30.9999H11.4304C12.2027 30.998 12.9568 30.7645 13.595 30.3295C14.2332 29.8945 14.7263 29.2781 15.0104 28.5599C15.057 28.4695 15.0971 28.376 15.1304 28.2799L16.5004 23.8399L17.8804 28.2999C17.9096 28.3895 17.9464 28.4765 17.9904 28.5599C18.2745 29.2781 18.7676 29.8945 19.4058 30.3295C20.044 30.7645 20.798 30.998 21.5704 30.9999H22.3304C23.2329 30.9989 24.1066 30.6825 24.8005 30.1055C25.4944 29.5284 25.9648 28.727 26.1304 27.8399L27.4204 20.9399L28.2604 20.0799C30.3337 17.9752 31.4959 15.1393 31.4959 12.1849C31.4959 9.23046 30.3337 6.39461 28.2604 4.28989ZM22.8404 6.51989C22.7136 6.75109 22.5006 6.92284 22.2477 6.99775C21.9949 7.07267 21.7227 7.04468 21.4904 6.91989C21.0427 6.67414 20.5782 6.46027 20.1004 6.27989C19.8728 6.17395 19.6935 5.98632 19.5979 5.75424C19.5023 5.52217 19.4974 5.26263 19.5843 5.02716C19.6712 4.79168 19.8434 4.59749 20.0669 4.48314C20.2903 4.36879 20.5486 4.34264 20.7904 4.40989C21.3768 4.62056 21.9482 4.87115 22.5004 5.15989C22.724 5.29674 22.885 5.51596 22.9486 5.77034C23.0122 6.02471 22.9733 6.29389 22.8404 6.51989ZM26.9704 11.5199C26.7369 11.6439 26.4638 11.6704 26.2108 11.5936C25.9578 11.5167 25.7455 11.3428 25.6204 11.1099C25.1276 10.2067 24.5042 9.38112 23.7704 8.65989C23.6745 8.56731 23.5978 8.45675 23.5447 8.33453C23.4916 8.21231 23.463 8.08082 23.4607 7.94757C23.4584 7.81431 23.4823 7.68191 23.5312 7.55791C23.58 7.43391 23.6528 7.32075 23.7454 7.22489C23.838 7.12902 23.9485 7.05233 24.0707 6.99919C24.193 6.94606 24.3245 6.91751 24.4577 6.91519C24.591 6.91287 24.7234 6.93681 24.8474 6.98566C24.9714 7.03451 25.0845 7.10731 25.1804 7.19989C26.0497 8.06054 26.7876 9.04441 27.3704 10.1199C27.4337 10.2354 27.4737 10.3622 27.4878 10.4932C27.502 10.6242 27.4902 10.7566 27.453 10.883C27.4158 11.0094 27.3541 11.1272 27.2712 11.2296C27.1884 11.332 27.0862 11.4171 26.9704 11.4799V11.5199Z"
    fill="currentColor"
  />
</svg>
