<svg
  width="32"
  height="32"
  viewBox="0 0 33 32"
  fill="currentColor"
  xmlns="http://www.w3.org/2000/svg"
>
  <path
    d="M30.5 8H22.5V2C22.5 1.73478 22.3946 1.48043 22.2071 1.29289C22.0196 1.10536 21.7652 1 21.5 1H11.5C11.2348 1 10.9804 1.10536 10.7929 1.29289C10.6054 1.48043 10.5 1.73478 10.5 2V8H2.5C2.23478 8 1.98043 8.10536 1.79289 8.29289C1.60536 8.48043 1.5 8.73478 1.5 9V15C1.5 15.2652 1.60536 15.5196 1.79289 15.7071C1.98043 15.8946 2.23478 16 2.5 16H5.5V30C5.5 30.2652 5.60536 30.5196 5.79289 30.7071C5.98043 30.8946 6.23478 31 6.5 31H26.5C26.7652 31 27.0196 30.8946 27.2071 30.7071C27.3946 30.5196 27.5 30.2652 27.5 30V16H30.5C30.7652 16 31.0196 15.8946 31.2071 15.7071C31.3946 15.5196 31.5 15.2652 31.5 15V9C31.5 8.73478 31.3946 8.48043 31.2071 8.29289C31.0196 8.10536 30.7652 8 30.5 8ZM22.5 29H20.5V23H17.5V29H15.5V23H12.5V29H10.5V22C10.5 21.7348 10.6054 21.4804 10.7929 21.2929C10.9804 21.1054 11.2348 21 11.5 21H21.5C21.7652 21 22.0196 21.1054 22.2071 21.2929C22.3946 21.4804 22.5 21.7348 22.5 22V29ZM14.5 6H15.5V5C15.5 4.73478 15.6054 4.48043 15.7929 4.29289C15.9804 4.10536 16.2348 4 16.5 4C16.7652 4 17.0196 4.10536 17.2071 4.29289C17.3946 4.48043 17.5 4.73478 17.5 5V6H18.5C18.7652 6 19.0196 6.10536 19.2071 6.29289C19.3946 6.48043 19.5 6.73478 19.5 7C19.5 7.26522 19.3946 7.51957 19.2071 7.70711C19.0196 7.89464 18.7652 8 18.5 8H17.5V9C17.5 9.26522 17.3946 9.51957 17.2071 9.70711C17.0196 9.89464 16.7652 10 16.5 10C16.2348 10 15.9804 9.89464 15.7929 9.70711C15.6054 9.51957 15.5 9.26522 15.5 9V8H14.5C14.2348 8 13.9804 7.89464 13.7929 7.70711C13.6054 7.51957 13.5 7.26522 13.5 7C13.5 6.73478 13.6054 6.48043 13.7929 6.29289C13.9804 6.10536 14.2348 6 14.5 6Z"
    fill="currentColor"
  />
</svg>
