<svg
  width="32"
  height="32"
  viewBox="0 0 33 32"
  fill="currentColor"
  xmlns="http://www.w3.org/2000/svg"
>
  <path
    d="M28.5 8.99961H25.44C25.1855 6.80703 24.1342 4.78442 22.4859 3.31634C20.8376 1.84826 18.7073 1.03711 16.5 1.03711C14.2927 1.03711 12.1624 1.84826 10.5141 3.31634C8.86578 4.78442 7.81445 6.80703 7.56 8.99961H4.5C3.70435 8.99961 2.94129 9.31568 2.37868 9.87829C1.81607 10.4409 1.5 11.204 1.5 11.9996V27.9996C1.5 28.7953 1.81607 29.5583 2.37868 30.1209C2.94129 30.6835 3.70435 30.9996 4.5 30.9996H28.5C29.2956 30.9996 30.0587 30.6835 30.6213 30.1209C31.1839 29.5583 31.5 28.7953 31.5 27.9996V11.9996C31.5 11.204 31.1839 10.4409 30.6213 9.87829C30.0587 9.31568 29.2956 8.99961 28.5 8.99961ZM16.5 2.99961C18.1836 2.99918 19.8109 3.60553 21.0837 4.70752C22.3565 5.80951 23.1895 7.33331 23.43 8.99961H9.57C9.81051 7.33331 10.6435 5.80951 11.9163 4.70752C13.1891 3.60553 14.8164 2.99918 16.5 2.99961ZM22.5 21.9996C22.5 22.2648 22.3946 22.5192 22.2071 22.7067C22.0196 22.8943 21.7652 22.9996 21.5 22.9996H19.5V24.9996C19.5 25.2648 19.3946 25.5192 19.2071 25.7067C19.0196 25.8943 18.7652 25.9996 18.5 25.9996H14.5C14.2348 25.9996 13.9804 25.8943 13.7929 25.7067C13.6054 25.5192 13.5 25.2648 13.5 24.9996V22.9996H11.5C11.2348 22.9996 10.9804 22.8943 10.7929 22.7067C10.6054 22.5192 10.5 22.2648 10.5 21.9996V17.9996C10.5 17.7344 10.6054 17.48 10.7929 17.2925C10.9804 17.105 11.2348 16.9996 11.5 16.9996H13.5V14.9996C13.5 14.7344 13.6054 14.48 13.7929 14.2925C13.9804 14.105 14.2348 13.9996 14.5 13.9996H18.5C18.7652 13.9996 19.0196 14.105 19.2071 14.2925C19.3946 14.48 19.5 14.7344 19.5 14.9996V16.9996H21.5C21.7652 16.9996 22.0196 17.105 22.2071 17.2925C22.3946 17.48 22.5 17.7344 22.5 17.9996V21.9996Z"
    fill="currentColor"
  />
</svg>
