<svg
  width="32"
  height="32"
  viewBox="0 0 33 32"
  fill="currentColor"
  xmlns="http://www.w3.org/2000/svg"
>
  <path
    d="M31.3598 29.5L26.3598 20.89L22.4998 14.3V2C22.4998 1.73478 22.3945 1.48043 22.207 1.29289C22.0194 1.10536 21.7651 1 21.4998 1H11.4998C11.2346 1 10.9803 1.10536 10.7927 1.29289C10.6052 1.48043 10.4998 1.73478 10.4998 2V14.3L7.27984 19.83L1.63984 29.5C1.55233 29.6516 1.50613 29.8235 1.50586 29.9985C1.50559 30.1735 1.55127 30.3456 1.63833 30.4974C1.72539 30.6492 1.85077 30.7756 2.00195 30.8638C2.15314 30.952 2.32482 30.9989 2.49984 31H30.4998C30.6749 30.9989 30.8466 30.952 30.9977 30.8638C31.1489 30.7756 31.2743 30.6492 31.3614 30.4974C31.4484 30.3456 31.4941 30.1735 31.4938 29.9985C31.4936 29.8235 31.4474 29.6516 31.3598 29.5ZM4.23984 29L8.72984 21.31C11.8147 21.1538 14.9061 21.44 17.9098 22.16C20.2217 22.7102 22.6158 22.8255 24.9698 22.5L28.7598 29H4.23984Z"
    fill="currentColor"
  />
</svg>
