<svg
  width="32"
  height="32"
  viewBox="0 0 33 32"
  fill="currentColor"
  xmlns="http://www.w3.org/2000/svg"
>
  <path
    d="M30.4303 12.5108H24.9503C24.7731 12.5111 24.5992 12.5585 24.4463 12.6481C24.2934 12.7377 24.1671 12.8663 24.0803 13.0208L22.0203 16.6608L18.8903 7.6608C18.819 7.45568 18.6828 7.27936 18.5024 7.15849C18.322 7.03761 18.1071 6.97875 17.8903 6.9908C17.6791 6.99717 17.4754 7.07027 17.3083 7.19962C17.1412 7.32897 17.0194 7.50792 16.9603 7.7108L15.5903 12.4908H13.5903C13.3872 12.4894 13.1884 12.5498 13.0205 12.6642C12.8526 12.7785 12.7234 12.9413 12.6503 13.1308L11.8303 15.2908L9.99031 8.9108C9.93355 8.70764 9.81401 8.52763 9.64877 8.39651C9.48353 8.2654 9.28106 8.1899 9.07031 8.1808C8.85471 8.16807 8.64078 8.22548 8.46052 8.34445C8.28027 8.46342 8.14337 8.63755 8.07031 8.8408L6.76031 12.5108H2.57031C2.3051 12.5108 2.05074 12.6162 1.86321 12.8037C1.67567 12.9912 1.57031 13.2456 1.57031 13.5108C1.57031 13.776 1.67567 14.0304 1.86321 14.2179C2.05074 14.4054 2.3051 14.5108 2.57031 14.5108H7.50031C7.70583 14.5107 7.90632 14.4473 8.07452 14.3292C8.24271 14.2111 8.37044 14.0441 8.44031 13.8508L8.95031 12.4408L10.7303 18.7708C10.786 18.9745 10.9047 19.1554 11.0695 19.2874C11.2343 19.4195 11.4367 19.496 11.6476 19.506C11.8586 19.516 12.0673 19.459 12.2438 19.3431C12.4203 19.2272 12.5556 19.0583 12.6303 18.8608L14.2903 14.5108H16.4103C16.6348 14.5191 16.8555 14.4516 17.0369 14.3192C17.2183 14.1867 17.3498 13.9971 17.4103 13.7808L18.1203 11.3208L20.9403 19.4108C21.0035 19.5937 21.1183 19.7544 21.271 19.8733C21.4236 19.9922 21.6075 20.0643 21.8003 20.0808H21.8903C22.0675 20.0805 22.2414 20.0331 22.3943 19.9435C22.5472 19.8539 22.6735 19.7253 22.7603 19.5708L25.5003 14.5108H30.3903C30.6555 14.5108 30.9099 14.4054 31.0974 14.2179C31.285 14.0304 31.3903 13.776 31.3903 13.5108C31.3903 13.2456 31.285 12.9912 31.0974 12.8037C30.9099 12.6162 30.6555 12.5108 30.3903 12.5108H30.4303Z"
    fill="currentColor"
  />
  <path
    d="M6.05 11.5105L7.15 8.51047C7.29326 8.11067 7.56006 7.76685 7.91176 7.52881C8.26347 7.29076 8.68182 7.17086 9.10622 7.18645C9.53063 7.20205 9.93905 7.35233 10.2723 7.61555C10.6056 7.87876 10.8465 8.24123 10.96 8.65047L11.96 12.2805C12.1483 12.0421 12.3885 11.8498 12.6623 11.7181C12.936 11.5864 13.2362 11.5188 13.54 11.5205H14.84L16 7.52047C16.1046 7.09666 16.3449 6.7187 16.6843 6.44425C17.0238 6.16981 17.4437 6.01395 17.88 6.00047C18.3036 5.98949 18.7198 6.11336 19.0685 6.35419C19.4171 6.59503 19.6803 6.94039 19.82 7.34047L22.23 14.2305L23.23 12.5205C23.4062 12.2153 23.6599 11.962 23.9655 11.7864C24.271 11.6108 24.6176 11.5191 24.97 11.5205H30.45C30.8284 11.5236 31.1986 11.6308 31.52 11.8305C31.4439 9.00122 30.2966 6.30636 28.31 4.29047C26.8083 2.75433 24.8876 1.69431 22.7874 1.24262C20.6872 0.790925 18.5005 0.967552 16.5 1.75047C15.2426 1.25312 13.9022 0.998629 12.55 1.00047C11.0977 0.99892 9.65963 1.28736 8.32024 1.84888C6.98084 2.41039 5.76704 3.23368 4.75 4.27047C2.7464 6.28256 1.58431 8.98219 1.5 11.8205C1.82143 11.6208 2.19163 11.5136 2.57 11.5105H6.05Z"
    fill="currentColor"
  />
  <path
    d="M26.1197 15.5105L23.5497 20.0605C23.3735 20.3657 23.1198 20.6189 22.8142 20.7946C22.5087 20.9702 22.1621 21.0619 21.8097 21.0605H21.6397C21.2541 21.0275 20.8864 20.8834 20.5811 20.6455C20.2758 20.4077 20.046 20.0863 19.9197 19.7205L18.0997 14.5205C17.9244 14.8242 17.6722 15.0765 17.3686 15.252C17.0649 15.4276 16.7205 15.5201 16.3697 15.5205H14.9397L13.4997 19.2105C13.3433 19.5975 13.0697 19.9258 12.7173 20.1494C12.3649 20.3731 11.9513 20.4809 11.5346 20.4578C11.1179 20.4346 10.7188 20.2817 10.3933 20.0203C10.0679 19.759 9.83235 19.4024 9.71973 19.0005L8.61973 15.0905C8.29798 15.3415 7.90716 15.488 7.49973 15.5105H2.56973C2.36528 15.5047 2.16293 15.4676 1.96973 15.4005C1.96973 15.5205 2.01973 15.6305 2.04973 15.7405C2.59605 17.3701 3.50563 18.8541 4.70973 20.0805L14.8197 30.3005C15.0391 30.523 15.3007 30.6996 15.5892 30.8197C15.8777 30.9399 16.1872 31.0014 16.4997 31.0005C16.8122 31.0014 17.1218 30.9399 17.4102 30.8197C17.6987 30.6996 17.9603 30.523 18.1797 30.3005L28.2897 20.0805C29.4938 18.8541 30.4034 17.3701 30.9497 15.7405C30.9497 15.6305 30.9997 15.5205 31.0297 15.4005C30.8365 15.4676 30.6342 15.5047 30.4297 15.5105H26.1197Z"
    fill="currentColor"
  />
</svg>
