<svg
  width="32"
  height="32"
  viewBox="0 0 32 32"
  fill="currentColor"
  xmlns="http://www.w3.org/2000/svg"
>
  <path
    d="M30 9.00028H22V6.00028C21.9993 5.85008 21.9648 5.70196 21.899 5.56692C21.8332 5.43189 21.7379 5.31341 21.62 5.22028L16.62 1.22028C16.4435 1.08077 16.225 1.00488 16 1.00488C15.775 1.00488 15.5565 1.08077 15.38 1.22028L10.38 5.22028C10.2621 5.31341 10.1668 5.43189 10.101 5.56692C10.0352 5.70196 10.0007 5.85008 10 6.00028V9.00028H2C1.73478 9.00028 1.48043 9.10564 1.29289 9.29317C1.10536 9.48071 1 9.73506 1 10.0003V30.0003C1 30.2655 1.10536 30.5199 1.29289 30.7074C1.48043 30.8949 1.73478 31.0003 2 31.0003H30C30.2652 31.0003 30.5196 30.8949 30.7071 30.7074C30.8946 30.5199 31 30.2655 31 30.0003V10.0003C31 9.73506 30.8946 9.48071 30.7071 9.29317C30.5196 9.10564 30.2652 9.00028 30 9.00028ZM10 29.0003H3V24.3303H10V29.0003ZM10 22.3303H3V17.6703H10V22.3303ZM10 15.6703H3V11.0003H10V15.6703ZM19 29.0003H17V25.0003H15V29.0003H13V24.0003C13 23.7351 13.1054 23.4807 13.2929 23.2932C13.4804 23.1056 13.7348 23.0003 14 23.0003H18C18.2652 23.0003 18.5196 23.1056 18.7071 23.2932C18.8946 23.4807 19 23.7351 19 24.0003V29.0003ZM18 9.00028H17V10.0003C17 10.2655 16.8946 10.5199 16.7071 10.7074C16.5196 10.8949 16.2652 11.0003 16 11.0003C15.7348 11.0003 15.4804 10.8949 15.2929 10.7074C15.1054 10.5199 15 10.2655 15 10.0003V9.00028H14C13.7348 9.00028 13.4804 8.89492 13.2929 8.70739C13.1054 8.51985 13 8.2655 13 8.00028C13 7.73506 13.1054 7.48071 13.2929 7.29317C13.4804 7.10564 13.7348 7.00028 14 7.00028H15V6.00028C15 5.73506 15.1054 5.48071 15.2929 5.29317C15.4804 5.10564 15.7348 5.00028 16 5.00028C16.2652 5.00028 16.5196 5.10564 16.7071 5.29317C16.8946 5.48071 17 5.73506 17 6.00028V7.00028H18C18.2652 7.00028 18.5196 7.10564 18.7071 7.29317C18.8946 7.48071 19 7.73506 19 8.00028C19 8.2655 18.8946 8.51985 18.7071 8.70739C18.5196 8.89492 18.2652 9.00028 18 9.00028ZM22 11.0003H29V15.6703H22V11.0003ZM29 29.0003H22V24.3303H29V29.0003ZM22 22.3303V17.6703H29V22.3303H22Z"
    fill="currentColor"
  />
</svg>
