<svg width="387" height="272" viewBox="0 0 387 272" fill="none" xmlns="http://www.w3.org/2000/svg">
<g clip-path="url(#clip0_105_16347)">
<path d="M152.128 170.699C152.247 169.89 152.187 169.065 151.953 168.281C151.718 167.498 151.314 166.776 150.769 166.165C150.224 165.554 149.552 165.071 148.8 164.747C148.047 164.424 147.233 164.27 146.415 164.295L110.534 128.074L103.445 137.967L140.944 170.46C141.077 171.83 141.709 173.104 142.72 174.04C143.731 174.976 145.051 175.51 146.43 175.539C147.808 175.569 149.15 175.092 150.2 174.2C151.25 173.308 151.936 172.062 152.128 170.699Z" fill="#F0D8B5"/>
<path d="M135.132 149.785L125.974 158.919C125.535 159.353 124.943 159.599 124.325 159.601C123.707 159.604 123.112 159.363 122.67 158.932L97.6451 134.368C96.7799 133.519 96.0919 132.507 95.621 131.39C95.15 130.274 94.9055 129.075 94.9014 127.864C94.8974 126.652 95.1339 125.452 95.5974 124.332C96.0609 123.213 96.7421 122.196 97.6016 121.341C98.4611 120.486 99.4819 119.809 100.605 119.351C101.728 118.892 102.931 118.66 104.144 118.668C105.358 118.677 106.557 118.925 107.674 119.399C108.791 119.873 109.802 120.564 110.65 121.43L135.153 146.491C135.582 146.933 135.821 147.526 135.817 148.142C135.813 148.758 135.567 149.348 135.132 149.785Z" fill="#E7620A"/>
<path d="M103.013 104.955C110.086 104.955 115.821 99.2293 115.821 92.1668C115.821 85.1042 110.086 79.3789 103.013 79.3789C95.9386 79.3789 90.2041 85.1042 90.2041 92.1668C90.2041 99.2293 95.9386 104.955 103.013 104.955Z" fill="#F0D8B5"/>
<path d="M59.7334 245.409L62.9766 250.91L85.7721 241.039L80.9853 232.92L59.7334 245.409Z" fill="#F0D8B5"/>
<path d="M60.7052 242.949L67.0921 253.782C67.6266 254.689 67.9773 255.692 68.1236 256.734C68.2699 257.776 68.2092 258.836 67.945 259.855C67.6808 260.873 67.2183 261.83 66.5839 262.67C65.9494 263.51 65.1555 264.217 64.2473 264.75L64.0226 264.882L53.5654 247.145L60.7052 242.949Z" fill="#2F2E41"/>
<path d="M97.3106 265.226H103.704L106.745 240.605L97.3096 240.606L97.3106 265.226Z" fill="#F0D8B5"/>
<path d="M95.6807 263.143L108.272 263.143H108.272C109.326 263.143 110.369 263.35 111.343 263.752C112.316 264.155 113.201 264.745 113.946 265.489C114.691 266.233 115.282 267.116 115.685 268.088C116.088 269.06 116.296 270.101 116.296 271.154V271.414L95.6811 271.415L95.6807 263.143Z" fill="#2F2E41"/>
<path d="M71.6067 250.31C71.2387 250.31 70.8759 250.223 70.5476 250.058C70.2192 249.892 69.9346 249.651 69.7168 249.355L63.5508 240.994C63.3627 240.739 63.2283 240.449 63.1558 240.14C63.0833 239.832 63.0742 239.512 63.129 239.2C63.1839 238.888 63.3015 238.591 63.4747 238.325C63.648 238.06 63.8734 237.833 64.1372 237.657L91.5751 219.36L75.0195 175.898L110.423 178.815L111.616 216.164C111.728 219.565 110.911 222.933 109.253 225.907C107.596 228.88 105.16 231.348 102.205 233.046L72.7792 249.995C72.4229 250.201 72.0184 250.309 71.6067 250.31Z" fill="#2F2E41"/>
<path d="M97.5036 260.227C96.8964 260.226 96.3133 259.99 95.8768 259.569C95.4403 259.147 95.1843 258.574 95.1627 257.968L93.8652 221.583L109.932 220.738L108.652 257.384C108.633 257.965 108.399 258.517 107.994 258.934C107.589 259.352 107.043 259.603 106.462 259.64L97.6631 260.222C97.6098 260.226 97.5565 260.227 97.5036 260.227Z" fill="#2F2E41"/>
<path d="M114.521 186.04C110.433 186.04 96.1556 181.45 91.199 179.814C90.4575 180.406 86.384 183.447 81.629 182.891C78.6951 182.548 76.1122 180.89 73.9521 177.963C69.182 171.5 75.0736 143.781 80.8562 121.667C82.0154 117.196 84.8653 113.349 88.8068 110.933C92.7483 108.518 97.4744 107.722 101.992 108.713C105.266 109.434 108.273 111.053 110.676 113.387C113.08 115.721 114.783 118.678 115.596 121.926C116.685 126.35 115.748 131.555 115.064 135.356C114.743 137.142 114.489 138.554 114.576 139.247C114.911 141.928 116.776 183.967 115.577 185.763C115.449 185.954 115.08 186.04 114.521 186.04Z" fill="#E7620A"/>
<path d="M99.5675 186.115C100.224 185.626 100.766 185 101.155 184.28C101.543 183.56 101.768 182.764 101.815 181.948C101.862 181.132 101.729 180.315 101.426 179.555C101.122 178.796 100.655 178.112 100.059 177.552L100.312 126.609L88.2939 128.607L91.8241 178.054C90.9483 179.118 90.4937 180.465 90.5464 181.84C90.5991 183.216 91.1553 184.525 92.1098 185.518C93.0643 186.512 94.3507 187.121 95.7252 187.231C97.0997 187.341 98.4668 186.944 99.5675 186.115Z" fill="#F0D8B5"/>
<path d="M102.347 159.325H89.4022C88.7841 159.323 88.1914 159.079 87.7523 158.644C87.3133 158.21 87.0629 157.62 87.0555 157.003L86.7377 121.967C86.7266 120.756 86.9563 119.554 87.4134 118.432C87.8704 117.309 88.5458 116.289 89.4005 115.429C90.2552 114.569 91.2722 113.886 92.3927 113.421C93.5132 112.956 94.7149 112.717 95.9284 112.719C97.1419 112.72 98.343 112.962 99.4624 113.43C100.582 113.898 101.597 114.582 102.45 115.445C103.302 116.307 103.975 117.329 104.429 118.453C104.884 119.576 105.11 120.778 105.096 121.99L104.693 157.009C104.684 157.625 104.433 158.213 103.994 158.646C103.555 159.079 102.964 159.323 102.347 159.325Z" fill="#E7620A"/>
<path d="M99.7521 104.901C93.8877 104.912 88.3552 100.284 87.339 94.5174C86.9752 92.2521 87.1392 89.9335 87.8184 87.7418C88.5558 85.2467 89.8204 82.9384 91.527 80.9726C93.2336 79.0068 95.3425 77.4292 97.7115 76.346C100.081 75.2628 102.655 74.6993 105.26 74.6934C107.866 74.6875 110.442 75.2394 112.816 76.3119C114.385 77.0207 115.93 78.0387 116.649 79.6011C117.367 81.1636 116.918 83.3474 115.346 84.0505C114.319 84.5099 113.031 84.2843 112.12 84.9438C110.811 85.891 111.148 87.907 111.732 89.4116C112.316 90.9162 112.977 92.7369 111.998 94.0206C111.085 95.2168 109.261 95.1797 107.824 94.7294C106.387 94.2792 104.968 93.5253 103.47 93.6786C101.285 93.9023 99.7142 96.0725 99.4235 98.2464C99.1328 100.42 99.8171 102.593 100.493 104.68L99.7521 104.901Z" fill="#2F2E41"/>
<path d="M260.026 117.952C260.026 82.9822 288.421 0 323.447 0C358.474 0 386.868 82.9822 386.868 117.952C386.868 134.746 380.186 150.851 368.293 162.726C356.399 174.6 340.267 181.271 323.447 181.271C306.627 181.271 290.496 174.6 278.602 162.726C266.708 150.851 260.026 134.746 260.026 117.952Z" fill="#E7620A"/>
<path d="M323.448 272C323.31 272 323.177 271.945 323.08 271.848C322.982 271.75 322.927 271.618 322.927 271.48V53.1769C322.927 53.0388 322.982 52.9064 323.08 52.8087C323.177 52.7111 323.31 52.6562 323.448 52.6562C323.587 52.6562 323.719 52.7111 323.817 52.8087C323.915 52.9064 323.97 53.0388 323.97 53.1769V271.48C323.97 271.618 323.915 271.75 323.817 271.848C323.719 271.945 323.587 272 323.448 272Z" fill="#3F3D56"/>
<path d="M323.447 95.3211C323.379 95.3212 323.311 95.3077 323.248 95.2816C323.184 95.2554 323.127 95.217 323.078 95.1685L297.977 70.1071C297.88 70.0093 297.826 69.8772 297.826 69.7397C297.827 69.6021 297.882 69.4704 297.979 69.3732C298.076 69.2759 298.208 69.2211 298.346 69.2207C298.484 69.2203 298.616 69.2743 298.714 69.3709L323.816 94.4323C323.889 94.5051 323.939 94.5979 323.959 94.6989C323.979 94.7999 323.968 94.9045 323.929 94.9997C323.889 95.0948 323.823 95.1761 323.737 95.2333C323.651 95.2905 323.55 95.3211 323.447 95.3211Z" fill="#3F3D56"/>
<path d="M323.448 138.706C323.345 138.706 323.244 138.676 323.159 138.619C323.073 138.561 323.006 138.48 322.966 138.385C322.927 138.29 322.917 138.185 322.937 138.084C322.957 137.983 323.007 137.89 323.079 137.818L365.117 95.8473C365.215 95.7507 365.347 95.6968 365.485 95.6973C365.623 95.6977 365.755 95.7525 365.852 95.8497C365.949 95.9469 366.004 96.0786 366.005 96.2161C366.005 96.3535 365.951 96.4856 365.855 96.5835L323.817 138.554C323.769 138.602 323.711 138.641 323.648 138.667C323.585 138.693 323.517 138.706 323.448 138.706Z" fill="#3F3D56"/>
<path d="M147.937 170.403C156.257 168.525 165.683 175.023 165.975 183.746C166.058 186.2 165.337 188.776 163.446 190.446C161.885 191.824 159.562 192.519 157.544 191.845C153.66 190.549 153.453 185.146 155.536 182.26C158.357 178.353 163.945 177.685 168.38 178.15C173.801 178.718 178.954 181.092 183.278 184.345C191.934 190.857 197.446 200.838 201.907 210.481C206.475 220.374 209.796 230.793 211.795 241.502C212.046 242.847 212.277 244.195 212.486 245.547C212.545 245.745 212.68 245.912 212.862 246.012C213.043 246.111 213.257 246.135 213.456 246.079C213.652 246.017 213.817 245.881 213.916 245.701C214.015 245.521 214.041 245.309 213.988 245.111C212.162 233.425 208.789 222.034 203.958 211.236C199.286 200.785 193.397 189.945 184.029 182.97C179.359 179.493 173.844 177.074 168.007 176.556C163.094 176.121 157.276 177.159 154.22 181.425C151.81 184.791 152.055 190.385 155.784 192.729C157.835 194.018 160.44 193.867 162.57 192.865C163.699 192.308 164.694 191.512 165.486 190.533C166.277 189.554 166.845 188.415 167.151 187.194C168.476 182.35 166.465 177.109 163.017 173.646C159.781 170.387 155.383 168.541 150.787 168.512C149.68 168.524 148.578 168.655 147.499 168.903C146.517 169.125 146.956 170.624 147.937 170.403Z" fill="#CCCCCC"/>
<path d="M188.062 266.341L182.892 257.527L189.267 253.799L194.438 262.612C194.933 263.456 195.072 264.463 194.824 265.409C194.577 266.356 193.963 267.165 193.117 267.659C192.272 268.154 191.264 268.293 190.316 268.045C189.368 267.798 188.557 267.185 188.062 266.341Z" fill="#E7620A"/>
<path d="M170.966 248.021C173.477 248.021 175.513 245.988 175.513 243.481C175.513 240.974 173.477 238.941 170.966 238.941C168.455 238.941 166.419 240.974 166.419 243.481C166.419 245.988 168.455 248.021 170.966 248.021Z" fill="#E7620A"/>
<path d="M208.067 266.341L202.896 257.527L209.272 253.799L214.442 262.612C214.936 263.456 215.075 264.462 214.827 265.407C214.579 266.353 213.965 267.162 213.12 267.656C212.275 268.15 211.268 268.289 210.321 268.043C209.373 267.796 208.563 267.184 208.067 266.341Z" fill="#E7620A"/>
<path d="M171.83 252.627C171.833 250.07 172.852 247.618 174.663 245.809C176.475 244.001 178.931 242.983 181.492 242.98H212.078C213.161 242.982 214.199 243.412 214.965 244.176C215.73 244.941 216.161 245.977 216.162 247.058V250.533C216.159 253.646 214.919 256.63 212.714 258.831C210.509 261.032 207.52 262.27 204.402 262.274H181.492C178.931 262.271 176.475 261.254 174.663 259.445C172.852 257.637 171.833 255.185 171.83 252.627Z" fill="#3F3D56"/>
<path d="M178.884 267.478V257.264H186.272V267.478C186.272 268.456 185.883 269.394 185.19 270.086C184.498 270.778 183.558 271.166 182.578 271.166C181.598 271.166 180.659 270.778 179.966 270.086C179.273 269.394 178.884 268.456 178.884 267.478Z" fill="#3F3D56"/>
<path d="M200.323 267.478V257.264H207.712V267.478C207.713 267.962 207.617 268.443 207.432 268.891C207.247 269.339 206.975 269.746 206.631 270.089C206.288 270.432 205.881 270.704 205.432 270.889C204.984 271.075 204.503 271.171 204.018 271.171C203.532 271.171 203.051 271.075 202.603 270.889C202.154 270.704 201.747 270.432 201.404 270.089C201.061 269.746 200.789 269.339 200.603 268.891C200.418 268.443 200.323 267.962 200.323 267.478Z" fill="#3F3D56"/>
<path d="M230.385 227.065C231.141 226.129 232.238 225.531 233.435 225.401C234.633 225.272 235.833 225.622 236.772 226.375C237.711 227.128 238.312 228.222 238.444 229.417C238.576 230.613 238.227 231.811 237.475 232.75L230.001 242.041L222.911 236.356L230.385 227.065Z" fill="#E7620A"/>
<path d="M212.381 245.368L218.369 237.924C219.825 236.119 221.938 234.963 224.246 234.712C226.554 234.46 228.868 235.133 230.68 236.583L232.551 238.083C234.707 239.816 236.087 242.332 236.387 245.079C236.688 247.827 235.884 250.581 234.153 252.738L229.22 258.87C228.675 259.546 227.884 259.979 227.019 260.073C226.155 260.167 225.289 259.915 224.611 259.372L212.884 249.969C212.207 249.425 211.774 248.635 211.68 247.772C211.585 246.91 211.837 246.045 212.381 245.368Z" fill="#3F3D56"/>
<path d="M231.274 225.96C231.531 225.64 231.848 225.374 232.208 225.177C232.568 224.98 232.964 224.856 233.372 224.811C233.78 224.767 234.193 224.803 234.587 224.918C234.981 225.033 235.348 225.224 235.669 225.481C235.989 225.737 236.255 226.054 236.452 226.414C236.65 226.773 236.774 227.168 236.819 227.575C236.863 227.983 236.827 228.395 236.712 228.788C236.597 229.182 236.405 229.549 236.148 229.868L227.785 240.265L222.91 236.357L231.274 225.96Z" fill="#3F3D56"/>
<path d="M219.293 243.34L232.144 253.644C233.081 254.399 233.679 255.495 233.808 256.69C233.937 257.885 233.587 259.082 232.833 260.019C232.079 260.956 230.984 261.557 229.787 261.689C228.59 261.821 227.39 261.473 226.45 260.723L213.599 250.419L219.293 243.34Z" fill="#3F3D56"/>
<path d="M233.393 260.361C234.056 259.536 234.222 258.569 233.763 258.201C233.304 257.833 232.394 258.203 231.731 259.028C231.067 259.853 230.901 260.82 231.36 261.188C231.819 261.556 232.729 261.186 233.393 260.361Z" fill="#E7620A"/>
<path d="M360.874 271.905H0.521494C0.383185 271.905 0.250541 271.85 0.152742 271.752C0.0549426 271.654 0 271.522 0 271.384C0 271.246 0.0549426 271.113 0.152742 271.016C0.250541 270.918 0.383185 270.863 0.521494 270.863H360.874C361.012 270.863 361.145 270.918 361.243 271.016C361.341 271.113 361.396 271.246 361.396 271.384C361.396 271.522 361.341 271.654 361.243 271.752C361.145 271.85 361.012 271.905 360.874 271.905Z" fill="#CCCCCC"/>
</g>
<defs>
<clipPath id="clip0_105_16347">
<rect width="386.869" height="272" fill="white"/>
</clipPath>
</defs>
</svg>
