<svg width="387" height="232" viewBox="0 0 387 232" fill="none" xmlns="http://www.w3.org/2000/svg">
<g clip-path="url(#clip0_162_4627)">
<path d="M307.44 35.4766C310.029 34.1953 313.385 35.6883 314.935 38.8114C315.822 40.5962 315.923 42.5254 315.367 44.0916L315.403 44.1627L325.577 62.2454L343.783 52.6887C347.197 50.5894 351.308 50.0239 353.685 53.2467C356.631 57.2401 355.078 62.9317 350.51 64.8812L326.753 75.0217C323.378 76.4623 319.472 74.895 318.035 71.523L309.508 46.9914C307.923 46.485 306.447 45.2359 305.561 43.4511C304.01 40.3281 304.852 36.7578 307.44 35.4766Z" fill="#E3B571"/>
<path d="M351.303 47.2754L330.324 57.6974L338.273 73.0795L359.392 60.6229" fill="#FFFBEF"/>
<path d="M328.319 215.867H320.452V226.219H328.319V215.867Z" fill="#E3B571"/>
<path d="M326.977 233.364H310.255C308.825 233.364 307.389 233.037 306.101 232.419L303.018 230.94C302.381 230.634 301.969 229.98 301.969 229.274C301.969 228.446 302.527 227.713 303.326 227.492L309.686 225.735L320.567 220.025L320.575 220.067C320.779 221.095 321.094 222.65 321.134 222.744C322.25 224.02 323.396 224.608 324.541 224.492C326.538 224.29 327.865 221.988 327.878 221.965L327.889 221.947L327.909 221.949C328.377 221.997 328.722 222.186 328.937 222.509C329.393 223.195 329.115 224.251 329.069 224.41C329.615 224.943 329.859 227.919 329.878 228.159C330.667 228.994 331.042 229.796 330.992 230.544C330.949 231.198 330.586 231.805 329.913 232.349C329.103 233.004 328.061 233.364 326.977 233.364Z" fill="#090814"/>
<path d="M380.205 211.146L372.651 213.34L375.548 223.28L383.102 221.086L380.205 211.146Z" fill="#E3B571"/>
<path d="M383.811 228.32L367.754 232.984C366.381 233.382 364.911 233.469 363.501 233.235L360.127 232.674C359.429 232.558 358.851 232.045 358.653 231.367C358.422 230.572 358.753 229.713 359.459 229.278L365.074 225.817L373.924 217.3L373.943 217.337C374.426 218.269 375.164 219.673 375.229 219.752C376.657 220.667 377.922 220.912 378.989 220.481C380.85 219.73 381.481 217.149 381.487 217.123L381.492 217.104L381.512 217.1C381.974 217.016 382.359 217.1 382.655 217.35C383.285 217.882 383.313 218.973 383.314 219.139C383.987 219.499 385.055 222.288 385.14 222.513C386.131 223.095 386.715 223.761 386.877 224.493C387.018 225.133 386.839 225.817 386.346 226.527C385.751 227.381 384.851 228.018 383.811 228.32Z" fill="#090814"/>
<path d="M357.803 29.8292C357.803 22.7773 352.077 17.0605 345.013 17.0605C337.95 17.0605 332.224 22.7773 332.224 29.8292C332.224 35.5484 335.99 40.3887 341.181 42.0143L343.654 58.3275L356.258 47.8412C356.258 47.8412 353.535 44.3785 352.075 40.4742C355.526 38.1876 357.803 34.2746 357.803 29.8292Z" fill="#E3B571"/>
<path d="M362.849 92.849L364.695 67.0441C364.855 64.8063 364.572 62.5588 363.861 60.4305L358.39 44.0449L342.275 49.2126L335.475 64.7439L331.772 71.5224C330.086 74.6083 330.638 78.4343 333.127 80.9199L335.475 83.2641L332.202 95.2475L332.546 95.2353L332.082 95.2947C332.082 95.2947 310.205 161.011 310.988 216.899H339.072L340.739 152.022L345.618 219.417L382.625 217.29L362.849 92.849Z" fill="#FFFBEF"/>
<path d="M361.909 46.606C361.909 46.606 361.312 51.1298 355.779 51.2775C348.296 51.4773 344.554 51.5772 344.554 51.5772C344.554 51.5772 354.043 28.5235 350.141 31.1207C346.24 33.7178 335.836 22.8298 335.836 22.8298L332.766 28.5779C332.766 28.5779 325.432 25.9264 333.56 19.4335C333.56 19.4335 343.258 11.9479 353.554 16.443C363.849 20.9381 361.909 46.606 361.909 46.606Z" fill="#090814"/>
<path d="M316.519 97.9354C316.369 95.0546 319.075 92.5734 322.562 92.3936C324.555 92.2908 326.368 92.9639 327.587 94.0957L327.666 94.0916L348.33 91.955L346.78 71.4773C346.206 67.5161 347.32 63.5243 351.227 62.6269C356.068 61.515 360.682 65.1996 360.659 70.1588L360.541 95.9538C360.524 99.6184 357.532 102.574 353.861 102.551L327.924 100.616C326.829 101.867 325.094 102.723 323.102 102.826C319.615 103.006 316.668 100.816 316.519 97.9354Z" fill="#E3B571"/>
<path d="M344.792 62.4371L346.036 85.7987L363.333 84.6274L360.274 60.3301" fill="#FFFBEF"/>
<path d="M317.129 28.9746H218.127C215.402 28.9746 213.192 31.1801 213.192 33.9008V33.9008C213.192 36.6215 215.402 38.827 218.127 38.827H317.129C319.854 38.827 322.063 36.6215 322.063 33.9008C322.063 31.1801 319.854 28.9746 317.129 28.9746Z" fill="#E7620A"/>
<path d="M317.129 69.0195H239.456C236.731 69.0195 234.521 71.2251 234.521 73.9457V73.9457C234.521 76.6664 236.731 78.8719 239.456 78.8719H317.129C319.855 78.8719 322.064 76.6664 322.064 73.9457C322.064 71.2251 319.855 69.0195 317.129 69.0195Z" fill="#E7620A"/>
<path d="M302.485 95.0801H317.128C319.853 95.0801 322.063 97.2856 322.063 100.006C322.063 102.727 319.853 104.932 317.128 104.932H302.485C299.76 104.932 297.551 102.727 297.551 100.006C297.551 97.2856 299.76 95.0801 302.485 95.0801Z" fill="#E7620A"/>
<path d="M164.646 56.3047H90.7926C88.0675 56.3047 85.8584 58.5102 85.8584 61.2309V61.2309C85.8584 63.9516 88.0675 66.1571 90.7926 66.1571H164.646C167.371 66.1571 169.581 63.9516 169.581 61.2309C169.581 58.5102 167.371 56.3047 164.646 56.3047Z" fill="#FFFBEF"/>
<path d="M90.7926 81.7305H112.439C115.164 81.7305 117.374 83.936 117.374 86.6567C117.374 89.3773 115.164 91.5828 112.439 91.5828H90.7926C88.0675 91.5828 85.8584 89.3773 85.8584 86.6567C85.8584 83.936 88.0675 81.7305 90.7926 81.7305Z" fill="#FFFBEF"/>
<path d="M317.129 42.959H246.459C243.734 42.959 241.524 45.1645 241.524 47.8852V47.8852C241.524 50.6058 243.734 52.8114 246.459 52.8114H317.129C319.854 52.8114 322.063 50.6058 322.063 47.8852C322.063 45.1645 319.854 42.959 317.129 42.959Z" fill="#E7620A"/>
<path d="M5.67316 208.168L12.2031 212.975L17.0172 206.455L10.4872 201.649L5.67316 208.168Z" fill="#E8CB98"/>
<path d="M0.593489 212.284C0.368282 211.422 0.438999 210.696 0.803768 210.126C1.22097 209.475 2.02399 209.038 3.19038 208.827C3.35332 208.639 5.38061 206.319 6.16008 206.21C6.21976 206.049 6.63642 205.003 7.43486 204.712C7.81097 204.575 8.21348 204.63 8.63124 204.876L8.64942 204.886L8.64691 204.907C8.64361 204.935 8.33445 207.657 9.86809 209.044C10.7474 209.84 12.0592 210.052 13.7676 209.674C13.8587 209.621 15.073 208.523 15.8726 207.793L15.9045 207.764L21.4362 219.151L25.6385 224.495C26.1666 225.167 26.181 226.116 25.6735 226.803C25.2407 227.389 24.498 227.68 23.7814 227.545L20.3157 226.889C18.8675 226.616 17.475 226.009 16.2886 225.136L2.4082 214.92C1.5089 214.258 0.864417 213.322 0.593489 212.284Z" fill="#090814"/>
<path d="M79.8053 226.756H87.918V218.656H79.8053V226.756Z" fill="#E8CB98"/>
<path d="M78.1627 233.078C77.4688 232.517 77.0942 231.891 77.0494 231.217C76.9982 230.445 77.3848 229.618 78.1982 228.757C78.2177 228.509 78.4702 225.44 79.0328 224.891C78.9856 224.726 78.6991 223.637 79.1688 222.93C79.3901 222.597 79.7468 222.403 80.229 222.353L80.25 222.351L80.2604 222.369C80.274 222.393 81.643 224.767 83.7023 224.976C84.8829 225.095 86.0649 224.489 87.2156 223.173C87.2569 223.075 87.582 221.473 87.7919 220.412L87.8003 220.369L99.0206 226.257L105.579 228.069C106.404 228.297 106.979 229.052 106.979 229.906C106.979 230.634 106.555 231.309 105.897 231.624L102.718 233.15C101.39 233.787 99.9086 234.124 98.4346 234.124H81.1899C80.0726 234.124 78.9975 233.753 78.1627 233.078Z" fill="#090814"/>
<path d="M38.4811 90.0996H77.3624L90.3229 219.696H77.3624L57.383 136.537L51.4415 160L18.7212 211.254L5.83398 198.725L33.6221 154.898L38.4811 90.0996Z" fill="#090814"/>
<path d="M50.1611 17.0249C50.1611 9.75266 56.066 3.85742 63.3499 3.85742C70.634 3.85742 76.5389 9.75266 76.5389 17.0249C76.5389 22.9226 72.6548 27.9142 67.3014 29.5905L64.7518 46.4132L51.754 35.5993C51.754 35.5993 54.5619 32.0286 56.0678 28.0023C52.5087 25.6442 50.1611 21.609 50.1611 17.0249Z" fill="#E8CB98"/>
<path d="M56.4338 28.4036C56.4338 28.4036 53.919 15.7008 57.5537 17.2128C61.1883 18.7247 60.2158 21.2808 60.2158 21.2808L63.699 16.14V10.2433L65.9706 7.67292L75.6631 11.7553C75.6631 11.7553 80.8122 -3.36455 66.1221 1.47379C66.1221 1.47379 53.5522 -3.66695 49.9175 5.25374C41.3004 25.3493 56.4338 28.4036 56.4338 28.4036Z" fill="#090814"/>
<path d="M38.6141 90.9538L73.0822 91.1064C75.9518 91.251 78.3184 89.5485 78.0463 87.5352L71.5145 39.2136L59.8345 33.1018C57.3704 31.8124 54.3508 32.2894 52.4058 34.2753L45.4842 41.3423C43.6688 43.1959 42.5023 45.325 42.0799 47.5557L38.8485 79.5468C38.6361 80.6684 38.8183 81.8094 39.379 82.8701L40.6467 85.2679C41.9904 87.8095 34.7667 90.76 38.6141 90.9538Z" fill="#E7620A"/>
<path d="M80.4207 96.7047L69.7412 89.6882L73.8446 83.4629L84.5241 90.4794C86.3786 90.0676 88.5538 90.4505 90.4563 91.7005C93.7853 93.8876 95.0142 97.8903 93.2012 100.641C91.3882 103.391 87.2199 103.848 83.8909 101.661C81.9884 100.411 80.7757 98.5679 80.4207 96.7047Z" fill="#E8CB98"/>
<path d="M48.1807 55.7697L51.5335 82.311L73.3911 95.9027L83.2893 86.1982L62.0035 74.6845L65.202 43.3711" fill="#E7620A"/>
</g>
<defs>
<clipPath id="clip0_162_4627">
<rect width="387" height="234.124" fill="white"/>
</clipPath>
</defs>
</svg>
