<svg width="284" height="244" viewBox="0 0 284 244" fill="none" xmlns="http://www.w3.org/2000/svg">
<g clip-path="url(#clip0_141_3836)">
<path d="M138.243 179.584C144.993 181.689 149.378 186.879 148.037 191.174C146.696 195.47 140.138 197.244 133.386 195.137C130.677 194.332 128.201 192.89 126.163 190.932L97.6763 181.648L102.318 168.373L129.908 178.934C132.698 178.482 135.556 178.705 138.243 179.584Z" fill="#FFB6B6"/>
<path d="M77.2157 82.1773C70.4232 81.3728 64.1689 85.9637 62.9035 92.6856C58.3902 116.662 48.8043 168.508 50.0667 169.771C51.7101 171.414 113.066 189.492 113.066 189.492L120.187 174.153L79.6489 154.432L88.5395 97.0871C89.6682 89.8072 84.5315 83.0438 77.2157 82.1773Z" fill="#E6E6E6"/>
<path d="M151.135 204.522C144.548 207.094 137.882 205.781 136.246 201.589C134.609 197.398 138.622 191.915 145.211 189.343C147.829 188.279 150.663 187.858 153.477 188.114L181.521 177.566L186.19 190.832L158.048 199.822C156.152 201.918 153.781 203.53 151.135 204.522Z" fill="#A0616A"/>
<path d="M191.576 90.6637C198.299 89.4046 204.848 93.5648 206.562 100.187C212.676 123.805 225.725 174.89 224.55 176.235C223.021 177.985 163.019 200.145 163.019 200.145L154.882 185.32L194.004 162.918L181.28 106.301C179.665 99.1132 184.335 92.0199 191.576 90.6637Z" fill="#E6E6E6"/>
<path d="M72.4037 85.6203L75.745 64.7373L53.1914 55.5488L49.8501 87.2909L72.4037 85.6203Z" fill="#FFB6B6"/>
<path d="M204.127 88.9074L200.786 68.0244L223.339 58.8359L226.681 90.578L204.127 88.9074Z" fill="#A0616A"/>
<path d="M66.7048 71.4517C79.407 71.4517 89.7041 61.1545 89.7041 48.4524C89.7041 35.7502 79.407 25.4531 66.7048 25.4531C54.0027 25.4531 43.7056 35.7502 43.7056 48.4524C43.7056 61.1545 54.0027 71.4517 66.7048 71.4517Z" fill="#FFB6B6"/>
<path d="M64.869 17.5312C65.5345 17.9197 66.4259 17.332 66.6393 16.5915C66.8527 15.851 66.6041 15.0649 66.3576 14.3348L65.1167 10.6593C64.2366 8.05257 63.3025 5.35476 61.3965 3.37071C58.5196 0.376107 53.9475 -0.385709 49.8317 0.166199C44.5462 0.874956 39.3313 3.73698 36.8737 8.46972C34.4161 13.2025 35.4624 19.8063 39.9031 22.7591C33.5741 30.0131 31.3679 38.0975 31.7163 47.7181C32.0646 57.3387 42.5487 66.1928 49.3858 72.9702C50.9126 72.0446 52.3007 67.7071 51.4611 66.1314C50.6214 64.5557 51.8244 62.7302 50.7846 61.2787C49.7447 59.8273 48.8748 62.1384 49.926 60.6952C50.5894 59.7846 48.0003 57.6895 48.9864 57.1445C53.7557 54.5082 55.3419 48.5634 58.3374 44.0111C61.9504 38.5201 68.1341 34.8016 74.6782 34.1847C78.283 33.8449 82.0906 34.4604 85.0454 36.5532C88.0002 38.646 89.9131 42.3858 89.2279 45.9413C91.0024 44.1395 91.8857 41.499 91.5526 38.9921C91.2194 36.4853 89.677 34.1671 87.4935 32.8914C88.8212 28.5008 87.6838 23.4504 84.6022 20.0529C81.5206 16.6553 69.02 17.234 64.5211 18.1281" fill="#2F2E41"/>
<path d="M64.1703 34.3184C58.2116 34.9616 53.9093 40.1231 50.2763 44.8898C48.1824 47.6372 45.989 50.6712 46.0416 54.1252C46.0947 57.6173 48.4295 60.6125 49.5454 63.9219C51.3692 69.3313 49.5916 75.7672 45.25 79.4736C49.54 80.2877 54.1777 77.0711 54.9183 72.7677C55.7804 67.7581 51.9829 62.9231 52.4327 57.8598C52.8289 53.3989 56.3442 49.9658 59.3328 46.6304C62.3213 43.2951 65.1281 38.8691 63.7532 34.607" fill="#2F2E41"/>
<path d="M75.0095 82.1197L48.9709 74.998L22.1277 85.9544L10.6235 176.892L76.3618 179.084V164.415C76.3618 164.415 87.866 150.049 85.6747 129.232L83.4834 108.415L75.0095 82.1197Z" fill="#E6E6E6"/>
<path d="M87.0443 119.097L35.5494 116.357L21.58 156.074C21.58 156.074 4.3237 179.904 1.5846 197.435C-1.15449 214.965 0.488961 239.617 0.488961 239.617H82.9292L76.3619 164.415C76.3619 164.415 91.6943 131.149 89.9171 125.396C88.14 119.644 87.0443 119.097 87.0443 119.097Z" fill="#564A3D"/>
<path d="M47.6013 75.2715H35.0015V121.836H47.6013V75.2715Z" fill="#564A3D"/>
<path d="M86.4963 85.6797H73.8965V124.027H86.4963V85.6797Z" fill="#564A3D"/>
<path d="M200.426 86.5025L226.465 79.3809L253.308 90.3372L264.812 181.275L199.074 183.466V168.798C199.074 168.798 192.349 153.802 198.8 133.889C205.1 114.441 191.952 112.798 191.952 112.798L200.426 86.5025Z" fill="#E6E6E6"/>
<path d="M188.391 123.479L239.886 120.74L253.855 160.457C253.855 160.457 262.346 187.574 265.085 205.104C267.824 222.635 274.946 243.999 274.946 243.999H192.506L190.034 171.687L188.391 123.479Z" fill="#564A3D"/>
<path d="M240.434 79.6543H227.834V126.219H240.434V79.6543Z" fill="#564A3D"/>
<path d="M201.538 90.0625H188.938V128.41H201.538V90.0625Z" fill="#564A3D"/>
<path d="M209.22 74.6486C225.129 74.6486 238.026 61.7519 238.026 45.8429C238.026 29.9339 225.129 17.0371 209.22 17.0371C193.311 17.0371 180.414 29.9339 180.414 45.8429C180.414 61.7519 193.311 74.6486 209.22 74.6486Z" fill="#A0616A"/>
<path d="M237.554 61.4684C237.554 61.4684 223.617 44.7446 218.043 46.1383C212.468 47.5319 215.952 49.6224 215.952 49.6224L202.016 34.2923C202.016 34.2923 190.867 30.1113 180.414 43.351C180.414 43.351 174.143 32.2018 180.414 25.9303C186.686 19.6589 188.776 20.3557 190.17 16.8716C191.563 13.3875 201.319 10.6002 201.319 10.6002C201.319 10.6002 200.759 5.58524 203.826 8.09272C206.894 10.6002 214.553 10.6002 214.553 10.6002C214.553 10.6002 214.597 7.81289 217.714 10.6002C220.83 13.3875 224.314 11.9938 224.314 11.9938C224.314 11.9938 224.314 16.8168 226.753 16.8442C229.192 16.8716 233.373 13.3875 234.07 16.1748C234.767 18.9621 239.644 20.3557 240.341 28.7176C241.038 37.0796 237.554 61.4684 237.554 61.4684Z" fill="#2F2E41"/>
<path d="M130.72 104.463L153.022 146.624L149.965 148.242L127.663 106.08C127.339 105.468 127.573 104.708 128.185 104.385L129.024 103.941C129.636 103.617 130.396 103.851 130.72 104.463Z" fill="#564A3D"/>
<path d="M167.875 162.559C162.201 161.096 156.265 163.686 153.418 168.808C149.853 175.221 145.78 180.482 147.144 167.943C148.645 154.14 140.547 142.991 146.911 139.625C153.275 136.258 159.847 146.489 170.19 155.752C179.776 164.337 174.248 164.202 167.875 162.559Z" fill="#564A3D"/>
<path d="M135.033 112.992C141.465 110.055 148.194 110.993 150.062 115.087C151.931 119.181 148.231 124.879 141.796 127.816C139.242 129.024 136.435 129.603 133.611 129.505L106.202 141.604L100.798 128.62L128.393 118.071C130.169 115.872 132.446 114.13 135.033 112.992Z" fill="#FFB6B6"/>
<path d="M24.5772 81.1849C18.9819 85.1192 17.3884 92.7122 20.9324 98.5625C33.5731 119.429 61.0376 164.437 62.8202 164.534C65.141 164.661 122.897 137.175 122.897 137.175L117.963 120.999L74.6125 133.368L42.9608 84.7304C38.9426 78.5559 30.6034 76.9476 24.5772 81.1849Z" fill="#E6E6E6"/>
<path d="M137.773 177.742L211.863 138.551L220.958 155.744C228.803 170.576 223.131 188.986 208.3 196.832L187.956 207.593C173.124 215.439 154.714 209.767 146.868 194.936L137.773 177.742Z" fill="#E7620A"/>
<path d="M200.545 204.085C194.113 207.023 187.384 206.086 185.515 201.992C183.646 197.899 187.345 192.2 193.779 189.262C196.333 188.054 199.14 187.474 201.964 187.572L229.372 175.469L234.778 188.452L207.184 199.005C205.408 201.204 203.132 202.946 200.545 204.085Z" fill="#A0616A"/>
<path d="M256.289 88.2027C263.081 87.3982 269.335 91.9891 270.601 98.711C275.114 122.687 284.7 174.534 283.438 175.796C281.794 177.44 220.439 195.518 220.439 195.518L213.317 180.179L253.855 160.457L244.965 103.112C243.836 95.8326 248.973 89.0692 256.289 88.2027Z" fill="#E6E6E6"/>
</g>
<defs>
<clipPath id="clip0_141_3836">
<rect width="283.551" height="244" fill="white"/>
</clipPath>
</defs>
</svg>
