<svg width="277" height="251" viewBox="0 0 277 251" fill="none" xmlns="http://www.w3.org/2000/svg">
<g clip-path="url(#clip0_73_1435)">
<path d="M133.141 50.2955C136.225 47.165 140.344 46.2146 142.34 48.1727C144.337 50.1307 143.456 54.255 140.371 57.3862C139.155 58.6538 137.653 59.6127 135.99 60.1827L122.756 73.2821L116.726 66.9561L130.413 54.714C130.955 53.045 131.891 51.5298 133.141 50.2955Z" fill="#FFB6B6"/>
<path d="M90.8161 39.4822L104.692 70.1884L126.849 58.2244L134.779 62.4226C134.779 62.4226 116.666 92.6295 104.264 89.1908C91.8615 85.7521 69.8385 54.5727 73.8065 44.9498C77.7745 35.3269 90.8161 39.4822 90.8161 39.4822Z" fill="#E6E6E6"/>
<path d="M155.138 56.8155C151.917 53.8258 150.852 49.7445 152.76 47.6999C154.667 45.6553 158.825 46.4219 162.046 49.4131C163.35 50.5903 164.352 52.0618 164.968 53.7045L178.456 66.5439L172.281 72.7293L159.64 59.4152C157.953 58.9197 156.409 58.0283 155.138 56.8155Z" fill="#A0616A"/>
<path d="M223.079 58.7941L197.045 86.4429C197.045 86.4429 191.199 92.2133 181.58 83.8918C171.961 75.5704 161.267 61.918 161.267 61.918L167.267 55.4047L177.893 64.862C177.893 64.862 184.203 67.3944 184.641 69.033C185.08 70.6715 183.853 71.3493 185.825 70.8242C187.796 70.2992 187.834 69.1279 187.958 70.9043C188.081 72.6807 186.877 74.7568 189.155 72.7459C191.432 70.7349 192.112 71.9583 192.112 71.9583L208.751 49.9717C208.751 49.9717 219.503 41.4904 222.594 49.093C225.685 56.6956 223.079 58.7941 223.079 58.7941Z" fill="#FFDCA2"/>
<path d="M84.7318 244.125L94.8494 244.124L99.6625 205.195L84.7297 205.196L84.7318 244.125Z" fill="#FFB6B6"/>
<path d="M119.396 243.897C119.711 244.426 119.877 246.134 119.877 246.75C119.877 248.641 118.34 250.175 116.443 250.175H85.1101C83.8164 250.175 82.7675 249.129 82.7675 247.838V246.537C82.7675 246.537 81.2174 242.626 84.4087 237.805C84.4087 237.805 88.3749 241.58 94.3016 235.668L96.0493 232.51L108.7 241.739L115.713 242.6C117.247 242.788 118.607 242.571 119.396 243.897Z" fill="#0C0A09"/>
<path d="M201.342 64.4805H226.416V27.5231H201.342V64.4805Z" fill="#0C0A09"/>
<path d="M220.788 53.2102L219.91 42.625H208.234L205.646 53.8398L220.788 53.2102Z" fill="#A0616A"/>
<path opacity="0.1" d="M220.788 53.2102L219.91 42.625H208.234L205.646 53.8398L220.788 53.2102Z" fill="#0C0A09"/>
<path d="M92.3877 41.4527L92.5924 27.8402L84.177 22.6074L75.0264 33.7729L92.3877 41.4527Z" fill="#FFB6B6"/>
<path opacity="0.1" d="M92.3879 41.4527L92.9326 28.1794L84.1772 22.6074L87.1519 39.0338L92.3879 41.4527Z" fill="#0C0A09"/>
<path d="M212.234 45.9925C219.282 45.9925 224.996 40.2928 224.996 33.2619C224.996 26.2309 219.282 20.5312 212.234 20.5312C205.185 20.5312 199.471 26.2309 199.471 33.2619C199.471 40.2928 205.185 45.9925 212.234 45.9925Z" fill="#A0616A"/>
<path d="M209.014 19.8692C209.014 19.8692 209.014 14.6429 213.879 15.7628C218.744 16.8827 220.241 18.7492 220.241 18.7492C220.241 18.7492 222.112 21.7357 225.106 22.109C228.1 22.4823 230.72 31.0684 230.346 32.9349C229.971 34.8014 228.1 39.6544 230.72 41.8943C233.339 44.1341 237.082 47.4939 235.959 50.8536C234.836 54.2134 231.468 62.7994 231.468 62.7994C231.468 62.7994 240.863 64.1692 240.095 70.0172C240.095 70.0172 235.585 66.5325 229.597 66.5325C223.609 66.5325 224.358 55.6963 224.358 55.6963C224.358 55.6963 223.984 48.9871 222.861 47.1206C221.738 45.254 223.235 34.8014 217.622 29.2018C212.008 23.6022 209.014 19.8692 209.014 19.8692Z" fill="#0C0A09"/>
<path d="M210.511 18.75C210.511 18.75 203.4 20.2432 200.781 27.3361C198.161 34.4289 199.484 35.7487 199.484 35.7487C199.484 35.7487 198.905 40.0197 195.726 41.5173C192.548 43.0149 195.167 49.3612 195.167 49.3612C195.167 49.3612 194.419 55.7074 184.314 57.9472C174.21 60.187 196.986 77.3633 196.986 77.3633C196.986 77.3633 195.348 69.2566 205.827 68.8833C216.305 68.51 203.775 49.3611 203.775 49.3611L202.652 37.042C202.652 37.042 204.897 22.8564 211.634 20.9898C218.37 19.1233 210.511 18.75 210.511 18.75Z" fill="#0C0A09"/>
<path d="M92.414 32.0751C100.68 32.0751 107.38 25.3911 107.38 17.1459C107.38 8.9008 100.68 2.2168 92.414 2.2168C84.1484 2.2168 77.4478 8.9008 77.4478 17.1459C77.4478 25.3911 84.1484 32.0751 92.414 32.0751Z" fill="#FFB6B6"/>
<path d="M112.825 131.465L98.8832 226.101H81.3914L83.7173 172.08L84.9415 143.676L81.3914 130.155C81.3914 130.155 79.7728 127.15 78.4093 123.507C76.8723 119.396 75.6583 114.467 77.4605 112.13C78.1236 111.269 79.8477 110.631 82.1905 110.156C83.6221 109.865 85.2883 109.637 87.0872 109.461C97.4313 108.44 112.145 109.078 112.145 109.078L112.519 121.39L112.726 128.266L112.825 131.465Z" fill="#0C0A09"/>
<path d="M27.1252 229.048L36.0385 233.823L58.7486 201.803L45.5937 194.754L27.1252 229.048Z" fill="#FFB6B6"/>
<path d="M57.7701 245.212C57.7965 245.827 57.1324 247.41 56.8404 247.952C55.9428 249.619 53.8609 250.244 52.1902 249.348L24.5884 234.556C23.4487 233.945 23.0211 232.528 23.6334 231.391L24.2508 230.245C24.2508 230.245 24.741 226.068 29.8393 223.328C29.8393 223.328 31.5424 228.526 39.5682 226.116L42.6062 224.159L49.3717 238.262L55.1403 242.331C56.4024 243.221 57.7039 243.671 57.7701 245.212Z" fill="#0C0A09"/>
<path d="M112.726 128.265L105.327 143.065L83.7173 172.08L48.142 219.849L32.7346 211.593L74.9679 140.66L78.2596 127.071C78.2596 127.071 78.2596 125.603 78.4092 123.506C78.7016 119.358 79.5789 112.747 82.1905 110.156C82.5441 109.803 82.9284 109.525 83.3466 109.338C84.1321 108.985 85.4379 109.07 87.0871 109.46C93.9764 111.102 106.833 118.154 112.519 121.39L112.726 128.265Z" fill="#0C0A09"/>
<path d="M219.837 245.312L211.138 245.311L207 211.84L219.839 211.841L219.837 245.312Z" fill="#A0616A"/>
<path d="M190.032 245.115C189.761 245.57 189.618 247.039 189.618 247.568C189.618 249.194 190.94 250.513 192.571 250.513H219.512C220.624 250.513 221.526 249.613 221.526 248.504V247.385C221.526 247.385 222.859 244.022 220.115 239.877C220.115 239.877 216.705 243.123 211.609 238.04L210.106 235.324L199.229 243.26L193.199 244C191.88 244.162 190.711 243.975 190.032 245.115Z" fill="#0C0A09"/>
<path d="M254.107 235.086L246.065 238.395L229.441 209.029L241.31 204.145L254.107 235.086Z" fill="#A0616A"/>
<path d="M226.481 246.245C226.404 246.769 226.834 248.181 227.036 248.67C227.658 250.174 229.384 250.89 230.892 250.269L255.795 240.018C256.824 239.595 257.313 238.42 256.889 237.394L256.461 236.36C256.461 236.36 256.407 232.745 252.286 229.957C252.286 229.957 250.375 234.255 243.72 231.495L241.293 229.557L234.272 241.031L228.982 244.009C227.825 244.661 226.672 244.933 226.481 246.245Z" fill="#0C0A09"/>
<path d="M223.829 130.495L220.279 144.016L221.224 165.955L222.791 202.395L222.836 203.423L223.012 207.521L223.829 226.441H206.337L198.55 173.584L192.395 131.805L193.041 110.53L193.075 109.418C193.075 109.418 224.359 108.061 227.759 112.47C231.16 116.88 223.829 130.495 223.829 130.495Z" fill="#0C0A09"/>
<path d="M248.165 212.84L245.2 214.369L234.234 220.031L232.629 220.858L223.012 207.521L198.55 173.584L192.395 131.805L193.041 110.53C195.809 109.652 198.023 109.292 199.145 109.815C204.198 112.172 203.956 127.626 203.956 127.626L207.034 141.262L221.224 165.955L248.165 212.84Z" fill="#0C0A09"/>
<path d="M184.919 217.011C184.694 216.324 182.988 216.626 182.825 216.012C182.661 215.399 184.298 214.886 185.554 213.16C185.78 212.849 187.207 210.888 186.66 210.063C185.623 208.5 178.406 212.394 176.674 210.209C176.294 209.729 176.137 208.906 175.005 207.374C174.554 206.764 174.265 206.47 173.92 206.479C173.43 206.491 173.254 207.103 172.484 208.21C171.329 209.872 170.912 209.663 170.151 211.024C169.586 212.035 169.519 212.68 169.112 212.718C168.536 212.772 168.297 211.514 167.593 211.465C166.874 211.416 166.155 212.659 165.799 213.63C165.129 215.453 165.544 216.846 165.636 218.234C165.735 219.743 165.501 221.951 163.858 224.786L148.357 249.421C151.686 244.399 161.135 230.704 164.943 225.681C166.042 224.231 167.223 222.775 169.041 222.501C170.791 222.237 172.92 223.101 175.893 223.051C176.24 223.045 177.206 223.016 177.441 222.505C177.635 222.083 177.153 221.716 177.328 221.319C177.564 220.786 178.623 221.015 180.066 220.661C181.084 220.412 181.775 220 182.37 219.646C182.549 219.539 185.219 217.925 184.919 217.011Z" fill="#F2F2F2"/>
<path d="M144.32 222.761C143.917 222.673 143.574 223.596 143.224 223.499C142.876 223.402 143.095 222.452 142.609 221.34C142.521 221.139 141.968 219.875 141.404 219.905C140.335 219.962 140.169 224.618 138.594 224.836C138.249 224.884 137.798 224.723 136.718 224.835C136.288 224.88 136.06 224.936 135.964 225.108C135.829 225.352 136.079 225.614 136.402 226.311C136.886 227.355 136.663 227.499 137.113 228.265C137.448 228.833 137.746 229.052 137.647 229.262C137.507 229.56 136.82 229.314 136.592 229.644C136.361 229.982 136.765 230.693 137.14 231.147C137.843 232.001 138.648 232.2 139.358 232.556C140.129 232.942 141.148 233.694 142.069 235.316L149.718 250.013C148.207 246.935 144.195 238.357 142.822 235.044C142.426 234.087 142.05 233.089 142.44 232.12C142.815 231.187 143.855 230.393 144.687 228.923C144.785 228.752 145.049 228.271 144.866 228.008C144.714 227.791 144.394 227.921 144.25 227.721C144.056 227.452 144.474 227 144.716 226.191C144.887 225.621 144.884 225.163 144.881 224.77C144.88 224.651 144.857 222.879 144.32 222.761Z" fill="#F2F2F2"/>
<path d="M151.951 226.349L152.191 224.135L152.339 223.996C153.021 223.352 153.448 222.671 153.608 221.97C153.633 221.858 153.653 221.745 153.673 221.631C153.753 221.175 153.852 220.609 154.291 220.022C154.537 219.694 155.186 218.954 155.856 219.212C156.037 219.28 156.159 219.397 156.244 219.521C156.265 219.499 156.287 219.478 156.31 219.455C156.6 219.174 156.802 219.071 156.997 218.972C157.147 218.896 157.302 218.818 157.564 218.609C157.678 218.517 157.77 218.435 157.848 218.366C158.083 218.156 158.384 217.911 158.796 218.008C159.232 218.127 159.382 218.543 159.481 218.818C159.659 219.308 159.713 219.646 159.749 219.869C159.762 219.951 159.777 220.043 159.789 220.073C159.884 220.313 161.084 220.376 161.535 220.402C162.55 220.456 163.428 220.504 163.639 221.197C163.791 221.693 163.475 222.233 162.674 222.847C162.424 223.038 162.174 223.169 161.957 223.268C162.091 223.394 162.197 223.565 162.204 223.799C162.219 224.352 161.65 224.776 160.514 225.062C160.232 225.134 159.852 225.229 159.355 225.205C159.121 225.194 158.916 225.158 158.742 225.125C158.716 225.224 158.668 225.327 158.582 225.425C158.329 225.714 157.921 225.787 157.366 225.624C156.755 225.454 156.271 225.223 155.845 225.02C155.472 224.843 155.151 224.691 154.881 224.65C154.38 224.58 153.912 224.889 153.353 225.3L151.951 226.349Z" fill="#F2F2F2"/>
<path d="M155.952 213.738L153.744 214.067L153.572 213.96C152.775 213.465 152.006 213.226 151.286 213.25C151.171 213.253 151.057 213.263 150.94 213.272C150.478 213.311 149.904 213.359 149.223 213.085C148.843 212.931 147.961 212.492 148.041 211.78C148.061 211.588 148.144 211.441 148.242 211.327C148.216 211.312 148.19 211.297 148.161 211.28C147.816 211.072 147.665 210.903 147.519 210.74C147.407 210.614 147.292 210.485 147.023 210.285C146.905 210.198 146.802 210.13 146.715 210.073C146.452 209.899 146.138 209.671 146.128 209.249C146.133 208.797 146.498 208.548 146.739 208.382C147.17 208.086 147.483 207.948 147.691 207.856C147.767 207.823 147.852 207.785 147.879 207.767C148.087 207.614 147.843 206.44 147.754 205.998C147.55 205.005 147.373 204.146 147.992 203.767C148.434 203.495 149.039 203.662 149.837 204.28C150.085 204.472 150.276 204.679 150.426 204.864C150.515 204.703 150.654 204.557 150.879 204.491C151.411 204.337 151.967 204.778 152.533 205.801C152.674 206.055 152.862 206.398 152.965 206.883C153.013 207.112 153.031 207.319 153.043 207.496C153.145 207.496 153.258 207.516 153.375 207.574C153.719 207.745 153.893 208.12 153.876 208.696C153.866 209.329 153.765 209.854 153.676 210.318C153.599 210.722 153.533 211.07 153.562 211.341C153.621 211.843 154.039 212.215 154.579 212.651L155.952 213.738Z" fill="#F2F2F2"/>
<path d="M156.25 207.122L156.49 204.908L156.638 204.769C157.32 204.126 157.747 203.444 157.907 202.743C157.932 202.632 157.952 202.519 157.972 202.404C158.052 201.949 158.151 201.383 158.59 200.795C158.835 200.468 159.485 199.727 160.155 199.986C160.336 200.053 160.458 200.17 160.543 200.294C160.564 200.273 160.586 200.251 160.609 200.228C160.898 199.948 161.101 199.845 161.296 199.746C161.446 199.67 161.601 199.591 161.862 199.382C161.977 199.291 162.069 199.208 162.147 199.139C162.382 198.93 162.683 198.685 163.094 198.782C163.531 198.901 163.681 199.316 163.78 199.591C163.957 200.082 164.012 200.419 164.048 200.643C164.061 200.725 164.076 200.817 164.088 200.847C164.183 201.087 165.383 201.149 165.834 201.175C166.849 201.23 167.727 201.277 167.938 201.97C168.089 202.466 167.774 203.007 166.972 203.62C166.723 203.811 166.473 203.943 166.256 204.041C166.39 204.167 166.496 204.339 166.503 204.572C166.517 205.125 165.949 205.55 164.813 205.836C164.531 205.908 164.151 206.003 163.654 205.979C163.42 205.967 163.215 205.931 163.041 205.898C163.014 205.997 162.967 206.101 162.881 206.199C162.628 206.487 162.22 206.561 161.665 206.398C161.053 206.228 160.57 205.997 160.144 205.793C159.771 205.616 159.45 205.465 159.18 205.423C158.679 205.353 158.211 205.662 157.652 206.073L156.25 207.122Z" fill="#F2F2F2"/>
<path d="M149.09 249.548L148.699 249.163L148.157 249.106C148.159 249.055 148.156 248.936 148.152 248.75C148.131 247.731 148.066 244.631 148.499 239.868C148.801 236.543 149.306 233.168 150 229.835C150.694 226.496 151.416 224.012 151.995 222.016C152.432 220.51 152.873 219.082 153.304 217.691C154.453 213.974 155.539 210.463 156.211 206.458C156.361 205.564 156.673 203.703 156.034 201.507C155.663 200.233 155.028 199.034 154.145 197.944L154.999 197.256C155.973 198.46 156.676 199.788 157.088 201.203C157.797 203.638 157.456 205.666 157.293 206.64C156.609 210.715 155.513 214.26 154.352 218.013C153.924 219.399 153.484 220.821 153.049 222.32C152.475 224.298 151.76 226.761 151.074 230.056C150.388 233.349 149.89 236.683 149.591 239.966C149.164 244.67 149.228 247.723 149.249 248.727C149.26 249.262 149.262 249.375 149.09 249.548Z" fill="#F2F2F2"/>
<path d="M151.802 199.204C151.758 199.194 151.714 199.183 151.669 199.17C150.769 198.918 150.046 198.186 149.521 196.994C149.275 196.433 149.217 195.843 149.102 194.667C149.084 194.485 149.003 193.567 149.102 192.351C149.166 191.556 149.252 191.237 149.469 190.986C149.709 190.707 150.034 190.547 150.377 190.466C150.386 190.361 150.421 190.258 150.489 190.161C150.771 189.756 151.243 189.922 151.499 190.009C151.628 190.055 151.789 190.114 151.97 190.144C152.254 190.193 152.424 190.143 152.681 190.069C152.927 189.998 153.233 189.909 153.655 189.917C154.489 189.928 155.107 190.302 155.31 190.425C156.382 191.068 156.752 192.093 157.181 193.28C157.266 193.518 157.548 194.378 157.614 195.485C157.662 196.284 157.557 196.611 157.436 196.845C157.19 197.326 156.814 197.549 155.88 198.017C154.904 198.509 154.414 198.755 154.013 198.881C153.079 199.174 152.492 199.357 151.802 199.204Z" fill="#F2F2F2"/>
<path d="M277 250.601C277 250.821 276.821 250.999 276.601 250.999H0V250.203H276.601C276.821 250.203 277 250.381 277 250.601Z" fill="#E6E6E6"/>
<path d="M76.9505 30.8926L93.9526 39.0334C93.9526 39.0334 111.975 92.2875 111.975 95.0011C111.975 97.7147 117.076 99.4107 114.015 102.464C110.955 105.516 119.711 108.102 114.993 110.54C110.275 112.979 80.8409 126.317 77.568 125.114C68.5412 121.797 77.9505 109.607 77.9505 109.607C77.9505 109.607 71.1697 104.159 72.1899 101.446C73.21 98.7323 66.0691 46.8349 66.0691 46.8349L76.9505 30.8926Z" fill="#E6E6E6"/>
<path d="M91.5 20.7223L93.425 24.5627C93.425 24.5627 95.35 17.65 98.4299 16.1138C101.51 14.5777 101.895 12.2735 101.895 12.2735C101.895 12.2735 105.745 17.266 108.44 16.1138C111.135 14.9617 112.29 14.1936 109.21 9.58518C106.13 4.97672 106.9 7.28095 106.9 7.28095C106.9 7.28095 104.205 3.44056 104.59 4.59268C104.975 5.74479 102.28 1.52036 102.28 2.67248C102.28 3.82459 100.355 0.368245 100.355 1.52036C100.355 2.67248 92.27 -1.16791 93.425 0.36825C94.58 1.90441 86.4951 -2.70406 82.6451 3.44056C78.7952 9.58518 73.4568 8.44885 75.356 12.2813C77.2552 16.1138 76.4852 26.4829 76.4852 26.4829H81.7948C81.7948 26.4829 87.2651 16.1138 91.5 20.7223Z" fill="#0C0A09"/>
<path d="M204.807 53.2787L205.118 53.1909L220.449 48.8691L232.69 65.4899L224.529 100.088L227.589 113.995C227.589 113.995 202.766 107.551 192.905 112.978C192.905 112.978 192.225 109.885 192.905 108.378C193.585 106.872 194.605 100.604 193.585 97.8019C192.565 95.0002 195.625 81.7714 195.625 81.7714C195.625 81.7714 194.605 72.9522 199.026 68.5427C203.446 64.1331 204.807 53.2787 204.807 53.2787Z" fill="#FFDCA2"/>
<path d="M190.883 115.753L137.013 89.0479C136.745 88.9151 136.511 88.732 136.317 88.5042L127.912 78.6225C127.354 77.9671 127.234 77.0423 127.604 76.2663L143.365 43.2813C143.642 42.7032 144.156 42.2764 144.776 42.1101C145.396 41.9442 146.055 42.0566 146.585 42.4188L184.576 68.4141C185.356 68.9476 185.704 69.9151 185.443 70.8218L177.73 97.5973C177.519 98.3296 177.788 99.1288 178.399 99.5859L193.657 111.002C194.479 111.616 194.763 112.738 194.333 113.668L193.85 114.711C193.6 115.252 193.151 115.659 192.588 115.858C192.349 115.941 192.102 115.983 191.857 115.983C191.523 115.983 191.192 115.906 190.883 115.753Z" fill="#FFDCA2"/>
<path d="M190.453 109.254L175.457 96.8088C175.328 96.7002 175.226 96.568 175.155 96.4221C175.019 96.1474 174.992 95.8183 175.094 95.5164L183.639 70.5752C183.86 69.9307 183.622 69.2116 183.057 68.8249L147.455 44.5111C147.091 44.2601 146.635 44.1821 146.207 44.2941C145.775 44.406 145.418 44.6977 145.221 45.0946L130.211 75.4969C129.983 75.9548 130 76.4806 130.252 76.9182C130.283 76.9792 130.32 77.0369 130.364 77.0912L137.913 87.0297C138.059 87.2196 138.25 87.3757 138.464 87.4808L188.811 111.798C189.022 111.9 189.25 111.951 189.477 111.951C189.872 111.951 190.266 111.798 190.559 111.503C190.593 111.466 190.627 111.432 190.661 111.391C190.899 111.103 191.021 110.733 191.004 110.356C190.984 109.929 190.783 109.529 190.453 109.254Z" fill="#F2F2F2"/>
<path d="M136.118 73.6316C136.242 73.6316 136.362 73.5634 136.422 73.445L148.626 49.2595C148.71 49.0921 148.643 48.8882 148.475 48.8041C148.307 48.7194 148.103 48.7872 148.018 48.9544L135.814 73.1399C135.73 73.3074 135.797 73.5112 135.965 73.5954C136.014 73.62 136.066 73.6316 136.118 73.6316Z" fill="#FFDCA2"/>
<path d="M142.579 77.702C142.703 77.702 142.823 77.6338 142.883 77.5153L155.087 53.3299C155.171 53.1624 155.104 52.9585 154.936 52.8744C154.767 52.7896 154.563 52.8577 154.479 53.0248L142.275 77.2103C142.191 77.3777 142.258 77.5816 142.426 77.6657C142.475 77.6904 142.527 77.702 142.579 77.702Z" fill="#FFDCA2"/>
<path d="M148.019 81.0945C148.144 81.0945 148.263 81.0263 148.323 80.9079L160.527 56.7224C160.612 56.555 160.544 56.3511 160.376 56.2669C160.208 56.1823 160.004 56.2501 159.92 56.4173L147.716 80.6028C147.631 80.7702 147.699 80.9741 147.867 81.0583C147.916 81.0829 147.968 81.0945 148.019 81.0945Z" fill="#FFDCA2"/>
<path d="M128.758 77.8167C132.977 76.5732 137.041 77.737 137.834 80.4158C138.627 83.0947 135.849 86.2735 131.628 87.5169C129.948 88.0367 128.168 88.1477 126.437 87.8407L108.492 92.8843L106.299 84.4336L124.222 80.3587C125.509 79.1622 127.064 78.2906 128.758 77.8167Z" fill="#FFB6B6"/>
<path d="M97.0173 47.8687L94.2047 81.4332L119.399 81.7034L124.288 89.2137C124.288 89.2137 93.7517 106.851 84.5825 97.8389C75.4133 88.8268 71.3335 50.9032 79.4857 44.4118C87.6379 37.9204 97.0173 47.8687 97.0173 47.8687Z" fill="#E6E6E6"/>
<path d="M179.548 108.47C175.161 108.141 171.775 105.615 171.986 102.83C172.196 100.045 175.924 98.0551 180.313 98.3855C182.068 98.4934 183.771 99.0191 185.281 99.9184L203.853 101.549L202.9 110.227L184.692 107.698C183.064 108.361 181.3 108.626 179.548 108.47Z" fill="#A0616A"/>
<path d="M233.863 67.7081L230.828 105.52C230.828 105.52 229.872 113.668 217.15 113.157C204.428 112.647 187.53 108.641 187.53 108.641L188.141 99.8165L202.361 100.587C202.361 100.587 208.875 98.6364 210.243 99.6433C211.611 100.65 211.077 101.943 212.288 100.306C213.5 98.668 212.797 97.729 214.005 99.0398C215.213 100.351 215.572 102.722 216.092 99.7331C216.613 96.744 217.909 97.2765 217.909 97.2765L217.148 69.7387C217.148 69.7387 220.24 56.4175 227.413 60.4318C234.585 64.4461 233.863 67.7081 233.863 67.7081Z" fill="#FFDCA2"/>
</g>
<defs>
<clipPath id="clip0_73_1435">
<rect width="277" height="251" fill="white"/>
</clipPath>
</defs>
</svg>
