<svg width="1920" height="1130" viewBox="0 0 1920 1130" fill="none" xmlns="http://www.w3.org/2000/svg">
<g clip-path="url(#clip0_98_4613)">
<path d="M677.971 444.663C759.021 354.951 931.247 317.419 1046.38 451.9C1144.05 565.966 1186.59 572.492 1260.82 594.194C1309.84 608.529 1390.04 627.953 1343.31 738.902C1282.14 884.114 979.528 923.339 814.07 869.135C655.846 817.308 530.88 607.452 677.971 444.663Z" fill="url(#paint0_linear_98_4613)"/>
<path d="M976.451 224.742L949.72 201.3L976.451 177.861L1003.18 201.3L976.451 224.742ZM1523.48 757.034L1493.23 730.502L1523.48 703.973L1553.74 730.502L1523.48 757.034Z" stroke="#EEEEEE" stroke-width="5.087" stroke-linecap="round" stroke-linejoin="round"/>
<path d="M1056.45 195.51C1259.51 160.4 1414.85 355.287 1365.82 498.779" stroke="#EEEEEE" stroke-width="1.829" stroke-miterlimit="10" stroke-dasharray="7.6 7.6"/>
<path d="M1335.06 537.507C1322.21 543.535 1317.31 557.535 1324.19 568.804C1331.01 580.074 1347.02 584.365 1359.87 578.339C1372.72 572.313 1377.62 558.313 1370.75 547.044C1363.87 535.733 1347.91 531.48 1335.06 537.507Z" fill="#EEEEEE"/>
<path d="M1235.51 1140.78L98.9902 1138.51C107.209 1134.23 115.518 1130.09 123.913 1126.08C150.84 1113.2 190.19 1095.99 239.79 1078.71C339.008 1044.15 479.117 1009.37 642.772 1008.41C807.176 1007.44 954.873 1041.05 1064.57 1075.84C1119.4 1093.23 1164.7 1110.9 1197.81 1124.67C1210.44 1129.93 1223 1135.31 1235.51 1140.78Z" fill="white" stroke="#EEEEEE" stroke-width="4"/>
<path d="M1851.22 1140.78L949.846 1138.98C954.424 1136.63 959.918 1133.89 966.282 1130.85C987.812 1120.55 1019.29 1106.78 1058.96 1092.96C1138.33 1065.32 1250.4 1037.5 1381.29 1036.73C1512.78 1035.95 1630.93 1062.84 1718.7 1090.67C1762.57 1104.58 1798.82 1118.72 1825.32 1129.74C1833.99 1133.36 1842.62 1137.04 1851.22 1140.78ZM103.53 487.641C111.381 459.737 185.564 418.985 225.207 443.552C237.374 390.393 248.758 357.243 288.512 331.054C328.267 304.868 394.599 339.099 405.254 410.794C415.907 381.321 470.072 341.599 513.584 375.094C553.844 406.086 557.881 458.019 553.677 487.592H103.53V487.641ZM1710.04 443.52C1705.6 427.698 1663.63 404.589 1641.2 418.52C1634.32 388.377 1627.88 369.577 1605.38 354.728C1582.89 339.877 1545.36 359.289 1539.34 399.945C1533.31 383.232 1502.66 360.705 1478.05 379.699C1455.27 397.276 1452.98 426.724 1455.36 443.493H1710.04V443.52ZM1382.53 241.041C1385.64 229.98 1414.97 213.825 1430.65 223.562C1435.47 202.489 1439.97 189.348 1455.69 178.967C1471.42 168.586 1497.65 182.155 1501.87 210.578C1506.08 198.893 1527.5 183.146 1544.71 196.424C1560.64 208.711 1562.23 229.297 1560.57 241.022H1382.53V241.041ZM1664.32 319.335C1667.43 308.273 1696.77 292.118 1712.44 301.856C1717.26 280.783 1721.76 267.642 1737.48 257.26C1753.21 246.879 1779.44 260.448 1783.66 288.871C1787.87 277.186 1809.29 261.439 1826.5 274.717C1842.43 287.004 1844.02 307.591 1842.36 319.315H1664.32V319.335ZM736.779 254.576C732.34 238.751 690.367 215.643 667.938 229.576C661.056 199.431 654.616 180.631 632.123 165.782C609.633 150.931 572.102 170.342 566.076 210.999C560.046 194.286 529.404 171.762 504.785 190.755C482.007 208.329 479.722 237.78 482.102 254.547H736.779V254.576Z" fill="white" stroke="#EEEEEE" stroke-width="4"/>
<path d="M609.474 547.387C620.135 547.387 628.778 554.966 628.778 564.316C628.778 573.665 620.135 581.244 609.474 581.244C598.813 581.244 590.17 573.665 590.17 564.316C590.17 554.966 598.813 547.387 609.474 547.387Z" fill="#EEEEEE"/>
<path d="M767.678 269.02C756.678 269.02 747.761 276.84 747.761 286.486C747.761 296.133 756.678 303.953 767.678 303.953C778.679 303.953 787.596 296.133 787.596 286.486C787.596 276.84 778.679 269.02 767.678 269.02Z" fill="#EEEEEE"/>
<path d="M597.248 762.996C607.496 776.074 600.292 796.031 600.292 796.031C600.292 796.031 576.48 794.771 566.246 781.684C555.998 768.604 563.191 748.656 563.191 748.656C563.191 748.656 587.003 749.916 597.248 762.996ZM1531.75 538.759C1521.51 551.832 1528.71 571.777 1528.71 571.777C1528.71 571.777 1552.51 570.517 1562.74 557.435C1572.98 544.365 1565.79 524.427 1565.79 524.427C1565.79 524.427 1541.99 525.687 1531.75 538.759ZM1274.89 858.404C1264.65 871.477 1271.85 891.422 1271.85 891.422C1271.85 891.422 1295.65 890.162 1305.88 877.08C1316.12 864.009 1308.93 844.071 1308.93 844.071C1308.93 844.071 1285.13 845.332 1274.89 858.404ZM1308.92 290.254C1301.17 300.151 1306.62 315.254 1306.62 315.254C1306.62 315.254 1324.64 314.3 1332.39 304.396C1340.14 294.496 1334.7 279.4 1334.7 279.4C1334.7 279.4 1316.68 280.355 1308.92 290.254Z" fill="#EEEEEE"/>
<path fill-rule="evenodd" clip-rule="evenodd" d="M300.766 1032.45C300.766 1060.19 279.986 1085.13 254.354 1085.13C228.72 1085.13 207.94 1060.19 207.94 1032.45C207.94 1004.72 239.849 924.174 254.354 924.174C268.857 924.174 300.766 1004.72 300.766 1032.45Z" fill="#EEEEEE" stroke="#EEEEEE" stroke-width="2" stroke-linecap="round" stroke-linejoin="round"/>
<mask id="mask0_98_4613" style="mask-type:luminance" maskUnits="userSpaceOnUse" x="252" y="959" width="7" height="154">
<path fill-rule="evenodd" clip-rule="evenodd" d="M255.44 959.324H255.378C253.646 959.324 252.245 960.599 252.245 962.167V1112.88H258.573V962.167C258.573 960.599 257.169 959.324 255.44 959.324Z" fill="white"/>
</mask>
<g mask="url(#mask0_98_4613)">
<path d="M252.245 1112.88H243.875C243.875 1114.83 244.757 1116.7 246.327 1118.07C247.896 1119.45 250.025 1120.22 252.245 1120.22V1112.88ZM258.573 1112.88V1120.22C260.793 1120.22 262.922 1119.45 264.491 1118.07C266.061 1116.7 266.943 1114.83 266.943 1112.88H258.573ZM255.44 951.984H255.378V966.664H255.44V951.984ZM255.378 951.984C248.755 951.984 243.875 956.785 243.875 962.167H260.615C260.615 964.411 258.539 966.664 255.378 966.664V951.984ZM243.875 962.167V1112.88H260.615V962.167H243.875ZM252.245 1120.22H258.573V1105.54H252.245V1120.22ZM266.943 1112.88V962.167H250.203V1112.88H266.943ZM266.943 962.167C266.943 956.782 262.06 951.984 255.44 951.984V966.664C254.759 966.671 254.084 966.56 253.452 966.337C252.82 966.115 252.245 965.785 251.759 965.367C251.272 964.95 250.885 964.452 250.618 963.903C250.351 963.354 250.21 962.764 250.203 962.167H266.943Z" fill="#EEEEEE"/>
</g>
<path fill-rule="evenodd" clip-rule="evenodd" d="M539.86 957.984C539.86 997.032 510.607 1032.14 474.522 1032.14C438.433 1032.14 409.18 997.032 409.18 957.984C409.18 918.937 454.102 805.549 474.522 805.549C494.939 805.549 539.86 918.937 539.86 957.984Z" fill="#EEEEEE" stroke="#EEEEEE" stroke-width="2" stroke-linecap="round" stroke-linejoin="round"/>
<path d="M475.961 858.705H476.05C476.064 858.705 476.1 858.705 476.159 858.756C476.217 858.813 476.276 858.903 476.276 859.038V1067.54H475.735V859.038C475.735 858.903 475.791 858.813 475.852 858.756C475.908 858.705 475.944 858.705 475.961 858.705Z" stroke="#EEEEEE" stroke-width="3" stroke-linecap="round" stroke-linejoin="round"/>
<path fill-rule="evenodd" clip-rule="evenodd" d="M748.399 1001.36C748.399 1030.84 726.316 1057.35 699.075 1057.35C671.833 1057.35 649.75 1030.84 649.75 1001.36C649.75 971.886 683.663 886.289 699.075 886.289C714.49 886.289 748.399 971.886 748.399 1001.36Z" fill="#EEEEEE" stroke="#EEEEEE" stroke-width="2" stroke-linecap="round" stroke-linejoin="round"/>
<mask id="mask1_98_4613" style="mask-type:luminance" maskUnits="userSpaceOnUse" x="696" y="923" width="8" height="164">
<path fill-rule="evenodd" clip-rule="evenodd" d="M700.23 923.648H700.163C698.325 923.648 696.832 925.001 696.832 926.67V1086.84H703.559V926.67C703.559 925.001 702.069 923.648 700.23 923.648Z" fill="white"/>
</mask>
<g mask="url(#mask1_98_4613)">
<path d="M696.832 1086.84H688.462C688.462 1088.79 689.344 1090.65 690.913 1092.03C692.483 1093.41 694.612 1094.18 696.832 1094.18V1086.84ZM703.559 1086.84V1094.18C705.778 1094.18 707.907 1093.41 709.477 1092.03C711.047 1090.65 711.929 1088.79 711.929 1086.84H703.559ZM700.23 916.309H700.163V930.989H700.23V916.309ZM700.163 916.309C693.431 916.309 688.462 921.187 688.462 926.67H705.202C705.202 928.813 703.215 930.989 700.163 930.989V916.309ZM688.462 926.67V1086.84H705.202V926.67H688.462ZM696.832 1094.18H703.559V1079.5H696.832V1094.18ZM711.929 1086.84V926.67H695.189V1086.84H711.929ZM711.929 926.67C711.929 921.187 706.96 916.309 700.23 916.309V930.989C699.576 930.995 698.926 930.889 698.319 930.676C697.711 930.462 697.158 930.146 696.689 929.745C696.221 929.344 695.848 928.866 695.59 928.339C695.333 927.811 695.196 927.244 695.189 926.67H711.929Z" fill="#EEEEEE"/>
</g>
<path fill-rule="evenodd" clip-rule="evenodd" d="M1471.81 984.42C1471.81 1018.84 1446.02 1049.79 1414.21 1049.79C1382.4 1049.79 1356.61 1018.84 1356.61 984.42C1356.61 949.998 1396.21 850.039 1414.21 850.039C1432.21 850.039 1471.81 949.998 1471.81 984.42Z" fill="#EEEEEE" stroke="#EEEEEE" stroke-width="2" stroke-linecap="round" stroke-linejoin="round"/>
<mask id="mask2_98_4613" style="mask-type:luminance" maskUnits="userSpaceOnUse" x="1411" y="893" width="9" height="192">
<path fill-rule="evenodd" clip-rule="evenodd" d="M1415.56 893.664H1415.48C1413.33 893.664 1411.59 895.245 1411.59 897.195V1084.23H1419.45V897.195C1419.45 895.245 1417.71 893.664 1415.56 893.664Z" fill="white"/>
</mask>
<g mask="url(#mask2_98_4613)">
<path d="M1411.59 1084.23H1403.22C1403.22 1086.18 1404.11 1088.05 1405.67 1089.42C1407.24 1090.8 1409.37 1091.57 1411.59 1091.57V1084.23ZM1419.45 1084.23V1091.57C1421.67 1091.57 1423.8 1090.8 1425.37 1089.42C1426.94 1088.05 1427.82 1086.18 1427.82 1084.23H1419.45ZM1415.56 886.324H1415.48V901.004H1415.56V886.324ZM1415.48 886.324C1408.44 886.324 1403.22 891.433 1403.22 897.195H1419.96C1419.96 899.057 1418.23 901.004 1415.48 901.004V886.324ZM1403.22 897.195V1084.23H1419.96V897.195H1403.22ZM1411.59 1091.57H1419.45V1076.89H1411.59V1091.57ZM1427.82 1084.23V897.195H1411.08V1084.23H1427.82ZM1427.82 897.195C1427.82 891.43 1422.6 886.324 1415.56 886.324V901.004C1414.39 901.02 1413.26 900.627 1412.42 899.913C1411.58 899.199 1411.1 898.221 1411.08 897.195H1427.82Z" fill="#EEEEEE"/>
</g>
<path fill-rule="evenodd" clip-rule="evenodd" d="M950.127 1055.88C950.127 1074.64 936.074 1091.51 918.74 1091.51C901.403 1091.51 887.35 1074.64 887.35 1055.88C887.35 1037.13 908.93 982.656 918.74 982.656C928.547 982.656 950.127 1037.13 950.127 1055.88Z" fill="#EEEEEE" stroke="#EEEEEE" stroke-width="2" stroke-linecap="round" stroke-linejoin="round"/>
<mask id="mask3_98_4613" style="mask-type:luminance" maskUnits="userSpaceOnUse" x="917" y="1006" width="5" height="105">
<path fill-rule="evenodd" clip-rule="evenodd" d="M919.474 1006.43H919.432C918.26 1006.43 917.312 1007.29 917.312 1008.35V1110.28H921.594V1008.35C921.603 1007.85 921.385 1007.37 920.987 1007.01C920.59 1006.65 920.045 1006.44 919.474 1006.43Z" fill="white"/>
</mask>
<g mask="url(#mask3_98_4613)">
<path d="M917.311 1110.28H908.941C908.941 1112.22 909.823 1114.09 911.393 1115.47C912.963 1116.84 915.092 1117.62 917.311 1117.62V1110.28ZM921.594 1110.28V1117.62C923.814 1117.62 925.943 1116.84 927.513 1115.47C929.082 1114.09 929.964 1112.22 929.964 1110.28H921.594ZM919.474 999.09H919.432V1013.77H919.474V999.09ZM919.432 999.09C913.369 999.09 908.941 1003.48 908.941 1008.35H925.681C925.677 1009.07 925.512 1009.77 925.195 1010.43C924.879 1011.09 924.417 1011.69 923.837 1012.2C923.257 1012.7 922.569 1013.1 921.813 1013.37C921.057 1013.64 920.248 1013.77 919.432 1013.77V999.09ZM908.941 1008.35V1110.28H925.681V1008.35H908.941ZM917.311 1117.62H921.594V1102.94H917.311V1117.62ZM929.964 1110.28V1008.35H913.224V1110.28H929.964ZM929.964 1008.35C929.964 1003.47 925.534 999.09 919.474 999.09V1013.77C917.825 1013.78 916.241 1013.21 915.069 1012.19C913.897 1011.18 913.234 1009.8 913.224 1008.35H929.964Z" fill="#EEEEEE"/>
</g>
<path fill-rule="evenodd" clip-rule="evenodd" d="M1229.31 1035.05C1229.31 1053.81 1215.26 1070.67 1197.92 1070.67C1180.58 1070.67 1166.53 1053.81 1166.53 1035.05C1166.53 1016.29 1188.11 961.82 1197.92 961.82C1207.73 961.82 1229.31 1016.29 1229.31 1035.05Z" fill="#EEEEEE" stroke="#EEEEEE" stroke-width="2" stroke-linecap="round" stroke-linejoin="round"/>
<mask id="mask4_98_4613" style="mask-type:luminance" maskUnits="userSpaceOnUse" x="1196" y="985" width="5" height="105">
<path fill-rule="evenodd" clip-rule="evenodd" d="M1198.66 985.592H1198.61C1198.04 985.601 1197.49 985.808 1197.1 986.169C1196.7 986.53 1196.48 987.014 1196.49 987.515V1089.44H1200.77V987.515C1200.78 987.014 1200.56 986.53 1200.17 986.169C1199.77 985.808 1199.23 985.601 1198.66 985.592Z" fill="white"/>
</mask>
<g mask="url(#mask4_98_4613)">
<path d="M1196.49 1089.44H1188.12C1188.12 1091.39 1189 1093.25 1190.57 1094.63C1192.14 1096.01 1194.27 1096.78 1196.49 1096.78V1089.44ZM1200.77 1089.44V1096.78C1202.99 1096.78 1205.12 1096.01 1206.69 1094.63C1208.26 1093.25 1209.14 1091.39 1209.14 1089.44H1200.77ZM1198.66 978.252H1198.61V992.932H1198.66V978.252ZM1198.61 978.252C1192.55 978.252 1188.12 982.641 1188.12 987.515H1204.86C1204.86 988.231 1204.69 988.939 1204.38 989.598C1204.06 990.258 1203.6 990.856 1203.02 991.359C1202.44 991.863 1201.75 992.26 1200.99 992.53C1200.24 992.8 1199.43 992.936 1198.61 992.932V978.252ZM1188.12 987.515V1089.44H1204.86V987.515H1188.12ZM1196.49 1096.78H1200.77V1082.1H1196.49V1096.78ZM1209.14 1089.44V987.515H1192.4V1089.44H1209.14ZM1209.14 987.515C1209.14 982.639 1204.72 978.252 1198.66 978.252V992.932C1197.84 992.936 1197.03 992.8 1196.27 992.53C1195.52 992.26 1194.83 991.863 1194.25 991.359C1193.67 990.856 1193.21 990.258 1192.89 989.598C1192.57 988.939 1192.41 988.231 1192.4 987.515H1209.14Z" fill="#EEEEEE"/>
</g>
<path fill-rule="evenodd" clip-rule="evenodd" d="M1685.73 1021.53C1685.73 1049.61 1664.7 1074.85 1638.76 1074.85C1612.81 1074.85 1591.78 1049.61 1591.78 1021.53C1591.78 993.46 1624.08 911.939 1638.76 911.939C1653.44 911.939 1685.73 993.46 1685.73 1021.53Z" fill="#EEEEEE" stroke="#EEEEEE" stroke-width="2" stroke-linecap="round" stroke-linejoin="round"/>
<mask id="mask5_98_4613" style="mask-type:luminance" maskUnits="userSpaceOnUse" x="1636" y="947" width="8" height="156">
<path fill-rule="evenodd" clip-rule="evenodd" d="M1639.86 947.518H1639.79C1638.04 947.518 1636.62 948.807 1636.62 950.397V1102.94H1643.03V950.397C1643.03 948.807 1641.61 947.518 1639.86 947.518Z" fill="white"/>
</mask>
<g mask="url(#mask5_98_4613)">
<path d="M1636.62 1102.94H1628.25C1628.25 1104.88 1629.13 1106.75 1630.7 1108.13C1632.27 1109.5 1634.4 1110.28 1636.62 1110.28V1102.94ZM1643.03 1102.94V1110.28C1645.25 1110.28 1647.38 1109.5 1648.95 1108.13C1650.51 1106.75 1651.4 1104.88 1651.4 1102.94H1643.03ZM1639.86 940.178H1639.79V954.858H1639.86V940.178ZM1639.79 940.178C1633.15 940.178 1628.25 944.995 1628.25 950.397H1644.99C1644.99 952.619 1642.93 954.858 1639.79 954.858V940.178ZM1628.25 950.397V1102.94H1644.99V950.397H1628.25ZM1636.62 1110.28H1643.03V1095.6H1636.62V1110.28ZM1651.4 1102.94V950.397H1634.66V1102.94H1651.4ZM1651.4 950.397C1651.4 944.993 1646.5 940.178 1639.86 940.178V954.858C1639.18 954.865 1638.51 954.755 1637.88 954.534C1637.26 954.314 1636.69 953.987 1636.2 953.573C1635.72 953.158 1635.33 952.665 1635.07 952.12C1634.8 951.575 1634.66 950.99 1634.66 950.397H1651.4Z" fill="#EEEEEE"/>
</g>
</g>
<defs>
<linearGradient id="paint0_linear_98_4613" x1="1000.84" y1="1188.78" x2="989.271" y2="-211.283" gradientUnits="userSpaceOnUse">
<stop stop-color="white"/>
<stop offset="1" stop-color="#EEEEEE"/>
</linearGradient>
<clipPath id="clip0_98_4613">
<rect width="2511" height="1468" fill="white" transform="translate(-311 -123)"/>
</clipPath>
</defs>
</svg>
