<svg width="400" height="277" viewBox="0 0 400 277" fill="none" xmlns="http://www.w3.org/2000/svg">
<g clip-path="url(#clip0_112_2160)">
<path d="M46.6154 239.971C46.6154 239.971 -4.26192 216.577 13.6112 200.353C31.4844 184.129 46.6154 239.971 46.6154 239.971Z" fill="#FFFBEF"/>
<path d="M45.7296 245.432C45.7296 245.432 22.3445 168.684 56.7799 172.354C91.2153 176.025 45.7296 245.432 45.7296 245.432Z" fill="#FFFBEF"/>
<path d="M28.6794 238.624L29.6608 251.462L29.6764 251.684C29.675 253.689 29.7761 255.694 29.9791 257.689C31.3113 270.784 37.0365 276.751 43.7279 276.751C50.4193 276.751 55.8953 270.784 57.2275 257.688C57.4305 255.693 57.5316 253.689 57.5302 251.683L57.538 251.504L57.5419 251.461L58.5272 238.623L28.6794 238.624Z" fill="#FFFBEF"/>
<path d="M57.5442 251.461L57.5403 251.504L57.5325 251.683C57.5338 253.688 57.4328 255.693 57.2297 257.688H29.9814C29.7784 255.693 29.6773 253.688 29.6787 251.683L29.6631 251.461L57.5442 251.461Z" fill="white"/>
<path d="M378.452 247.823C378.452 247.823 339.062 229.71 352.899 217.15C366.737 204.59 378.452 247.823 378.452 247.823Z" fill="#FFFBEF"/>
<path d="M377.766 252.049C377.766 252.049 359.661 192.63 386.322 195.472C412.983 198.314 377.766 252.049 377.766 252.049Z" fill="#FFFBEF"/>
<path d="M364.565 246.779L365.325 256.719L365.337 256.892C365.336 258.444 365.415 259.995 365.572 261.54C366.603 271.678 371.036 276.298 376.217 276.298C381.397 276.298 385.637 271.676 386.669 261.54C386.826 259.995 386.905 258.444 386.904 256.892L386.91 256.753L386.913 256.72L387.676 246.78L364.565 246.779Z" fill="#FFFBEF"/>
<path d="M386.913 256.72L386.91 256.753L386.904 256.892C386.905 258.444 386.826 259.995 386.669 261.539H365.572C365.415 259.995 365.336 258.444 365.337 256.892L365.325 256.719L386.913 256.72Z" fill="white"/>
<path d="M132.608 82.6209V65.1602H129.89V82.6209C129.11 82.936 128.465 83.5121 128.064 84.2504C127.663 84.9888 127.531 85.8435 127.692 86.6681C127.852 87.4927 128.295 88.2357 128.944 88.77C129.593 89.3042 130.408 89.5964 131.249 89.5964C132.09 89.5964 132.905 89.3042 133.554 88.77C134.203 88.2357 134.646 87.4927 134.806 86.6681C134.967 85.8435 134.836 84.9888 134.434 84.2504C134.033 83.5121 133.388 82.936 132.608 82.6209Z" fill="#FFFBEF"/>
<path d="M138.951 258.834H120.378V33.4863H113.129V258.834H94.5565C92.3552 258.834 90.1753 259.267 88.1415 260.108C86.1077 260.949 84.2597 262.183 82.703 263.737C81.1463 265.292 79.9115 267.138 79.0689 269.169C78.2264 271.2 77.7928 273.378 77.7927 275.576H155.714C155.714 271.136 153.948 266.877 150.804 263.738C147.661 260.598 143.397 258.834 138.952 258.834L138.951 258.834Z" fill="#FFFBEF"/>
<path d="M77.8303 66.9706H155.675L150.915 7.53867C150.741 5.48945 149.805 3.57942 148.292 2.18432C146.78 0.789211 144.799 0.0100145 142.74 0H90.7655C88.7066 0.0100145 86.7259 0.789211 85.2131 2.18432C83.7004 3.57942 82.765 5.48945 82.591 7.53867L77.8303 66.9706Z" fill="#FFFBEF"/>
<path d="M186.219 171.283C185.487 171.161 184.738 171.186 184.015 171.356C183.293 171.526 182.611 171.838 182.01 172.273C181.409 172.708 180.901 173.258 180.515 173.892C180.128 174.525 179.872 175.228 179.76 175.961L177.568 190.327L185.025 192.303L190.489 178.917C190.807 178.14 190.945 177.3 190.893 176.462C190.842 175.624 190.602 174.808 190.192 174.074C189.782 173.341 189.212 172.709 188.525 172.226C187.837 171.743 187.049 171.42 186.219 171.282L186.219 171.283Z" fill="#FFB9B9"/>
<path d="M186.08 190.299C190.218 206.726 188.437 221.75 173.027 233.548C154.544 228.458 142.251 216.181 134.75 198.334C134.283 197.225 134.047 196.032 134.055 194.829C134.063 193.626 134.314 192.436 134.795 191.333C135.276 190.23 135.975 189.235 136.851 188.409C137.728 187.583 138.762 186.943 139.893 186.527C141.592 185.903 143.44 185.811 145.193 186.262C146.946 186.713 148.52 187.687 149.705 189.053L167.84 209.963L176.348 188.881L186.08 190.299Z" fill="#FFBC40"/>
<path d="M280.781 276.484C263.904 275.588 253.42 269.8 250.881 257.931L253.6 252.953L284.72 267.114C285.506 267.471 286.168 268.054 286.621 268.788C287.074 269.522 287.299 270.374 287.266 271.236C287.233 272.098 286.944 272.93 286.436 273.628C285.929 274.325 285.225 274.856 284.414 275.153L280.781 276.484Z" fill="#FFFBEF"/>
<path d="M267.74 276.602C258.971 276.336 250.539 276.419 242.548 276.959C241.146 277.055 239.763 276.594 238.699 275.678C237.635 274.762 236.976 273.464 236.864 272.065L236.384 266.075L229.589 255.215L235.478 249.332C245.376 259.178 256.23 267.448 269.121 272.364C269.536 272.648 269.847 273.058 270.009 273.533C270.17 274.008 270.174 274.522 270.018 274.999C269.863 275.476 269.557 275.89 269.146 276.179C268.736 276.467 268.242 276.616 267.74 276.601L267.74 276.602Z" fill="#FFFBEF"/>
<path d="M220.076 233.948C208.878 253.961 197.867 267.452 183.378 274.674C165.559 280.549 152.531 272.765 142.379 256.8L171.83 237.342L176.134 241.641L215.139 211.994C216.092 211.092 217.362 210.603 218.674 210.632C219.986 210.661 221.234 211.206 222.146 212.149L255.415 252.953L251.338 259.741L220.076 233.948Z" fill="#090814"/>
<path opacity="0.798" d="M230.042 257.478L214.638 233.948L218.262 227.16L238.649 248.428L230.042 257.478Z" fill="#090814"/>
<path d="M145.326 195.485L128.112 189.603C130.66 185.559 131.776 180.779 131.283 176.027H145.327C144.527 182.932 144.407 189.481 145.326 195.485Z" fill="#FFB9B9"/>
<path d="M177.761 244.19C175.18 245.248 179.252 241.154 176.811 242.32C165.014 247.958 152.534 252.532 143.967 260.646C123.946 247.067 105.39 204.89 129.47 186.436C137.687 191.24 145.031 194.678 144.873 186.436L177.761 244.19Z" fill="#FFBC40"/>
<path opacity="0.2" d="M171.601 218.563L163.221 215.622L146.685 228.519L139.273 201.863C138.759 200.015 137.926 200.952 136.73 202.236C135.483 201.083 133.932 200.311 132.26 200.01C130.588 199.709 128.865 199.892 127.294 200.537C125.723 201.181 124.369 202.261 123.391 203.649C122.414 205.037 121.855 206.675 121.779 208.37C120.894 227.706 126.733 244.062 141.249 256.574C160.234 252.513 168.291 239.701 171.601 223.088L170.704 222.491C171.035 221.207 171.334 219.898 171.601 218.563Z" fill="black"/>
<path d="M172.279 198.392L186.376 214.946L207.522 190.019L193.234 172.703L172.279 198.392Z" fill="#3F3D56"/>
<path d="M203.902 190.588L187.139 176.888C188.09 174.605 192.663 175.366 192.663 175.366L205.786 188.654C206.243 189.117 206.634 189.641 206.95 190.209L203.902 190.588Z" fill="#F2F2F2"/>
<path d="M204.663 189.639L185.613 174.797L164.468 206.766L184.378 220.179C186.282 220.94 188.189 219.608 188.189 219.608L207.62 189.924L204.663 189.639Z" fill="#3F3D56"/>
<path d="M187.992 179.429L187.811 179.68L200.003 188.438L200.184 188.188L187.992 179.429Z" fill="#FFBC40"/>
<path d="M200.356 191.458L184.345 215.621L184.602 215.791L200.614 191.628L200.356 191.458Z" fill="#FFBC40"/>
<path d="M169.704 206.828L169.521 207.076L182.472 216.594L182.655 216.345L169.704 206.828Z" fill="#FFBC40"/>
<path d="M185.679 179.846L169.105 203.631L169.359 203.807L185.932 180.022L185.679 179.846Z" fill="#FFBC40"/>
<path d="M190.799 175.178L190.67 175.318L205.745 189.137L205.873 188.997L190.799 175.178Z" fill="#B3B3B3"/>
<path d="M189.543 175.297L189.417 175.439L205.172 189.332L205.298 189.189L189.543 175.297Z" fill="#B3B3B3"/>
<path d="M188.557 175.572L188.435 175.719L204.786 189.33L204.908 189.183L188.557 175.572Z" fill="#B3B3B3"/>
<path d="M179.889 203.251C179.28 202.827 178.592 202.529 177.866 202.373C177.141 202.217 176.391 202.207 175.661 202.343C174.932 202.479 174.236 202.758 173.615 203.165C172.995 203.572 172.461 204.097 172.045 204.712L163.9 216.753L169.789 221.731L180.47 211.977C181.091 211.411 181.576 210.712 181.889 209.932C182.203 209.153 182.337 208.313 182.281 207.474C182.225 206.636 181.981 205.821 181.567 205.09C181.153 204.359 180.579 203.73 179.889 203.251Z" fill="#FFB9B9"/>
<path d="M171.602 220.373C168.291 236.986 160.234 249.798 141.249 253.859C126.734 241.347 120.895 224.99 121.778 205.656C121.833 204.454 122.131 203.275 122.655 202.191C123.178 201.108 123.916 200.141 124.824 199.35C125.731 198.559 126.79 197.96 127.936 197.588C129.082 197.217 130.291 197.082 131.491 197.191C133.294 197.354 135.004 198.062 136.394 199.22C137.784 200.379 138.788 201.932 139.272 203.674L146.684 230.329L163.418 214.925L171.602 220.373Z" fill="#FFBC40"/>
<path d="M399.821 277.001H0V276.014H400L399.821 277.001Z" fill="white"/>
<path d="M208.976 41.4082C208.736 41.4088 208.506 41.5043 208.336 41.6739C208.167 41.8435 208.071 42.0734 208.07 42.3133V112.905C208.071 113.144 208.167 113.374 208.336 113.544C208.506 113.714 208.736 113.809 208.976 113.81H267.87C268.11 113.809 268.34 113.714 268.51 113.544C268.68 113.374 268.776 113.144 268.776 112.905V42.3133C268.776 42.0734 268.68 41.8435 268.51 41.6739C268.34 41.5043 268.11 41.4088 267.87 41.4082H208.976Z" fill="#FFFBEF"/>
<path d="M215.093 106.795H261.755V48.4219H215.093V106.795Z" fill="white"/>
<path d="M307.025 59.9609C306.882 59.9611 306.744 60.018 306.643 60.1194C306.542 60.2207 306.484 60.3581 306.484 60.5014V95.6212C306.484 95.7645 306.542 95.9019 306.643 96.0032C306.744 96.1046 306.882 96.1615 307.025 96.1617H349.218C349.361 96.1615 349.499 96.1046 349.6 96.0032C349.702 95.9019 349.759 95.7645 349.759 95.6212V60.5014C349.759 60.3581 349.702 60.2207 349.6 60.1194C349.499 60.018 349.361 59.9611 349.218 59.9609H307.025Z" fill="#FFFBEF"/>
<path d="M310.677 64.1484V91.9758H345.567V64.1484H310.677Z" fill="white"/>
<path d="M246.662 46.3835H230.183C229.785 46.3851 229.394 46.2815 229.048 46.0833C228.703 45.8851 228.416 45.5992 228.217 45.2547C228.018 44.9102 227.914 44.5193 227.915 44.1215C227.915 43.7237 228.021 43.3332 228.222 42.9896L236.461 28.7357L236.482 28.7007C236.662 28.3975 236.911 28.1412 237.209 27.9526C237.507 27.764 237.846 27.6485 238.197 27.6154H238.209C238.28 27.609 238.351 27.6055 238.423 27.6055C238.821 27.6032 239.212 27.7068 239.557 27.9056C239.902 28.1045 240.187 28.3914 240.384 28.7369L248.625 42.9904C248.824 43.3344 248.928 43.7245 248.928 44.1217C248.929 44.5188 248.824 44.909 248.625 45.253C248.426 45.597 248.14 45.8826 247.796 46.0812C247.452 46.2798 247.061 46.3843 246.663 46.3843L246.662 46.3835ZM229.729 44.1189C229.73 44.1991 229.751 44.2779 229.792 44.3474C229.831 44.4167 229.888 44.4743 229.957 44.5141C230.026 44.5539 230.104 44.5745 230.184 44.5738H246.663C246.742 44.5746 246.821 44.554 246.89 44.5142C246.959 44.4743 247.016 44.4167 247.055 44.3474C247.095 44.278 247.116 44.1994 247.117 44.1193C247.117 44.0404 247.095 43.963 247.055 43.8951L238.816 29.6412C238.776 29.5724 238.719 29.5152 238.65 29.4755C238.581 29.4358 238.503 29.4149 238.423 29.4149C238.343 29.4149 238.265 29.4358 238.196 29.4755C238.128 29.5152 238.07 29.5724 238.031 29.6412L229.792 43.8951C229.751 43.963 229.73 44.0399 229.729 44.1189Z" fill="#FFFBEF"/>
<path d="M238.423 31.9042C239.173 31.9042 239.782 31.2965 239.782 30.5468C239.782 29.7972 239.173 29.1895 238.423 29.1895C237.672 29.1895 237.064 29.7972 237.064 30.5468C237.064 31.2965 237.672 31.9042 238.423 31.9042Z" fill="#FFFBEF"/>
<path d="M332.589 61.0906H323.655C323.439 61.0915 323.227 61.0353 323.04 60.9278C322.853 60.8204 322.697 60.6654 322.589 60.4787C322.482 60.2919 322.425 60.08 322.425 59.8644C322.426 59.6487 322.483 59.437 322.592 59.2507L327.059 51.5228L327.07 51.5038C327.168 51.3394 327.303 51.2005 327.464 51.0982C327.626 50.9959 327.81 50.9333 328 50.9154H328.006C328.045 50.9119 328.083 50.9102 328.122 50.9102C328.338 50.9089 328.55 50.9651 328.737 51.0729C328.924 51.1807 329.079 51.3363 329.186 51.5236L333.655 59.2507C333.762 59.4373 333.819 59.6489 333.819 59.8644C333.819 60.0798 333.762 60.2914 333.654 60.4779C333.546 60.6644 333.391 60.8192 333.204 60.9268C333.017 61.0343 332.805 61.0908 332.589 61.0906ZM323.409 59.8628C323.409 59.9064 323.421 59.9491 323.443 59.9868C323.464 60.0244 323.495 60.0557 323.532 60.0772C323.57 60.0988 323.612 60.11 323.655 60.1095H332.589C332.633 60.11 332.675 60.0988 332.713 60.0772C332.75 60.0557 332.781 60.0244 332.802 59.9868C332.824 59.9492 332.835 59.9067 332.836 59.8633C332.836 59.8205 332.824 59.7786 332.802 59.7419L328.335 52.0131C328.313 51.9758 328.282 51.9448 328.245 51.9232C328.207 51.9017 328.165 51.8903 328.122 51.8903C328.079 51.8903 328.036 51.9017 327.999 51.9232C327.962 51.9448 327.931 51.9758 327.909 52.0131L323.442 59.741C323.42 59.7778 323.409 59.8197 323.408 59.8624L323.409 59.8628Z" fill="#FFFBEF"/>
<path d="M328.122 53.2418C328.529 53.2418 328.859 52.9123 328.859 52.5057C328.859 52.0991 328.529 51.7695 328.122 51.7695C327.715 51.7695 327.385 52.0991 327.385 52.5057C327.385 52.9123 327.715 53.2418 328.122 53.2418Z" fill="#FFFBEF"/>
<path d="M215.626 84.5677C216.277 83.0746 217.226 81.7296 218.415 80.615C219.603 79.5003 221.007 78.6393 222.54 78.0845C224.134 77.4698 225.842 77.2064 227.548 77.3124C229.253 77.4183 230.916 77.8911 232.421 78.6984C235.957 80.5724 238.783 83.5188 242.373 85.3125C245.864 87.0401 249.706 87.9441 253.602 87.9547C258.013 87.9886 262.356 86.8622 266.193 84.6887C266.343 84.595 266.45 84.4467 266.493 84.2753C266.535 84.1038 266.509 83.9227 266.419 83.7702C266.33 83.6178 266.185 83.5061 266.015 83.4587C265.844 83.4114 265.662 83.4321 265.507 83.5166C262.029 85.4634 258.123 86.5204 254.137 86.5934C250.151 86.6665 246.208 85.7533 242.661 83.9353C239.059 82.0486 236.205 79.0025 232.535 77.2351C230.978 76.48 229.285 76.0413 227.557 75.9444C225.828 75.8474 224.097 76.0942 222.464 76.6705C220.649 77.2786 218.984 78.2649 217.579 79.564C216.174 80.8632 215.061 82.4456 214.314 84.2066C213.985 85.0153 215.298 85.3669 215.625 84.5673L215.626 84.5677Z" fill="#FFFBEF"/>
<path d="M214.552 97.2562C222.094 95.5742 229.917 95.6012 237.448 97.3352C244.137 98.8849 251.043 101.673 257.94 99.5934C261.021 98.6645 263.845 96.8064 265.428 93.9474C265.852 93.1823 264.679 92.4967 264.255 93.2622C261.274 98.6455 254.292 99.5541 248.777 98.6706C245.092 98.0805 241.54 96.8967 237.913 96.05C230.115 94.2239 222.004 94.1886 214.19 95.9467C213.337 96.1377 213.698 97.4467 214.552 97.2562Z" fill="#FFFBEF"/>
<path d="M214.063 66.9128C221.294 65.6842 228.701 65.9474 235.827 67.6861C242.484 69.3152 248.991 73.0375 256.031 72.3951C259.29 72.0974 262.516 70.9003 264.73 68.4101C265.309 67.7587 264.351 66.7953 263.769 67.4502C261.859 69.5986 259.108 70.7119 256.286 71.0126C253.033 71.3582 249.836 70.686 246.739 69.7295C243.312 68.6707 239.982 67.3293 236.497 66.454C229.042 64.5843 221.277 64.295 213.703 65.6046C212.843 65.7515 213.208 67.0597 214.064 66.9137L214.063 66.9128Z" fill="#FFFBEF"/>
<path d="M316.753 63.6906C319.877 66.8866 322.033 70.9006 322.969 75.2686C323.69 78.7435 323.608 82.3366 322.731 85.7754C321.855 89.2142 320.205 92.4084 317.909 95.1159C317.347 95.7781 318.302 96.7428 318.87 96.0758C321.998 92.3943 323.996 87.889 324.622 83.1011C325.079 79.4051 324.695 75.6538 323.499 72.1267C322.302 68.5996 320.324 65.3877 317.712 62.7303C317.099 62.1056 316.138 63.0655 316.751 63.6902L316.753 63.6906Z" fill="#FFFBEF"/>
<path d="M337.144 60.792C332.979 63.8433 330.647 68.7683 330.319 73.8626C329.977 79.163 332.001 84.2819 335.26 88.3973C337.162 90.7668 339.433 92.8148 341.987 94.4624C342.722 94.9419 343.403 93.7673 342.673 93.2903C338.512 90.5708 334.952 86.7081 333.061 82.0722C332.139 79.8699 331.661 77.5076 331.654 75.1206C331.647 72.7336 332.112 70.3687 333.021 68.1613C334.04 65.7032 335.701 63.5632 337.83 61.9649C338.528 61.4534 337.85 60.2748 337.144 60.7928V60.792Z" fill="#FFFBEF"/>
<path d="M241.594 74.4397C245.097 74.4397 247.937 71.6034 247.937 68.1046C247.937 64.6058 245.097 61.7695 241.594 61.7695C238.092 61.7695 235.252 64.6058 235.252 68.1046C235.252 71.6034 238.092 74.4397 241.594 74.4397Z" fill="#FFFBEF"/>
<path d="M139.581 182.584C148.234 183.19 155.742 176.673 156.35 168.028C156.957 159.383 150.435 151.884 141.781 151.278C133.128 150.673 125.62 157.19 125.013 165.834C124.405 174.479 130.927 181.978 139.581 182.584Z" fill="#FFB9B9"/>
<path d="M116.507 159.624C124.163 160.16 130.805 154.394 131.342 146.747C131.88 139.099 126.11 132.465 118.454 131.929C110.799 131.393 104.157 137.159 103.619 144.806C103.082 152.454 108.852 159.088 116.507 159.624Z" fill="#090814"/>
<path d="M104.718 156.407C106.421 157.827 108.44 158.819 110.606 159.3C112.771 159.781 115.021 159.737 117.166 159.172C119.311 158.607 121.29 157.537 122.937 156.051C124.584 154.566 125.851 152.708 126.632 150.633C126.26 152.517 125.501 154.303 124.403 155.878C123.305 157.454 121.892 158.785 120.254 159.788C118.615 160.79 116.786 161.443 114.882 161.703C112.978 161.964 111.041 161.827 109.193 161.302C107.345 160.777 105.626 159.874 104.145 158.652C102.663 157.429 101.452 155.913 100.587 154.199C99.7225 152.485 99.223 150.61 99.1202 148.693C99.0175 146.776 99.3138 144.859 99.9904 143.062C99.5071 145.506 99.691 148.034 100.523 150.382C101.355 152.73 102.804 154.811 104.718 156.407Z" fill="#090814"/>
<path d="M159.425 160.249C157.309 155.753 156.51 153.882 153.575 151.027C150.98 148.505 147.634 147.585 144.74 149.599C141.513 147.914 137.819 147.341 134.232 147.969C130.645 148.597 127.366 150.391 124.904 153.072C122.442 155.752 120.935 159.17 120.618 162.794C120.3 166.418 121.189 170.046 123.147 173.113C125.105 176.18 128.022 178.515 131.445 179.755C134.868 180.996 138.606 181.072 142.077 179.972C145.548 178.872 148.559 176.658 150.642 173.674C152.724 170.689 153.762 167.101 153.594 163.467C155.997 163.302 157.021 160.419 159.425 160.249Z" fill="#090814"/>
</g>
<defs>
<clipPath id="clip0_112_2160">
<rect width="400" height="277" fill="white"/>
</clipPath>
</defs>
</svg>
