<svg width="60" height="60" viewBox="0 0 60 60" fill="none" xmlns="http://www.w3.org/2000/svg">
<g clip-path="url(#clip0_101_8064)">
<path d="M35.9108 1.64053C35.9108 1.64053 35.8733 2.25459 35.7093 3.14521C35.6249 3.58584 35.5124 4.10146 35.3671 4.6499C35.2124 5.19365 35.0155 5.76084 34.8327 6.3374C34.1249 8.63896 33.3702 10.9265 33.3702 10.9265L33.314 10.9124C33.314 10.9124 33.8249 8.55928 34.3874 6.21553C34.528 5.62959 34.6452 5.03896 34.7858 4.49053C34.9358 3.94678 35.1046 3.44521 35.2593 3.02334C35.5687 2.17021 35.8499 1.62646 35.8499 1.62646L35.9108 1.64053Z" fill="#736357"/>
<path d="M35.7374 2.45142L28.6639 3.45454L30.3796 4.56079L33.3093 5.84517L36.0608 6.66548L38.6671 7.05923L40.8093 6.77329L35.7374 2.45142Z" fill="url(#paint0_linear_101_8064)"/>
<path d="M28.1671 3.4873L35.6296 2.43262" stroke="#FF3F7B" stroke-width="0.6097" stroke-miterlimit="10"/>
<path d="M30.0233 4.95464L35.6483 2.4187" stroke="#FF3F7B" stroke-width="0.6097" stroke-miterlimit="10"/>
<path d="M33.0233 6.43579L35.6483 2.45142" stroke="#FF3F7B" stroke-width="0.6097" stroke-miterlimit="10"/>
<path d="M36.1312 7.18584L35.7374 2.54053" stroke="#FF3F7B" stroke-width="0.6097" stroke-miterlimit="10"/>
<path d="M39.0796 7.45293L35.7186 2.43262" stroke="#FF3F7B" stroke-width="0.6097" stroke-miterlimit="10"/>
<path d="M41.0624 7.25605L35.7046 2.3623" stroke="#FF3F7B" stroke-width="0.6097" stroke-miterlimit="10"/>
<g opacity="0.2">
<path d="M35.6531 2.76089L39.5249 6.29526L39.7077 6.44995L38.9015 6.55776C38.8499 6.56245 38.8031 6.5812 38.7562 6.60464C38.7421 6.59995 38.728 6.59995 38.714 6.59526L36.3046 6.23433C36.2812 6.22964 36.2577 6.22964 36.2343 6.22964C36.2156 6.22964 36.1968 6.22964 36.1781 6.23433C36.1452 6.21558 36.1124 6.20151 36.0749 6.18745L34.9781 5.85933C34.9359 5.84526 34.8937 5.84058 34.8515 5.84058C34.814 5.84058 34.7765 5.84526 34.7437 5.85464C34.6874 5.79839 34.6171 5.75151 34.5374 5.72808L33.6749 5.55933C33.628 5.54058 33.5812 5.62495 33.539 5.62495H33.5343C33.5062 5.62495 33.4781 5.49839 33.4452 5.48433L31.0077 4.33589C30.9468 4.30776 30.8812 4.2187 30.8156 4.2187H30.8109C30.7687 4.2187 30.7124 4.16245 30.6515 4.13433L30.5999 4.12964L29.7468 3.58589L35.6109 2.76089C35.6249 2.76089 35.639 2.76089 35.6531 2.76089ZM35.8546 1.62183C35.8546 1.62183 35.7234 1.87495 35.5452 2.30151L28.1437 3.34683L28.1859 3.62808L28.8046 3.53901L30.3796 4.5562L30.464 4.5937L29.9624 4.8187L30.0796 5.0812L30.8156 4.74839L33.2531 5.81714L32.9015 6.35151L33.1405 6.51089L33.5343 5.91089L34.3968 6.1687C34.3921 6.18276 34.3921 6.19683 34.3874 6.21089C33.8249 8.55464 33.314 10.9078 33.314 10.9078L33.3702 10.9218C33.3702 10.9218 34.1249 8.63433 34.8327 6.33276C34.8374 6.32339 34.8374 6.31401 34.8421 6.29995L35.939 6.62808L35.9859 7.19526L36.2718 7.17183L36.2296 6.6937L38.639 7.05464L38.9577 7.53276L39.1968 7.37339L38.9624 7.02183L40.3827 6.83433L40.964 7.36401L41.1562 7.15308L40.7531 6.78276L40.8093 6.77339L39.8249 5.93433L35.8406 2.29214C35.8921 1.88433 35.9109 1.63589 35.9109 1.63589L35.8546 1.62183Z" fill="#424242"/>
</g>
<path d="M28.4062 5.19366L18.8906 16.8562C18.8906 16.8562 15.2203 11.8968 19.4203 7.28428C23.6203 2.67178 28.4062 5.19366 28.4062 5.19366Z" fill="#057A64"/>
<path d="M28.2937 5.35309L19.0265 16.7297C19.0265 16.7297 15.7218 12.3093 19.9218 7.69684C24.1218 3.08434 28.2937 5.35309 28.2937 5.35309Z" fill="url(#paint1_linear_101_8064)"/>
<path d="M25.7015 6.52507C26.114 6.00945 26.864 5.92507 27.3797 6.33289L24.9984 9.31882C24.9984 9.31882 25.289 7.0407 25.7015 6.52507Z" fill="#F1F41C"/>
<path d="M19.5702 14.1608C19.9921 13.6546 22.1624 12.8999 22.1624 12.8999L19.7296 15.8437C19.2186 15.4218 19.1483 14.6718 19.5702 14.1608Z" fill="#F1F41C"/>
<path d="M20.1281 9.48283C19.6124 9.07033 19.5281 8.32033 19.9406 7.80471C20.3531 7.28908 21.1031 7.20471 21.6187 7.61721C22.1343 8.02971 22.9265 10.186 22.9265 10.186C22.9265 10.186 20.6437 9.89064 20.1281 9.48283Z" fill="#F1F41C"/>
<path d="M19.8937 10.2891C19.2374 10.3641 18.7687 10.9547 18.839 11.6109C18.914 12.2672 19.5046 12.7359 20.1609 12.6656C20.8171 12.5906 22.6359 11.1844 22.6359 11.1844C22.6359 11.1844 20.5499 10.2187 19.8937 10.2891Z" fill="#F1F41C"/>
<path d="M22.3546 7.20469C22.2796 6.54844 22.7531 5.95781 23.4093 5.88281C24.0656 5.80781 24.6562 6.28125 24.7312 6.9375C24.8062 7.59375 23.8359 9.67969 23.8359 9.67969C23.8359 9.67969 22.4296 7.86094 22.3546 7.20469Z" fill="#F1F41C"/>
<path d="M19.8937 10.2891C19.2374 10.3641 18.7687 10.9547 18.839 11.6109C18.914 12.2672 19.5046 12.7359 20.1609 12.6656C20.8171 12.5906 22.6359 11.1844 22.6359 11.1844C22.6359 11.1844 20.5499 10.2187 19.8937 10.2891Z" fill="#F1F41C"/>
<g opacity="0.2">
<path d="M25.2515 5.44214C25.8656 5.44214 26.414 5.5312 26.8546 5.63901L21.4171 12.314C21.389 12.3515 21.3609 12.389 21.3375 12.4265L20.4328 13.5187L19.0359 15.2343C18.3187 13.7062 17.5265 10.7531 20.114 7.91245C21.6046 6.27651 23.3343 5.44214 25.2515 5.44214ZM25.2515 4.50464C23.564 4.50464 21.4218 5.0812 19.4203 7.28433C15.2203 11.8968 18.8906 16.8562 18.8906 16.8562L19.0125 16.7062C19.0218 16.7203 19.0312 16.7296 19.0312 16.7296L21.164 14.114L22.1671 12.9C22.1671 12.9 22.1578 12.9046 22.1484 12.9093L28.3031 5.35308C28.3031 5.35308 28.2984 5.34839 28.2937 5.34839L28.4156 5.19839C28.4062 5.1937 27.0984 4.50464 25.2515 4.50464Z" fill="#424242"/>
</g>
<path d="M38.8734 55.9454C38.8734 57.1172 34.7577 58.0688 29.6765 58.0688C24.5952 58.0688 20.4796 57.1172 20.4796 55.9454C20.4796 54.7735 24.5952 53.1047 29.6765 53.1047C34.7577 53.1047 38.8734 54.7688 38.8734 55.9454Z" fill="url(#paint2_linear_101_8064)"/>
<path d="M38.1609 24.7688C36.4265 18.45 37.1484 10.2516 37.1484 10.2516C37.1484 10.2516 33.8062 11.1188 29.6484 11.1188C25.5515 11.1188 22.2234 10.7812 22.1203 10.2188C22.1625 10.7344 22.8093 18.8297 21.1312 24.9422C19.3968 31.2609 17.3765 35.6813 23.1796 40.8375C28.9828 45.9938 28.589 45.2484 28.5281 47.6859C28.4671 50.1188 28.1109 52.9641 27.8718 53.8312C27.6328 54.6984 28.9171 54.9328 29.6578 54.9328C30.3937 54.9328 31.664 54.7078 31.425 53.8359C31.1859 52.9688 30.8109 50.1328 30.7546 47.6953C30.6937 45.2625 30.3 45.9047 36.1078 40.7484C41.9156 35.5922 39.8953 31.0875 38.1609 24.7688Z" fill="url(#paint3_linear_101_8064)"/>
<path opacity="0.8" d="M29.6484 9.26709C25.4906 9.26709 22.1156 9.73584 22.1156 10.3124C22.1156 10.3218 22.1203 10.3312 22.1203 10.3405C22.2234 10.903 25.5515 11.3577 29.6484 11.3577C33.8062 11.3577 37.1812 10.889 37.1812 10.3124C37.1765 9.73584 33.8062 9.26709 29.6484 9.26709Z" fill="#D0D6D2"/>
<g opacity="0.2">
<path d="M29.6484 10.2046C33.075 10.2046 35.3203 10.514 36.1734 10.753C36.0375 12.8343 35.7563 19.5562 37.2563 25.0171C37.4156 25.5937 37.575 26.1515 37.7297 26.6999C39.2906 32.1515 40.3219 35.7515 35.4797 40.0499C34.8609 40.5983 34.3125 41.0812 33.8297 41.5124C29.9531 44.9343 29.7234 45.1358 29.8031 47.2968C29.8078 47.428 29.8125 47.5686 29.8172 47.7233C29.8688 49.7905 30.1313 52.078 30.3609 53.3296C30.4359 53.7515 30.7922 54.0702 31.2188 54.0983C34.8797 54.3515 37.1578 55.364 37.8 55.903C37.0125 56.3905 34.2188 57.1312 29.6813 57.1312C25.1438 57.1312 22.3453 56.3905 21.5625 55.903C22.2 55.3687 24.4594 54.3608 28.0875 54.103C28.5141 54.0702 28.8703 53.7562 28.9453 53.3296C29.1609 52.1015 29.4188 49.8186 29.4703 47.7093C29.475 47.5546 29.4797 47.4093 29.4844 47.278C29.5594 45.1968 29.2828 44.953 25.8703 41.9577C25.2891 41.4468 24.6094 40.8515 23.8078 40.139C18.9844 35.8546 20.0063 32.3015 21.5484 26.9296C21.7078 26.3671 21.8766 25.7905 22.0406 25.1952C23.5313 19.7765 23.25 12.9702 23.1047 10.7671C23.925 10.5233 26.1844 10.2046 29.6484 10.2046ZM29.6484 9.26709C25.6313 9.26709 22.3594 9.70303 22.1391 10.2515C22.1344 10.2421 22.125 10.2327 22.1203 10.2187C22.1203 10.2327 22.125 10.2562 22.125 10.2796C22.125 10.289 22.1156 10.2983 22.1156 10.3077C22.1156 10.3171 22.1203 10.3265 22.1203 10.3358C22.1203 10.3405 22.1297 10.3499 22.1297 10.3546C22.2234 11.5358 22.725 19.1343 21.1266 24.9421C19.3922 31.2608 17.3719 35.6812 23.175 40.8374C28.9828 45.9937 28.5844 45.2483 28.5234 47.6858C28.4766 49.6733 28.2281 51.928 28.0125 53.1655C23.7281 53.4749 20.4797 54.8999 20.4797 55.9452C20.4797 57.1171 24.5953 58.0687 29.6766 58.0687C34.7578 58.0687 38.8734 57.1171 38.8734 55.9452C38.8734 54.8999 35.5922 53.4608 31.2797 53.1655C31.0594 51.928 30.8016 49.6827 30.7547 47.7046C30.6938 45.2718 30.3 45.914 36.1078 40.7577C41.9156 35.6015 39.9 31.0921 38.1609 24.7733C36.5672 18.9796 37.0453 11.6015 37.1344 10.4249C37.1625 10.3874 37.1766 10.3499 37.1766 10.3124C37.1766 9.73584 33.8063 9.26709 29.6484 9.26709Z" fill="#424242"/>
</g>
<path d="M36.0937 13.05C35.85 12.5907 33.0609 12.2297 29.6484 12.2297C26.2359 12.2297 23.4421 12.5907 23.2031 13.05C23.1937 13.0735 23.1843 13.0922 23.1843 13.1157C23.1843 13.6032 26.0765 13.9969 29.6484 13.9969C33.2203 13.9969 36.1125 13.6032 36.1125 13.1157C36.1125 13.0922 36.1031 13.0688 36.0937 13.05Z" fill="#FFFA99"/>
<path d="M33.539 9.14526C32.9062 9.83901 32.7187 10.4812 32.7187 10.4812L32.4093 11.2968C33.0702 11.2546 33.6843 11.2031 34.2374 11.1421C34.3593 10.8281 34.5421 10.5562 34.7577 10.3265C34.2421 10.0734 33.7593 9.67964 33.539 9.14526Z" fill="#FF6815"/>
<path d="M34.6312 8.27344C34.4296 8.39062 34.2468 8.51719 34.0828 8.64375C34.35 9.15469 34.5984 9.74063 35.1234 10.0031C35.2546 9.9 35.3859 9.81094 35.5171 9.73125C35.0578 9.36563 34.7953 8.82656 34.6312 8.27344Z" fill="#FF6815"/>
<path d="M34.6312 8.27334C34.7953 8.83115 35.0578 9.36553 35.5172 9.73115C35.6719 9.6374 35.8219 9.55772 35.9578 9.49209C35.5781 9.09834 35.3578 8.5124 35.2875 7.95459C35.0484 8.04834 34.8281 8.15615 34.6312 8.27334Z" fill="#C75110"/>
<path d="M35.7562 7.78579C35.8265 8.39048 36.0562 8.85923 36.4359 9.28579C36.5203 9.25298 36.5859 9.23423 36.6234 9.22017C36.6468 9.21548 36.6656 9.21079 36.689 9.2061L36.7781 9.19673C36.464 8.77485 36.3844 8.22642 36.2625 7.65454C36.0844 7.69204 35.9156 7.73423 35.7562 7.78579Z" fill="#C75110"/>
<path d="M47.2827 7.61256C47.2827 7.61256 47.353 6.34694 46.7765 6.40319C45.239 6.55788 39.3608 7.13444 36.6046 7.58444C36.4874 7.60319 36.3749 7.62663 36.2671 7.65006C36.389 8.22194 36.4687 8.77038 36.7827 9.19225L46.9499 8.02975C47.1515 8.011 47.3015 7.8235 47.2827 7.61256Z" fill="url(#paint4_linear_101_8064)"/>
<path d="M35.2875 7.94995C35.3578 8.50776 35.5781 9.0937 35.9578 9.48745C36.1453 9.39839 36.3094 9.33276 36.4312 9.28589C36.0515 8.85933 35.8218 8.39058 35.7515 7.78589C35.5922 7.83745 35.4328 7.88901 35.2875 7.94995Z" fill="#FF6815"/>
<path d="M34.0828 8.6438C33.8719 8.80786 33.6938 8.9813 33.5391 9.15005C33.7594 9.67974 34.2422 10.0782 34.7625 10.3313C34.875 10.2094 34.9969 10.1016 35.1234 10.0032C34.5984 9.74067 34.35 9.15005 34.0828 8.6438Z" fill="#C75110"/>
<path d="M32.4093 11.3014L32.039 12.2858L31.814 12.8811C31.7297 13.1014 31.8656 13.3452 32.0953 13.392C32.4703 13.467 32.9578 13.4717 33.3234 13.3358C33.4265 13.2983 33.5062 13.2139 33.5484 13.1108C33.6515 12.8389 33.7359 12.6092 33.8062 12.4077C33.9984 11.8592 34.1062 11.5124 34.2234 11.1842C34.2281 11.1702 34.2328 11.1608 34.2375 11.1467C33.6843 11.2077 33.0703 11.2592 32.4093 11.3014Z" fill="#FF9961"/>
<g opacity="0.2">
<path d="M46.7344 6.8812C46.7906 7.01714 46.8281 7.32183 46.8141 7.57964L36.7219 8.73276L36.6328 8.74214C36.5813 8.74683 36.5344 8.7562 36.4828 8.77495C36.4406 8.78901 36.3656 8.81245 36.2672 8.84995C36.0938 8.91558 35.9203 8.98589 35.7516 9.07026C35.5781 9.15464 35.4187 9.23901 35.2687 9.33276C35.1 9.43589 34.9594 9.53433 34.8281 9.63745C34.6734 9.75933 34.5375 9.8812 34.4156 10.0125C34.2094 10.2328 34.0453 10.4625 33.9187 10.7109C33.6562 10.739 33.3844 10.7625 33.1031 10.7859L33.1547 10.6546C33.1594 10.6453 33.1641 10.6312 33.1641 10.6218C33.1641 10.6171 33.3422 10.0593 33.8812 9.46401C34.0266 9.30464 34.1906 9.14995 34.3687 9.01401C34.5141 8.89683 34.6828 8.78433 34.8656 8.6812C35.0531 8.57339 35.2547 8.47495 35.4656 8.38589C35.5875 8.33433 35.7281 8.28745 35.8922 8.23589C36.0281 8.1937 36.1828 8.1562 36.3609 8.11401C36.4641 8.09058 36.5625 8.06714 36.675 8.05308C39.2859 7.62651 44.7703 7.07808 46.5703 6.89995L46.7344 6.8812ZM46.8094 6.40308C46.7953 6.40308 46.7859 6.40308 46.7719 6.40308C45.2344 6.55776 39.3563 7.13433 36.6 7.58433C36.4828 7.60308 36.3703 7.62651 36.2625 7.64995C36.0844 7.68745 35.9156 7.72964 35.7562 7.7812C35.5922 7.83276 35.4375 7.88433 35.2922 7.94526C35.0531 8.0437 34.8328 8.15151 34.6359 8.2687C34.4344 8.38589 34.2516 8.51245 34.0875 8.63901C33.8766 8.80308 33.6984 8.97651 33.5437 9.14526C32.9109 9.83901 32.7234 10.4812 32.7234 10.4812L32.4141 11.2968C33.075 11.2546 33.6891 11.2031 34.2422 11.1421C34.3641 10.8281 34.5469 10.5562 34.7625 10.3265C34.875 10.2046 34.9969 10.0968 35.1234 9.99839C35.2547 9.89526 35.3859 9.8062 35.5172 9.72651C35.6719 9.63276 35.8219 9.55308 35.9578 9.48745C36.1453 9.39839 36.3094 9.33276 36.4312 9.28589C36.5156 9.25308 36.5813 9.23433 36.6188 9.22026C36.6422 9.21558 36.6609 9.21089 36.6844 9.2062L36.7734 9.19683L46.9406 8.03433C47.1516 8.01089 47.3016 7.82339 47.2781 7.61245C47.2828 7.61245 47.3484 6.40308 46.8094 6.40308Z" fill="#424242"/>
</g>
<path d="M33.2624 13.7155C32.6952 13.7577 32.0718 13.7905 31.4062 13.814C30.8577 13.8327 30.2765 13.8421 29.6812 13.8421C25.9874 13.8421 23.5359 13.5187 23.2077 13.0874C23.1937 13.0734 23.4609 20.1984 21.9562 25.589C20.8452 29.578 18.989 33.9468 21.6843 37.814C23.4843 40.3968 26.9437 42.2812 30.1265 42.1312C31.7296 42.0562 33.3327 41.2734 34.6921 40.4765C35.9812 39.7218 37.0827 38.6859 37.8749 37.4062C40.1718 33.689 38.578 29.4327 37.4249 25.589C35.7421 19.978 36.0937 13.2327 36.0749 13.2421C35.5687 13.4765 35.128 13.5702 33.2624 13.7155Z" fill="url(#paint5_linear_101_8064)"/>
<path d="M24.2156 11.0625C24.2156 11.0625 25.7203 18.5203 24.3328 22.6922C22.9406 26.8641 20.3156 33.9 22.2843 37.0266C24.2531 40.1578 26.3437 40.5047 26.3437 40.5047C26.3437 40.5047 24.375 36.6797 25.2984 30.4219C26.2265 24.1641 27.1547 14.9766 26.3437 11.2641L24.2156 11.0625Z" fill="url(#paint6_linear_101_8064)"/>
</g>
<defs>
<linearGradient id="paint0_linear_101_8064" x1="35.5849" y1="2.40988" x2="34.3883" y2="6.23226" gradientUnits="userSpaceOnUse">
<stop stop-color="#FF3776"/>
<stop offset="1" stop-color="#FFDEE7"/>
</linearGradient>
<linearGradient id="paint1_linear_101_8064" x1="19.9006" y1="7.42867" x2="23.7173" y2="11.0957" gradientUnits="userSpaceOnUse">
<stop stop-color="#93D919"/>
<stop offset="1" stop-color="#F2F45D"/>
</linearGradient>
<linearGradient id="paint2_linear_101_8064" x1="29.6784" y1="53.1037" x2="29.6784" y2="58.1664" gradientUnits="userSpaceOnUse">
<stop stop-color="white"/>
<stop offset="0.1315" stop-color="#F3F3F3"/>
<stop offset="0.4543" stop-color="#DBDBDB"/>
<stop offset="0.7523" stop-color="#CCCCCC"/>
<stop offset="1" stop-color="#C7C7C7"/>
</linearGradient>
<linearGradient id="paint3_linear_101_8064" x1="29.6435" y1="10.3947" x2="29.6435" y2="55.0009" gradientUnits="userSpaceOnUse">
<stop stop-color="#F6F9FE"/>
<stop offset="0.9949" stop-color="#C5CFD0"/>
</linearGradient>
<linearGradient id="paint4_linear_101_8064" x1="37.182" y1="8.29394" x2="47.0647" y2="7.18942" gradientUnits="userSpaceOnUse">
<stop stop-color="#FF6815"/>
<stop offset="0.9949" stop-color="#FF9147"/>
</linearGradient>
<linearGradient id="paint5_linear_101_8064" x1="29.6646" y1="14.0667" x2="29.6646" y2="42.0989" gradientUnits="userSpaceOnUse">
<stop stop-color="#FFE12E"/>
<stop offset="0.5452" stop-color="#FF7300"/>
<stop offset="0.9967" stop-color="#FF0000"/>
</linearGradient>
<linearGradient id="paint6_linear_101_8064" x1="24.1132" y1="11.0638" x2="24.1132" y2="40.5071" gradientUnits="userSpaceOnUse">
<stop stop-color="#F6F9FE"/>
<stop offset="0.9948" stop-color="white" stop-opacity="0"/>
</linearGradient>
<clipPath id="clip0_101_8064">
<rect width="60" height="60" fill="white"/>
</clipPath>
</defs>
</svg>
