<svg width="60" height="60" viewBox="0 0 60 60" fill="none" xmlns="http://www.w3.org/2000/svg">
<path d="M57.6563 31.3548C57.6563 41.0017 45.5344 48.3517 30 48.3517C14.4657 48.3517 2.3438 41.0017 2.3438 31.3548C2.3438 29.9954 1.8938 28.936 1.8938 28.936H58.125C58.125 28.936 57.6563 29.897 57.6563 31.3548Z" fill="#9D9D9D"/>
<path d="M30 46.9313C45.533 46.9313 58.125 39.1116 58.125 29.4656C58.125 19.8196 45.533 12 30 12C14.467 12 1.875 19.8196 1.875 29.4656C1.875 39.1116 14.467 46.9313 30 46.9313Z" fill="url(#paint0_linear_101_4979)"/>
<path d="M35.6625 32.311C37.9924 32.311 39.8812 30.4222 39.8812 28.0923C39.8812 25.7623 37.9924 23.8735 35.6625 23.8735C33.3325 23.8735 31.4437 25.7623 31.4437 28.0923C31.4437 30.4222 33.3325 32.311 35.6625 32.311Z" fill="#F5F5F5"/>
<path d="M29.9906 35.3438C32.3206 35.3438 34.2094 33.455 34.2094 31.125C34.2094 28.795 32.3206 26.9062 29.9906 26.9062C27.6606 26.9062 25.7719 28.795 25.7719 31.125C25.7719 33.455 27.6606 35.3438 29.9906 35.3438Z" fill="#F5F5F5"/>
<path d="M51.8812 26.7937C51.4266 27.7405 52.4062 28.9499 52.8516 30.1874C53.3953 31.7155 52.7859 33.8483 50.9766 35.3437C48.8625 37.0968 48.0094 36.5296 46.575 37.439C45.2016 38.3108 45.825 39.3937 44.0578 40.5608C43.3875 41.0015 40.9312 40.7437 39.6516 41.0437C37.8375 41.4702 35.6625 42.5483 31.3125 42.5999C28.5563 42.6327 25.0266 42.164 22.6078 41.5218C20.9953 41.0952 20.4937 40.2187 19.0828 39.6046C15.9984 38.2546 11.7234 38.6718 9.37969 34.814C8.625 33.5765 9.37969 33.1827 8.96719 31.7062C8.61562 30.4452 7.45312 30.389 7.45312 28.0546C7.45312 20.2077 15.0469 14.7046 30.8719 14.7046C44.5781 14.7093 54.6328 21.0843 51.8812 26.7937Z" fill="#9A5A25"/>
<path d="M38.189 22.1344C38.189 22.1344 35.6578 22.6359 33.9937 20.2687C33.0187 18.8812 34.4531 18.0656 35.925 17.3391C37.3921 16.6125 39.6328 17.0437 40.9781 17.8781C42.3234 18.7125 42.1781 19.7391 42.1781 19.7391C42.1312 19.8422 41.9859 21.7641 38.189 22.1344Z" fill="url(#paint1_radial_101_4979)"/>
<g opacity="0.2">
<path d="M37.7016 17.4329C38.7329 17.4329 39.8954 17.7563 40.7297 18.2719C41.6907 18.8672 41.7188 19.5329 41.7141 19.65C41.7094 19.6594 41.7094 19.6688 41.7047 19.6782C41.4563 20.761 40.1907 21.4641 38.1375 21.661C38.1235 21.661 38.1094 21.6657 38.0954 21.6657C38.0954 21.6657 37.9032 21.7032 37.5985 21.7032C36.8438 21.7032 35.4188 21.4829 34.3735 19.9922C34.0782 19.5704 34.1391 19.3313 34.1579 19.2516C34.3125 18.6469 35.4469 18.0844 36.1266 17.7516C36.5579 17.5454 37.1016 17.4329 37.7016 17.4329ZM37.7016 16.9641C37.0594 16.9641 36.4454 17.0766 35.925 17.3344C34.4579 18.061 33.0235 18.8766 33.9938 20.2641C35.161 21.9282 36.7547 22.1766 37.6032 22.1766C37.9641 22.1766 38.1891 22.1297 38.1891 22.1297C41.9813 21.7594 42.1313 19.8375 42.1782 19.7297C42.1782 19.7297 42.3235 18.7032 40.9782 17.8688C40.111 17.3391 38.8688 16.9641 37.7016 16.9641Z" fill="#434343"/>
</g>
<path d="M41.5969 21.6094C41.8125 21.8297 39.3469 22.6313 38.2313 22.6313C37.1156 22.6313 34.7672 21.8204 34.7672 21.511C34.7672 21.2016 35.8828 20.8547 36.4078 21.136C38.4281 22.2235 39.961 19.9219 41.5969 21.6094Z" fill="#9A5A25"/>
<path d="M40.575 22.1766C41.1469 20.5219 41.6063 20.2219 42.9188 19.5938C44.2266 18.9657 46.0969 19.6735 47.1704 20.7141C47.1797 20.7235 47.1938 20.7329 47.2032 20.7469C48.1313 21.6704 47.8641 23.2594 46.7016 23.8548C46.2422 24.0891 43.1063 24.586 40.9594 23.8501C40.4063 23.6626 40.411 22.6501 40.575 22.1766Z" fill="url(#paint2_radial_101_4979)"/>
<g opacity="0.2">
<path d="M30.8719 15.1782C41.6391 15.1782 48.9047 18.9329 51.0938 22.4157C51.9844 23.836 52.1062 25.2423 51.4594 26.5923C51.0422 27.4642 51.4969 28.397 51.9422 29.3063C52.1109 29.6485 52.2844 30.0048 52.4062 30.3517C52.9266 31.8095 52.2141 33.7173 50.6766 34.9923C49.4859 35.9767 48.7359 36.1782 48.0141 36.3704C47.4937 36.5063 46.9594 36.6517 46.3219 37.0501C45.5578 37.5329 45.3 38.1095 45.075 38.611C44.8406 39.136 44.6203 39.6329 43.8 40.1767C43.5375 40.3501 42.5109 40.3829 41.7609 40.4017C40.9687 40.4251 40.1531 40.4485 39.5438 40.5938C39.0891 40.7017 38.6109 40.847 38.1047 41.0017C36.5156 41.4892 34.5328 42.0985 31.3078 42.136C31.2188 42.136 31.1297 42.136 31.0359 42.136C28.4672 42.136 25.125 41.7095 22.725 41.072C21.8719 40.847 21.375 40.4954 20.8031 40.0876C20.3625 39.7782 19.9078 39.4548 19.2703 39.1782C18.3 38.7517 17.2078 38.4938 16.1531 38.2454C13.7719 37.6829 11.3156 37.097 9.78281 34.5751C9.44531 34.022 9.47813 33.7173 9.52969 33.2579C9.57188 32.8454 9.62813 32.3298 9.42188 31.5845C9.2625 31.022 8.96719 30.6517 8.70469 30.3282C8.30156 29.8313 7.92188 29.3579 7.92188 28.0595C7.92188 24.2392 9.83906 21.0517 13.4719 18.8438C17.4703 16.411 23.325 15.1782 30.8719 15.1782ZM30.8719 14.7095C15.0469 14.7095 7.45312 20.2126 7.45312 28.0595C7.45312 30.3985 8.61562 30.4501 8.96719 31.711C9.37969 33.1876 8.625 33.5813 9.37969 34.8188C11.7234 38.6767 15.9984 38.2595 19.0828 39.6095C20.4937 40.2282 20.9906 41.1001 22.6078 41.5267C24.9469 42.1454 28.3266 42.6048 31.0406 42.6048C31.1344 42.6048 31.2234 42.6048 31.3172 42.6048C35.6672 42.5532 37.8422 41.4704 39.6562 41.0485C40.9359 40.7485 43.3922 41.011 44.0625 40.5657C45.8297 39.3985 45.2062 38.311 46.5797 37.4438C48.0141 36.5345 48.8672 37.1017 50.9813 35.3485C52.7906 33.8532 53.4 31.7157 52.8563 30.1923C52.4156 28.9548 51.4313 27.7454 51.8859 26.7985C54.6328 21.0845 44.5781 14.7095 30.8719 14.7095Z" fill="#434343"/>
</g>
<path d="M36.6656 26.6063C36.6563 26.5875 36.6469 26.5641 36.6328 26.5454C36.4641 26.236 36.4359 25.8844 36.5063 25.5375C36.5906 25.1297 36.5297 24.6797 36.4078 24.2204C36.3 23.8125 36.1641 23.5172 36.0141 23.3063C34.8609 19.7016 29.5734 14.0344 22.8422 14.0344C16.8234 14.0344 11.9297 18.5625 10.1063 22.0735C10.1063 22.0735 8.87813 23.7047 8.74219 25.3782C8.60157 27.0985 9.74532 27.3891 9.82032 28.0266C9.92813 28.9266 10.3125 30.0094 11.3672 30.211C11.7844 30.2907 12.0703 30.6657 12.3 31.0079C13.4063 32.6485 14.4375 33.1079 16.2234 33.1547C16.9453 33.1735 18.6516 33.45 18.9844 33.6329C19.4438 33.8813 20.0203 34.0313 20.6484 34.0313C21.075 34.0313 21.4781 33.961 21.8344 33.8438C22.3688 33.661 22.9453 33.6704 23.4797 33.8485C23.9766 34.0125 24.5672 34.0829 25.1953 34.0266C25.8609 33.9704 26.4609 33.7829 26.9391 33.511C27.4734 33.2063 28.125 33.1219 28.7156 33.3C29.2266 33.4547 29.8313 33.4782 30.4547 33.3422C31.2703 33.1641 31.9406 32.7516 32.325 32.2454C32.6625 31.8 33.1781 31.4907 33.75 31.4204C33.9797 31.3922 34.2141 31.3266 34.4484 31.2282C34.9922 30.9938 35.2688 30.3469 35.4 29.8079C35.5219 29.3204 35.7938 28.8797 36.1688 28.5235C36.7406 27.9797 36.9656 27.2344 36.6656 26.6063Z" fill="url(#paint3_radial_101_4979)"/>
<path opacity="0.2" d="M24.9048 29.9765C24.9938 30.4499 24.4266 30.9843 23.6438 31.1671C22.861 31.3499 22.1485 31.1155 22.0641 30.6421C21.9751 30.1687 22.5423 29.6343 23.3251 29.4515C24.1079 29.264 24.8157 29.503 24.9048 29.9765Z" fill="#90A4AE"/>
<path opacity="0.2" d="M33.3423 26.3531C33.7688 26.5359 33.8907 27.3187 33.6048 28.1062C33.3235 28.8937 32.747 29.3812 32.3157 29.1984C31.8891 29.0156 31.7673 28.2328 32.0532 27.4453C32.3391 26.6578 32.9157 26.1703 33.3423 26.3531Z" fill="#90A4AE"/>
<path opacity="0.2" d="M14.6767 30.8157C14.2126 30.7923 13.8563 30.0892 13.8751 29.2501C13.8938 28.4111 14.2829 27.7501 14.747 27.7736C15.211 27.797 15.5673 28.5001 15.5485 29.3392C15.5298 30.1782 15.1407 30.8392 14.6767 30.8157Z" fill="#90A4AE"/>
<path opacity="0.2" d="M20.4892 31.3969C20.5032 31.8798 19.861 32.3063 19.0548 32.3532C18.2532 32.4001 17.5923 32.0438 17.5782 31.561C17.5642 31.0782 18.2064 30.6516 19.0126 30.6047C19.8189 30.5626 20.4798 30.9141 20.4892 31.3969Z" fill="#90A4AE"/>
<path opacity="0.2" d="M28.7298 28.7297C28.3407 28.9922 27.6564 28.6453 27.2017 27.9516C26.747 27.2578 26.6907 26.4844 27.0798 26.2219C27.4689 25.9594 28.1532 26.3063 28.6079 27C29.0626 27.6938 29.1142 28.4672 28.7298 28.7297Z" fill="#D0D8DC"/>
<path opacity="0.2" d="M15.1595 23.2452C14.8267 23.189 14.6392 22.7015 14.7423 22.1624C14.8454 21.6234 15.197 21.2296 15.5298 21.2859C15.8626 21.3421 16.0501 21.8296 15.947 22.3687C15.8439 22.9077 15.4923 23.3015 15.1595 23.2452Z" fill="#D0D8DC"/>
<path opacity="0.2" d="M18.2532 28.4579C17.9204 28.4016 17.7329 27.9141 17.8361 27.3751C17.9392 26.836 18.2907 26.4423 18.6236 26.4985C18.9564 26.5548 19.1439 27.0423 19.0407 27.5813C18.9376 28.1204 18.5861 28.5141 18.2532 28.4579Z" fill="#D0D8DC"/>
<path opacity="0.2" d="M10.7813 24.4454C10.4485 24.3892 10.261 23.9017 10.3641 23.3626C10.4673 22.8236 10.8188 22.4298 11.1516 22.4861C11.4844 22.5423 11.6719 23.0298 11.5688 23.5689C11.4657 24.1079 11.1141 24.5017 10.7813 24.4454Z" fill="#D0D8DC"/>
<path opacity="0.2" d="M24.722 27.1782C24.4923 27.436 24.0048 27.3376 23.6251 26.9532C23.2454 26.5688 23.1235 26.0438 23.3532 25.786C23.5829 25.5282 24.0704 25.6267 24.4501 26.011C24.8298 26.3954 24.9517 26.9157 24.722 27.1782Z" fill="#D0D8DC"/>
<path opacity="0.2" d="M30.1688 31.0266C30.3235 31.3126 30.0329 31.7485 29.5219 32.0016C29.011 32.2547 28.4672 32.2266 28.3126 31.9407C28.1579 31.6547 28.4485 31.2188 28.9594 30.9657C29.4704 30.7126 30.0141 30.736 30.1688 31.0266Z" fill="#90A4AE"/>
<path opacity="0.2" d="M10.8235 25.7062C11.1985 25.6312 11.5641 26.1468 11.6438 26.8547C11.7235 27.5625 11.4844 28.2 11.1094 28.275C10.7344 28.35 10.3688 27.8343 10.2891 27.1265C10.2094 26.4187 10.4485 25.7812 10.8235 25.7062Z" fill="#B0BEC5"/>
<path opacity="0.2" d="M15.0142 25.2797C15.1641 25.6453 14.761 26.1281 14.1095 26.3578C13.4626 26.5875 12.8157 26.4797 12.6657 26.1093C12.5157 25.7437 12.9188 25.2609 13.5704 25.0312C14.222 24.8062 14.8688 24.914 15.0142 25.2797Z" fill="#B0BEC5"/>
<path opacity="0.2" d="M32.0626 23.8265C32.1657 24.1359 31.7157 24.5484 31.0595 24.75C30.4032 24.9515 29.7845 24.8671 29.6813 24.5578C29.5782 24.2484 30.0282 23.8359 30.6845 23.6343C31.3407 23.4328 31.9595 23.5218 32.0626 23.8265Z" fill="#D0D8DC"/>
<path opacity="0.2" d="M31.0125 28.0218C30.7078 28.1015 30.3797 27.6983 30.2766 27.1311C30.1735 26.5593 30.3328 26.0343 30.6375 25.9593C30.9422 25.8796 31.2703 26.2827 31.3735 26.8499C31.4766 27.4171 31.3125 27.9421 31.0125 28.0218Z" fill="#D0D8DC"/>
<path opacity="0.2" d="M25.0267 23.5452C24.722 23.6249 24.3939 23.2218 24.2907 22.6546C24.1876 22.0827 24.347 21.5577 24.6517 21.4827C24.9564 21.4077 25.2845 21.8061 25.3876 22.3733C25.4907 22.9405 25.3314 23.4655 25.0267 23.5452Z" fill="#D0D8DC"/>
<path opacity="0.2" d="M17.7751 21.9891C17.5313 21.7876 17.6251 21.272 17.9907 20.8313C18.3563 20.3907 18.8532 20.1985 19.0969 20.4001C19.3407 20.6016 19.2469 21.1173 18.8813 21.5579C18.5157 21.9985 18.0235 22.1907 17.7751 21.9891Z" fill="#D0D8DC"/>
<path opacity="0.2" d="M13.7626 20.0438C13.9547 20.3109 13.786 20.7375 13.3876 21C12.9891 21.2625 12.511 21.2625 12.3188 20.9953C12.1266 20.7281 12.2954 20.3016 12.6938 20.0391C13.0922 19.7766 13.5704 19.7766 13.7626 20.0438Z" fill="#D0D8DC"/>
<path opacity="0.2" d="M21.3657 23.3437C21.5579 23.6109 21.3891 24.0375 20.9907 24.3C20.5923 24.5625 20.1141 24.5625 19.922 24.2953C19.7298 24.0281 19.8985 23.6015 20.297 23.339C20.6954 23.0812 21.1735 23.0812 21.3657 23.3437Z" fill="#D0D8DC"/>
<path opacity="0.2" d="M28.1907 22.0359C28.3828 22.3031 28.2141 22.7297 27.8157 22.9922C27.4172 23.2547 26.9391 23.2547 26.7469 22.9875C26.5547 22.7203 26.7235 22.2938 27.1219 22.0313C27.5203 21.7688 27.9985 21.7688 28.1907 22.0359Z" fill="#D0D8DC"/>
<path opacity="0.2" d="M34.4954 22.8235C34.3689 23.1235 33.9048 23.2266 33.4548 23.0579C33.0048 22.8891 32.7423 22.5047 32.8642 22.2047C32.986 21.9047 33.4548 21.8016 33.9048 21.9704C34.3548 22.1391 34.6173 22.5235 34.4954 22.8235Z" fill="#D0D8DC"/>
<path opacity="0.2" d="M18.4125 16.8328C18.5203 17.1375 18.2344 17.5078 17.775 17.6531C17.3156 17.7984 16.8563 17.6719 16.7484 17.3625C16.6406 17.0531 16.9266 16.6875 17.3859 16.5422C17.8453 16.3969 18.3047 16.5281 18.4125 16.8328Z" fill="#D0D8DC"/>
<path opacity="0.2" d="M25.786 19.1484C25.7532 19.4671 25.3313 19.6921 24.8485 19.6452C24.3657 19.5984 24.0048 19.2984 24.0376 18.9796C24.0704 18.6609 24.4923 18.4359 24.9751 18.4827C25.4579 18.5296 25.8235 18.8296 25.786 19.1484Z" fill="#D0D8DC"/>
<path d="M44.5171 26.4984C44.2171 25.5937 45.8624 24.7312 46.9687 24.2344C48.0749 23.7375 49.2515 24.2015 50.1562 25.0265C50.1656 25.0359 50.1749 25.0453 50.1843 25.05C50.8265 25.6547 50.5499 26.7375 49.7109 27.0187C48.2718 27.4922 45.1031 28.2422 44.5171 26.4984Z" fill="url(#paint4_radial_101_4979)"/>
<g opacity="0.2">
<path d="M44.0297 19.8281C44.9578 19.8281 46.0875 20.3203 46.8422 21.0516L46.8703 21.0797C47.1984 21.4078 47.3484 21.8672 47.2734 22.3406C47.1984 22.8234 46.9125 23.2219 46.4859 23.4375C46.2797 23.5359 45.0891 23.7703 43.7109 23.7703C42.6984 23.7703 41.8031 23.6437 41.1141 23.4094C41.0766 23.3953 41.0016 23.2875 40.9688 23.0578C40.9313 22.7812 40.9734 22.4906 41.025 22.3312C41.5453 20.8266 41.8875 20.6109 43.125 20.0203C43.3828 19.8937 43.6875 19.8281 44.0297 19.8281ZM44.0297 19.3594C43.6359 19.3594 43.2563 19.4344 42.9188 19.5937C41.6109 20.2219 41.1469 20.5219 40.575 22.1766C40.4109 22.65 40.4063 23.6578 40.9547 23.85C41.7938 24.1406 42.7828 24.2391 43.7063 24.2391C45.1406 24.2391 46.4156 24 46.6969 23.8547C47.8641 23.2641 48.1266 21.6703 47.1984 20.7469C47.1891 20.7375 47.175 20.7281 47.1656 20.7141C46.3734 19.9453 45.1453 19.3594 44.0297 19.3594Z" fill="#434343"/>
</g>
<path d="M32.1938 39.4405C32.5313 38.4327 30.6891 37.4671 29.4563 36.9139C28.2235 36.3608 26.911 36.8764 25.8985 37.7952C25.8891 37.8046 25.8797 37.8139 25.8704 37.8233C25.1532 38.4983 25.4626 39.7077 26.3954 40.0171C28.0079 40.5514 31.5422 41.3905 32.1938 39.4405Z" fill="url(#paint5_radial_101_4979)"/>
<g opacity="0.2">
<path d="M47.9203 24.4968C48.539 24.4968 49.2234 24.8062 49.8421 25.3687L49.8609 25.3875C50.0343 25.5515 50.1046 25.7859 50.0531 26.025C49.9968 26.2828 49.814 26.4843 49.5656 26.5687C49.064 26.7375 47.7703 27.1218 46.6359 27.1218C45.2249 27.1218 45.0281 26.5406 44.9671 26.3484C44.9484 26.2874 44.8312 25.7062 47.1656 24.6609C47.4046 24.5531 47.6578 24.4968 47.9203 24.4968ZM47.9203 24.0281C47.6015 24.0281 47.2828 24.0937 46.9687 24.2343C45.8624 24.7312 44.2171 25.5937 44.5171 26.4984C44.7937 27.3281 45.6515 27.5953 46.6312 27.5953C47.7187 27.5953 48.9515 27.2671 49.7109 27.0187C50.5499 26.7421 50.8265 25.6593 50.1843 25.05C50.1749 25.0406 50.1656 25.0312 50.1562 25.0265C49.5093 24.4312 48.7218 24.0281 47.9203 24.0281Z" fill="#434343"/>
</g>
<path d="M47.489 23.5781C47.7656 23.7609 45.1734 24.8015 43.9406 24.6984C40.425 24.4031 39.9984 23.2453 40.3265 23.3249C41.039 23.4984 41.1047 23.0203 41.9156 23.2031C44.8125 23.8593 45.3 22.1578 47.489 23.5781Z" fill="#9A5A25"/>
<path d="M51.3797 27.1173C51.6797 27.3001 48.9 28.3407 47.5828 28.2376C43.8187 27.9423 43.3593 26.7845 43.7156 26.8642C44.4797 27.0376 44.55 26.5595 45.4172 26.7423C48.5156 27.4032 49.0406 25.7016 51.3797 27.1173Z" fill="#9A5A25"/>
<g opacity="0.2">
<path d="M30 13.4062C37.2516 13.4062 44.0531 15.1453 49.1437 18.3094C54.0281 21.3422 56.7188 25.3031 56.7188 29.4656C56.7188 33.6281 54.0281 37.5891 49.1437 40.6172C44.0531 43.7812 37.2516 45.5203 30 45.5203C22.7484 45.5203 15.9469 43.7812 10.8562 40.6172C5.97187 37.5844 3.28125 33.6234 3.28125 29.4656C3.28125 25.3078 5.97187 21.3422 10.8562 18.3141C15.9469 15.15 22.7484 13.4062 30 13.4062ZM30 12C14.4656 12 1.875 19.8187 1.875 29.4656C1.875 39.1125 14.4656 46.9313 30 46.9313C45.5344 46.9313 58.125 39.1125 58.125 29.4656C58.125 19.8187 45.5344 12 30 12Z" fill="#434343"/>
</g>
<g opacity="0.2">
<path d="M22.8422 14.5032C29.1891 14.5032 34.3969 19.7954 35.5688 23.4516C35.5828 23.4985 35.6063 23.5407 35.6344 23.5829C35.7609 23.7657 35.8734 24.0188 35.9578 24.3469C36.0797 24.8016 36.1078 25.1625 36.0469 25.4485C35.9484 25.9266 36.0094 26.386 36.2203 26.775C36.225 26.7891 36.2344 26.8032 36.2391 26.8125C36.4406 27.2297 36.2859 27.7688 35.8453 28.1813C35.3953 28.6079 35.0813 29.1282 34.9453 29.6907C34.8609 30.0282 34.6641 30.6188 34.2609 30.7922C34.0781 30.8719 33.8859 30.9235 33.6938 30.9516C33.0094 31.036 32.3766 31.4063 31.9547 31.9594C31.6172 32.4 31.0359 32.7375 30.3563 32.8829C30.1219 32.9344 29.8828 32.9579 29.6484 32.9579C29.3625 32.9579 29.0953 32.9204 28.8469 32.8454C28.5984 32.7704 28.3406 32.7329 28.0734 32.7329C27.5906 32.7329 27.1172 32.8594 26.7 33.0985C26.2641 33.3469 25.7297 33.5063 25.1531 33.5532C25.0313 33.5625 24.9047 33.5672 24.7828 33.5672C24.375 33.5672 23.9719 33.5063 23.625 33.3938C23.3016 33.2907 22.9734 33.2344 22.6406 33.2344C22.3125 33.2344 21.9891 33.286 21.6797 33.3938C21.3563 33.5016 21.0094 33.5579 20.6438 33.5579C20.1188 33.5579 19.6078 33.436 19.2 33.2157C18.7313 32.9625 16.8938 32.7 16.2281 32.6813C14.5078 32.6344 13.6453 32.1657 12.6844 30.7407C12.3797 30.2907 12.0188 29.8547 11.4516 29.7469C10.5984 29.5829 10.35 28.561 10.2844 27.9704C10.2422 27.6 10.0172 27.3422 9.79688 27.0938C9.46875 26.7188 9.13125 26.3297 9.20625 25.4157C9.31875 24.0188 10.3031 22.6032 10.4578 22.3829C10.4813 22.3547 10.5047 22.3219 10.5234 22.2891C12.15 19.1579 16.7719 14.5032 22.8422 14.5032ZM22.8422 14.0344C16.8234 14.0344 11.9297 18.5625 10.1063 22.0735C10.1063 22.0735 8.87813 23.7047 8.74219 25.3782C8.60157 27.0985 9.74532 27.3891 9.82032 28.0266C9.92813 28.9266 10.3125 30.0094 11.3672 30.211C11.7844 30.2907 12.0703 30.6657 12.3 31.0079C13.4063 32.6485 14.4375 33.1079 16.2234 33.1547C16.9453 33.1735 18.6516 33.45 18.9844 33.6329C19.4438 33.8813 20.0203 34.0313 20.6484 34.0313C21.075 34.0313 21.4781 33.961 21.8344 33.8438C22.0969 33.7547 22.3734 33.7125 22.6453 33.7125C22.9266 33.7125 23.2078 33.7594 23.4844 33.8485C23.8734 33.975 24.3141 34.0454 24.7875 34.0454C24.9234 34.0454 25.0594 34.0407 25.2 34.0266C25.8656 33.9704 26.4656 33.7829 26.9438 33.511C27.2906 33.3141 27.6891 33.211 28.0875 33.211C28.3031 33.211 28.5188 33.2391 28.725 33.3047C29.0109 33.3891 29.325 33.436 29.6578 33.436C29.9203 33.436 30.1875 33.4079 30.4641 33.3469C31.2797 33.1688 31.95 32.7563 32.3344 32.25C32.6719 31.8047 33.1875 31.4954 33.7594 31.425C33.9891 31.3969 34.2234 31.3313 34.4578 31.2329C35.0016 30.9985 35.2781 30.3516 35.4094 29.8125C35.5313 29.325 35.8031 28.8844 36.1781 28.5282C36.75 27.9891 36.975 27.2438 36.675 26.6157C36.6656 26.5969 36.6563 26.5735 36.6422 26.5547C36.4734 26.2454 36.4453 25.8938 36.5156 25.5469C36.6 25.1391 36.5391 24.6891 36.4172 24.2297C36.3094 23.8219 36.1734 23.5266 36.0234 23.3157C34.8563 19.7016 29.5734 14.0344 22.8422 14.0344Z" fill="#434343"/>
</g>
<path d="M37.4156 27.5907C37.6031 25.4766 35.7891 22.261 35.7891 22.261C35.7891 22.261 37.1109 25.8469 35.6578 26.1376C34.35 26.3954 34.9078 28.3782 33.7828 29.2969C32.1844 30.6047 30.3047 28.4626 28.8516 30.6047C27.2156 33.0047 23.7422 33.0188 22.7906 32.3626C21.8625 31.7204 19.9688 31.4672 17.8031 32.1047C14.475 33.0844 11.8219 30.1079 11.5922 30.3235C10.2516 31.5844 17.5781 37.2938 33.7828 32.5969C36.7313 31.7438 37.2281 29.7047 37.4156 27.5907Z" fill="#9A5A25"/>
<g opacity="0.2">
<path d="M28.3969 37.1577C28.6969 37.1577 28.9876 37.2186 29.2641 37.3452C31.8563 38.5077 31.786 39.1733 31.7485 39.2952C31.5469 39.8952 30.9047 40.1952 29.8313 40.1952C28.5563 40.1952 27.1079 39.7593 26.5407 39.5718C26.2454 39.4733 26.0297 39.2343 25.9594 38.9249C25.8938 38.639 25.9782 38.3577 26.1891 38.1608L26.2126 38.1374C26.9157 37.5046 27.6891 37.1577 28.3969 37.1577ZM28.3969 36.689C27.5016 36.689 26.6251 37.139 25.8985 37.7999C25.8891 37.8093 25.8797 37.8187 25.8704 37.828C25.1532 38.503 25.4626 39.7124 26.3954 40.0218C27.2391 40.303 28.6172 40.6687 29.8313 40.6687C30.9235 40.6687 31.8844 40.3733 32.1891 39.4452C32.5266 38.4374 30.6844 37.4718 29.4516 36.9187C29.1094 36.7593 28.7532 36.689 28.3969 36.689Z" fill="#434343"/>
</g>
<path d="M34.0313 38.3203C34.3922 38.4703 33.4454 41.2594 29.0954 41.2547C24.7219 41.25 24.2016 39.8015 24.6141 39.8812C25.5001 40.0547 26.4422 39.4922 27.4313 39.7453C31.8938 40.8797 32.2407 37.5656 34.0313 38.3203Z" fill="#9A5A25"/>
<path d="M38.8406 28.8281C39.1968 27.7734 40.3781 26.4515 41.7562 26.7656C43.1343 27.0796 44.325 27.4874 45.0422 28.9406C45.0422 28.9406 46.7578 31.2843 43.6125 31.5421C41.8453 31.6921 38.1515 30.8671 38.8406 28.8281Z" fill="url(#paint6_radial_101_4979)"/>
<g opacity="0.2">
<path d="M41.3391 27.1875C41.4422 27.1875 41.55 27.2016 41.6531 27.225C42.9 27.5109 43.9828 27.8531 44.625 29.1516C44.6391 29.175 44.6531 29.1984 44.6672 29.2219C44.7844 29.3813 45.1875 30.0703 44.9906 30.4969C44.85 30.8109 44.3438 31.0172 43.575 31.0828C43.4578 31.0922 43.3266 31.0969 43.1906 31.0969C41.8078 31.0969 39.9656 30.6094 39.4031 29.8219C39.2203 29.5641 39.1828 29.2969 39.2906 28.9828C39.5766 28.1156 40.4438 27.1875 41.3391 27.1875ZM41.3391 26.7188C40.1438 26.7188 39.1594 27.8813 38.8406 28.8281C38.2031 30.7125 41.3203 31.5609 43.186 31.5609C43.336 31.5609 43.4766 31.5563 43.6125 31.5469C46.7578 31.2891 45.0422 28.9453 45.0422 28.9453C44.325 27.4922 43.1344 27.0891 41.7563 26.7703C41.6156 26.7375 41.475 26.7188 41.3391 26.7188Z" fill="#434343"/>
</g>
<path d="M46.7578 30.4733C47.1 30.6608 45.6609 33.1123 42.1312 32.4654C39.375 31.9592 37.9312 30.7733 38.2218 30.4733C38.6859 29.9951 39.2671 30.1733 40.2421 30.4733C45.5484 32.1092 45.0515 29.5451 46.7578 30.4733Z" fill="#9A5A25"/>
<path d="M16.6453 35.2265C16.2937 34.1718 17.2828 33.1593 18.5719 32.5827C19.8609 32.0062 22.1719 32.5405 23.2312 33.5062C23.2406 33.5155 23.25 33.5249 23.264 33.5343C24.0141 34.2421 23.6906 35.5077 22.7109 35.8312C21.0281 36.389 17.325 37.2702 16.6453 35.2265Z" fill="url(#paint7_radial_101_4979)"/>
<g opacity="0.2">
<path d="M19.861 32.8125C20.9672 32.8125 22.2469 33.2484 22.9125 33.8531L22.936 33.8766C23.161 34.0875 23.25 34.3875 23.1797 34.6969C23.1047 35.025 22.875 35.2828 22.5563 35.3906C21.9657 35.5875 20.4469 36.0422 19.1063 36.0422C17.9766 36.0422 17.2922 35.7187 17.0813 35.0859C16.8188 34.2937 17.7328 33.4781 18.7547 33.0188C19.05 32.8828 19.4297 32.8125 19.861 32.8125ZM19.861 32.3438C19.3828 32.3438 18.9328 32.4188 18.5672 32.5828C17.2782 33.1594 16.2891 34.1719 16.6407 35.2266C16.9641 36.1969 17.9672 36.5063 19.111 36.5063C20.3813 36.5063 21.8203 36.1219 22.7063 35.8313C23.686 35.5078 24.0094 34.2422 23.2594 33.5344C23.25 33.525 23.2407 33.5156 23.2266 33.5063C22.4719 32.8172 21.0703 32.3438 19.861 32.3438Z" fill="#434343"/>
</g>
<path d="M24.6422 34.1484C24.9844 34.3359 23.7141 37.4156 19.3828 36.9749C15.0328 36.5343 14.7094 34.6312 15.1125 34.7531C15.975 35.0156 16.9688 34.5468 17.9297 34.8984C22.2609 36.4828 22.9406 33.2203 24.6422 34.1484Z" fill="#9A5A25"/>
<path d="M34.5844 35.0297C34.261 33.7078 36.7126 32.6718 38.3438 32.0953C39.9751 31.5187 41.5969 32.3156 42.7876 33.5953C42.8016 33.6093 42.811 33.6187 42.8204 33.6328C43.6641 34.5703 43.1438 36.0797 41.9157 36.3797C39.811 36.8859 35.2079 37.5843 34.5844 35.0297Z" fill="url(#paint8_radial_101_4979)"/>
<g opacity="0.2">
<path d="M39.4406 32.3718C40.4484 32.3718 41.5172 32.9203 42.4406 33.914L42.4687 33.9468C42.7453 34.2562 42.8344 34.664 42.7078 35.0718C42.5765 35.4984 42.239 35.8171 41.8031 35.9249C41.0672 36.1031 39.6234 36.4031 38.2031 36.4031C36.3422 36.4031 35.2781 35.9062 35.0344 34.9218C34.9547 34.5984 35.1375 33.7265 38.4937 32.5406C38.8031 32.4281 39.1219 32.3718 39.4406 32.3718ZM39.4406 31.9031C39.075 31.9031 38.7094 31.964 38.339 32.0953C36.7078 32.6718 34.2609 33.7078 34.5797 35.0296C34.9265 36.4546 36.5062 36.8671 38.2031 36.8671C39.5531 36.8671 40.9781 36.6046 41.9156 36.3796C43.1437 36.0843 43.664 34.5749 42.8203 33.6328C42.8109 33.6187 42.7969 33.6093 42.7875 33.5953C41.864 32.6015 40.6828 31.9031 39.4406 31.9031Z" fill="#434343"/>
</g>
<path d="M44.4891 35.3202C44.761 35.6015 44.3016 38.1983 39.0375 37.7812C34.6782 37.439 34.2375 36.0374 34.6454 36.1452C35.5219 36.3702 36.2579 35.4233 37.2282 35.7327C41.6204 37.139 43.2329 34.0358 44.4891 35.3202Z" fill="#9A5A25"/>
<defs>
<linearGradient id="paint0_linear_101_4979" x1="16.4104" y1="15.8739" x2="41.6119" y2="41.0754" gradientUnits="userSpaceOnUse">
<stop offset="0.1705" stop-color="#FAFBFB"/>
<stop offset="0.8701" stop-color="#EEEEEE"/>
</linearGradient>
<radialGradient id="paint1_radial_101_4979" cx="0" cy="0" r="1" gradientUnits="userSpaceOnUse" gradientTransform="translate(37.1081 18.1943) scale(5.0881 3.321)">
<stop offset="0.5587" stop-color="#FBC41F"/>
<stop offset="1" stop-color="#D09C2B"/>
</radialGradient>
<radialGradient id="paint2_radial_101_4979" cx="0" cy="0" r="1" gradientUnits="userSpaceOnUse" gradientTransform="translate(43.4771 20.9785) scale(3.77911 3.02102)">
<stop offset="0.5352" stop-color="#F37123"/>
<stop offset="1" stop-color="#E05F26"/>
</radialGradient>
<radialGradient id="paint3_radial_101_4979" cx="0" cy="0" r="1" gradientUnits="userSpaceOnUse" gradientTransform="translate(22.2641 14.4802) rotate(90) scale(17.4748 18.5023)">
<stop offset="0.4829" stop-color="white"/>
<stop offset="0.724" stop-color="#ECEFF0"/>
<stop offset="0.9654" stop-color="#D0D8DC"/>
</radialGradient>
<radialGradient id="paint4_radial_101_4979" cx="0" cy="0" r="1" gradientUnits="userSpaceOnUse" gradientTransform="translate(46.9844 25.1404) rotate(-21.346) scale(3.58177 1.79521)">
<stop offset="0.4892" stop-color="#FBC41F"/>
<stop offset="1" stop-color="#D09C2B"/>
</radialGradient>
<radialGradient id="paint5_radial_101_4979" cx="0" cy="0" r="1" gradientUnits="userSpaceOnUse" gradientTransform="translate(28.8553 38.6757) scale(2.77275)">
<stop offset="0.5352" stop-color="#F37123"/>
<stop offset="1" stop-color="#E05F26"/>
</radialGradient>
<radialGradient id="paint6_radial_101_4979" cx="0" cy="0" r="1" gradientUnits="userSpaceOnUse" gradientTransform="translate(40.5242 27.3339) rotate(37.1071) scale(4.20009 2.91744)">
<stop stop-color="#6C463F"/>
<stop offset="0.784" stop-color="#5A352E"/>
</radialGradient>
<radialGradient id="paint7_radial_101_4979" cx="0" cy="0" r="1" gradientUnits="userSpaceOnUse" gradientTransform="translate(19.2069 33.6109) scale(4.13484 2.87206)">
<stop stop-color="#6C463F"/>
<stop offset="0.784" stop-color="#5A352E"/>
</radialGradient>
<radialGradient id="paint8_radial_101_4979" cx="0" cy="0" r="1" gradientUnits="userSpaceOnUse" gradientTransform="translate(38.5393 33.5001) rotate(-7.79304) scale(5.3093 3.19961)">
<stop offset="0.2866" stop-color="#FBC41F"/>
<stop offset="1" stop-color="#D09C2B"/>
</radialGradient>
</defs>
</svg>
