<svg width="60" height="60" viewBox="0 0 60 60" fill="none" xmlns="http://www.w3.org/2000/svg">
<g clip-path="url(#clip0_101_4583)">
<path d="M7.92658 22.1625C7.92658 22.1625 3.07033 21.9609 2.00627 25.7812C0.684396 30.5062 9.29533 33.3187 9.29533 33.3187L8.32033 28.5609C8.32033 28.5609 6.1969 28.3125 5.03908 27.1453C3.88127 25.9781 5.09065 24.8297 7.70627 24.2625L7.92658 22.1625Z" fill="url(#paint0_linear_101_4583)"/>
<path d="M52.1062 22.1625C52.1062 22.1625 56.9625 21.9609 58.0265 25.7812C59.3437 30.5062 50.7328 33.3187 50.7328 33.3187L51.7078 28.5609C51.7078 28.5609 53.8312 28.3125 54.989 27.1453C56.1468 25.9781 54.9375 24.8297 52.3219 24.2625L52.1062 22.1625Z" fill="url(#paint1_linear_101_4583)"/>
<path d="M52.1484 27.2297C52.1484 27.075 31.4109 29.025 29.9437 29.1656C28.4765 29.025 7.73898 27.075 7.73898 27.2297C7.73898 27.2297 7.27961 51.3562 29.8593 51.3562C29.8593 51.3562 29.9999 51.3609 30.028 51.3609V51.3562C51.403 51.3562 52.1484 27.2297 52.1484 27.2297Z" fill="url(#paint2_radial_101_4583)"/>
<path d="M30 41.4329C42.4264 41.4329 52.5 33.9511 52.5 24.7219C52.5 15.4927 42.4264 8.01099 30 8.01099C17.5736 8.01099 7.5 15.4927 7.5 24.7219C7.5 33.9511 17.5736 41.4329 30 41.4329Z" fill="url(#paint3_linear_101_4583)"/>
<path d="M29.7234 39.4736C41.3758 39.4736 50.8219 32.8271 50.8219 24.6283C50.8219 16.4294 41.3758 9.78296 29.7234 9.78296C18.0711 9.78296 8.625 16.4294 8.625 24.6283C8.625 32.8271 18.0711 39.4736 29.7234 39.4736Z" fill="url(#paint4_linear_101_4583)"/>
<mask id="mask0_101_4583" style="mask-type:luminance" maskUnits="userSpaceOnUse" x="8" y="10" width="43" height="30">
<path d="M29.5594 39.4828C41.1289 39.4828 50.5078 32.9686 50.5078 24.9328C50.5078 16.8971 41.1289 10.3828 29.5594 10.3828C17.9899 10.3828 8.61096 16.8971 8.61096 24.9328C8.61096 32.9686 17.9899 39.4828 29.5594 39.4828Z" fill="white"/>
</mask>
<g mask="url(#mask0_101_4583)">
<path d="M53.0062 32.0859C53.0062 42.5062 42.3047 50.9531 29.1 50.9531C15.8953 50.9531 5.19373 42.5062 5.19373 32.0859C5.19373 25.3125 9.29998 21.375 15.2719 16.7344C18.6047 14.1422 24.7125 12.75 29.3344 12.75C34.2328 12.75 38.2781 14.9531 42.225 16.6172C48.9047 19.4297 53.0062 25.5328 53.0062 32.0859Z" fill="url(#paint5_radial_101_4583)"/>
</g>
<path d="M44.0484 29.986C45.4687 30.0891 47.1609 29.7516 47.9296 28.5423C48.6234 27.4501 48.2718 26.1048 47.6952 25.0454C46.4905 22.8235 44.3671 21.1126 41.8452 20.3204C38.7937 19.3594 34.7812 20.6907 36.2624 24.1641C37.5984 27.2813 40.3124 29.7141 44.0484 29.986Z" fill="#5BA744"/>
<path d="M44.2218 29.0954C45.6421 29.1985 47.3343 28.861 48.1031 27.6516C48.7968 26.5594 48.4453 25.2141 47.8687 24.1548C46.664 21.9329 44.5406 20.2219 42.0187 19.4298C38.9671 18.4688 34.9546 19.8001 36.4359 23.2735C37.7718 26.3907 40.4859 28.8235 44.2218 29.0954Z" fill="url(#paint6_radial_101_4583)"/>
<path d="M32.2594 20.8359C33.1031 21.5952 33.8391 22.5937 33.8766 23.7281C33.9141 24.8624 33 26.0671 31.8656 25.9828C31.2422 25.9359 30.7125 25.5468 30.1453 25.2843C29.5781 25.0218 28.8281 24.9281 28.4016 25.3827C28.0406 25.7671 28.0875 26.4093 28.3828 26.8499C28.6781 27.2906 29.1703 27.5531 29.6578 27.7499C31.2094 28.3827 33.0141 28.4906 34.5516 27.8203C36.0891 27.1499 37.2891 25.6452 37.3781 23.9718C37.4719 22.2046 36.3516 20.5406 34.8938 19.5421C33.886 18.8531 29.475 16.7624 28.3125 17.6484C27.4406 18.3046 31.7156 20.3484 32.2594 20.8359Z" fill="url(#paint7_linear_101_4583)"/>
<path d="M15.539 26.9625C16.5 26.9484 17.4281 26.5875 18.2859 26.1328C20.4 25.0125 22.2281 23.2968 23.5171 21.2156C24.0609 20.339 24.5156 19.2281 24.0843 18.2859C23.6625 17.3765 22.589 17.039 21.6234 16.964C18.3375 16.7156 15.5531 18.4968 13.5375 21.0656C11.8218 23.2406 12.1172 27.0093 15.539 26.9625Z" fill="#5BA744"/>
<path d="M15.6469 26.2358C16.5609 26.2218 17.4375 25.8936 18.2531 25.4811C20.2641 24.4639 21.9938 22.903 23.2219 21.0139C23.7375 20.2171 24.1688 19.2093 23.7609 18.3561C23.3625 17.5264 22.3406 17.2218 21.4219 17.1561C18.3 16.9311 15.6609 18.5483 13.7438 20.8827C12.1219 22.8608 12.4031 26.2827 15.6469 26.2358Z" fill="url(#paint8_radial_101_4583)"/>
<path d="M35.4985 16.0078C36.3422 15.6656 37.3828 15.9891 37.9453 16.7062C38.2031 17.0344 38.3672 17.475 38.2453 17.8734C38.0438 18.5156 37.261 18.7219 36.5953 18.825C35.7844 18.9516 34.5656 19.125 34.2891 18.1594C34.0547 17.3484 34.7813 16.2937 35.4985 16.0078Z" fill="#573014"/>
<path d="M22.9593 34.2329C23.8453 34.1016 24.7781 34.1344 25.5984 34.4954C26.4187 34.8563 27.1031 35.5969 27.239 36.4829C24.6093 36.6563 21.9656 36.5157 19.364 36.0704C19.2656 35.0016 22.1437 34.3688 22.9593 34.2329Z" fill="url(#paint9_linear_101_4583)"/>
<path d="M15.8343 31.4343C16.5093 32.1609 17.5874 32.5078 18.5531 32.2734C19.5187 32.039 20.3249 31.2047 20.4843 30.225C20.5499 29.8125 20.5077 29.3718 20.2968 29.0109C19.9312 28.3968 19.1671 28.1437 18.4546 28.0687C16.289 27.8484 13.6827 29.1234 15.8343 31.4343Z" fill="#E5C37F"/>
<path d="M41.0062 31.3877C41.414 31.697 41.7843 32.0767 41.9577 32.5549C42.1312 33.033 42.0609 33.6283 41.6859 33.9705C41.2077 34.4111 40.4624 34.3174 39.8343 34.158C39.014 33.9517 38.2077 33.6799 37.4249 33.347C36.8202 33.0892 36.2015 32.7752 35.8265 32.2314C33.8859 29.433 39.8999 30.5486 41.0062 31.3877Z" fill="url(#paint10_linear_101_4583)"/>
<path d="M27.1968 32.8454C26.6015 32.8782 25.8749 32.8219 25.5984 32.2969C25.3827 31.8844 25.5796 31.3501 25.9312 31.0407C26.2827 30.736 26.7515 30.6048 27.2062 30.5063C28.2421 30.2813 32.6952 29.3766 32.8546 30.8766C33.0843 32.9813 28.303 32.7891 27.1968 32.8454Z" fill="#367E40"/>
<path d="M23.7562 27.3329C23.4375 27.0422 23.0953 26.6485 23.2265 26.236C23.3297 25.9172 23.7 25.7438 24.0375 25.7672C24.375 25.7907 24.675 25.9641 24.9609 26.1469C25.6031 26.5641 28.3265 28.3782 27.6375 29.2266C26.6765 30.4126 24.3468 27.8719 23.7562 27.3329Z" fill="#367E40"/>
<path d="M33.3612 37.1684C33.7731 36.7565 33.7731 36.0887 33.3612 35.6768C32.9493 35.265 32.2815 35.265 31.8697 35.6768C31.4578 36.0887 31.4578 36.7565 31.8697 37.1684C32.2815 37.5803 32.9493 37.5803 33.3612 37.1684Z" fill="#5BA744"/>
<path d="M40.6854 17.7707C41.0973 17.3588 41.0973 16.691 40.6854 16.2791C40.2736 15.8673 39.6058 15.8673 39.1939 16.2791C38.782 16.691 38.782 17.3588 39.1939 17.7707C39.6058 18.1825 40.2736 18.1825 40.6854 17.7707Z" fill="#5BA744"/>
<path d="M28.8512 20.1745C29.2631 19.7626 29.2631 19.0948 28.8512 18.6829C28.4393 18.2711 27.7715 18.2711 27.3597 18.6829C26.9478 19.0948 26.9478 19.7626 27.3597 20.1745C27.7715 20.5864 28.4393 20.5864 28.8512 20.1745Z" fill="#5BA744"/>
<path d="M42.798 35.2348C43.2099 34.8229 43.2099 34.1551 42.798 33.7432C42.3861 33.3314 41.7183 33.3314 41.3064 33.7432C40.8946 34.1551 40.8946 34.8229 41.3064 35.2348C41.7183 35.6467 42.3861 35.6467 42.798 35.2348Z" fill="#5BA744"/>
<path d="M11.6818 23.5746C12.0936 23.1627 12.0936 22.495 11.6818 22.0831C11.2699 21.6712 10.6021 21.6712 10.1902 22.0831C9.77835 22.495 9.77835 23.1627 10.1902 23.5746C10.6021 23.9865 11.2699 23.9865 11.6818 23.5746Z" fill="#5BA744"/>
<path d="M23.5176 16.5434C23.9295 16.1315 23.9295 15.4637 23.5176 15.0518C23.1057 14.64 22.4379 14.64 22.026 15.0518C21.6142 15.4637 21.6142 16.1315 22.026 16.5434C22.4379 16.9553 23.1057 16.9553 23.5176 16.5434Z" fill="#5BA744"/>
<g opacity="0.2">
<path d="M30 9.41724C40.3547 9.41724 49.3218 15.0188 50.8593 22.4438C50.939 22.8188 51.1593 23.1329 51.464 23.3344C51.2062 23.6063 51.0656 23.9719 51.0797 24.3469L51.0843 24.5063C51.089 24.5766 51.089 24.6469 51.089 24.7219C51.089 25.6219 50.9718 26.536 50.7468 27.45C50.7281 27.5297 50.714 27.6047 50.7093 27.6844C50.6953 27.8672 50.6765 28.0969 50.6484 28.3641C50.6015 28.8047 50.7703 29.2454 51.0984 29.5454C51.3609 29.7844 51.6984 29.9157 52.05 29.9157C52.139 29.9157 52.2234 29.9063 52.3125 29.8922C53.2031 29.7235 54.8672 29.2688 55.9922 28.1391C56.4281 27.6985 56.6578 27.2579 56.7609 26.8594C56.7281 27.4875 56.3812 28.4344 54.8859 29.5969C53.4 30.7501 51.5015 31.5375 50.7515 31.8188C50.3156 31.9829 49.9922 32.3532 49.8843 32.8032C49.125 35.9485 47.5547 40.4391 44.3765 43.9875C40.8328 47.9485 36.0047 49.9547 30.0281 49.9547C30.0047 49.9547 29.9812 49.9547 29.9578 49.9547H29.8922C29.8828 49.9547 29.8687 49.9547 29.8593 49.9547C23.475 49.9547 18.4406 47.9204 14.9015 43.9079C11.7515 40.3407 10.35 35.8407 9.72653 32.6907C9.63278 32.2266 9.31403 31.8375 8.8781 31.6594C7.53278 31.111 3.47809 29.2688 3.29059 26.911C3.40309 27.2954 3.62809 27.7172 4.04528 28.1344C5.04372 29.1422 6.45934 29.6157 7.47653 29.836C7.57497 29.8594 7.67809 29.8688 7.77653 29.8688C8.10934 29.8688 8.43278 29.7516 8.6906 29.5313C9.02341 29.2454 9.20622 28.8235 9.18278 28.3829C9.15934 27.9516 9.14997 27.6282 9.14997 27.4407C9.17341 27.2766 9.17341 27.1079 9.14059 26.9438C8.98122 26.2079 8.90622 25.4625 8.90622 24.7219C8.90622 24.6516 8.91091 24.586 8.91091 24.5157L8.9156 24.3563C8.92966 23.9766 8.78435 23.611 8.52653 23.3391C8.83122 23.1375 9.05622 22.8235 9.13591 22.4485C10.6781 15.0188 19.6453 9.41724 30 9.41724ZM30 8.01099C18.7453 8.01099 9.42184 14.1469 7.76247 22.1625C6.91872 22.1672 2.95309 22.3735 2.00153 25.7813C0.960907 29.5219 6.14528 32.0625 8.34372 32.9579C9.75466 40.0922 14.4281 51.3563 29.8547 51.3563C29.8547 51.3563 29.9953 51.361 30.0234 51.361V51.3563C44.5125 51.3563 49.5234 40.2751 51.2484 33.1313C53.0812 32.4329 59.1468 29.8032 58.0265 25.7813C57.0656 22.3313 53.0156 22.1625 52.2375 22.1625C50.5781 14.1469 41.2547 8.01099 30 8.01099ZM52.05 28.5047C52.0781 28.2235 52.1015 27.9797 52.1156 27.7875C52.364 26.7938 52.5 25.7672 52.5 24.7219C52.5 24.5813 52.4906 24.4407 52.4859 24.3C54.989 24.8813 56.1281 26.0016 54.9937 27.1454C54.1172 28.0266 52.6968 28.3829 52.05 28.5047ZM7.77184 28.4625C7.06403 28.3079 5.83122 27.9375 5.03903 27.1454C3.90934 26.0063 5.03435 24.8907 7.51403 24.3094C7.50935 24.4454 7.49997 24.5813 7.49997 24.7219C7.49997 25.575 7.58903 26.4094 7.7531 27.225C7.74372 27.225 7.73434 27.2297 7.73434 27.2297C7.73434 27.2297 7.72497 27.6844 7.77184 28.4625Z" fill="#424242"/>
</g>
</g>
<defs>
<linearGradient id="paint0_linear_101_4583" x1="1.8191" y1="27.0359" x2="9.85978" y2="27.8683" gradientUnits="userSpaceOnUse">
<stop stop-color="#F1331E"/>
<stop offset="0.2943" stop-color="#EF331E"/>
<stop offset="0.4654" stop-color="#E6331D"/>
<stop offset="0.6049" stop-color="#D8321C"/>
<stop offset="0.7274" stop-color="#C4311A"/>
<stop offset="0.8388" stop-color="#AA3017"/>
<stop offset="0.9406" stop-color="#8B2F14"/>
<stop offset="1" stop-color="#752E12"/>
</linearGradient>
<linearGradient id="paint1_linear_101_4583" x1="58.2105" y1="27.0381" x2="50.1699" y2="27.8704" gradientUnits="userSpaceOnUse">
<stop stop-color="#F1331E"/>
<stop offset="0.2943" stop-color="#EF331E"/>
<stop offset="0.4654" stop-color="#E6331D"/>
<stop offset="0.6049" stop-color="#D8321C"/>
<stop offset="0.7274" stop-color="#C4311A"/>
<stop offset="0.8388" stop-color="#AA3017"/>
<stop offset="0.9406" stop-color="#8B2F14"/>
<stop offset="1" stop-color="#752E12"/>
</linearGradient>
<radialGradient id="paint2_radial_101_4583" cx="0" cy="0" r="1" gradientUnits="userSpaceOnUse" gradientTransform="translate(29.9418 39.2897) scale(17.8043 18.1086)">
<stop stop-color="#F1331E"/>
<stop offset="0.4224" stop-color="#EF331D"/>
<stop offset="0.6678" stop-color="#E6321B"/>
<stop offset="0.8673" stop-color="#D83016"/>
<stop offset="1" stop-color="#CA2E12"/>
</radialGradient>
<linearGradient id="paint3_linear_101_4583" x1="8.01052" y1="24.72" x2="55.7845" y2="24.72" gradientUnits="userSpaceOnUse">
<stop stop-color="#F1E9E6"/>
<stop offset="0.2188" stop-color="#D6D0CD"/>
<stop offset="0.5503" stop-color="#B3B0AD"/>
<stop offset="0.8227" stop-color="#9E9C99"/>
<stop offset="1" stop-color="#969592"/>
</linearGradient>
<linearGradient id="paint4_linear_101_4583" x1="29.7233" y1="9.55543" x2="29.7233" y2="39.0689" gradientUnits="userSpaceOnUse">
<stop stop-color="#F1E9E6"/>
<stop offset="0.2725" stop-color="#DCD6D3"/>
<stop offset="0.8312" stop-color="#A7A5A2"/>
<stop offset="1" stop-color="#969592"/>
</linearGradient>
<radialGradient id="paint5_radial_101_4583" cx="0" cy="0" r="1" gradientUnits="userSpaceOnUse" gradientTransform="translate(29.1013 29.0395) rotate(-0.0999879) scale(22.1368 19.5556)">
<stop offset="0.1773" stop-color="#AD441F"/>
<stop offset="0.3545" stop-color="#A73D1E"/>
<stop offset="0.6159" stop-color="#96291A"/>
<stop offset="0.9279" stop-color="#7A0915"/>
<stop offset="1" stop-color="#730013"/>
</radialGradient>
<radialGradient id="paint6_radial_101_4583" cx="0" cy="0" r="1" gradientUnits="userSpaceOnUse" gradientTransform="translate(42.344 24.1156) rotate(-27.6222) scale(5.89811 5.36444)">
<stop offset="0.2759" stop-color="#F0D5BB"/>
<stop offset="0.4823" stop-color="#E9C9A9"/>
<stop offset="0.7955" stop-color="#E1BA94"/>
<stop offset="1" stop-color="#DEB58C"/>
</radialGradient>
<linearGradient id="paint7_linear_101_4583" x1="28.1449" y1="22.85" x2="37.3811" y2="22.85" gradientUnits="userSpaceOnUse">
<stop stop-color="#AD441F"/>
<stop offset="0.1043" stop-color="#B84B1F"/>
<stop offset="0.4847" stop-color="#DB6220"/>
<stop offset="0.7968" stop-color="#F07021"/>
<stop offset="1" stop-color="#F87521"/>
</linearGradient>
<radialGradient id="paint8_radial_101_4583" cx="0" cy="0" r="1" gradientUnits="userSpaceOnUse" gradientTransform="translate(18.3506 21.6867) scale(5.088 5.088)">
<stop offset="0.2759" stop-color="#F0D5BB"/>
<stop offset="0.4823" stop-color="#E9C9A9"/>
<stop offset="0.7955" stop-color="#E1BA94"/>
<stop offset="1" stop-color="#DEB58C"/>
</radialGradient>
<linearGradient id="paint9_linear_101_4583" x1="19.358" y1="35.3605" x2="27.2336" y2="35.3605" gradientUnits="userSpaceOnUse">
<stop stop-color="#AD441F"/>
<stop offset="0.1043" stop-color="#B84B1F"/>
<stop offset="0.4847" stop-color="#DB6220"/>
<stop offset="0.7968" stop-color="#F07021"/>
<stop offset="1" stop-color="#F87521"/>
</linearGradient>
<linearGradient id="paint10_linear_101_4583" x1="35.4429" y1="32.3675" x2="42.0467" y2="32.3675" gradientUnits="userSpaceOnUse">
<stop stop-color="#AD441F"/>
<stop offset="0.1043" stop-color="#B84B1F"/>
<stop offset="0.4847" stop-color="#DB6220"/>
<stop offset="0.7968" stop-color="#F07021"/>
<stop offset="1" stop-color="#F87521"/>
</linearGradient>
<clipPath id="clip0_101_4583">
<rect width="60" height="60" fill="white"/>
</clipPath>
</defs>
</svg>
