<svg width="214" height="164" viewBox="0 0 214 164" fill="none" xmlns="http://www.w3.org/2000/svg">
<g clip-path="url(#clip0_172_7718)">
<path d="M199.522 141.375L199.888 133.13C203.701 131.087 207.954 130.008 212.278 129.987C206.327 134.863 207.071 144.264 203.036 150.822C201.762 152.858 200.048 154.58 198.019 155.861C195.991 157.142 193.701 157.95 191.319 158.223L186.339 161.279C185.656 157.461 185.806 153.539 186.781 149.785C187.755 146.031 189.53 142.533 191.983 139.532C193.375 137.862 194.972 136.375 196.736 135.105C197.928 138.257 199.522 141.375 199.522 141.375Z" fill="#F2F2F2"/>
<path d="M124.005 163.332C121.468 163.151 120.807 163.652 116.969 163.332H109.934L110.849 146.455L121.925 150.904L176.966 152.258L176.934 152.352C176.909 152.424 174.465 159.589 176.376 162.302L176.455 162.414L176.3 162.416L125.808 162.88C125.257 162.885 124.552 163.371 124.005 163.332Z" fill="#F2F2F2"/>
<path d="M126.86 163.552C121.96 163.203 116.886 165.112 112.652 162.956L109.267 163.162L109.257 163.133C109.231 163.055 107.632 150.444 110.864 145.555L111.007 145.34L111.118 146.498L110.052 162.207L112.414 161.417C118.15 164.123 124.973 162.336 131.538 162.311L176.218 162.146C177.154 162.142 177.934 162.783 177.959 163.575L177.961 163.652L129.558 163.648C128.656 163.648 127.756 163.616 126.86 163.552Z" fill="#CCCCCC"/>
<path d="M173.863 155.662L123.582 154.66L123.531 154.641L111.651 150.178L111.876 149.578L123.704 154.022L173.876 155.021L173.863 155.662Z" fill="#E6E6E6"/>
<path d="M173.595 158.361L123.314 157.359L123.263 157.34L111.383 152.877L111.608 152.277L123.436 156.72L173.608 157.719L173.595 158.361Z" fill="#E6E6E6"/>
<path d="M173.326 161.059L123.046 160.057L122.995 160.038L111.115 155.575L111.339 154.975L123.168 159.419L173.339 160.418L173.326 161.059Z" fill="#E6E6E6"/>
<path d="M127.207 152.433C122.545 152.117 118 150.831 113.861 148.658L110.376 146.805L110.467 145.889C110.492 145.755 110.566 145.635 110.675 145.552C110.783 145.469 110.919 145.429 111.055 145.44L111.362 145.444L158.254 146.135C161.323 146.173 164.364 146.727 167.25 147.772L177.467 151.49L177.462 151.544C177.376 152.407 176.508 153.074 175.485 153.062L129.296 152.519C128.597 152.511 127.901 152.482 127.207 152.433Z" fill="#E6E6E6"/>
<path d="M177.369 151.688L177.358 151.688L121.127 150.396L121.088 150.378L110.95 145.672L111.053 145.515L111.361 145.519L121.221 150.098L176.931 151.376L177.377 151.387L177.369 151.688Z" fill="#CCCCCC"/>
<path d="M133.654 145.848L132.94 145.838L116.825 145.599L116.062 145.588C119.744 149.518 127.885 150.501 139.819 148.978L133.654 145.848Z" fill="#CCCCCC"/>
<path d="M178.963 51.8687L179.946 54.161L178.339 62.3012L161.948 60.017L162.079 50.0907L162.408 47.9167L178.963 51.8687Z" fill="#FFB6B6"/>
<path d="M187.431 157.369H183.815L182.094 143.388H187.431V157.369Z" fill="#FFB6B6"/>
<path d="M176.674 162.101C176.675 162.512 176.838 162.906 177.127 163.196C177.417 163.486 177.81 163.649 178.219 163.65H185.099L186.285 161.196L186.746 163.65H189.339L188.61 154.885L187.431 154.816L183.471 154.58L182.832 154.54V157.023L177.342 160.825C177.136 160.968 176.967 161.159 176.851 161.381C176.735 161.603 176.674 161.85 176.674 162.101Z" fill="#2F2E41"/>
<path d="M154.006 141.342H150.39L148.263 120.759L155.058 120.352L154.006 141.342Z" fill="#FFB6B6"/>
<path d="M143.25 146.074C143.25 146.484 143.413 146.878 143.702 147.169C143.992 147.459 144.385 147.622 144.794 147.622H151.674L152.86 145.169L153.321 147.622H155.914L155.185 138.858L154.133 138.796L150.104 138.553L149.408 138.513V140.996L143.917 144.798C143.711 144.941 143.543 145.131 143.426 145.354C143.31 145.576 143.249 145.823 143.25 146.074Z" fill="#2F2E41"/>
<path d="M188.966 145.313H188.952L188.256 122.58C188.706 121.71 188.935 120.742 188.921 119.762C188.908 118.782 188.653 117.82 188.179 116.963L188.079 116.782L188.337 115.583C188.669 114.042 188.517 112.435 187.902 110.984L187.253 89.7791C189.571 74.7218 178.524 64.902 178.524 64.902L179.539 57.01L161.672 57.417L161.976 64.902L158.423 77.1366C156.554 95.3947 143.971 106.871 145.883 124.331C145.887 124.381 145.88 124.431 145.861 124.478C145.667 125.07 145.599 125.695 145.661 126.315C145.723 126.935 145.913 127.534 146.22 128.075C146.3 128.213 146.355 128.365 146.382 128.522C146.776 131.583 146.828 127.711 147.35 130.745L147.248 130.796C146.882 130.923 146.725 131.431 146.898 131.931C147.07 132.431 147.506 132.734 147.872 132.607L157.423 132.709C157.789 132.583 157.946 132.075 157.774 131.575C157.602 131.075 157.165 130.772 156.8 130.898L156.205 131.2L157.199 127.939L157.548 127.613C157.715 127.457 157.844 127.265 157.927 127.052C158.009 126.838 158.043 126.609 158.024 126.38C158.005 126.152 157.936 125.931 157.82 125.734C157.704 125.536 157.545 125.368 157.355 125.241L158.346 119.943L158.205 115.936L158.495 111.391L171.027 93.1883L176.098 118.331L181.277 145.566C181.156 145.675 181.065 145.814 181.013 145.968C180.961 146.123 180.95 146.288 180.98 146.448C181.027 146.672 181.151 146.873 181.33 147.015C181.509 147.157 181.732 147.233 181.96 147.229H188.991C189.139 147.229 189.284 147.194 189.416 147.129C189.548 147.063 189.663 146.968 189.752 146.85C189.842 146.732 189.903 146.596 189.931 146.451C189.958 146.306 189.953 146.156 189.913 146.014C189.854 145.809 189.729 145.629 189.558 145.503C189.387 145.376 189.179 145.309 188.966 145.313Z" fill="#2F2E41"/>
<path d="M182.713 13.1872C182.714 14.6386 182.359 16.0679 181.68 17.3497C181.001 18.6315 180.018 19.7266 178.818 20.5388C177.618 21.3511 176.237 21.8556 174.797 22.0082C173.357 22.1607 171.902 21.9566 170.559 21.4138C169.216 20.871 168.027 20.0061 167.095 18.8949C166.163 17.7838 165.518 16.4604 165.216 15.041C164.914 13.6216 164.964 12.1495 165.362 10.754C165.76 9.35845 166.493 8.08218 167.498 7.03718L167.541 6.99467C167.611 6.92016 167.682 6.84569 167.756 6.77473L167.758 6.77447L167.759 6.7737L167.76 6.77254L167.76 6.77118C167.861 6.69694 167.955 6.61257 168.04 6.51937C169.234 4.84674 170.588 3.44422 173.867 4.32043C178.589 5.5819 182.713 8.28918 182.713 13.1872Z" fill="#2F2E41"/>
<path d="M134.12 9.39154C134.1 9.86594 134.184 10.339 134.366 10.7773C134.548 11.2157 134.824 11.6087 135.174 11.9286C135.524 12.2486 135.94 12.4878 136.392 12.6293C136.844 12.7708 137.322 12.8112 137.791 12.7477L160.605 31.5145L164.089 25.3754L140.569 8.85867C140.41 8.07524 139.97 7.37741 139.332 6.89739C138.694 6.41737 137.903 6.18853 137.108 6.25421C136.313 6.3199 135.57 6.67556 135.019 7.25379C134.469 7.83202 134.149 8.59264 134.12 9.39154Z" fill="#FFB6B6"/>
<path d="M170.238 37.0491C170.238 37.0491 170.231 36.3732 166.604 36.3992C162.102 36.4315 149.704 29.9533 150.789 23.8523C150.274 24.0855 149.696 24.1404 149.147 24.0083C148.597 23.8762 148.107 23.5646 147.754 23.1227L153.79 17.2979C155.684 17.4261 155.703 18.6964 155.541 19.4259L160.391 21.3579L173.025 28.6333L170.795 35.9414L170.238 37.0491Z" fill="#E7620A"/>
<path d="M171.688 22.6741C175.785 22.6741 179.106 19.3452 179.106 15.2389C179.106 11.1326 175.785 7.80371 171.688 7.80371C167.591 7.80371 164.27 11.1326 164.27 15.2389C164.27 19.3452 167.591 22.6741 171.688 22.6741Z" fill="#FFB7B7"/>
<path d="M161.493 52.2205C161.083 52.7686 160.874 53.4413 160.9 54.1257C160.927 54.8101 161.187 55.4646 161.638 55.9793C161.642 56.1974 161.674 56.4083 161.983 57.1898C162.023 57.2656 162.07 57.3374 162.124 57.4043C162.134 57.4206 162.145 57.4364 162.157 57.4515C162.481 57.8725 162.933 58.1772 163.444 58.3204L177.022 62.1191L178.818 62.6208L179.133 62.708L179.307 60.2506C179.711 59.9152 179.982 59.446 180.07 58.9279C180.158 58.4098 180.059 57.8771 179.79 57.4261L179.539 57.0117L180.997 53.0821L181.139 52.6931L184.856 42.6636L184.86 41.9948L184.867 41.3041L184.903 36.4838C184.905 34.9646 184.555 33.4657 183.882 32.1046C183.209 30.7436 182.23 29.5574 181.023 28.6391C179.923 27.7968 178.655 27.2017 177.305 26.8942L177.276 26.8906L175.807 24.9094L169.849 25.5056L169.356 26.5198L168.757 27.7412L164.438 30.3186L162.962 33.7575L161.964 36.084C160.419 37.1964 159.498 38.625 159.233 40.3262C158.668 43.9396 161.192 47.5566 161.493 47.971L161.569 52.1188L161.493 52.2205Z" fill="#E7620A"/>
<path d="M179.451 17.188C179.384 17.1773 179.317 17.1631 179.249 17.1525C178.092 16.9468 176.935 16.7447 175.782 16.5354L175.675 13.9144L174.278 16.2623C171.09 17.3227 168.107 16.7234 165.301 15.4004C164.375 14.96 163.477 14.4638 162.612 13.9144C162.327 9.48168 164.115 6.64392 167.442 6.94153C167.563 6.9524 167.65 6.82805 167.757 6.7748L167.758 6.77455L167.759 6.77377L167.76 6.77262L167.76 6.77125C167.94 6.68613 168.124 6.60457 168.309 6.5301C169.749 5.96583 171.32 5.82293 172.838 6.11801C174.356 6.41309 175.76 7.13403 176.886 8.19704C179.15 10.3641 180.169 13.9427 179.451 17.188Z" fill="#2F2E41"/>
<path d="M179.249 17.1526C179.249 17.1526 177.052 8.93138 167.633 7.03385C167.622 7.03035 167.587 7.01615 167.541 6.99489C167.512 6.97714 167.477 6.95939 167.442 6.94168C167.548 6.88137 167.65 6.82821 167.757 6.77495L167.758 6.7747L167.759 6.77392L167.76 6.77277L167.76 6.7714C167.852 6.68628 167.944 6.60117 168.04 6.5196L168.309 6.53025C168.309 6.53025 177.76 5.02999 179.249 17.1526Z" fill="#FD6584"/>
<path d="M182.873 68.9776C182.699 69.1271 182.487 69.2256 182.26 69.2623C182.034 69.2991 181.801 69.2727 181.589 69.186C181.166 69.0062 180.79 68.7308 180.491 68.3813C179.271 67.0984 178.399 65.5235 177.959 63.8069L178.366 63.0813C178.206 62.1865 178.357 61.2639 178.792 60.4665C179.227 59.6691 179.922 59.045 180.76 58.6977C181.237 58.495 181.765 58.4489 182.27 58.5661C182.52 58.6284 182.749 58.7573 182.932 58.9391C183.115 59.121 183.246 59.3491 183.311 59.5993C183.467 60.3755 182.822 61.0763 182.169 61.5219C181.031 62.2961 179.715 62.7679 178.346 62.8931C180.021 63.8397 181.47 65.1426 182.589 66.7102C182.848 67.0372 183.039 67.4129 183.15 67.815C183.204 68.0166 183.207 68.2285 183.158 68.4315C183.11 68.6344 183.012 68.8221 182.873 68.9776Z" fill="#2F2E41"/>
<path d="M89.1105 163.914H213.601C213.707 163.914 213.808 163.872 213.883 163.797C213.958 163.722 214 163.62 214 163.514C214 163.408 213.958 163.306 213.883 163.231C213.808 163.156 213.707 163.114 213.601 163.114H89.1105C89.0047 163.114 88.9033 163.156 88.8285 163.231C88.7537 163.306 88.7117 163.408 88.7117 163.514C88.7117 163.62 88.7537 163.722 88.8285 163.797C88.9033 163.872 89.0047 163.914 89.1105 163.914Z" fill="#CCCCCC"/>
<path d="M122.173 61.1502V61.359C121.724 60.8324 121.267 60.3103 120.814 59.7881C120.624 59.5702 120.433 59.3523 120.243 59.1344C119.437 58.2172 118.626 57.3031 117.811 56.392C116.991 55.484 116.171 54.5759 115.342 53.6724C115.143 53.4545 114.943 53.2366 114.74 53.0187C114.576 52.8355 114.399 52.6655 114.209 52.5101C114.018 52.3505 113.798 52.2288 113.562 52.1514C113.289 52.0758 113.002 52.0727 112.728 52.1424C112.416 52.2151 112.117 52.3286 111.813 52.4239C111.501 52.5283 111.193 52.6282 110.88 52.7281C110.255 52.9324 109.635 53.1368 109.009 53.341C109.002 53.3441 108.994 53.3456 108.986 53.3456C108.978 53.3455 108.97 53.3439 108.962 53.3407C108.955 53.3375 108.948 53.3329 108.942 53.3271C108.936 53.3213 108.932 53.3144 108.929 53.3069L108.928 53.3047C108.924 53.2961 108.923 53.2868 108.923 53.2775C108.924 53.2682 108.926 53.2591 108.93 53.2509C108.935 53.2426 108.941 53.2355 108.948 53.2299C108.956 53.2243 108.964 53.2204 108.973 53.2184C109.127 53.1685 109.286 53.1186 109.444 53.0686C110.074 52.8597 110.699 52.6555 111.329 52.4512C111.641 52.3467 111.954 52.2468 112.266 52.1469C112.556 52.0366 112.862 51.9752 113.172 51.9653C113.678 52.0018 114.153 52.225 114.504 52.5919C114.699 52.7735 114.875 52.9642 115.052 53.1594C115.26 53.3864 115.469 53.6134 115.677 53.8405C116.515 54.7576 117.347 55.6778 118.173 56.6009C119.002 57.5271 119.823 58.4549 120.637 59.3841C120.696 59.4522 120.755 59.5203 120.814 59.5884C121.271 60.1059 121.72 60.6281 122.173 61.1502Z" fill="white"/>
<path d="M114.139 53.3466C113.968 53.1256 113.74 52.9557 113.479 52.8552L113.222 52.8643C115.244 56.0175 117.892 58.7191 121.002 60.8002C118.715 58.3157 116.427 55.8311 114.139 53.3466Z" fill="white"/>
<path d="M156.33 86.1161L146.068 31.0434C145.893 30.1355 145.415 29.3144 144.712 28.7146C144.01 28.1148 143.125 27.772 142.203 27.7424C142.12 27.7405 142.037 27.7405 141.954 27.7424L134.964 27.9937L134.212 28.0214L130.723 28.1471L129.97 28.173L127.726 28.2543L82.4759 29.8826C82.4077 29.8863 82.3376 29.8863 82.2694 29.8845L72.1295 29.6719L68.377 29.5943L68.2572 29.5925L65.4876 29.5333L41.354 29.0306L34.9555 28.8956L31.8004 28.831L31.0445 28.8143L27.4469 28.7404L26.6927 28.7237L23.0122 28.648L22.258 28.6313L18.2142 28.5463L17.5799 28.5334L13.9731 28.4576L13.4034 28.4465H13.3204C12.3629 28.4504 11.4376 28.7935 10.708 29.4152C9.97851 30.0368 9.49174 30.897 9.33379 31.8436L0.0531851 88.992C-0.0410588 89.5709 -0.00861177 90.1634 0.148271 90.7285C0.305154 91.2936 0.582716 91.8177 0.961748 92.2646C1.34078 92.7115 1.81221 93.0705 2.34338 93.3167C2.87455 93.5628 3.45276 93.6903 4.03796 93.6903H57.3355C58.1199 93.6924 58.8833 93.9449 59.515 94.4111L60.5255 95.1615C61.2219 95.6753 62.0634 95.9536 62.9282 95.9562C73.2219 93.233 84.0443 93.233 94.338 95.9562C94.8687 95.9576 95.3944 95.8534 95.8847 95.6497C96.375 95.446 96.8201 95.1469 97.1943 94.7696C97.8341 94.1285 98.688 93.7473 99.5914 93.6995L152.572 90.9012C153.146 90.8711 153.708 90.7183 154.219 90.453C154.729 90.1877 155.178 89.8161 155.534 89.363C155.889 88.9099 156.145 88.3858 156.282 87.8258C156.419 87.2658 156.436 86.6829 156.33 86.1161Z" fill="#CCCCCC"/>
<path d="M141.811 77.528C141.743 79.3943 140.938 81.1571 139.574 82.429C138.21 83.7009 136.398 84.3777 134.536 84.3107C131.459 84.2017 127.788 84.1472 123.803 84.2306C110.791 84.5094 94.4427 86.3045 84.6089 92.7603C83.373 93.5735 81.9125 93.975 80.4356 93.9078C80.3269 93.9014 80.2213 93.895 80.1126 93.8854C78.5814 93.7451 77.1386 93.1042 76.0064 92.0615C70.5891 87.093 58.1649 81.0764 29.7254 80.6533C29.6071 80.6533 29.492 80.6469 29.3768 80.6405C28.4557 80.5824 27.555 80.3429 26.7263 79.9357C25.8976 79.5285 25.157 78.9616 24.547 78.2674C23.937 77.5732 23.4694 76.7653 23.1711 75.8898C22.8727 75.0144 22.7494 74.0886 22.8082 73.1654L25.6032 28.7025L26.0222 22.0384L26.7577 10.3802C26.8319 9.20612 27.3492 8.10439 28.2045 7.29884C29.0599 6.49329 30.1891 6.04434 31.3628 6.04321H31.3916L48.3344 6.14258C55.4723 6.46633 61.3842 7.37775 66.0703 8.87683C67.671 9.37436 69.2283 10.0026 70.7266 10.7552C72.7729 11.7497 74.6115 13.1258 76.1439 14.8101C77.0985 15.8861 78.4005 16.5908 79.8216 16.8007C80.042 16.8337 80.2641 16.8541 80.4868 16.8616C81.7974 16.916 83.0905 16.545 84.174 15.8038C95.2422 8.37038 117.797 7.80623 130.254 8.12677C131.996 8.16749 133.66 8.85672 134.923 10.0602C136.186 11.2637 136.956 12.8952 137.084 14.637L137.59 21.2691L138.092 27.882L140.989 66.1006L141.795 76.733C141.815 76.9975 141.82 77.2629 141.811 77.528Z" fill="#F2F2F2"/>
<path d="M33.9405 21.6889C44.1507 18.4237 55.5416 19.2881 65.2143 23.8881C67.9741 25.1938 70.5807 26.8029 72.9858 28.6859C73.6662 29.2211 74.6343 28.2637 73.9467 27.7228C65.0624 20.8158 53.8996 17.5346 42.7009 18.5386C39.6028 18.8165 36.5441 19.4324 33.5793 20.3754C32.7493 20.6409 33.104 21.9564 33.9405 21.6889Z" fill="#3F3D56"/>
<path d="M90.1235 29.2142C99.6163 24.213 110.984 23.1224 121.305 25.9613C124.247 26.7688 127.091 27.902 129.783 29.3403C130.555 29.7528 131.242 28.5774 130.469 28.1642C120.632 22.903 108.824 21.6918 98.0821 24.6246C95.0854 25.4442 92.1868 26.5888 89.4377 28.0381C88.6633 28.4461 89.3493 29.6221 90.1235 29.2142Z" fill="#3F3D56"/>
<path d="M90.1236 38.2948C99.6163 33.2936 110.984 32.203 121.305 35.0419C124.247 35.8493 127.091 36.9826 129.783 38.4208C130.555 38.8334 131.242 37.658 130.469 37.2447C120.632 31.9835 108.824 30.7724 98.0821 33.7052C95.0854 34.5248 92.1869 35.6694 89.4377 37.1187C88.6633 37.5267 89.3494 38.7027 90.1236 38.2948Z" fill="#3F3D56"/>
<path d="M130.802 46.8881C130.809 46.7712 130.781 46.6549 130.721 46.5542C130.661 46.4535 130.573 46.3731 130.467 46.3236C122.587 42.1875 113.652 40.51 104.812 41.5069C104.757 41.5114 104.706 41.5202 104.646 41.5247H104.644C104.589 41.5296 104.535 41.5377 104.482 41.5491C99.2241 42.1556 94.1237 43.7313 89.4379 46.1969C89.3357 46.2579 89.2511 46.3444 89.1924 46.4481C89.1337 46.5518 89.1029 46.6689 89.103 46.7881V63.7276C89.1047 63.8318 89.13 63.9343 89.1771 64.0273C89.2241 64.1203 89.2916 64.2013 89.3745 64.2643C89.4574 64.3272 89.5535 64.3705 89.6555 64.3907C89.7576 64.4109 89.8629 64.4076 89.9634 64.3811C90.1719 64.321 90.3803 64.2633 90.5932 64.2077C95.3304 62.9224 100.193 62.1599 105.096 61.9338C105.2 61.9294 105.304 61.9249 105.413 61.9205C109.406 61.7486 113.406 61.8927 117.377 62.3517C117.46 62.3564 117.543 62.3653 117.625 62.3783C117.829 62.4006 118.037 62.425 118.242 62.4517C118.324 62.4606 118.401 62.4695 118.477 62.4828C119.27 62.5828 120.058 62.6962 120.847 62.8184C121.987 63.0007 123.127 63.2037 124.267 63.4275C124.338 63.4408 124.411 63.4586 124.484 63.4719C126.313 63.8365 128.134 64.2588 129.946 64.7255C130.047 64.7516 130.152 64.7544 130.254 64.7337C130.356 64.713 130.452 64.6693 130.535 64.606C130.618 64.5426 130.686 64.4613 130.732 64.368C130.779 64.2748 130.805 64.172 130.806 64.0676V46.9148C130.807 46.9057 130.805 46.8965 130.802 46.8881Z" fill="#3F3D56"/>
<path d="M105.877 42.4305C105.38 42.1861 104.809 42.1359 104.276 42.2895C104.041 42.378 103.826 42.5124 103.642 42.6849C103.459 42.8575 103.312 43.0648 103.21 43.2948C103.025 43.7359 102.907 44.2019 102.859 44.6777C102.831 44.8649 102.829 45.101 103.017 45.1884C103.085 45.2132 103.158 45.2188 103.229 45.2047C103.301 45.1906 103.366 45.1573 103.42 45.1084C103.517 45.0126 103.597 44.9009 103.656 44.7781C103.982 44.2699 104.43 43.8522 104.96 43.5636C105.49 43.2751 106.083 43.1249 106.686 43.127L107.188 43.3275C106.793 42.9711 106.352 42.6695 105.877 42.4305Z" fill="#FF6582"/>
<path d="M111.307 46.3349C110.918 45.7604 110.456 45.147 109.734 44.9595C108.897 44.7422 108.038 45.1738 107.309 45.5996C105.141 46.8651 103.041 48.2452 101.02 49.7339L101.022 49.7562L105.715 49.4675C106.845 49.3979 108.014 49.3188 109.013 48.8418C109.372 48.6164 109.773 48.4668 110.191 48.4021C110.451 48.4162 110.705 48.4817 110.939 48.5948C111.173 48.7079 111.383 48.8664 111.556 49.0611C113.718 51.116 114.344 54.2584 116.771 56.0638C115.227 52.6721 113.399 49.4175 111.307 46.3349Z" fill="white"/>
<path d="M105.414 61.9202C105.305 61.9247 105.201 61.9293 105.097 61.9338C104.34 61.6614 103.566 61.4208 102.782 61.2119C102.275 61.0757 101.758 60.9531 101.242 60.8487C100.658 60.7216 100.069 60.6217 99.4801 60.5354C98.359 60.372 97.229 60.2765 96.0964 60.2494C96.0879 60.2503 96.0792 60.2495 96.0709 60.2468C96.0627 60.2441 96.0552 60.2398 96.0487 60.234C96.0423 60.2282 96.0372 60.2211 96.0336 60.2132C96.0301 60.2053 96.0283 60.1968 96.0283 60.1881C96.0283 60.1795 96.0301 60.1709 96.0336 60.163C96.0372 60.1551 96.0423 60.148 96.0487 60.1422C96.0552 60.1365 96.0627 60.1321 96.0709 60.1294C96.0792 60.1268 96.0879 60.1259 96.0964 60.1268C96.2413 60.1268 96.3863 60.1314 96.5267 60.1405C97.6617 60.1825 98.7932 60.2932 99.9149 60.4719C100.499 60.5672 101.084 60.6807 101.663 60.8079C102.189 60.9259 102.714 61.0576 103.231 61.2029C103.969 61.4117 104.697 61.6508 105.414 61.9202Z" fill="white"/>
<path d="M118.477 62.4832C118.4 62.4696 118.323 62.4605 118.242 62.4515C117.929 62.1927 117.612 61.9475 117.282 61.7068C116.869 61.4072 116.444 61.1257 116.009 60.8624C115.046 60.2764 114.04 59.7635 113.001 59.3278C111.358 58.6419 109.657 58.104 107.919 57.7205C105.936 57.2851 103.929 56.9697 101.908 56.7762C99.8877 56.5673 97.8584 56.4402 95.8292 56.313C95.7431 56.3085 95.7386 56.1814 95.8292 56.1859C96.0829 56.2041 96.3365 56.2177 96.5947 56.2358C98.6466 56.363 100.699 56.5083 102.737 56.7399C104.758 56.957 106.763 57.3058 108.739 57.7841C110.425 58.2007 112.072 58.7675 113.658 59.4776C114.57 59.8884 115.454 60.3602 116.303 60.8896C116.842 61.2301 117.363 61.5933 117.861 61.9793C118.07 62.1427 118.278 62.3062 118.477 62.4832Z" fill="white"/>
<path d="M117.626 62.3787C117.543 62.3653 117.46 62.3562 117.377 62.3514C117.282 62.2742 117.182 62.2016 117.082 62.1289C116.385 61.6286 115.657 61.1722 114.903 60.7623C114.219 60.3894 113.516 60.0515 112.797 59.7499C111.155 59.062 109.454 58.5241 107.715 58.1426C105.732 57.7072 103.725 57.3918 101.704 57.1983C99.6839 56.9894 97.6546 56.8623 95.6253 56.7352C95.5393 56.7261 95.5393 56.6035 95.6253 56.608C95.8835 56.6262 96.1371 56.6398 96.3908 56.658C98.4428 56.7851 100.495 56.9304 102.533 57.1619C104.554 57.3791 106.559 57.7279 108.535 58.2062C110.222 58.6221 111.868 59.1889 113.454 59.8997C114.052 60.1721 114.636 60.4672 115.207 60.7896C116.053 61.2554 116.862 61.7867 117.626 62.3787Z" fill="white"/>
<path d="M124.484 63.473C124.411 63.4593 124.339 63.4412 124.266 63.4276C124.185 63.3413 124.108 63.2505 124.031 63.1597C123.641 62.7102 123.256 62.2562 122.876 61.7976C121.376 60.0088 119.954 58.1654 118.613 56.2858C117.463 54.6785 116.371 53.0395 115.338 51.3687C114.845 50.5787 114.369 49.7796 113.902 48.9714C113.54 48.3449 113.187 47.7169 112.842 47.0873C112.743 46.9057 112.648 46.724 112.553 46.5424C112.331 46.1156 112.109 45.6843 111.873 45.2621C111.617 44.7448 111.241 44.2964 110.777 43.9545C110.545 43.7988 110.276 43.7064 109.998 43.6866C109.605 43.6881 109.219 43.788 108.874 43.9772C106.34 45.1601 103.95 46.6301 101.749 48.3585C99.6004 50.0339 97.6572 51.9587 95.9605 54.0928C95.9062 54.1564 95.7883 54.0974 95.8382 54.0292C96.042 53.775 96.2504 53.5207 96.4587 53.271C98.0894 51.3376 99.9258 49.5884 101.935 48.0543C101.94 48.0498 101.949 48.0452 101.953 48.0407C102.13 47.9 102.307 47.7638 102.488 47.6321C103.609 46.8041 104.777 46.0401 105.985 45.3438C106.601 44.9851 107.23 44.6446 107.873 44.3223C108.032 44.2406 108.195 44.1588 108.358 44.0816C108.521 43.9999 108.684 43.9228 108.847 43.8455C109.17 43.6805 109.523 43.5832 109.885 43.5595C111.144 43.5413 111.792 44.8126 112.24 45.6707C112.38 45.9386 112.525 46.2065 112.666 46.4743C113.209 47.4868 113.776 48.4948 114.364 49.489C114.722 50.1065 115.094 50.7195 115.47 51.3279C116.009 52.1951 116.561 53.0531 117.137 53.9067C117.137 53.9073 117.137 53.9079 117.137 53.9085C117.137 53.909 117.137 53.9095 117.138 53.9099C117.138 53.9103 117.139 53.9107 117.139 53.9109C117.14 53.9112 117.14 53.9113 117.141 53.9113C117.807 54.9192 118.5 55.9089 119.216 56.8942C120.443 58.5786 121.73 60.2252 123.075 61.834C123.537 62.3879 124.007 62.9342 124.484 63.473Z" fill="white"/>
<path d="M108.323 43.421L108.198 43.476C107.911 42.9902 107.509 42.583 107.027 42.2906C106.545 41.9982 105.999 41.8297 105.436 41.8C103.582 41.6679 101.953 42.9067 101.805 44.5612C101.744 45.2424 101.941 45.9215 102.356 46.4645L102.24 46.5334C101.808 45.968 101.603 45.2607 101.665 44.5513C101.819 42.8284 103.516 41.5383 105.447 41.6758C106.033 41.7068 106.602 41.8823 107.104 42.1867C107.605 42.4912 108.024 42.9152 108.323 43.421Z" fill="#FF6582"/>
<path d="M99.1598 46.7684C98.6731 46.5562 98.1431 46.4632 97.6134 46.497C97.0837 46.5308 96.5697 46.6905 96.1138 46.9628C97.7783 47.2187 99.4282 47.5623 101.057 47.992C100.382 47.6395 99.8549 47.0871 99.1598 46.7684Z" fill="white"/>
<path d="M96.1044 46.9614L95.9211 47.0943C95.9831 47.0478 96.0476 47.0042 96.1138 46.9629L96.1044 46.9614Z" fill="white"/>
<path d="M101.624 47.7322C101.551 47.6596 101.478 47.5869 101.405 47.5142C100.841 46.8992 100.162 46.4012 99.4066 46.0486C99.0219 45.8862 98.6093 45.8009 98.192 45.7974C97.7608 45.8075 97.3345 45.8905 96.9309 46.0428C96.741 46.1105 96.5553 46.1873 96.3724 46.2691C96.1635 46.3629 95.9582 46.463 95.7539 46.5639C95.3705 46.7532 94.992 46.9508 94.6184 47.1568C93.8752 47.5666 93.1553 48.0077 92.4587 48.48C92.0975 48.725 91.7439 48.978 91.3976 49.239C91.0756 49.4815 90.7601 49.7304 90.4511 49.9859C90.385 50.0403 90.2863 49.9523 90.3524 49.8979C90.4338 49.8302 90.5162 49.7629 90.5986 49.6965C90.8313 49.5089 91.0677 49.3248 91.3078 49.1443C91.7457 48.8146 92.1949 48.4977 92.6555 48.1935C93.3717 47.7202 94.1126 47.279 94.8781 46.8699C95.2606 46.6656 95.6485 46.4699 96.0415 46.2828C96.1602 46.2263 96.2803 46.1711 96.4017 46.1188C96.6791 45.9941 96.9653 45.8902 97.258 45.8078C97.6778 45.6872 98.1169 45.6487 98.5512 45.6944C98.9671 45.7476 99.3708 45.8722 99.7445 46.0627C100.485 46.4788 101.153 47.0128 101.723 47.6438C101.782 47.7036 101.684 47.792 101.624 47.7322Z" fill="white"/>
<path d="M33.9405 30.7694C44.1507 27.5043 55.5416 28.3687 65.2143 32.9686C67.9741 34.2743 70.5807 35.8835 72.9858 37.7665C73.6662 38.3017 74.6343 37.3443 73.9467 36.8033C65.0624 29.8963 53.8996 26.6152 42.7009 27.6191C39.6028 27.897 36.5441 28.513 33.5793 29.456C32.7493 29.7214 33.104 31.037 33.9405 30.7694Z" fill="#3F3D56"/>
<path d="M33.9405 39.8498C44.1507 36.5846 55.5416 37.449 65.2143 42.049C67.9741 43.3546 70.5807 44.9638 72.9858 46.8468C73.6662 47.382 74.6343 46.4246 73.9467 45.8836C65.0624 38.9766 53.8996 35.6955 42.7009 36.6995C39.6028 36.9773 36.5441 37.5933 33.5793 38.5363C32.7493 38.8017 33.104 40.1173 33.9405 39.8498Z" fill="#3F3D56"/>
<path d="M33.9405 48.9303C44.1507 45.6652 55.5416 46.5296 65.2143 51.1295C67.9741 52.4352 70.5807 54.0444 72.9858 55.9273C73.6662 56.4626 74.6343 55.5052 73.9467 54.9642C65.0624 48.0572 53.8996 44.7761 42.7009 45.78C39.6028 46.0579 36.5441 46.6738 33.5793 47.6169C32.7493 47.8823 33.104 49.1978 33.9405 48.9303Z" fill="#3F3D56"/>
<path d="M33.9405 58.0109C44.1507 54.7457 55.5416 55.6102 65.2143 60.2101C67.9741 61.5158 70.5807 63.1249 72.9858 65.0079C73.6662 65.5431 74.6343 64.5857 73.9467 64.0448C65.0624 57.1378 53.8996 53.8566 42.7009 54.8606C39.6028 55.1385 36.5441 55.7544 33.5793 56.6975C32.7493 56.9629 33.104 58.2784 33.9405 58.0109Z" fill="#3F3D56"/>
<path d="M33.9405 67.0912C44.1507 63.826 55.5416 64.6905 65.2143 69.2904C67.9741 70.5961 70.5807 72.2052 72.9858 74.0882C73.6662 74.6235 74.6343 73.6661 73.9467 73.1251C65.0624 66.2181 53.8996 62.937 42.7009 63.9409C39.6028 64.2188 36.5441 64.8347 33.5793 65.7778C32.7493 66.0432 33.104 67.3587 33.9405 67.0912Z" fill="#3F3D56"/>
<path d="M70.7266 10.7551V32.5297C70.7266 32.9625 69.9718 33.3247 68.9549 33.4241C68.9462 33.4235 68.9376 33.4246 68.9293 33.4273C68.7598 33.4401 68.5807 33.4497 68.3984 33.4497C67.8378 33.46 67.2798 33.3688 66.7515 33.1804C66.7035 33.1612 66.6555 33.1388 66.6076 33.1195C66.5628 33.0939 66.5148 33.0715 66.4701 33.0458C66.2174 32.8952 66.0703 32.7189 66.0703 32.5297V8.87671C67.671 9.37424 69.2283 10.0025 70.7266 10.7551Z" fill="#E7620A"/>
<path d="M80.4861 15.8054H79.8208V93.4525H80.4861V15.8054Z" fill="#E6E6E6"/>
<path d="M152.831 68.9602C153.303 68.917 153.759 68.7706 154.168 68.5314C154.578 68.2921 154.93 67.9659 155.199 67.5756C155.469 67.1853 155.65 66.7405 155.73 66.2724C155.81 65.8044 155.786 65.3245 155.661 64.8666L169.469 58.4059L177.782 44.9272L171.248 42.283L165.64 53.1444L151.445 62.6252C150.692 62.8872 150.061 63.4172 149.671 64.1147C149.281 64.8121 149.16 65.6287 149.331 66.4096C149.502 67.1904 149.952 67.8814 150.597 68.3515C151.243 68.8216 152.037 69.0382 152.831 68.9602Z" fill="#FFB6B6"/>
<path d="M182.91 32.0152C182.91 32.0152 184.537 32.5476 182.751 35.7115C181.321 38.2444 174.355 52.8342 171.513 55.6989C171.812 56.1793 171.943 56.7459 171.885 57.3093C171.828 57.8727 171.585 58.4009 171.195 58.8108L164.632 53.5904C164.507 51.6918 165.76 51.5034 166.503 51.5675L168.013 46.2036L173.279 32.9719L181.74 31.6094L182.91 32.0152Z" fill="#E7620A"/>
<path d="M183.052 7.21489C183.362 5.95732 185.613 5.02877 181.757 3.27305C180.821 2.84695 180.86 1.37956 180.068 0.722413C179.276 0.0652637 178.117 -0.239399 177.197 0.219923C176.375 0.630096 175.912 1.55833 175.814 2.47307C175.766 3.39373 175.872 4.31586 176.127 5.20158L176.053 5.31106C177.58 6.48268 179.108 7.65428 180.635 8.82587C181.197 9.25641 181.93 9.70722 182.56 9.38417C183.272 9.01847 182.859 7.99347 183.052 7.21489Z" fill="#2F2E41"/>
</g>
<defs>
<clipPath id="clip0_172_7718">
<rect width="214" height="164" fill="white"/>
</clipPath>
</defs>
</svg>
