<svg width="60" height="60" viewBox="0 0 60 60" fill="none" xmlns="http://www.w3.org/2000/svg">
<path d="M53.3906 30.0749C53.3765 30.0608 53.3578 30.0467 53.3437 30.0327C53.4656 29.503 53.5453 28.7249 53.0578 28.2796C52.3781 27.6561 51.1171 27.7592 50.5874 28.3311C50.5453 28.378 50.5078 28.4296 50.4703 28.4811C50.3906 28.5327 50.3203 28.5936 50.2593 28.6592C50.1656 28.7624 50.0953 28.8796 50.039 29.0014C49.7296 29.0342 49.4484 29.1655 49.2374 29.3952C49.1999 29.4374 49.1718 29.4842 49.139 29.5311C49.0546 29.5874 48.9796 29.6483 48.9093 29.7233C48.3796 30.2999 48.5062 31.2702 49.1859 31.8983C49.7156 32.3811 50.4234 32.5171 50.9578 32.2827C51.014 32.353 51.0796 32.4233 51.1499 32.4889C51.8296 33.1124 53.0015 32.878 53.5312 32.3014C53.5687 32.2592 53.6015 32.2171 53.6343 32.1749C53.7187 32.1139 53.7937 32.0483 53.8593 31.978C54.389 31.3921 54.0749 30.6983 53.3906 30.0749Z" fill="#346A34"/>
<path d="M48.3609 28.6311C48.3422 28.6405 48.3281 28.6546 48.3094 28.6686C47.8359 28.4389 47.1984 28.4905 46.6687 28.8514C45.9328 29.3577 45.6797 30.2718 46.1062 30.8952C46.2422 31.0968 46.4344 31.2421 46.6594 31.3311C46.5562 31.7014 46.5984 32.0858 46.8141 32.3952C47.2406 33.0186 48.1828 33.1124 48.9234 32.6108C49.4953 32.2171 49.7766 31.5796 49.6734 31.0264C49.7531 30.9889 49.8328 30.9421 49.9078 30.8905C50.6437 30.3843 50.8969 29.4702 50.4703 28.8468C50.0437 28.2186 49.0969 28.1249 48.3609 28.6311Z" fill="#568B3E"/>
<path d="M52.0407 28.139C52.0266 28.125 52.0079 28.1156 51.9891 28.1015C52.0688 27.5812 52.0501 26.8359 51.5485 26.4375C50.8501 25.8797 49.9032 25.9031 49.4297 26.4937C49.2797 26.6859 48.9797 27.0609 48.9563 27.3C48.5719 27.3094 48.2157 27.464 47.9813 27.7594C47.5079 28.35 47.6954 29.2781 48.3938 29.8359C48.9375 30.2672 49.6266 30.3469 50.1282 30.089C50.1891 30.1547 50.2547 30.2156 50.3251 30.2719C51.0235 30.8297 51.9704 30.8062 52.4438 30.2156C52.9266 29.625 52.7438 28.6969 52.0407 28.139Z" fill="url(#paint0_linear_101_5056)"/>
<mask id="mask0_101_5056" style="mask-type:luminance" maskUnits="userSpaceOnUse" x="1" y="1" width="58" height="58">
<path d="M58.125 1.875H1.875V58.125H58.125V1.875Z" fill="white"/>
</mask>
<g mask="url(#mask0_101_5056)">
<path d="M30.0188 36.2485C45.5518 36.2485 58.1438 32.0155 58.1438 26.7938C58.1438 21.5721 45.5518 17.3391 30.0188 17.3391C14.4858 17.3391 1.8938 21.5721 1.8938 26.7938C1.8938 32.0155 14.4858 36.2485 30.0188 36.2485Z" fill="url(#paint1_radial_101_5056)"/>
</g>
<mask id="mask1_101_5056" style="mask-type:luminance" maskUnits="userSpaceOnUse" x="1" y="1" width="58" height="58">
<path d="M58.125 1.875H1.875V58.125H58.125V1.875Z" fill="white"/>
</mask>
<g mask="url(#mask1_101_5056)">
<path d="M30 58.1249C36.4721 58.1249 41.7188 56.3579 41.7188 54.1781C41.7188 51.9983 36.4721 50.2312 30 50.2312C23.5279 50.2312 18.2812 51.9983 18.2812 54.1781C18.2812 56.3579 23.5279 58.1249 30 58.1249Z" fill="url(#paint2_radial_101_5056)"/>
</g>
<mask id="mask2_101_5056" style="mask-type:luminance" maskUnits="userSpaceOnUse" x="1" y="1" width="58" height="58">
<path d="M58.125 1.875H1.875V58.125H58.125V1.875Z" fill="white"/>
</mask>
<g mask="url(#mask2_101_5056)">
<g opacity="0.2">
<path d="M30 51.1733C36.975 51.1733 40.7812 53.1608 40.7812 54.1827C40.7812 54.6608 39.9188 55.4343 37.9875 56.0858C35.8687 56.7937 33.0328 57.1874 30 57.1874C23.025 57.1874 19.2188 55.1999 19.2188 54.178C19.2188 53.6999 20.0812 52.9265 22.0125 52.2749C24.1312 51.5624 26.9672 51.1733 30 51.1733ZM30 50.2358C23.5266 50.2358 18.2812 52.003 18.2812 54.1827C18.2812 56.3624 23.5266 58.1249 30 58.1249C36.4734 58.1249 41.7188 56.3577 41.7188 54.178C41.7188 51.9983 36.4734 50.2358 30 50.2358Z" fill="#434343"/>
</g>
</g>
<mask id="mask3_101_5056" style="mask-type:luminance" maskUnits="userSpaceOnUse" x="1" y="1" width="58" height="58">
<path d="M58.125 1.875H1.875V58.125H58.125V1.875Z" fill="white"/>
</mask>
<g mask="url(#mask3_101_5056)">
<mask id="mask4_101_5056" style="mask-type:luminance" maskUnits="userSpaceOnUse" x="1" y="17" width="58" height="20">
<path d="M30.0188 36.2485C45.5518 36.2485 58.1438 32.0155 58.1438 26.7938C58.1438 21.5721 45.5518 17.3391 30.0188 17.3391C14.4858 17.3391 1.8938 21.5721 1.8938 26.7938C1.8938 32.0155 14.4858 36.2485 30.0188 36.2485Z" fill="white"/>
</mask>
<g mask="url(#mask4_101_5056)">
<path d="M30.0188 38.5968C43.7552 38.5968 54.8907 34.8528 54.8907 30.2343C54.8907 25.6158 43.7552 21.8718 30.0188 21.8718C16.2825 21.8718 5.14697 25.6158 5.14697 30.2343C5.14697 34.8528 16.2825 38.5968 30.0188 38.5968Z" fill="url(#paint3_radial_101_5056)"/>
</g>
</g>
<mask id="mask5_101_5056" style="mask-type:luminance" maskUnits="userSpaceOnUse" x="1" y="1" width="58" height="58">
<path d="M58.125 1.875H1.875V58.125H58.125V1.875Z" fill="white"/>
</mask>
<g mask="url(#mask5_101_5056)">
<mask id="mask6_101_5056" style="mask-type:luminance" maskUnits="userSpaceOnUse" x="9" y="23" width="42" height="15">
<path d="M30.0187 37.2422C41.5338 37.2422 50.8687 34.1047 50.8687 30.2344C50.8687 26.3641 41.5338 23.2266 30.0187 23.2266C18.5036 23.2266 9.1687 26.3641 9.1687 30.2344C9.1687 34.1047 18.5036 37.2422 30.0187 37.2422Z" fill="white"/>
</mask>
<g mask="url(#mask6_101_5056)">
<path d="M12.7546 25.6734C22.3359 23.8875 35.0109 27.0703 41.0249 35.2218C41.2874 35.5781 42.1687 35.339 41.8499 34.9031C35.6062 26.4421 22.4952 23.1281 12.539 24.9843C11.9343 25.0968 12.2296 25.7718 12.7546 25.6734Z" fill="#FECC81"/>
</g>
<mask id="mask7_101_5056" style="mask-type:luminance" maskUnits="userSpaceOnUse" x="9" y="23" width="42" height="15">
<path d="M30.0187 37.2422C41.5338 37.2422 50.8687 34.1047 50.8687 30.2344C50.8687 26.3641 41.5338 23.2266 30.0187 23.2266C18.5036 23.2266 9.1687 26.3641 9.1687 30.2344C9.1687 34.1047 18.5036 37.2422 30.0187 37.2422Z" fill="white"/>
</mask>
<g mask="url(#mask7_101_5056)">
<path d="M11.1984 26.9204C19.1671 25.3032 31.364 27.7266 34.1765 36.5766C34.3125 37.0032 35.2406 36.9095 35.0859 36.4313C32.1328 27.1454 19.3593 24.5298 10.9781 26.236C10.3781 26.3579 10.6687 27.0282 11.1984 26.9204Z" fill="#FECC81"/>
</g>
<mask id="mask8_101_5056" style="mask-type:luminance" maskUnits="userSpaceOnUse" x="9" y="23" width="42" height="15">
<path d="M30.0187 37.2422C41.5338 37.2422 50.8687 34.1047 50.8687 30.2344C50.8687 26.3641 41.5338 23.2266 30.0187 23.2266C18.5036 23.2266 9.1687 26.3641 9.1687 30.2344C9.1687 34.1047 18.5036 37.2422 30.0187 37.2422Z" fill="white"/>
</mask>
<g mask="url(#mask8_101_5056)">
<path d="M16.6969 24.5954C21.7547 23.6861 27.1219 24.1923 32.0953 25.3689C37.6453 26.6814 43.5094 29.1236 46.9031 33.9329C47.175 34.3173 47.9953 33.8626 47.7281 33.4876C44.4375 28.8282 38.9719 26.3345 33.6047 24.9095C28.2422 23.4845 22.3266 22.8517 16.8234 23.8407C16.3594 23.9204 16.0969 24.7032 16.6969 24.5954Z" fill="#FECC81"/>
</g>
<mask id="mask9_101_5056" style="mask-type:luminance" maskUnits="userSpaceOnUse" x="9" y="23" width="42" height="15">
<path d="M30.0187 37.2422C41.5338 37.2422 50.8687 34.1047 50.8687 30.2344C50.8687 26.3641 41.5338 23.2266 30.0187 23.2266C18.5036 23.2266 9.1687 26.3641 9.1687 30.2344C9.1687 34.1047 18.5036 37.2422 30.0187 37.2422Z" fill="white"/>
</mask>
<g mask="url(#mask9_101_5056)">
<path d="M19.3546 24.0796C29.5312 22.1389 43.4905 24.6186 50.3812 32.9905C50.6999 33.3796 51.3843 32.7608 51.1077 32.4186C44.0296 23.8124 29.878 21.253 19.4015 23.2499C18.9562 23.3343 18.7827 24.1874 19.3546 24.0796Z" fill="#FCB64E"/>
</g>
<mask id="mask10_101_5056" style="mask-type:luminance" maskUnits="userSpaceOnUse" x="9" y="23" width="42" height="15">
<path d="M30.0187 37.2422C41.5338 37.2422 50.8687 34.1047 50.8687 30.2344C50.8687 26.3641 41.5338 23.2266 30.0187 23.2266C18.5036 23.2266 9.1687 26.3641 9.1687 30.2344C9.1687 34.1047 18.5036 37.2422 30.0187 37.2422Z" fill="white"/>
</mask>
<g mask="url(#mask10_101_5056)">
<path d="M18.5296 26.2124C12.6843 26.3062 7.08743 30.6984 6.99837 36.7546C6.989 37.3406 7.79525 37.0124 7.80462 36.5577C7.889 31.0405 12.9937 27.1452 18.2906 27.0609C18.7265 27.0562 19.0687 26.2077 18.5296 26.2124Z" fill="#FECC81"/>
</g>
<mask id="mask11_101_5056" style="mask-type:luminance" maskUnits="userSpaceOnUse" x="9" y="23" width="42" height="15">
<path d="M30.0187 37.2422C41.5338 37.2422 50.8687 34.1047 50.8687 30.2344C50.8687 26.3641 41.5338 23.2266 30.0187 23.2266C18.5036 23.2266 9.1687 26.3641 9.1687 30.2344C9.1687 34.1047 18.5036 37.2422 30.0187 37.2422Z" fill="white"/>
</mask>
<g mask="url(#mask11_101_5056)">
<path d="M23.7421 26.7844C18.4124 27.4313 9.27647 31.6266 9.58116 38.086C9.60929 38.6719 10.4062 38.3485 10.3874 37.8891C10.1062 31.9829 18.8437 28.2001 23.7046 27.6141C24.1546 27.5579 24.3187 26.7141 23.7421 26.7844Z" fill="#FECC81"/>
</g>
<mask id="mask12_101_5056" style="mask-type:luminance" maskUnits="userSpaceOnUse" x="9" y="23" width="42" height="15">
<path d="M30.0187 37.2422C41.5338 37.2422 50.8687 34.1047 50.8687 30.2344C50.8687 26.3641 41.5338 23.2266 30.0187 23.2266C18.5036 23.2266 9.1687 26.3641 9.1687 30.2344C9.1687 34.1047 18.5036 37.2422 30.0187 37.2422Z" fill="white"/>
</mask>
<g mask="url(#mask12_101_5056)">
<path d="M27.1031 28.978C21.6422 29.053 12.7875 33.4218 13.0969 39.8343C13.125 40.4202 13.9219 40.0968 13.9031 39.6374C13.6219 33.8249 21.9047 29.8921 26.8641 29.8265C27.3047 29.8218 27.6422 28.9734 27.1031 28.978Z" fill="#FECC81"/>
</g>
<mask id="mask13_101_5056" style="mask-type:luminance" maskUnits="userSpaceOnUse" x="9" y="23" width="42" height="15">
<path d="M30.0187 37.2422C41.5338 37.2422 50.8687 34.1047 50.8687 30.2344C50.8687 26.3641 41.5338 23.2266 30.0187 23.2266C18.5036 23.2266 9.1687 26.3641 9.1687 30.2344C9.1687 34.1047 18.5036 37.2422 30.0187 37.2422Z" fill="white"/>
</mask>
<g mask="url(#mask13_101_5056)">
<path d="M29.6156 31.2234C24.3609 31.8515 16.1156 35.6625 16.4296 41.9718C16.4577 42.5578 17.2593 42.2343 17.2359 41.775C16.9406 35.9812 24.7734 32.625 29.5781 32.0484C30.0281 31.9968 30.1921 31.1531 29.6156 31.2234Z" fill="#FCB64E"/>
</g>
<mask id="mask14_101_5056" style="mask-type:luminance" maskUnits="userSpaceOnUse" x="9" y="23" width="42" height="15">
<path d="M30.0187 37.2422C41.5338 37.2422 50.8687 34.1047 50.8687 30.2344C50.8687 26.3641 41.5338 23.2266 30.0187 23.2266C18.5036 23.2266 9.1687 26.3641 9.1687 30.2344C9.1687 34.1047 18.5036 37.2422 30.0187 37.2422Z" fill="white"/>
</mask>
<g mask="url(#mask14_101_5056)">
<path d="M32.1328 33.3843C26.8781 34.0124 18.6328 37.8233 18.9468 44.1327C18.975 44.7187 19.7765 44.3952 19.7531 43.9359C19.4625 38.1421 27.2953 34.7858 32.1 34.2093C32.55 34.1577 32.714 33.314 32.1328 33.3843Z" fill="#FCB64E"/>
</g>
</g>
<mask id="mask15_101_5056" style="mask-type:luminance" maskUnits="userSpaceOnUse" x="1" y="1" width="58" height="58">
<path d="M58.125 1.875H1.875V58.125H58.125V1.875Z" fill="white"/>
</mask>
<g mask="url(#mask15_101_5056)">
<path d="M5.10943 30.1781C4.81412 29.325 5.02037 28.5234 5.02037 28.5234C5.02037 28.5234 6.58599 26.6015 10.0219 26.2781C12.7641 26.0203 17.4844 26.5078 18.6797 28.4156C18.9422 28.8328 18.6282 30.3047 18.3188 30.6C16.0501 32.7375 14.4235 33.4359 10.2329 33.3187C6.67037 33.2203 5.93912 32.5781 5.10943 30.1781Z" fill="#CDA997"/>
</g>
<mask id="mask16_101_5056" style="mask-type:luminance" maskUnits="userSpaceOnUse" x="1" y="1" width="58" height="58">
<path d="M58.125 1.875H1.875V58.125H58.125V1.875Z" fill="white"/>
</mask>
<g mask="url(#mask16_101_5056)">
<path d="M5.00625 28.7438C4.63125 27.1172 6.8625 25.6735 10.2141 25.5C13.5656 25.3266 18.5437 26.5079 18.6281 28.1579C18.7125 29.8079 13.9266 31.5375 10.5937 31.4532C7.04531 31.3641 5.34844 30.2157 5.00625 28.7438Z" fill="url(#paint4_radial_101_5056)"/>
<path d="M7.16714 28.4814C7.11557 27.4689 8.3062 26.597 10.3593 26.4892C12.4124 26.3814 14.2593 27.0001 14.3109 28.0126C14.3624 29.0251 12.6515 30.0329 10.5937 30.1408C8.53589 30.2486 7.2187 29.4939 7.16714 28.4814Z" fill="url(#paint5_radial_101_5056)"/>
</g>
<mask id="mask17_101_5056" style="mask-type:luminance" maskUnits="userSpaceOnUse" x="1" y="1" width="58" height="58">
<path d="M58.125 1.875H1.875V58.125H58.125V1.875Z" fill="white"/>
</mask>
<g mask="url(#mask17_101_5056)">
<path d="M42.286 21.9983C50.3017 24.9796 40.5564 29.7937 34.2142 29.6483C30.2532 29.5593 27.0798 28.6968 28.547 26.6343C30.1689 24.3608 38.8501 20.7233 42.286 21.9983Z" fill="url(#paint6_radial_101_5056)"/>
<path d="M42.2438 21.553C50.2594 24.5343 40.5141 29.3484 34.1719 29.203C30.211 29.114 27.0376 28.2515 28.5047 26.189C30.1219 23.9109 38.8079 20.2734 42.2438 21.553Z" fill="url(#paint7_radial_101_5056)"/>
<path d="M42.1641 21.9514C49.4438 24.6608 40.2 28.8795 34.4344 28.7483C30.8344 28.6686 27.8906 28.0967 29.2219 26.2217C30.6938 24.1545 39.0422 20.7889 42.1641 21.9514Z" fill="url(#paint8_linear_101_5056)"/>
</g>
<mask id="mask18_101_5056" style="mask-type:luminance" maskUnits="userSpaceOnUse" x="1" y="1" width="58" height="58">
<path d="M58.125 1.875H1.875V58.125H58.125V1.875Z" fill="white"/>
</mask>
<g mask="url(#mask18_101_5056)">
<path d="M48.2578 24.8296C56.3953 27.4639 46.8656 32.6905 40.5187 32.8171C36.5578 32.8968 33.3515 32.1702 34.7297 30.0468C36.2531 27.7077 44.7703 23.6999 48.2578 24.8296Z" fill="url(#paint9_radial_101_5056)"/>
<path d="M48.1969 24.3843C56.3344 27.0186 46.8047 32.2452 40.4578 32.3718C36.4969 32.4514 33.2906 31.7249 34.6688 29.6014C36.1875 27.2624 44.7094 23.2546 48.1969 24.3843Z" fill="url(#paint10_radial_101_5056)"/>
<path d="M48.1313 24.7875C55.5188 27.1781 46.4625 31.7953 40.6969 31.9078C37.0969 31.9781 34.1297 31.5375 35.3813 29.6062C36.7688 27.4781 44.9672 23.7609 48.1313 24.7875Z" fill="url(#paint11_linear_101_5056)"/>
</g>
<mask id="mask19_101_5056" style="mask-type:luminance" maskUnits="userSpaceOnUse" x="1" y="1" width="58" height="58">
<path d="M58.125 1.875H1.875V58.125H58.125V1.875Z" fill="white"/>
</mask>
<g mask="url(#mask19_101_5056)">
<path d="M51.7359 27.0516C60.0047 29.236 50.775 34.9782 44.4469 35.4516C40.4953 35.7469 37.2516 35.2032 38.5125 33.0048C39.9047 30.5813 48.1922 26.1141 51.7359 27.0516Z" fill="url(#paint12_radial_101_5056)"/>
<path d="M51.6468 26.6064C59.9156 28.7907 50.6859 34.5329 44.3578 35.0064C40.4062 35.3017 37.1625 34.7579 38.4234 32.5595C39.8156 30.1407 48.1031 25.6736 51.6468 26.6064Z" fill="url(#paint13_radial_101_5056)"/>
<path d="M51.6046 27.0142C59.114 28.997 50.325 34.1017 44.5734 34.5329C40.9828 34.8048 37.9968 34.5236 39.1406 32.5267C40.4062 30.3236 48.3843 26.1611 51.6046 27.0142Z" fill="url(#paint14_linear_101_5056)"/>
</g>
<mask id="mask20_101_5056" style="mask-type:luminance" maskUnits="userSpaceOnUse" x="1" y="1" width="58" height="58">
<path d="M58.125 1.875H1.875V58.125H58.125V1.875Z" fill="white"/>
</mask>
<g mask="url(#mask20_101_5056)">
<path d="M46.0078 22.9875C54.2765 25.1718 45.0469 30.914 38.7187 31.3875C34.7672 31.6828 31.5234 31.139 32.7844 28.9406C34.1765 26.5218 42.464 22.0547 46.0078 22.9875Z" fill="url(#paint15_radial_101_5056)"/>
<path d="M45.9234 22.5469C54.1922 24.7313 44.9625 30.4735 38.6344 30.9469C34.6828 31.2422 31.4391 30.6985 32.7 28.5C34.0922 26.0813 42.3797 21.6094 45.9234 22.5469Z" fill="url(#paint16_radial_101_5056)"/>
<path d="M45.8813 22.95C53.3906 24.9329 44.6016 30.0375 38.85 30.4688C35.2594 30.7407 32.2734 30.4594 33.4172 28.4625C34.6781 26.2641 42.6609 22.1016 45.8813 22.95Z" fill="url(#paint17_linear_101_5056)"/>
</g>
<mask id="mask21_101_5056" style="mask-type:luminance" maskUnits="userSpaceOnUse" x="1" y="1" width="58" height="58">
<path d="M58.125 1.875H1.875V58.125H58.125V1.875Z" fill="white"/>
</mask>
<g mask="url(#mask21_101_5056)">
<path opacity="0.5" d="M49.1907 25.1952C49.1907 25.1952 61.0219 29.1374 51.8907 32.878C46.1204 35.2405 39.1219 38.2733 21.375 36.5108C17.7375 36.1499 8.29692 35.578 11.3063 32.7749C14.3157 29.9718 26.6672 25.4061 29.2641 25.0921C31.0172 24.8811 29.4375 26.4514 29.5735 27.1686C29.8219 28.4765 30.6938 29.0765 33.3094 28.3124C39.3282 26.5499 36.5344 28.7671 39.6422 28.9358C47.4235 29.3483 49.1907 25.1952 49.1907 25.1952Z" fill="#F9A01B"/>
</g>
<mask id="mask22_101_5056" style="mask-type:luminance" maskUnits="userSpaceOnUse" x="1" y="1" width="58" height="58">
<path d="M58.125 1.875H1.875V58.125H58.125V1.875Z" fill="white"/>
</mask>
<g mask="url(#mask22_101_5056)">
<path d="M52.0828 25.9735C59.85 29.55 49.7719 33.6141 43.4531 32.9907C39.5109 32.6016 36.4125 31.5047 38.0297 29.5594C39.8203 27.4125 48.7547 24.4407 52.0828 25.9735Z" fill="url(#paint18_radial_101_5056)"/>
<path d="M52.0734 25.5235C59.8406 29.1001 49.7625 33.1641 43.4437 32.5407C39.5015 32.1516 36.4031 31.0548 38.0203 29.1095C39.8109 26.9626 48.7453 23.9907 52.0734 25.5235Z" fill="url(#paint19_radial_101_5056)"/>
<path d="M51.9656 25.9126C59.0202 29.1611 49.4812 32.672 43.7437 32.1048C40.1624 31.7533 37.2656 30.9611 38.7374 29.1892C40.3593 27.2439 48.9374 24.5205 51.9656 25.9126Z" fill="url(#paint20_linear_101_5056)"/>
</g>
<mask id="mask23_101_5056" style="mask-type:luminance" maskUnits="userSpaceOnUse" x="1" y="1" width="58" height="58">
<path d="M58.125 1.875H1.875V58.125H58.125V1.875Z" fill="white"/>
</mask>
<g mask="url(#mask23_101_5056)">
<path d="M6.93281 32.8218C6.525 30.6233 8.73281 28.7202 12.0844 28.5468C15.4312 28.3733 20.4422 30.0468 20.5547 32.2687C20.6719 34.4905 15.9141 36.7405 12.5766 36.5671C9.02343 36.3796 7.29843 34.8046 6.93281 32.8218Z" fill="url(#paint21_radial_101_5056)"/>
<path d="M9.08904 32.5029C9.01873 31.1389 10.1953 29.9857 12.2484 29.8779C14.3015 29.7701 16.1578 30.6373 16.2281 32.0014C16.2984 33.3654 14.6015 34.692 12.5484 34.7998C10.4953 34.9076 9.15935 33.867 9.08904 32.5029Z" fill="url(#paint22_radial_101_5056)"/>
</g>
<mask id="mask24_101_5056" style="mask-type:luminance" maskUnits="userSpaceOnUse" x="1" y="1" width="58" height="58">
<path d="M58.125 1.875H1.875V58.125H58.125V1.875Z" fill="white"/>
</mask>
<g mask="url(#mask24_101_5056)">
<path d="M27.9468 35.4798C27.839 37.6501 24.8624 39.2673 21.2953 39.0938C17.7281 38.9204 14.9203 37.022 15.0234 34.8517C15.1312 32.6813 18.1078 31.0642 21.6749 31.2376C25.2421 31.411 28.0546 33.3142 27.9468 35.4798Z" fill="url(#paint23_radial_101_5056)"/>
</g>
<mask id="mask25_101_5056" style="mask-type:luminance" maskUnits="userSpaceOnUse" x="1" y="1" width="58" height="58">
<path d="M58.125 1.875H1.875V58.125H58.125V1.875Z" fill="white"/>
</mask>
<g mask="url(#mask25_101_5056)">
<path d="M42.8109 31.1813C42.7875 31.1953 42.7687 31.2141 42.7453 31.2328C42.1031 30.9235 41.2453 30.9891 40.5328 31.4813C39.5343 32.161 39.1968 33.3985 39.7687 34.2375C39.9562 34.5094 40.214 34.7063 40.514 34.8235C40.3781 35.325 40.4343 35.8407 40.7203 36.2625C41.2968 37.1016 42.5718 37.2329 43.5656 36.5532C44.339 36.0235 44.714 35.1657 44.5781 34.411C44.6859 34.3594 44.7937 34.2985 44.8968 34.2282C45.8953 33.5485 46.2328 32.311 45.6609 31.4719C45.0797 30.6282 43.8093 30.5016 42.8109 31.1813Z" fill="#568B3E"/>
<path d="M49.4062 32.4375C49.3781 32.4282 49.3547 32.4235 49.3266 32.4141C49.2 31.7157 48.6375 31.0641 47.8172 30.7735C46.6781 30.3704 45.4828 30.825 45.1406 31.786C45.0328 32.0953 45.0281 32.4235 45.1078 32.7329C44.625 32.9157 44.2406 33.2719 44.0719 33.75C43.7344 34.711 44.3812 35.8172 45.5203 36.2157C46.4016 36.525 47.3203 36.3235 47.8453 35.7657C47.9531 35.8219 48.0609 35.8735 48.1828 35.911C49.3219 36.3141 50.5172 35.8594 50.8594 34.8985C51.1922 33.9422 50.5453 32.8407 49.4062 32.4375Z" fill="#346A34"/>
<path d="M46.4672 29.2593C46.4391 29.2499 46.4156 29.2452 46.3875 29.2405C46.2328 28.5468 46.0219 27.8859 45.1922 27.6327C44.0391 27.2812 42.8578 27.7827 42.5625 28.7577C42.4641 29.0718 42.0938 29.428 42.1875 29.7374C41.7094 29.939 41.3438 30.3093 41.1938 30.7968C40.8938 31.7718 41.5875 32.8499 42.7453 33.2015C43.6406 33.4781 44.55 33.2343 45.0516 32.6577C45.1594 32.7093 45.2719 32.7562 45.3938 32.789C46.5469 33.1405 47.7281 32.639 48.0235 31.664C48.3141 30.689 47.6203 29.6155 46.4672 29.2593Z" fill="url(#paint24_radial_101_5056)"/>
</g>
<mask id="mask26_101_5056" style="mask-type:luminance" maskUnits="userSpaceOnUse" x="1" y="1" width="58" height="58">
<path d="M58.125 1.875H1.875V58.125H58.125V1.875Z" fill="white"/>
</mask>
<g mask="url(#mask26_101_5056)">
<path d="M51.0328 28.0736C51.0094 28.0877 50.9906 28.1064 50.9672 28.1252C50.325 27.8158 49.4672 27.8814 48.7547 28.3736C47.7563 29.0533 47.4188 30.2908 47.9906 31.1299C48.1781 31.4018 48.436 31.5986 48.736 31.7158C48.6 32.2174 48.6563 32.733 48.9422 33.1549C49.5188 33.9939 50.7938 34.1252 51.7875 33.4455C52.561 32.9158 52.936 32.058 52.8 31.3033C52.9078 31.2518 53.0156 31.1908 53.1188 31.1205C54.1172 30.4408 54.4547 29.2033 53.8828 28.3643C53.3016 27.5205 52.0313 27.3893 51.0328 28.0736Z" fill="#568B3E"/>
<path d="M54.811 27.8438C54.7829 27.8532 54.7594 27.8626 54.7313 27.8719C54.2063 27.3938 53.3625 27.2157 52.5375 27.4829C51.3891 27.8532 50.7141 28.9454 51.0282 29.911C51.1313 30.2251 51.3235 30.4876 51.5766 30.6844C51.3047 31.1251 51.211 31.6407 51.3704 32.1235C51.6844 33.0938 52.8704 33.5766 54.0188 33.2016C54.9094 32.911 55.5141 32.1938 55.5938 31.4344C55.711 31.4157 55.8329 31.3876 55.95 31.3501C57.0985 30.9797 57.7735 29.8876 57.4594 28.9219C57.1454 27.9516 55.9594 27.4688 54.811 27.8438Z" fill="#346A34"/>
<path d="M54.6891 26.1516C54.661 26.1423 54.6376 26.1376 54.6094 26.1329C54.4548 25.4391 54.2438 24.7782 53.4141 24.5251C52.261 24.1735 51.0798 24.6751 50.7844 25.6501C50.686 25.9641 50.3157 26.3204 50.4094 26.6298C49.9313 26.8313 49.5657 27.2016 49.4157 27.6891C49.1157 28.6641 49.8094 29.7423 50.9673 30.0938C51.8626 30.3704 52.7719 30.1266 53.2735 29.5501C53.3813 29.6016 53.4938 29.6485 53.6157 29.6813C54.7688 30.0329 55.9501 29.5313 56.2454 28.5563C56.536 27.5813 55.8423 26.5079 54.6891 26.1516Z" fill="url(#paint25_radial_101_5056)"/>
</g>
<mask id="mask27_101_5056" style="mask-type:luminance" maskUnits="userSpaceOnUse" x="1" y="1" width="58" height="58">
<path d="M58.125 1.875H1.875V58.125H58.125V1.875Z" fill="white"/>
</mask>
<g mask="url(#mask27_101_5056)">
<path d="M40.3546 34.5563C40.4062 36.7266 37.5562 38.5547 33.9843 38.6438C30.4125 38.7328 27.4734 37.0406 27.4218 34.8703C27.3703 32.7 30.2203 30.8719 33.7921 30.7828C37.364 30.6984 40.3031 32.3859 40.3546 34.5563Z" fill="url(#paint26_radial_101_5056)"/>
<path d="M36.8343 33.5062L34.514 34.0265C34.4531 34.0312 34.4062 34.078 34.3921 34.1343L33.9187 36.1077C33.8859 36.2437 33.6984 36.253 33.6515 36.1218L32.8827 34.0593C32.864 34.0124 32.8218 33.9749 32.7703 33.9702L30.5765 33.6937C30.4171 33.6749 30.4124 33.4452 30.5671 33.4171L32.8499 32.9905C32.9015 32.9812 32.9437 32.939 32.9577 32.8874L33.3327 31.4765C33.3656 31.3499 33.5343 31.3359 33.5952 31.4484L34.3452 32.9437C34.364 32.9859 34.4015 33.014 34.4484 33.0187L36.8531 33.1077C37.0781 33.1359 37.0687 33.478 36.8343 33.5062Z" fill="url(#paint27_radial_101_5056)"/>
</g>
<mask id="mask28_101_5056" style="mask-type:luminance" maskUnits="userSpaceOnUse" x="1" y="1" width="58" height="58">
<path d="M58.125 1.875H1.875V58.125H58.125V1.875Z" fill="white"/>
</mask>
<g mask="url(#mask28_101_5056)">
<path d="M24.5109 34.1766L22.1578 34.5235C22.0969 34.5282 22.0453 34.5657 22.0312 34.622L21.4125 36.5532C21.3703 36.6845 21.1828 36.6845 21.1453 36.5485L20.5266 34.4345C20.5125 34.3829 20.4703 34.3454 20.4187 34.336L18.2531 33.9001C18.0937 33.8673 18.1078 33.6423 18.2672 33.6235L20.5734 33.361C20.625 33.3563 20.6719 33.3188 20.6906 33.2673L21.1687 31.8845C21.2109 31.7626 21.3844 31.7579 21.4312 31.8751L22.0687 33.4173C22.0875 33.4595 22.1203 33.4876 22.1672 33.5016L24.5578 33.7641C24.7828 33.8298 24.75 34.1673 24.5109 34.1766Z" fill="url(#paint28_radial_101_5056)"/>
</g>
<mask id="mask29_101_5056" style="mask-type:luminance" maskUnits="userSpaceOnUse" x="1" y="1" width="58" height="58">
<path d="M58.125 1.875H1.875V58.125H58.125V1.875Z" fill="white"/>
</mask>
<g mask="url(#mask29_101_5056)">
<path d="M30.0188 36.2485C15.5578 36.2485 3.65626 32.5782 2.07657 27.8625C2.02032 28.0641 1.99688 28.2797 2.01094 28.5C2.41407 33.9563 5.5547 55.4672 30.075 55.4672C54.6 55.4672 57.7406 33.9516 58.1391 28.5C58.1625 28.2141 58.1156 27.9329 58.0125 27.675C56.7 32.4844 44.6719 36.2485 30.0188 36.2485Z" fill="url(#paint29_radial_101_5056)"/>
<path d="M39.4453 42.4265C39.9631 42.4265 40.3828 42.0068 40.3828 41.489C40.3828 40.9712 39.9631 40.5515 39.4453 40.5515C38.9275 40.5515 38.5078 40.9712 38.5078 41.489C38.5078 42.0068 38.9275 42.4265 39.4453 42.4265Z" fill="#A93023"/>
<path d="M20.6204 42.3516C21.1381 42.3516 21.5579 41.9318 21.5579 41.4141C21.5579 40.8963 21.1381 40.4766 20.6204 40.4766C20.1026 40.4766 19.6829 40.8963 19.6829 41.4141C19.6829 41.9318 20.1026 42.3516 20.6204 42.3516Z" fill="#BE3A26"/>
<path d="M29.9954 42.8579C30.5131 42.8579 30.9329 42.4382 30.9329 41.9204C30.9329 41.4026 30.5131 40.9829 29.9954 40.9829C29.4776 40.9829 29.0579 41.4026 29.0579 41.9204C29.0579 42.4382 29.4776 42.8579 29.9954 42.8579Z" fill="#BE3A26"/>
<path d="M47.3203 41.1562C47.7086 41.1562 48.0234 40.7365 48.0234 40.2188C48.0234 39.701 47.7086 39.2812 47.3203 39.2812C46.932 39.2812 46.6172 39.701 46.6172 40.2188C46.6172 40.7365 46.932 41.1562 47.3203 41.1562Z" fill="#8D372A"/>
<path d="M12.5859 41.0813C12.9743 41.0813 13.2891 40.6616 13.2891 40.1438C13.2891 39.626 12.9743 39.2063 12.5859 39.2063C12.1976 39.2063 11.8828 39.626 11.8828 40.1438C11.8828 40.6616 12.1976 41.0813 12.5859 41.0813Z" fill="#BE3A26"/>
<path d="M53.8125 38.9907C54.0714 38.9907 54.2812 38.571 54.2812 38.0532C54.2812 37.5355 54.0714 37.1157 53.8125 37.1157C53.5536 37.1157 53.3438 37.5355 53.3438 38.0532C53.3438 38.571 53.5536 38.9907 53.8125 38.9907Z" fill="#8D372A"/>
<path d="M5.9812 38.9158C6.24008 38.9158 6.44995 38.496 6.44995 37.9783C6.44995 37.4605 6.24008 37.0408 5.9812 37.0408C5.72232 37.0408 5.51245 37.4605 5.51245 37.9783C5.51245 38.496 5.72232 38.9158 5.9812 38.9158Z" fill="#BE3A26"/>
</g>
<mask id="mask30_101_5056" style="mask-type:luminance" maskUnits="userSpaceOnUse" x="1" y="1" width="58" height="58">
<path d="M58.125 1.875H1.875V58.125H58.125V1.875Z" fill="white"/>
</mask>
<g mask="url(#mask30_101_5056)">
<mask id="mask31_101_5056" style="mask-type:luminance" maskUnits="userSpaceOnUse" x="2" y="27" width="57" height="29">
<path d="M30.0188 36.2485C15.5578 36.2485 3.65626 32.5782 2.07657 27.8625C2.02032 28.0641 1.99688 28.2797 2.01094 28.5C2.41407 33.9563 5.5547 55.4672 30.075 55.4672C54.6 55.4672 57.7406 33.9516 58.1391 28.5C58.1625 28.2141 58.1156 27.9329 58.0125 27.675C56.7 32.4844 44.6719 36.2485 30.0188 36.2485Z" fill="white"/>
</mask>
<g mask="url(#mask31_101_5056)">
<path d="M2.57812 34.022C2.57812 34.022 9.14063 40.1157 30.2391 40.1157C51.3375 40.1157 57.7359 34.022 57.7359 34.022" stroke="#BE3A26" stroke-width="3" stroke-miterlimit="10" stroke-linecap="round" stroke-linejoin="round"/>
</g>
<mask id="mask32_101_5056" style="mask-type:luminance" maskUnits="userSpaceOnUse" x="2" y="27" width="57" height="29">
<path d="M30.0188 36.2485C15.5578 36.2485 3.65626 32.5782 2.07657 27.8625C2.02032 28.0641 1.99688 28.2797 2.01094 28.5C2.41407 33.9563 5.5547 55.4672 30.075 55.4672C54.6 55.4672 57.7406 33.9516 58.1391 28.5C58.1625 28.2141 58.1156 27.9329 58.0125 27.675C56.7 32.4844 44.6719 36.2485 30.0188 36.2485Z" fill="white"/>
</mask>
<g mask="url(#mask32_101_5056)">
<path d="M2.57812 37.5376C2.57812 37.5376 9.14063 43.6313 30.2391 43.6313C51.3375 43.6313 57.7359 37.5376 57.7359 37.5376" stroke="#BE3A26" stroke-width="3" stroke-miterlimit="10" stroke-linecap="round" stroke-linejoin="round"/>
</g>
</g>
<mask id="mask33_101_5056" style="mask-type:luminance" maskUnits="userSpaceOnUse" x="1" y="1" width="58" height="58">
<path d="M58.125 1.875H1.875V58.125H58.125V1.875Z" fill="white"/>
</mask>
<g mask="url(#mask33_101_5056)">
<path d="M29.9625 17.8501C14.461 17.8501 1.8938 22.0735 1.8938 27.286C1.8938 32.4985 14.461 36.722 29.9625 36.722C45.4641 36.722 58.0313 32.4985 58.0313 27.286C58.0266 22.0735 45.4594 17.8501 29.9625 17.8501ZM29.9625 35.4282C15.3141 35.4282 3.44067 31.6688 3.44067 27.0329C3.44067 22.397 15.3141 18.6376 29.9625 18.6376C44.611 18.6376 56.4844 22.397 56.4844 27.0329C56.4844 31.6688 44.611 35.4282 29.9625 35.4282Z" fill="url(#paint30_radial_101_5056)"/>
</g>
<mask id="mask34_101_5056" style="mask-type:luminance" maskUnits="userSpaceOnUse" x="1" y="1" width="58" height="58">
<path d="M58.125 1.875H1.875V58.125H58.125V1.875Z" fill="white"/>
</mask>
<g mask="url(#mask34_101_5056)">
<g opacity="0.2">
<path d="M30.0188 18.7454C37.3829 18.7454 44.2875 19.7016 49.4579 21.4407C53.9485 22.95 56.7375 25.0032 56.7375 26.7938C56.7375 26.8735 56.7375 27.0188 56.7422 27.1875C56.7469 27.5016 56.7516 28.2329 56.7422 28.3969C56.5547 30.9329 55.7157 37.4532 51.975 43.2704C47.3672 50.4329 39.9985 54.0657 30.0797 54.0657C20.161 54.0657 12.7922 50.4329 8.18442 43.2704C4.43911 37.4532 3.60005 30.9329 3.41255 28.3969C3.40786 28.35 3.40317 28.261 3.3938 28.1438C3.37036 27.8391 3.30005 27.0235 3.30005 26.7938C3.30005 25.0032 6.08911 22.95 10.5797 21.4407C15.75 19.7063 22.6547 18.7454 30.0188 18.7454ZM30.0188 17.3391C14.4844 17.3391 1.8938 21.5719 1.8938 26.7938C1.8938 27.1547 1.99692 28.2797 2.01099 28.5C2.41411 33.9563 5.55474 55.4672 30.0751 55.4672C54.6001 55.4672 57.7407 33.9516 58.1391 28.5C58.1625 28.2141 58.1391 27.0938 58.1391 26.7938C58.1438 21.5719 45.5532 17.3391 30.0188 17.3391Z" fill="#434343"/>
</g>
</g>
<mask id="mask35_101_5056" style="mask-type:luminance" maskUnits="userSpaceOnUse" x="1" y="1" width="58" height="58">
<path d="M58.125 1.875H1.875V58.125H58.125V1.875Z" fill="white"/>
</mask>
<g mask="url(#mask35_101_5056)">
<path d="M60.0328 5.77026L22.0547 5.9437C21.2766 5.94839 20.6391 5.32495 20.625 4.54683C20.6109 3.7687 21.2297 3.12183 22.0078 3.09839L59.9672 2.02026L60.0328 5.77026Z" fill="url(#paint31_linear_101_5056)"/>
</g>
<mask id="mask36_101_5056" style="mask-type:luminance" maskUnits="userSpaceOnUse" x="1" y="1" width="58" height="58">
<path d="M58.125 1.875H1.875V58.125H58.125V1.875Z" fill="white"/>
</mask>
<g mask="url(#mask36_101_5056)">
<g opacity="0.2">
<path d="M59.0438 2.9812L59.0766 4.83276L22.0454 5.0062C21.7829 5.0062 21.5625 4.79058 21.5579 4.52808C21.5532 4.26558 21.7688 4.04058 22.0313 4.03589L59.0438 2.9812ZM59.9625 2.02026L22.0032 3.09839C21.225 3.12183 20.6063 3.7687 20.6204 4.54683C20.6344 5.32495 21.2672 5.9437 22.0454 5.9437H22.05L60.0282 5.77026L59.9625 2.02026Z" fill="#434343"/>
</g>
</g>
<mask id="mask37_101_5056" style="mask-type:luminance" maskUnits="userSpaceOnUse" x="1" y="1" width="58" height="58">
<path d="M58.125 1.875H1.875V58.125H58.125V1.875Z" fill="white"/>
</mask>
<g mask="url(#mask37_101_5056)">
<path d="M25.5844 2.76573C23.6109 2.14698 23.1141 3.75479 23.1141 5.97667C23.1141 16.097 24.225 22.9501 22.9969 30.6985C22.9734 30.8345 23.9391 31.3642 24.7219 30.5439C26.0813 29.1235 25.0922 9.74542 25.0922 4.68292C25.0922 3.2626 26.0813 2.89229 26.0813 2.89229L25.5844 2.76573Z" fill="url(#paint32_linear_101_5056)"/>
</g>
<mask id="mask38_101_5056" style="mask-type:luminance" maskUnits="userSpaceOnUse" x="1" y="1" width="58" height="58">
<path d="M58.125 1.875H1.875V58.125H58.125V1.875Z" fill="white"/>
</mask>
<g mask="url(#mask38_101_5056)">
<path d="M29.2782 2.60149C28.5797 3.43586 28.8188 5.39055 28.7907 6.36555C28.7063 9.13118 28.7297 11.9062 28.7532 14.6718C28.7954 19.528 28.9688 24.3796 28.9876 29.2359C28.9922 30.0609 30.3563 29.7281 30.3516 28.9452C30.3376 24.5859 30.1829 20.2312 30.136 15.8718C30.1032 13.0874 30.0797 10.2984 30.136 7.5093C30.1547 6.63274 29.8969 3.84367 30.3891 3.25774C30.9704 2.5593 29.8079 1.97336 29.2782 2.60149Z" fill="url(#paint33_linear_101_5056)"/>
</g>
<mask id="mask39_101_5056" style="mask-type:luminance" maskUnits="userSpaceOnUse" x="1" y="1" width="58" height="58">
<path d="M58.125 1.875H1.875V58.125H58.125V1.875Z" fill="white"/>
</mask>
<g mask="url(#mask39_101_5056)">
<path d="M60 8.84055L22.0218 8.68118C21.2437 8.67649 20.6062 9.29993 20.5922 10.0781C20.5781 10.8562 21.1968 11.5031 21.975 11.5265L59.9343 12.5906L60 8.84055Z" fill="url(#paint34_linear_101_5056)"/>
</g>
<mask id="mask40_101_5056" style="mask-type:luminance" maskUnits="userSpaceOnUse" x="1" y="1" width="58" height="58">
<path d="M58.125 1.875H1.875V58.125H58.125V1.875Z" fill="white"/>
</mask>
<g mask="url(#mask40_101_5056)">
<g opacity="0.2">
<path d="M22.0125 9.61865L59.0438 9.77334L59.011 11.6249L21.9985 10.589C21.7313 10.5796 21.5203 10.3593 21.525 10.0968C21.5297 9.83428 21.7453 9.61865 22.0125 9.61865ZM22.0125 8.68115C21.2391 8.68115 20.6016 9.30459 20.5875 10.078C20.5735 10.8562 21.1922 11.503 21.9703 11.5265L59.9297 12.5905L59.9953 8.84053L22.0172 8.68115C22.0172 8.68115 22.0172 8.68115 22.0125 8.68115Z" fill="#434343"/>
</g>
</g>
<mask id="mask41_101_5056" style="mask-type:luminance" maskUnits="userSpaceOnUse" x="1" y="1" width="58" height="58">
<path d="M58.125 1.875H1.875V58.125H58.125V1.875Z" fill="white"/>
</mask>
<g mask="url(#mask41_101_5056)">
<path d="M30.3281 3.47817C30.9656 4.48599 30.7782 6.30942 30.8016 7.42974C30.8578 10.1016 30.7594 12.7829 30.6656 15.45C30.4875 20.6063 30.1781 25.7766 30.2625 30.9375C30.2766 31.8844 32.0297 31.2329 32.0157 30.361C31.9219 24.736 32.3063 19.1063 32.4703 13.4907C32.5406 11.1422 32.611 8.78442 32.5406 6.4313C32.5031 5.25474 32.6156 3.59536 31.9547 2.55005C31.4672 1.77192 29.8406 2.70474 30.3281 3.47817Z" fill="url(#paint35_linear_101_5056)"/>
</g>
<mask id="mask42_101_5056" style="mask-type:luminance" maskUnits="userSpaceOnUse" x="1" y="1" width="58" height="58">
<path d="M58.125 1.875H1.875V58.125H58.125V1.875Z" fill="white"/>
</mask>
<g mask="url(#mask42_101_5056)">
<path d="M27.4968 2.52197C25.3968 3.20166 25.9546 11.3485 26.0156 15.5438C26.0765 19.772 25.4953 26.311 25.3968 30.5438C25.3828 31.247 27.1124 31.2423 27.3093 30.4829C28.2374 26.9017 26.5124 3.72666 28.5468 3.40322C29.4515 3.25791 28.7953 2.46572 28.0499 2.5876L27.4968 2.52197Z" fill="url(#paint36_linear_101_5056)"/>
</g>
<path d="M8.7984 19.2797C8.30152 19.7906 7.45777 19.2422 7.72496 18.5813C8.59683 16.4297 9.21558 13.5563 7.9734 10.9172C6.3984 7.56563 7.79058 5.47969 9.07027 4.37813C9.50152 4.00782 10.1531 4.33125 10.1484 4.89844C10.1343 6.08907 10.5421 8.15625 12.2203 11.6813C13.3031 13.9453 10.9359 17.0813 8.7984 19.2797Z" fill="#E1F3F7"/>
<path d="M17.1609 23.6579C16.6641 24.1688 15.8203 23.6204 16.0875 22.9594C16.9594 20.8079 17.5781 17.9344 16.3359 15.2954C14.7609 11.9438 16.1531 9.85787 17.4328 8.7563C17.8641 8.38599 18.5156 8.70943 18.5109 9.27662C18.4969 10.4672 18.9047 12.5344 20.5828 16.0594C21.6656 18.3235 19.2984 21.4547 17.1609 23.6579Z" fill="#E1F3F7"/>
<defs>
<linearGradient id="paint0_linear_101_5056" x1="47.7285" y1="28.3549" x2="52.7159" y2="28.3549" gradientUnits="userSpaceOnUse">
<stop offset="0.225" stop-color="#8BC249"/>
<stop offset="0.9398" stop-color="#7CB342"/>
</linearGradient>
<radialGradient id="paint1_radial_101_5056" cx="0" cy="0" r="1" gradientUnits="userSpaceOnUse" gradientTransform="translate(19.348 25.7146) scale(36.3292 36.3292)">
<stop offset="0.3451" stop-color="#F5F5F5"/>
<stop offset="0.8524" stop-color="#E0E0E0"/>
</radialGradient>
<radialGradient id="paint2_radial_101_5056" cx="0" cy="0" r="1" gradientUnits="userSpaceOnUse" gradientTransform="translate(23.3812 56.4756) scale(8.7435 8.7435)">
<stop stop-color="#BDBDBD"/>
<stop offset="0.884" stop-color="#9D9D9D"/>
</radialGradient>
<radialGradient id="paint3_radial_101_5056" cx="0" cy="0" r="1" gradientUnits="userSpaceOnUse" gradientTransform="translate(30.2269 29.8181) scale(25.833 8.60497)">
<stop offset="0.0785" stop-color="#F78C1E"/>
<stop offset="0.9285" stop-color="#F9A01B"/>
</radialGradient>
<radialGradient id="paint4_radial_101_5056" cx="0" cy="0" r="1" gradientUnits="userSpaceOnUse" gradientTransform="translate(9.78062 26.6476) rotate(9.92921) scale(11.3804 7.16478)">
<stop offset="0.4485" stop-color="#FFF3E1"/>
<stop offset="1" stop-color="#FFE0B2"/>
</radialGradient>
<radialGradient id="paint5_radial_101_5056" cx="0" cy="0" r="1" gradientUnits="userSpaceOnUse" gradientTransform="translate(10.6242 28.4893) rotate(9.92921) scale(3.24098 2.04044)">
<stop stop-color="#F36E21"/>
<stop offset="1" stop-color="#FAAA43"/>
</radialGradient>
<radialGradient id="paint6_radial_101_5056" cx="0" cy="0" r="1" gradientUnits="userSpaceOnUse" gradientTransform="translate(34.7276 24.952) rotate(-19.0256) scale(9.27336 4.85339)">
<stop offset="0.1407" stop-color="#733619"/>
<stop offset="0.9247" stop-color="#8D401E"/>
</radialGradient>
<radialGradient id="paint7_radial_101_5056" cx="0" cy="0" r="1" gradientUnits="userSpaceOnUse" gradientTransform="translate(34.6838 24.5038) rotate(-19.0256) scale(9.27336 4.85339)">
<stop offset="0.3514" stop-color="#BB5B27"/>
<stop offset="1" stop-color="#8D401E"/>
</radialGradient>
<linearGradient id="paint8_linear_101_5056" x1="40.5211" y1="19.9585" x2="35.2937" y2="28.194" gradientUnits="userSpaceOnUse">
<stop offset="0.1326" stop-color="#C55833"/>
<stop offset="0.1631" stop-color="#CF6947"/>
<stop offset="0.1954" stop-color="#C65935"/>
<stop offset="0.4201" stop-color="#C55733"/>
<stop offset="0.4302" stop-color="#D67456"/>
<stop offset="0.4771" stop-color="#C3532E"/>
<stop offset="0.6515" stop-color="#C65A35"/>
<stop offset="0.7114" stop-color="#D67456"/>
<stop offset="0.7948" stop-color="#C55733"/>
<stop offset="0.9201" stop-color="#C55732"/>
<stop offset="0.9663" stop-color="#D06C4B"/>
<stop offset="1" stop-color="#C55732"/>
</linearGradient>
<radialGradient id="paint9_radial_101_5056" cx="0" cy="0" r="1" gradientUnits="userSpaceOnUse" gradientTransform="translate(40.8366 28.103) rotate(-21.4801) scale(9.2736 4.85411)">
<stop offset="0.1407" stop-color="#733619"/>
<stop offset="0.9247" stop-color="#8D401E"/>
</radialGradient>
<radialGradient id="paint10_radial_101_5056" cx="0" cy="0" r="1" gradientUnits="userSpaceOnUse" gradientTransform="translate(40.7737 27.657) rotate(-21.4801) scale(9.2736 4.85411)">
<stop offset="0.3514" stop-color="#BB5B27"/>
<stop offset="1" stop-color="#8D401E"/>
</radialGradient>
<linearGradient id="paint11_linear_101_5056" x1="46.4096" y1="22.8638" x2="41.5398" y2="31.3159" gradientUnits="userSpaceOnUse">
<stop offset="0.1326" stop-color="#C55833"/>
<stop offset="0.1631" stop-color="#CF6947"/>
<stop offset="0.1954" stop-color="#C65935"/>
<stop offset="0.4201" stop-color="#C55733"/>
<stop offset="0.4302" stop-color="#D67456"/>
<stop offset="0.4771" stop-color="#C3532E"/>
<stop offset="0.6515" stop-color="#C65A35"/>
<stop offset="0.7114" stop-color="#D67456"/>
<stop offset="0.7948" stop-color="#C55733"/>
<stop offset="0.9201" stop-color="#C55732"/>
<stop offset="0.9663" stop-color="#D06C4B"/>
<stop offset="1" stop-color="#C55732"/>
</linearGradient>
<radialGradient id="paint12_radial_101_5056" cx="0" cy="0" r="1" gradientUnits="userSpaceOnUse" gradientTransform="translate(44.5015 30.7244) rotate(-24.6251) scale(9.27357 4.85359)">
<stop offset="0.1407" stop-color="#733619"/>
<stop offset="0.9247" stop-color="#8D401E"/>
</radialGradient>
<radialGradient id="paint13_radial_101_5056" cx="0" cy="0" r="1" gradientUnits="userSpaceOnUse" gradientTransform="translate(44.4141 30.2827) rotate(-24.6251) scale(9.27357 4.85359)">
<stop stop-color="#8D401E"/>
<stop offset="0.6486" stop-color="#BB5B27"/>
</radialGradient>
<linearGradient id="paint14_linear_101_5056" x1="54.2457" y1="27.8759" x2="40.2271" y2="33.9147" gradientUnits="userSpaceOnUse">
<stop offset="0.1326" stop-color="#C55833"/>
<stop offset="0.1631" stop-color="#CF6947"/>
<stop offset="0.1954" stop-color="#C65935"/>
<stop offset="0.4201" stop-color="#C55733"/>
<stop offset="0.4302" stop-color="#D67456"/>
<stop offset="0.4771" stop-color="#C3532E"/>
<stop offset="0.6515" stop-color="#C65A35"/>
<stop offset="0.7114" stop-color="#D67456"/>
<stop offset="0.7948" stop-color="#C55733"/>
<stop offset="0.9201" stop-color="#C55732"/>
<stop offset="0.9663" stop-color="#D06C4B"/>
<stop offset="1" stop-color="#C55732"/>
</linearGradient>
<radialGradient id="paint15_radial_101_5056" cx="0" cy="0" r="1" gradientUnits="userSpaceOnUse" gradientTransform="translate(38.7758 26.6641) rotate(-24.6251) scale(9.27357 4.85359)">
<stop offset="0.1407" stop-color="#733619"/>
<stop offset="0.9247" stop-color="#8D401E"/>
</radialGradient>
<radialGradient id="paint16_radial_101_5056" cx="0" cy="0" r="1" gradientUnits="userSpaceOnUse" gradientTransform="translate(38.6884 26.2224) rotate(-24.6251) scale(9.27357 4.85359)">
<stop offset="0.3514" stop-color="#BB5B27"/>
<stop offset="1" stop-color="#8D401E"/>
</radialGradient>
<linearGradient id="paint17_linear_101_5056" x1="48.5203" y1="23.8154" x2="34.5017" y2="29.8542" gradientUnits="userSpaceOnUse">
<stop offset="0.1326" stop-color="#C55833"/>
<stop offset="0.1631" stop-color="#CF6947"/>
<stop offset="0.1954" stop-color="#C65935"/>
<stop offset="0.4201" stop-color="#C55733"/>
<stop offset="0.4302" stop-color="#D67456"/>
<stop offset="0.4771" stop-color="#C3532E"/>
<stop offset="0.6515" stop-color="#C65A35"/>
<stop offset="0.7114" stop-color="#D67456"/>
<stop offset="0.7948" stop-color="#C55733"/>
<stop offset="0.9201" stop-color="#C55732"/>
<stop offset="0.9663" stop-color="#D06C4B"/>
<stop offset="1" stop-color="#C55732"/>
</linearGradient>
<radialGradient id="paint18_radial_101_5056" cx="0" cy="0" r="1" gradientUnits="userSpaceOnUse" gradientTransform="translate(44.3245 28.3482) rotate(-14.6908) scale(9.27301 4.85378)">
<stop offset="0.1407" stop-color="#733619"/>
<stop offset="0.9247" stop-color="#8D401E"/>
</radialGradient>
<radialGradient id="paint19_radial_101_5056" cx="0" cy="0" r="1" gradientUnits="userSpaceOnUse" gradientTransform="translate(44.3147 27.8979) rotate(-14.6908) scale(9.27301 4.85378)">
<stop offset="0.3514" stop-color="#BB5B27"/>
<stop offset="1" stop-color="#8D401E"/>
</radialGradient>
<linearGradient id="paint20_linear_101_5056" x1="54.414" y1="27.221" x2="39.5639" y2="30.751" gradientUnits="userSpaceOnUse">
<stop offset="0.1326" stop-color="#C55833"/>
<stop offset="0.1631" stop-color="#CF6947"/>
<stop offset="0.1954" stop-color="#C65935"/>
<stop offset="0.4201" stop-color="#C55733"/>
<stop offset="0.4302" stop-color="#D67456"/>
<stop offset="0.4771" stop-color="#C3532E"/>
<stop offset="0.6515" stop-color="#C65A35"/>
<stop offset="0.7114" stop-color="#D67456"/>
<stop offset="0.7948" stop-color="#C55733"/>
<stop offset="0.9201" stop-color="#C55732"/>
<stop offset="0.9663" stop-color="#D06C4B"/>
<stop offset="1" stop-color="#C55732"/>
</linearGradient>
<radialGradient id="paint21_radial_101_5056" cx="0" cy="0" r="1" gradientUnits="userSpaceOnUse" gradientTransform="translate(11.6727 30.0821) rotate(14.1464) scale(11.6086 9.46149)">
<stop offset="0.4485" stop-color="#FFF3E1"/>
<stop offset="1" stop-color="#FFE0B2"/>
</radialGradient>
<radialGradient id="paint22_radial_101_5056" cx="0" cy="0" r="1" gradientUnits="userSpaceOnUse" gradientTransform="translate(12.5511 32.5756) rotate(14.1464) scale(3.30597 2.69451)">
<stop stop-color="#F36E21"/>
<stop offset="1" stop-color="#FAAA43"/>
</radialGradient>
<radialGradient id="paint23_radial_101_5056" cx="0" cy="0" r="1" gradientUnits="userSpaceOnUse" gradientTransform="translate(21.3359 33.2947) rotate(1.77076) scale(6.49068 3.84051)">
<stop offset="0.1977" stop-color="#8D6E63"/>
<stop offset="0.8299" stop-color="#6D4D42"/>
</radialGradient>
<radialGradient id="paint24_radial_101_5056" cx="0" cy="0" r="1" gradientUnits="userSpaceOnUse" gradientTransform="translate(44.604 30.415) scale(3.20348)">
<stop offset="0.3976" stop-color="#8BC249"/>
<stop offset="0.9398" stop-color="#7CB342"/>
</radialGradient>
<radialGradient id="paint25_radial_101_5056" cx="0" cy="0" r="1" gradientUnits="userSpaceOnUse" gradientTransform="translate(52.8258 27.3069) scale(3.20348)">
<stop offset="0.3976" stop-color="#8BC249"/>
<stop offset="0.9398" stop-color="#7CB342"/>
</radialGradient>
<radialGradient id="paint26_radial_101_5056" cx="0" cy="0" r="1" gradientUnits="userSpaceOnUse" gradientTransform="translate(33.6018 32.8584) rotate(-2.39) scale(6.49063 3.84073)">
<stop offset="0.1977" stop-color="#8D6E63"/>
<stop offset="0.8299" stop-color="#6D4D42"/>
</radialGradient>
<radialGradient id="paint27_radial_101_5056" cx="0" cy="0" r="1" gradientUnits="userSpaceOnUse" gradientTransform="translate(33.7456 33.3647) rotate(11.6189) scale(2.8031)">
<stop offset="0.1134" stop-color="#FECC81"/>
<stop offset="0.8178" stop-color="#FAA629"/>
</radialGradient>
<radialGradient id="paint28_radial_101_5056" cx="0" cy="0" r="1" gradientUnits="userSpaceOnUse" gradientTransform="translate(21.4422 33.8136) rotate(15.7833) scale(2.80313)">
<stop offset="0.1134" stop-color="#FECC81"/>
<stop offset="0.8178" stop-color="#FAA629"/>
</radialGradient>
<radialGradient id="paint29_radial_101_5056" cx="0" cy="0" r="1" gradientUnits="userSpaceOnUse" gradientTransform="translate(21.0468 38.0874) rotate(6.14785) scale(33.5646 23.5758)">
<stop offset="0.2291" stop-color="#F5F5F5"/>
<stop offset="0.8173" stop-color="#BDBDBD"/>
<stop offset="0.9733" stop-color="#E0E0E0"/>
</radialGradient>
<radialGradient id="paint30_radial_101_5056" cx="0" cy="0" r="1" gradientUnits="userSpaceOnUse" gradientTransform="translate(19.3117 26.2053) scale(36.2535 36.2535)">
<stop offset="0.3451" stop-color="#F5F5F5"/>
<stop offset="0.8524" stop-color="#E0E0E0"/>
</radialGradient>
<linearGradient id="paint31_linear_101_5056" x1="40.3267" y1="2.43951" x2="40.3267" y2="6.43383" gradientUnits="userSpaceOnUse">
<stop offset="0.3477" stop-color="#795649"/>
<stop offset="0.8524" stop-color="#5D4137"/>
</linearGradient>
<linearGradient id="paint32_linear_101_5056" x1="24.5358" y1="3.8169" x2="24.5358" y2="26.099" gradientUnits="userSpaceOnUse">
<stop offset="0.2141" stop-color="#FECC81"/>
<stop offset="1" stop-color="#FAA629"/>
</linearGradient>
<linearGradient id="paint33_linear_101_5056" x1="29.638" y1="11.8405" x2="29.638" y2="26.9703" gradientUnits="userSpaceOnUse">
<stop offset="0.5446" stop-color="#FECC81"/>
<stop offset="1" stop-color="#FAA629"/>
</linearGradient>
<linearGradient id="paint34_linear_101_5056" x1="40.2957" y1="8.27341" x2="40.2957" y2="11.973" gradientUnits="userSpaceOnUse">
<stop offset="0.3477" stop-color="#795649"/>
<stop offset="0.8524" stop-color="#5D4137"/>
</linearGradient>
<linearGradient id="paint35_linear_101_5056" x1="31.4064" y1="11.8406" x2="31.4064" y2="26.9705" gradientUnits="userSpaceOnUse">
<stop offset="0.6169" stop-color="#FECC81"/>
<stop offset="1" stop-color="#FAA629"/>
</linearGradient>
<linearGradient id="paint36_linear_101_5056" x1="27.194" y1="8.13741" x2="27.194" y2="28.5265" gradientUnits="userSpaceOnUse">
<stop offset="0.2141" stop-color="#FECC81"/>
<stop offset="1" stop-color="#FAA629"/>
</linearGradient>
</defs>
</svg>
